<?xml version="1.0" encoding="UTF-8"?>
<svg xmlns="http://www.w3.org/2000/svg" xmlns:xlink="http://www.w3.org/1999/xlink" width="39px" height="56px" viewBox="0 0 39 55" version="1.1">
<g id="surface1">
<path style=" stroke:none;fill-rule:nonzero;fill:rgb(65.098039%,11.764706%,19.607843%);fill-opacity:1;" d="M 8.457031 7.433594 L 8.457031 8.292969 L 18.589844 8.292969 L 18.589844 6.851562 L 9.046875 6.851562 C 8.71875 6.847656 8.457031 7.109375 8.457031 7.433594 Z M 8.457031 7.433594 "/>
<path style=" stroke:none;fill-rule:nonzero;fill:rgb(65.098039%,11.764706%,19.607843%);fill-opacity:1;" d="M 22.125 6.847656 L 22.125 8.289062 L 31.671875 8.289062 C 31.996094 8.289062 32.265625 8.027344 32.265625 7.699219 L 32.265625 6.84375 L 22.125 6.84375 Z M 22.125 6.847656 "/>
<path style=" stroke:none;fill-rule:nonzero;fill:rgb(65.098039%,11.764706%,19.607843%);fill-opacity:1;" d="M 10.597656 30.09375 L 10.597656 30.949219 L 20.328125 30.949219 L 20.328125 29.511719 L 11.195312 29.511719 C 10.867188 29.503906 10.597656 29.769531 10.597656 30.09375 Z M 10.597656 30.09375 "/>
<path style=" stroke:none;fill-rule:nonzero;fill:rgb(65.098039%,11.764706%,19.607843%);fill-opacity:1;" d="M 22.039062 29.503906 L 22.039062 30.945312 L 29.433594 30.945312 C 29.761719 30.945312 30.03125 30.683594 30.03125 30.359375 L 30.03125 29.5 L 22.039062 29.5 Z M 22.039062 29.503906 "/>
<path style=" stroke:none;fill-rule:nonzero;fill:rgb(65.098039%,11.764706%,19.607843%);fill-opacity:1;" d="M 22.039062 33.679688 L 22.039062 35.117188 L 28.425781 35.117188 C 28.75 35.117188 29.019531 34.855469 29.019531 34.53125 L 29.019531 33.675781 L 22.039062 33.675781 Z M 22.039062 33.679688 "/>
<path style=" stroke:none;fill-rule:nonzero;fill:rgb(65.098039%,11.764706%,19.607843%);fill-opacity:1;" d="M 11.613281 34.265625 L 11.613281 35.121094 L 18.59375 35.121094 L 18.59375 33.683594 L 12.203125 33.683594 C 11.875 33.679688 11.613281 33.9375 11.613281 34.265625 Z M 11.613281 34.265625 "/>
<path style=" stroke:none;fill-rule:nonzero;fill:rgb(65.098039%,11.764706%,19.607843%);fill-opacity:1;" d="M 22.039062 37.679688 L 22.039062 39.121094 L 29.433594 39.121094 C 29.761719 39.121094 30.03125 38.859375 30.03125 38.53125 L 30.03125 37.675781 L 22.039062 37.675781 Z M 22.039062 37.679688 "/>
<path style=" stroke:none;fill-rule:nonzero;fill:rgb(65.098039%,11.764706%,19.607843%);fill-opacity:1;" d="M 10.597656 38.269531 L 10.597656 39.125 L 18.589844 39.125 L 18.589844 37.683594 L 11.195312 37.683594 C 10.867188 37.679688 10.597656 37.945312 10.597656 38.269531 Z M 10.597656 38.269531 "/>
<path style=" stroke:none;fill-rule:nonzero;fill:rgb(65.098039%,11.764706%,19.607843%);fill-opacity:1;" d="M 18.589844 42.054688 L 9.183594 42.054688 C 8.871094 42.054688 8.617188 42.316406 8.617188 42.640625 L 8.617188 43.492188 L 18.128906 43.492188 L 18.128906 43.480469 C 18.539062 43.003906 18.589844 42.054688 18.589844 42.054688 Z M 18.589844 42.054688 "/>
<path style=" stroke:none;fill-rule:nonzero;fill:rgb(65.098039%,11.764706%,19.607843%);fill-opacity:1;" d="M 20.351562 42.050781 L 20.351562 43.492188 L 31.984375 43.492188 C 32.3125 43.492188 32.582031 43.230469 32.582031 42.902344 L 32.582031 42.046875 L 20.351562 42.046875 Z M 20.351562 42.050781 "/>
<path style=" stroke:none;fill-rule:nonzero;fill:rgb(65.098039%,11.764706%,19.607843%);fill-opacity:1;" d="M 32.378906 20.136719 C 31.617188 20.234375 30.457031 20.316406 29.75 20.308594 C 24.957031 20.234375 21.054688 16.261719 21.054688 11.453125 L 21.054688 0.601562 C 21.054688 0.335938 20.839844 0.121094 20.570312 0.121094 L 20.082031 0.121094 C 19.816406 0.121094 19.597656 0.335938 19.597656 0.601562 L 19.597656 11.453125 C 19.597656 16.265625 15.695312 20.234375 10.902344 20.308594 C 10.34375 20.316406 9.757812 20.292969 9.164062 20.230469 C 8.898438 20.207031 8.660156 20.382812 8.625 20.644531 L 8.496094 21.601562 C 9.246094 21.703125 9.984375 21.746094 10.691406 21.746094 C 10.769531 21.746094 10.847656 21.746094 10.925781 21.746094 C 15.175781 21.679688 18.824219 18.984375 20.324219 15.234375 C 21.820312 18.984375 25.46875 21.679688 29.71875 21.746094 C 29.800781 21.746094 29.878906 21.746094 29.957031 21.746094 C 30.660156 21.746094 31.621094 21.667969 32.371094 21.574219 L 32.371094 20.136719 Z M 32.378906 20.136719 "/>
<path style=" stroke:none;fill-rule:nonzero;fill:rgb(65.098039%,11.764706%,19.607843%);fill-opacity:1;" d="M 8.507812 51.207031 L 8.40625 50.246094 C 8.375 49.984375 8.5625 49.753906 8.828125 49.71875 C 14.492188 48.953125 19.542969 45.316406 19.542969 41.914062 L 19.617188 29.503906 L 21.078125 29.515625 L 21.003906 41.921875 C 21.003906 44.082031 19.597656 46.265625 17.042969 48.070312 C 14.679688 49.738281 11.570312 50.882812 8.507812 51.207031 Z M 8.507812 51.207031 "/>
<path style=" stroke:none;fill-rule:nonzero;fill:rgb(65.098039%,11.764706%,19.607843%);fill-opacity:1;" d="M 31.445312 51.144531 C 24.015625 51.144531 20.886719 45.769531 20.75 45.53125 L 22.023438 44.828125 C 22.152344 45.042969 25.09375 50.035156 32.140625 49.691406 C 32.402344 49.679688 32.632812 49.867188 32.65625 50.128906 L 32.734375 51.09375 C 32.289062 51.128906 31.859375 51.144531 31.445312 51.144531 Z M 31.445312 51.144531 "/>
<path style=" stroke:none;fill-rule:nonzero;fill:rgb(65.098039%,11.764706%,19.607843%);fill-opacity:1;" d="M 12.761719 25.949219 L 13.453125 25.949219 C 13.640625 25.949219 13.8125 26.058594 13.894531 26.226562 L 15.507812 29.621094 L 14.050781 29.621094 L 12.5 26.359375 C 12.40625 26.167969 12.546875 25.949219 12.761719 25.949219 Z M 12.761719 25.949219 "/>
<path style=" stroke:none;fill-rule:nonzero;fill:rgb(65.098039%,11.764706%,19.607843%);fill-opacity:1;" d="M 27.878906 25.949219 L 27.1875 25.949219 C 27 25.949219 26.828125 26.058594 26.746094 26.226562 L 25.132812 29.621094 L 26.59375 29.621094 L 28.140625 26.359375 C 28.238281 26.167969 28.09375 25.949219 27.878906 25.949219 Z M 27.878906 25.949219 "/>
<path style=" stroke:none;fill-rule:nonzero;fill:rgb(65.098039%,11.764706%,19.607843%);fill-opacity:1;" d="M 0.34375 1.488281 L 2.765625 1.488281 C 2.78125 1.714844 2.796875 1.988281 2.789062 2.238281 C 2.765625 2.796875 2.535156 3.097656 2.246094 3.253906 C 2.046875 3.363281 1.816406 3.386719 1.550781 3.386719 C 1.257812 3.386719 0.992188 3.335938 0.78125 3.1875 C 0.503906 2.992188 0.339844 2.675781 0.324219 2.214844 C 0.316406 1.96875 0.328125 1.730469 0.34375 1.488281 Z M 1.558594 3.03125 C 2.269531 3.03125 2.558594 2.742188 2.558594 2.113281 C 2.558594 2.023438 2.554688 1.917969 2.542969 1.824219 L 0.570312 1.824219 C 0.546875 1.910156 0.546875 2.003906 0.546875 2.09375 C 0.546875 2.738281 0.859375 3.03125 1.558594 3.03125 Z M 1.558594 3.03125 "/>
<path style=" stroke:none;fill-rule:nonzero;fill:rgb(65.098039%,11.764706%,19.607843%);fill-opacity:1;" d="M 0.550781 5.117188 C 0.390625 5.023438 0.289062 4.839844 0.28125 4.59375 C 0.261719 4.097656 0.550781 3.957031 0.832031 3.96875 C 1.140625 3.976562 1.375 4.226562 1.398438 4.777344 C 1.402344 4.910156 1.402344 5.011719 1.386719 5.089844 L 1.515625 5.089844 C 1.8125 5.089844 1.929688 4.972656 1.929688 4.738281 C 1.929688 4.527344 1.804688 4.277344 1.6875 4.101562 L 1.925781 4.101562 C 2.015625 4.277344 2.113281 4.527344 2.117188 4.753906 C 2.128906 5.15625 1.898438 5.40625 1.515625 5.40625 L 0.699219 5.40625 C 0.601562 5.410156 0.421875 5.425781 0.324219 5.445312 L 0.324219 5.140625 C 0.410156 5.125 0.472656 5.121094 0.550781 5.117188 Z M 1.210938 4.796875 C 1.203125 4.527344 1.101562 4.28125 0.84375 4.277344 C 0.632812 4.273438 0.488281 4.390625 0.488281 4.628906 C 0.488281 4.769531 0.503906 4.871094 0.609375 4.976562 C 0.738281 5.089844 0.867188 5.09375 1.003906 5.097656 L 1.195312 5.097656 C 1.214844 5.023438 1.214844 4.910156 1.210938 4.796875 Z M 1.210938 4.796875 "/>
<path style=" stroke:none;fill-rule:nonzero;fill:rgb(65.098039%,11.764706%,19.607843%);fill-opacity:1;" d="M 2.066406 6.089844 L 2.066406 6.375 L 1.75 6.375 C 1.871094 6.402344 2.117188 6.566406 2.121094 6.839844 C 2.125 7.144531 1.980469 7.34375 1.726562 7.40625 C 1.917969 7.472656 2.121094 7.648438 2.121094 7.910156 C 2.121094 8.332031 1.894531 8.519531 1.476562 8.519531 L 0.320312 8.519531 L 0.320312 8.207031 L 1.449219 8.207031 C 1.722656 8.207031 1.902344 8.121094 1.902344 7.855469 C 1.902344 7.578125 1.621094 7.460938 1.378906 7.460938 L 0.320312 7.460938 L 0.320312 7.148438 L 1.429688 7.148438 C 1.691406 7.148438 1.90625 7.050781 1.90625 6.777344 C 1.90625 6.53125 1.628906 6.402344 1.390625 6.402344 L 0.324219 6.402344 L 0.324219 6.089844 Z M 2.066406 6.089844 "/>
<path style=" stroke:none;fill-rule:nonzero;fill:rgb(65.098039%,11.764706%,19.607843%);fill-opacity:1;" d="M 0.550781 10.273438 C 0.390625 10.179688 0.289062 9.996094 0.28125 9.75 C 0.261719 9.253906 0.550781 9.113281 0.832031 9.125 C 1.140625 9.136719 1.375 9.382812 1.398438 9.933594 C 1.402344 10.066406 1.402344 10.167969 1.386719 10.246094 L 1.515625 10.246094 C 1.8125 10.246094 1.929688 10.128906 1.929688 9.894531 C 1.929688 9.683594 1.804688 9.433594 1.6875 9.257812 L 1.925781 9.257812 C 2.015625 9.433594 2.113281 9.683594 2.117188 9.914062 C 2.128906 10.3125 1.898438 10.5625 1.515625 10.5625 L 0.699219 10.5625 C 0.601562 10.566406 0.421875 10.582031 0.324219 10.601562 L 0.324219 10.296875 C 0.410156 10.277344 0.472656 10.273438 0.550781 10.273438 Z M 1.210938 9.949219 C 1.203125 9.679688 1.101562 9.433594 0.84375 9.429688 C 0.632812 9.425781 0.488281 9.542969 0.488281 9.78125 C 0.488281 9.921875 0.503906 10.023438 0.609375 10.128906 C 0.738281 10.242188 0.867188 10.246094 1.003906 10.25 L 1.195312 10.25 C 1.214844 10.175781 1.214844 10.0625 1.210938 9.949219 Z M 1.210938 9.949219 "/>
<path style=" stroke:none;fill-rule:nonzero;fill:rgb(65.098039%,11.764706%,19.607843%);fill-opacity:1;" d="M 2.066406 11.292969 L 2.066406 11.605469 L 0.324219 11.605469 L 0.324219 11.292969 Z M 2.65625 11.25 C 2.761719 11.25 2.847656 11.339844 2.847656 11.449219 C 2.847656 11.5625 2.761719 11.648438 2.65625 11.648438 C 2.550781 11.648438 2.460938 11.5625 2.460938 11.449219 C 2.457031 11.339844 2.550781 11.25 2.65625 11.25 Z M 2.65625 11.25 "/>
<path style=" stroke:none;fill-rule:nonzero;fill:rgb(65.098039%,11.764706%,19.607843%);fill-opacity:1;" d="M 1.214844 12.273438 C 1.714844 12.28125 2.125 12.613281 2.125 13.09375 C 2.121094 13.605469 1.703125 13.851562 1.335938 13.851562 C 1.28125 13.859375 1.234375 13.847656 1.179688 13.839844 L 1.179688 12.613281 C 0.75 12.613281 0.464844 12.765625 0.449219 13.144531 C 0.441406 13.390625 0.519531 13.578125 0.65625 13.742188 L 0.402344 13.742188 C 0.320312 13.632812 0.261719 13.429688 0.261719 13.132812 C 0.261719 12.621094 0.5625 12.265625 1.214844 12.273438 Z M 1.355469 13.507812 C 1.625 13.515625 1.949219 13.339844 1.949219 13.066406 C 1.949219 12.777344 1.625 12.628906 1.355469 12.621094 Z M 1.355469 13.507812 "/>
<path style=" stroke:none;fill-rule:nonzero;fill:rgb(65.098039%,11.764706%,19.607843%);fill-opacity:1;" d="M 2.605469 16.765625 C 2.605469 16.265625 2.097656 16.078125 1.5625 16.074219 C 1.039062 16.066406 0.511719 16.234375 0.511719 16.8125 C 0.511719 17.078125 0.621094 17.253906 0.742188 17.390625 L 0.441406 17.390625 C 0.332031 17.261719 0.273438 17.046875 0.273438 16.734375 C 0.273438 16.03125 0.851562 15.714844 1.558594 15.71875 C 2.292969 15.726562 2.835938 16.058594 2.835938 16.734375 C 2.835938 16.960938 2.78125 17.207031 2.671875 17.390625 L 2.34375 17.390625 C 2.476562 17.265625 2.605469 17.003906 2.605469 16.765625 Z M 2.605469 16.765625 "/>
<path style=" stroke:none;fill-rule:nonzero;fill:rgb(65.098039%,11.764706%,19.607843%);fill-opacity:1;" d="M 0.898438 18.347656 C 0.671875 18.347656 0.476562 18.429688 0.476562 18.707031 C 0.476562 19.0625 0.789062 19.179688 1.09375 19.179688 L 2.0625 19.179688 L 2.0625 19.488281 L 0.320312 19.488281 L 0.320312 19.203125 L 0.644531 19.203125 C 0.488281 19.152344 0.269531 18.929688 0.269531 18.621094 C 0.269531 18.234375 0.5 18.035156 0.863281 18.035156 L 2.066406 18.035156 L 2.066406 18.34375 L 0.898438 18.34375 Z M 0.898438 18.347656 "/>
<path style=" stroke:none;fill-rule:nonzero;fill:rgb(65.098039%,11.764706%,19.607843%);fill-opacity:1;" d="M 0.347656 20.332031 C 0.421875 20.242188 0.535156 20.195312 0.78125 20.195312 L 2.894531 20.195312 L 2.894531 20.507812 L 0.804688 20.507812 C 0.550781 20.507812 0.476562 20.527344 0.476562 20.679688 C 0.476562 20.734375 0.492188 20.800781 0.523438 20.863281 L 0.320312 20.863281 C 0.25 20.699219 0.242188 20.460938 0.347656 20.332031 Z M 0.347656 20.332031 "/>
<path style=" stroke:none;fill-rule:nonzero;fill:rgb(65.098039%,11.764706%,19.607843%);fill-opacity:1;" d="M 0.277344 21.945312 C 0.277344 21.726562 0.34375 21.628906 0.4375 21.570312 C 0.542969 21.5 0.667969 21.480469 0.820312 21.480469 L 1.875 21.480469 L 1.875 21.207031 L 2.0625 21.207031 L 2.0625 21.480469 L 2.53125 21.480469 L 2.53125 21.789062 L 2.0625 21.789062 L 2.0625 22.195312 L 1.875 22.195312 L 1.875 21.789062 L 0.808594 21.789062 C 0.621094 21.789062 0.480469 21.800781 0.480469 22.015625 C 0.480469 22.082031 0.492188 22.132812 0.53125 22.207031 L 0.332031 22.207031 C 0.289062 22.132812 0.277344 22.03125 0.277344 21.945312 Z M 0.277344 21.945312 "/>
<path style=" stroke:none;fill-rule:nonzero;fill:rgb(65.098039%,11.764706%,19.607843%);fill-opacity:1;" d="M 0.898438 23.082031 C 0.671875 23.082031 0.476562 23.167969 0.476562 23.441406 C 0.476562 23.800781 0.789062 23.914062 1.09375 23.914062 L 2.0625 23.914062 L 2.0625 24.226562 L 0.320312 24.226562 L 0.320312 23.941406 L 0.644531 23.941406 C 0.488281 23.886719 0.269531 23.667969 0.269531 23.355469 C 0.269531 22.96875 0.5 22.769531 0.863281 22.769531 L 2.066406 22.769531 L 2.066406 23.078125 L 0.898438 23.078125 Z M 0.898438 23.082031 "/>
<path style=" stroke:none;fill-rule:nonzero;fill:rgb(65.098039%,11.764706%,19.607843%);fill-opacity:1;" d="M 2.066406 24.941406 L 2.066406 25.226562 C 1.949219 25.222656 1.800781 25.222656 1.691406 25.21875 C 1.933594 25.296875 2.097656 25.476562 2.113281 25.65625 C 2.121094 25.714844 2.121094 25.777344 2.105469 25.835938 L 1.792969 25.835938 C 1.835938 25.738281 1.835938 25.679688 1.804688 25.597656 C 1.695312 25.308594 1.417969 25.25 1.234375 25.25 L 0.324219 25.25 L 0.324219 24.941406 Z M 2.066406 24.941406 "/>
<path style=" stroke:none;fill-rule:nonzero;fill:rgb(65.098039%,11.764706%,19.607843%);fill-opacity:1;" d="M 1.214844 26.21875 C 1.714844 26.226562 2.125 26.558594 2.125 27.035156 C 2.121094 27.550781 1.703125 27.796875 1.335938 27.796875 C 1.28125 27.800781 1.234375 27.792969 1.179688 27.785156 L 1.179688 26.558594 C 0.75 26.558594 0.464844 26.710938 0.449219 27.089844 C 0.441406 27.335938 0.519531 27.519531 0.65625 27.6875 L 0.402344 27.6875 C 0.320312 27.578125 0.261719 27.375 0.261719 27.078125 C 0.261719 26.570312 0.5625 26.214844 1.214844 26.21875 Z M 1.355469 27.453125 C 1.625 27.460938 1.949219 27.289062 1.949219 27.015625 C 1.949219 26.726562 1.625 26.578125 1.355469 26.570312 Z M 1.355469 27.453125 "/>
<path style=" stroke:none;fill-rule:nonzero;fill:rgb(65.098039%,11.764706%,19.607843%);fill-opacity:1;" d="M 0.550781 30.757812 C 0.390625 30.667969 0.289062 30.480469 0.28125 30.238281 C 0.261719 29.742188 0.550781 29.601562 0.832031 29.613281 C 1.140625 29.621094 1.375 29.871094 1.398438 30.417969 C 1.402344 30.550781 1.402344 30.65625 1.386719 30.734375 L 1.515625 30.734375 C 1.8125 30.734375 1.929688 30.613281 1.929688 30.382812 C 1.929688 30.171875 1.804688 29.917969 1.6875 29.746094 L 1.925781 29.746094 C 2.015625 29.917969 2.113281 30.171875 2.117188 30.398438 C 2.128906 30.800781 1.898438 31.046875 1.515625 31.046875 L 0.699219 31.046875 C 0.601562 31.050781 0.421875 31.070312 0.324219 31.089844 L 0.324219 30.785156 C 0.410156 30.761719 0.472656 30.761719 0.550781 30.757812 Z M 1.210938 30.4375 C 1.203125 30.167969 1.101562 29.917969 0.84375 29.914062 C 0.632812 29.910156 0.488281 30.03125 0.488281 30.265625 C 0.488281 30.40625 0.503906 30.511719 0.609375 30.613281 C 0.738281 30.730469 0.867188 30.734375 1.003906 30.738281 L 1.195312 30.738281 C 1.214844 30.664062 1.214844 30.546875 1.210938 30.4375 Z M 1.210938 30.4375 "/>
<path style=" stroke:none;fill-rule:nonzero;fill:rgb(65.098039%,11.764706%,19.607843%);fill-opacity:1;" d="M 1.488281 32.878906 C 1.714844 32.878906 1.910156 32.796875 1.910156 32.519531 C 1.910156 32.164062 1.597656 32.050781 1.292969 32.050781 L 0.324219 32.050781 L 0.324219 31.738281 L 2.066406 31.738281 L 2.066406 32.023438 L 1.742188 32.023438 C 1.917969 32.082031 2.121094 32.285156 2.117188 32.605469 C 2.113281 32.996094 1.886719 33.195312 1.523438 33.195312 L 0.320312 33.195312 L 0.320312 32.882812 L 1.488281 32.882812 Z M 1.488281 32.878906 "/>
<path style=" stroke:none;fill-rule:nonzero;fill:rgb(65.098039%,11.764706%,19.607843%);fill-opacity:1;" d="M 1.214844 33.808594 C 1.742188 33.808594 2.121094 34.101562 2.117188 34.554688 C 2.121094 34.824219 1.988281 35.003906 1.824219 35.097656 L 2.898438 35.097656 L 2.898438 35.40625 L 0.324219 35.40625 L 0.324219 35.121094 L 0.617188 35.121094 C 0.460938 35.058594 0.269531 34.871094 0.269531 34.570312 C 0.265625 34.042969 0.6875 33.808594 1.214844 33.808594 Z M 1.113281 35.128906 L 1.351562 35.128906 C 1.65625 35.105469 1.957031 34.921875 1.957031 34.625 C 1.957031 34.253906 1.539062 34.144531 1.214844 34.144531 C 0.855469 34.144531 0.453125 34.230469 0.445312 34.625 C 0.449219 34.921875 0.746094 35.101562 1.113281 35.128906 Z M 1.113281 35.128906 "/>
<path style=" stroke:none;fill-rule:nonzero;fill:rgb(65.098039%,11.764706%,19.607843%);fill-opacity:1;" d="M 0.324219 37.414062 L 2.785156 37.414062 L 2.785156 38.796875 L 2.566406 38.796875 L 2.566406 37.746094 L 1.726562 37.746094 L 1.726562 38.65625 L 1.507812 38.65625 L 1.507812 37.746094 L 0.546875 37.746094 L 0.546875 38.828125 L 0.324219 38.828125 Z M 0.324219 37.414062 "/>
<path style=" stroke:none;fill-rule:nonzero;fill:rgb(65.098039%,11.764706%,19.607843%);fill-opacity:1;" d="M 0.265625 39.78125 C 0.265625 39.605469 0.3125 39.410156 0.398438 39.261719 L 0.632812 39.261719 C 0.515625 39.429688 0.453125 39.566406 0.449219 39.78125 C 0.445312 40.09375 0.648438 40.128906 0.765625 40.128906 C 0.898438 40.128906 0.996094 40.011719 1.074219 39.8125 C 1.21875 39.457031 1.332031 39.28125 1.617188 39.28125 C 1.921875 39.28125 2.113281 39.546875 2.113281 39.902344 C 2.113281 40.039062 2.085938 40.199219 2.003906 40.347656 L 1.753906 40.347656 C 1.886719 40.191406 1.929688 40.007812 1.929688 39.925781 C 1.929688 39.71875 1.808594 39.582031 1.679688 39.582031 C 1.507812 39.582031 1.460938 39.640625 1.339844 39.917969 C 1.199219 40.234375 1.0625 40.433594 0.796875 40.433594 C 0.484375 40.441406 0.265625 40.277344 0.265625 39.78125 Z M 0.265625 39.78125 "/>
<path style=" stroke:none;fill-rule:nonzero;fill:rgb(65.098039%,11.764706%,19.607843%);fill-opacity:1;" d="M 0.277344 41.617188 C 0.277344 41.398438 0.34375 41.300781 0.4375 41.242188 C 0.542969 41.171875 0.667969 41.152344 0.820312 41.152344 L 1.875 41.152344 L 1.875 40.878906 L 2.0625 40.878906 L 2.0625 41.152344 L 2.53125 41.152344 L 2.53125 41.460938 L 2.0625 41.460938 L 2.0625 41.867188 L 1.875 41.867188 L 1.875 41.460938 L 0.808594 41.460938 C 0.621094 41.460938 0.480469 41.472656 0.480469 41.6875 C 0.480469 41.753906 0.492188 41.804688 0.53125 41.878906 L 0.332031 41.878906 C 0.289062 41.800781 0.277344 41.699219 0.277344 41.617188 Z M 0.277344 41.617188 "/>
<path style=" stroke:none;fill-rule:nonzero;fill:rgb(65.098039%,11.764706%,19.607843%);fill-opacity:1;" d="M 1.488281 43.601562 C 1.714844 43.601562 1.910156 43.511719 1.910156 43.234375 C 1.910156 42.878906 1.597656 42.761719 1.292969 42.761719 L 0.324219 42.761719 L 0.324219 42.453125 L 2.894531 42.453125 L 2.894531 42.761719 L 1.777344 42.761719 C 1.945312 42.839844 2.121094 43.015625 2.117188 43.316406 C 2.113281 43.707031 1.886719 43.914062 1.523438 43.914062 L 0.320312 43.914062 L 0.320312 43.601562 Z M 1.488281 43.601562 "/>
<path style=" stroke:none;fill-rule:nonzero;fill:rgb(65.098039%,11.764706%,19.607843%);fill-opacity:1;" d="M 1.214844 44.546875 C 1.714844 44.554688 2.125 44.886719 2.125 45.363281 C 2.121094 45.878906 1.703125 46.125 1.335938 46.125 C 1.28125 46.128906 1.234375 46.121094 1.179688 46.113281 L 1.179688 44.886719 C 0.75 44.886719 0.464844 45.039062 0.449219 45.417969 C 0.441406 45.664062 0.519531 45.847656 0.65625 46.015625 L 0.402344 46.015625 C 0.320312 45.90625 0.261719 45.703125 0.261719 45.40625 C 0.261719 44.894531 0.5625 44.539062 1.214844 44.546875 Z M 1.355469 45.777344 C 1.625 45.785156 1.949219 45.613281 1.949219 45.339844 C 1.949219 45.050781 1.625 44.902344 1.355469 44.894531 Z M 1.355469 45.777344 "/>
<path style=" stroke:none;fill-rule:nonzero;fill:rgb(65.098039%,11.764706%,19.607843%);fill-opacity:1;" d="M 0.277344 47.335938 C 0.277344 47.117188 0.34375 47.019531 0.4375 46.960938 C 0.542969 46.890625 0.667969 46.871094 0.820312 46.871094 L 1.875 46.871094 L 1.875 46.597656 L 2.0625 46.597656 L 2.0625 46.871094 L 2.53125 46.871094 L 2.53125 47.179688 L 2.0625 47.179688 L 2.0625 47.585938 L 1.875 47.585938 L 1.875 47.179688 L 0.808594 47.179688 C 0.621094 47.179688 0.480469 47.191406 0.480469 47.40625 C 0.480469 47.472656 0.492188 47.523438 0.53125 47.597656 L 0.332031 47.597656 C 0.289062 47.519531 0.277344 47.421875 0.277344 47.335938 Z M 0.277344 47.335938 "/>
<path style=" stroke:none;fill-rule:nonzero;fill:rgb(65.098039%,11.764706%,19.607843%);fill-opacity:1;" d="M 2.066406 48.222656 L 2.066406 48.53125 L 0.324219 48.53125 L 0.324219 48.222656 Z M 2.65625 48.175781 C 2.761719 48.175781 2.847656 48.269531 2.847656 48.378906 C 2.847656 48.492188 2.761719 48.578125 2.65625 48.578125 C 2.550781 48.578125 2.460938 48.492188 2.460938 48.378906 C 2.457031 48.269531 2.550781 48.175781 2.65625 48.175781 Z M 2.65625 48.175781 "/>
<path style=" stroke:none;fill-rule:nonzero;fill:rgb(65.098039%,11.764706%,19.607843%);fill-opacity:1;" d="M 0.261719 50.035156 C 0.269531 49.441406 0.621094 49.203125 1.195312 49.203125 C 1.636719 49.203125 2.128906 49.441406 2.121094 50.015625 C 2.117188 50.269531 2.054688 50.433594 1.976562 50.566406 L 1.710938 50.566406 C 1.839844 50.425781 1.941406 50.285156 1.9375 50.050781 C 1.929688 49.632812 1.476562 49.539062 1.183594 49.539062 C 0.792969 49.539062 0.449219 49.660156 0.441406 50.085938 C 0.4375 50.34375 0.503906 50.429688 0.632812 50.578125 L 0.382812 50.578125 C 0.304688 50.449219 0.261719 50.277344 0.261719 50.035156 Z M 0.261719 50.035156 "/>
<path style=" stroke:none;fill-rule:nonzero;fill:rgb(65.098039%,11.764706%,19.607843%);fill-opacity:1;" d="M 0.265625 51.597656 C 0.265625 51.417969 0.3125 51.222656 0.398438 51.074219 L 0.632812 51.074219 C 0.515625 51.246094 0.453125 51.382812 0.449219 51.597656 C 0.445312 51.90625 0.648438 51.945312 0.765625 51.945312 C 0.898438 51.945312 0.996094 51.828125 1.074219 51.625 C 1.21875 51.269531 1.332031 51.097656 1.617188 51.097656 C 1.921875 51.097656 2.113281 51.359375 2.113281 51.714844 C 2.113281 51.851562 2.085938 52.015625 2.003906 52.164062 L 1.753906 52.164062 C 1.886719 52.007812 1.929688 51.824219 1.929688 51.742188 C 1.929688 51.535156 1.808594 51.398438 1.679688 51.398438 C 1.507812 51.398438 1.460938 51.457031 1.339844 51.734375 C 1.199219 52.046875 1.0625 52.25 0.796875 52.25 C 0.484375 52.25 0.265625 52.09375 0.265625 51.597656 Z M 0.265625 51.597656 "/>
<path style=" stroke:none;fill-rule:nonzero;fill:rgb(65.098039%,11.764706%,19.607843%);fill-opacity:1;" d="M 37.207031 54.777344 C 36.242188 54.777344 35.457031 54.003906 35.457031 53.050781 C 35.457031 52.101562 36.242188 51.328125 37.207031 51.328125 C 38.171875 51.328125 38.953125 52.101562 38.953125 53.050781 C 38.953125 54.003906 38.171875 54.777344 37.207031 54.777344 Z M 37.207031 51.78125 C 36.492188 51.78125 35.914062 52.351562 35.914062 53.054688 C 35.914062 53.757812 36.492188 54.324219 37.207031 54.324219 C 37.917969 54.324219 38.496094 53.753906 38.496094 53.054688 C 38.496094 52.359375 37.914062 51.78125 37.207031 51.78125 Z M 37.207031 51.78125 "/>
</g>
</svg>
