<?xml version="1.0" encoding="UTF-8"?>
<svg id="_圖層_1" data-name="圖層 1" xmlns="http://www.w3.org/2000/svg" viewBox="0 0 50.92 47.5">
  <defs>
    <style>
      .cls-1 {
        fill-rule: evenodd;
      }

      .cls-1, .cls-2 {
        fill: #81b11a;
      }

      .cls-3 {
        stroke: #1e4f8b;
        stroke-width: .06px;
      }

      .cls-3, .cls-4 {
        fill: #1e4f8b;
      }

      .cls-5 {
        fill: #56735d;
      }

      .cls-6 {
        fill: #727171;
      }
    </style>
  </defs>
  <g>
    <g>
      <path class="cls-4" d="M11.09,39.84c-.26,.49-.57,.95-.91,1.37h.37c.83,0,1.5-.02,2-.05-.28-.28-.56-.54-.83-.77l.4-.29c.53,.43,1.04,.94,1.53,1.52l-.4,.38c-.07-.1-.13-.17-.17-.23-.05-.06-.09-.11-.13-.17-1.07,.07-2.35,.1-3.83,.1h-.19l-.05-.51c.15,.01,.28,.02,.39,.03h.28c.45-.51,.79-1.01,1.01-1.51l.51,.14Zm-1.76,2.34h3.86v2.12h-.52v-.29h-2.83v.29h-.52v-2.12Zm3.35,.44h-2.83v.96h2.83v-.96Z"/>
      <path class="cls-4" d="M15.05,42.59c-.14,.65-.33,1.21-.56,1.68l-.41-.36c.24-.44,.43-.95,.55-1.54l.43,.22Zm-.24-.69c-.26-.22-.5-.4-.71-.54l.3-.32c.14,.08,.26,.15,.38,.22,.11,.07,.23,.14,.36,.22l-.32,.42Zm.05-1.25c-.24-.22-.48-.41-.72-.56l.31-.32c.3,.19,.55,.35,.74,.5l-.32,.38Zm.61,.94c-.02,.09-.05,.18-.07,.28-.03,.12-.06,.22-.1,.3l-.26-.12c.09-.14,.15-.31,.19-.52l.24,.06Zm-.28-.13l-.08-.3h.14c.31-.25,.46-.41,.46-.46-.11,.01-.21,.02-.29,.03-.08,0-.16,0-.23,0l-.05-.29h.11c.18-.31,.31-.55,.37-.74l.32,.07c-.11,.25-.23,.48-.37,.69,.05,0,.11,0,.17,0,.04,0,.09,0,.14,0,.07-.08,.13-.19,.2-.32l.28,.18c-.3,.4-.55,.68-.74,.85,.1,0,.18-.01,.24-.02,.08,0,.16-.02,.22-.02-.03-.05-.05-.1-.06-.13-.01-.04-.02-.06-.04-.08l.24-.09c.08,.16,.16,.35,.24,.57l-.28,.13-.05-.15c-.13,.03-.45,.07-.94,.1Zm3.53,1.9c0,.29-.05,.51-.12,.67-.08,.16-.26,.23-.55,.23h-1.11l-.09-.37,1.15,.02c.14,0,.22-.08,.24-.26h-3.04l.27-.85h2.66v-.21h-2.89v-.31h3.33v.84h-2.73l-.08,.23h2.96Zm-3.1-1.19v-.08c0-.19-.01-.34-.04-.45l.22-.03c.03,.08,.06,.26,.08,.52l-.26,.03Zm.48-.03c-.05-.25-.09-.43-.13-.55l.22-.06c.04,.08,.07,.16,.08,.23,.02,.09,.05,.18,.09,.29l-.26,.09Zm.74-2.13c-.05-.11-.1-.2-.14-.25l.34-.05c.03,.05,.08,.15,.15,.3h.38v.28h-1.21v-.28h.48Zm-.38,.44h1.01v.25h-1.01v-.25Zm0,1.65v-.8h1.02v.8h-1.02Zm0-1.23h1.01v.25h-1.01v-.25Zm.71,.69h-.41v.27h.41v-.27Zm.72,.06c-.02,.2-.07,.41-.14,.61l-.26-.12c.06-.12,.12-.29,.16-.53l.24,.04Zm-.29-.17l-.08-.3h.13c.2-.16,.35-.31,.46-.44-.08,0-.17,0-.26,.01-.08,0-.16,0-.25,.01l-.07-.28h.1c.19-.25,.32-.5,.4-.74l.31,.1c-.15,.32-.27,.54-.37,.66h.16s.09,0,.14,0c.03-.04,.06-.09,.09-.14,.04-.07,.07-.13,.1-.18l.31,.14c-.18,.3-.44,.6-.76,.88h.24s0-.01,0-.01c.06,0,.12-.01,.19-.02-.04-.1-.06-.16-.08-.19l.24-.09c.08,.14,.16,.34,.23,.59l-.27,.09-.04-.16c-.17,.03-.47,.06-.93,.08Zm.46,.74c0-.08,0-.17,0-.28,0-.11,0-.21,0-.29l.22-.02c.03,.13,.05,.31,.05,.55l-.27,.03Zm.56-.03c-.05-.22-.1-.41-.16-.54l.21-.06c.05,.11,.12,.28,.2,.52l-.25,.08Z"/>
      <path class="cls-4" d="M21.03,41.24h-1.64v-.49h1.64v-1.06h.54v1.06h2.31v.49h-2.32c-.02,.77-.21,1.4-.57,1.91-.36,.5-.8,.88-1.33,1.13l-.4-.44c1.13-.53,1.72-1.4,1.76-2.61Zm.89,.34h.54v1.8c0,.19,.09,.28,.27,.28h.38c.19,0,.29-.07,.31-.2,.02-.13,.04-.28,.05-.43,.01-.16,.02-.3,.03-.42l.5,.15c-.03,.51-.08,.87-.16,1.08-.08,.21-.29,.31-.63,.31h-.59c-.25,0-.43-.04-.54-.13-.11-.09-.16-.28-.16-.58v-1.86Zm1.12-.86c-.31-.24-.62-.44-.92-.61l.34-.34c.32,.17,.62,.35,.92,.55l-.34,.39Z"/>
      <path class="cls-4" d="M28.92,42.43c-.01,.3-.04,.63-.09,.98-.04,.35-.12,.58-.24,.68-.12,.11-.41,.16-.86,.16-.13,0-.24,0-.34,0l-.14-.5c.27,.02,.48,.03,.62,.03s.24-.02,.3-.05c.06-.03,.11-.14,.14-.33,.03-.19,.05-.36,.06-.52h-1.51c-.06,.37-.29,.68-.69,.93-.4,.25-.88,.42-1.46,.49l-.25-.46c.45-.05,.86-.15,1.23-.31,.36-.16,.58-.38,.64-.65h-1.65v-.44h1.76c.01-.06,.03-.19,.04-.38l.52,.04c0,.12-.02,.23-.04,.34h1.96Zm-2.47-.49c-.22-.17-.37-.25-.45-.25-.3,.25-.73,.44-1.29,.57l-.22-.43c.48-.08,.84-.19,1.06-.33-.26-.1-.56-.21-.88-.32,.2-.24,.34-.46,.43-.67h-.55v-.4h.73c.03-.08,.07-.21,.12-.4l.48,.05c-.03,.11-.07,.23-.12,.35h.94v.32c-.07,.39-.19,.7-.36,.92,.05,.03,.13,.06,.22,.1,.08,.04,.16,.08,.24,.12l-.06,.06c.38-.05,.66-.13,.85-.24-.24-.23-.44-.51-.62-.86l.45-.14c.16,.32,.34,.56,.54,.74,.25-.24,.42-.5,.5-.8h-1.61v-.41h2.11v.35c-.07,.44-.28,.82-.63,1.15,.18,.11,.47,.2,.86,.26l-.18,.45c-.41-.08-.77-.23-1.08-.44-.31,.19-.65,.32-1.03,.38l-.23-.36-.22,.24Zm-.86-.86c.11,.04,.21,.07,.3,.11,.17-.2,.27-.43,.3-.68h-.59c-.1,.23-.19,.39-.26,.47,.07,.03,.15,.06,.26,.1Z"/>
      <path class="cls-4" d="M30.02,40.58h-.3v-.38h.3v-.48h.45v.48h.98v-.48h.45v.48h.32v.38h-.32v2.01h.31v.39h-2.59v-.39h.4v-2.01Zm.75,2.72c-.22,.39-.48,.71-.77,.97l-.38-.3c.3-.23,.55-.52,.75-.86l.4,.19Zm-.31-.71h.98v-.46h-.98v.46Zm0-1.61h.98v-.4h-.98v.4Zm0,.79h.98v-.43h-.98v.43Zm1.09,2.23c-.13-.23-.31-.47-.54-.73l.37-.18c.19,.17,.37,.38,.55,.63l-.38,.28Zm2.33,.3h-.47v-2.58h-.54v.12c0,1.06-.21,1.87-.61,2.44l-.38-.36c.16-.2,.29-.45,.38-.75,.09-.3,.14-.83,.14-1.58v-1.53c.67-.03,1.25-.13,1.75-.29l.21,.41c-.42,.14-.91,.23-1.48,.27v.85h1.51v.41h-.5v2.58Z"/>
      <path class="cls-4" d="M35.82,43.05c-.25,.16-.49,.29-.73,.38l-.27-.44c.46-.13,.87-.34,1.24-.64h-1.25v-.41h.85v-1.53h-.75v-.4h.75v-.33h.49v.33h2.09v-.33h.49v.33h.79v.4h-.79v1.53h.85v.41h-1.25c.36,.3,.78,.5,1.26,.6l-.22,.45c-.23-.08-.48-.19-.75-.35v.32h-1.16v.38h1.89v.4h-4.26v-.4h1.88v-.38h-1.14v-.33Zm1.14-.07v-.43h.49v.43h1.02c-.3-.21-.55-.42-.73-.63h-1.1c-.19,.23-.43,.44-.7,.63h1.03Zm-.82-1.03h2.1v-.29h-2.1v.29Zm0-1.26h2.09v-.26h-2.09v.26Zm0,.63h2.09v-.28h-2.09v.28Z"/>
      <path class="cls-4" d="M41.15,43.71c-.13-.37-.26-.67-.39-.89l.47-.17c.18,.36,.33,.72,.44,1.06h.45v-1.29h-1.87v-.44h1.87v-.56h-1.14v-.22c-.26,.13-.5,.25-.72,.35l-.27-.45c.98-.37,1.69-.84,2.13-1.41h.45c.62,.57,1.36,1.03,2.21,1.38l-.3,.44c-.26-.11-.48-.23-.68-.34v.25h-1.16v.56h1.88v.44h-1.88v1.29h.46c.2-.42,.35-.78,.46-1.09l.48,.19c-.11,.28-.24,.59-.4,.9h.99v.44h-4.49v-.44h1.01Zm1.21-3.56c-.26,.28-.6,.56-1.03,.84h2.16c-.4-.24-.78-.52-1.13-.84Z"/>
      <path class="cls-4" d="M45.39,41.15l-.21-.44c.83-.27,1.54-.61,2.13-1h.5c.65,.39,1.36,.71,2.14,.97l-.19,.45-.16-.06v1.3h-4.02v-1.3l-.19,.08Zm.29-.13h3.82c-.35-.14-.68-.29-1.01-.44v.23h-1.82v-.25c-.3,.17-.63,.33-.99,.47Zm.12,1.57h3.57v1.7h-.48v-.17h-2.62v.17h-.48v-1.7Zm1.54-1.23h-1.31v.66h1.31v-.66Zm-1.06,1.85h2.62v-.27h-2.62v.27Zm0,.59h2.62v-.3h-2.62v.3Zm.39-1.79c-.14-.24-.24-.4-.31-.49l.3-.16c.11,.1,.22,.25,.35,.45l-.34,.2Zm.91-1.96c-.22,.15-.46,.28-.73,.41h1.45c-.28-.13-.52-.27-.72-.41Zm1.57,1.31h-1.37v.66h1.37v-.66Zm-1,.43c.07-.06,.18-.2,.32-.43l.33,.16c-.15,.26-.25,.42-.31,.48l-.34-.21Z"/>
    </g>
    <g>
      <path class="cls-2" d="M4.26,41.45c-.07,.16-.18,.31-.33,.45l-.2-.13c.14-.13,.25-.27,.32-.42l.2,.09Zm.54-1.7v1.55h-.93v-1.55h.93Zm-.22,.19h-.5v.24h.5v-.24Zm-.5,.69h.5v-.26h-.5v.26Zm0,.48h.5v-.28h-.5v.28Zm.59,.79c-.06-.16-.15-.31-.26-.45l.19-.1c.13,.15,.22,.3,.29,.44l-.22,.11Zm.94-1.22c-.16,.27-.37,.52-.64,.75l-.16-.21c.33-.24,.59-.54,.79-.9h-.7v-.21h.72v-.46h.23v.46h.22v.21h-.22v1.27c0,.11-.02,.18-.06,.22-.04,.04-.11,.06-.23,.06h-.31l-.05-.22h.34c.06,0,.08-.02,.08-.07v-.9Z"/>
      <path class="cls-2" d="M6.32,39.72h2.19v2.18h-.22v-.1h-1.76v.1h-.21v-2.18Zm1.68,1.09c.05,.05,.11,.12,.18,.2l-.16,.1-.07-.09h-.04v.11h.3v.15h-.3v.06c0,.09-.02,.15-.06,.17-.04,.02-.1,.04-.19,.04h-.25l-.05-.16h.26c.06,0,.09-.01,.09-.06v-.04h-1.08v-.15h1.08v-.1c-.3,.01-.64,.02-1.03,.02l-.04-.17c.13,0,.24,0,.32,0,.13,0,.24,0,.32,0v-.09h-.6v-.58h.6v-.08h-.67v-.16h.67v-.09h-.76v1.73h1.76v-1.73h-.8v.09h.72v.16h-.73v.08h.63v.58h-.11Zm-.94,.76s-.06-.07-.08-.1c-.03-.04-.06-.07-.09-.1l.17-.07c.06,.05,.12,.11,.17,.18l-.17,.1Zm-.17-1.2v.1h.4v-.1h-.4Zm0,.2v.1h.4v-.1h-.4Zm.59-.2v.1h.43v-.1h-.43Zm0,.2v.1h.43v-.1h-.43Zm0,.24v.09h.03s.09,0,.18,0c.05,0,.11,0,.16,0l-.06-.08h-.3Z"/>
      <path class="cls-2" d="M4.17,43.27c-.17-.11-.31-.2-.44-.28l.15-.19c.19,.09,.34,.17,.44,.25l-.15,.22Zm.23,.29c-.16,.36-.31,.62-.46,.79l-.19-.2c.15-.18,.3-.43,.45-.75l.2,.16Zm-.11-.94c-.16-.11-.31-.21-.44-.28l.14-.19c.1,.05,.17,.09,.22,.11,.06,.03,.13,.08,.23,.14l-.15,.22Zm.1,.69v-.22h.65v-.42h-.52v-.21h.52v-.33h.25v.33h.65v.21h-.65v.42h.74v.22h-.77c-.1,.26-.22,.49-.34,.68,.29-.02,.52-.05,.69-.08-.06-.11-.14-.24-.23-.38l.21-.08c.17,.23,.32,.49,.47,.8l-.24,.11s-.04-.08-.05-.12c-.04-.08-.06-.12-.06-.12-.35,.07-.78,.12-1.3,.14l-.06-.26c.06,0,.11,0,.16,0,.03,0,.07,0,.1,0,.17-.24,.3-.47,.38-.68h-.6Z"/>
      <path class="cls-2" d="M7.54,42.13v.27c0,.22,.09,.51,.26,.86,.17,.35,.43,.65,.78,.88l-.17,.22s-.14-.09-.32-.27c-.18-.18-.32-.35-.42-.54-.1-.18-.17-.36-.22-.54-.15,.6-.48,1.05-1.01,1.35l-.17-.22c.3-.16,.55-.39,.73-.7,.18-.31,.28-.65,.28-1.02v-.31h.28Z"/>
    </g>
  </g>
  <g>
    <path class="cls-6" d="M4.59,45.5h-.81v-.14h.37c-.03-.08-.07-.17-.11-.25l.14-.06c.06,.11,.1,.21,.13,.31h.3v.14Zm-.03,.4h-.72v-.13h.72v.13Zm0,.39h-.72v-.13h.72v.13Zm0,1.12h-.14v-.15h-.39v.2h-.15v-.91h.68v.85Zm-.14-.28v-.43h-.39v.43h.39Zm1.73-.97h-.83c-.05,.13-.11,.25-.19,.37h.88v.95h-.14v-.19h-.75v.19h-.14v-.74c-.08,.09-.16,.18-.25,.26l-.1-.1c.27-.26,.45-.5,.54-.73h-.48v-.14h.53c.04-.08,.07-.2,.11-.35l.14,.03c-.02,.12-.05,.22-.08,.32h.78v.14Zm-.76-.66h-.28v.25h-.14v-.25h-.27v-.13h.27v-.28h.14v.28h.28v.13Zm.47,1.65v-.49h-.75v.49h.75Zm.28-1.65h-.28v.25h-.14v-.25h-.22v-.13h.22v-.28h.14v.28h.28v.13Z"/>
    <path class="cls-6" d="M8.62,46.86h-1.2l.07,.05c-.24,.24-.54,.43-.9,.58l-.1-.12c.28-.1,.56-.26,.83-.5h-.54v-1.72h1.84v1.72Zm-.14-1.21v-.37h-1.55v.37h1.55Zm0,.53v-.39h-1.55v.39h1.55Zm0,.54v-.4h-1.55v.4h1.55Zm.43,.61l-.08,.13c-.26-.14-.57-.27-.94-.38l.09-.12c.4,.14,.71,.26,.93,.38Z"/>
    <path class="cls-6" d="M11.64,45.63l-.07,.12-.18-.07v1.59c0,.05-.01,.09-.05,.14-.03,.04-.1,.06-.21,.06-.04,0-.1,0-.16,0l-.04-.14c.1,0,.18,0,.24,0,.05,0,.07-.02,.07-.07v-1.48h-.74v1.66h-.14v-1.66h-.75v1.68h-.13v-1.78c-.07,.02-.12,.04-.15,.05l-.08-.11c.25-.08,.47-.19,.64-.31l.12,.08c-.12,.1-.27,.18-.44,.26h.81v-.37h-1.04v-.13h2.21v.13h-1.04v.37h.8c-.17-.08-.3-.16-.4-.24l.1-.09c.15,.12,.36,.22,.63,.31Zm-1.34,1.43l-.1,.09c-.06-.08-.12-.15-.18-.2-.06,.09-.13,.17-.21,.23l-.1-.09c.1-.09,.17-.16,.22-.23-.05-.05-.12-.11-.22-.18l.07-.1,.22,.17c.04-.07,.07-.14,.1-.2l.12,.05c-.04,.1-.08,.18-.13,.24,.08,.08,.15,.15,.2,.22Zm0-.68l-.08,.1c-.07-.08-.13-.14-.17-.18-.07,.09-.14,.16-.2,.21l-.1-.09c.07-.05,.13-.12,.2-.21-.08-.07-.15-.13-.21-.17l.07-.09c.06,.04,.13,.09,.22,.16,.04-.07,.08-.14,.11-.22l.12,.04c-.03,.08-.07,.17-.13,.26,.07,.06,.13,.12,.19,.19Zm.88,0l-.09,.1c-.05-.06-.1-.13-.18-.21-.05,.07-.12,.15-.21,.24l-.11-.09c.09-.08,.17-.15,.22-.23-.06-.05-.12-.1-.17-.14l.07-.1s.1,.07,.17,.13c.04-.06,.07-.13,.1-.2l.12,.04c-.04,.1-.08,.18-.12,.25,.06,.05,.13,.12,.2,.21Zm.01,.68l-.1,.09c-.05-.06-.12-.14-.2-.21-.07,.09-.14,.17-.2,.23l-.09-.09c.07-.06,.14-.14,.2-.23-.04-.04-.1-.09-.18-.15l.08-.09,.16,.14c.03-.05,.07-.11,.1-.18l.12,.04c-.03,.08-.07,.16-.12,.24,.08,.08,.16,.15,.22,.23Z"/>
    <path class="cls-6" d="M13.27,46.53l-.09,.11c-.15-.15-.29-.29-.42-.39v1.23h-.14v-1.29c-.17,.31-.35,.57-.56,.77l-.11-.1c.22-.22,.44-.53,.65-.95h-.62v-.14h.63v-.4c-.19,.03-.36,.05-.5,.05l-.04-.14c.42-.02,.79-.09,1.09-.2l.07,.13c-.11,.05-.28,.09-.49,.13v.43h.49v.14h-.49v.16c.23,.18,.41,.33,.51,.46Zm1.01,.95h-.15v-.26h-.62v.26h-.14v-2.09h.91v2.09Zm-.15-.4v-1.54h-.62v1.54h.62Z"/>
    <path class="cls-6" d="M17.09,46.59h-1.12v.89h-.15v-.89h-1.12v-.15h1.12v-1.15h-1.05v-.14h2.25v.14h-1.05v1.15h1.12v.15Zm-1.65-.4l-.13,.07c-.05-.17-.17-.39-.34-.64l.12-.07c.17,.22,.29,.43,.36,.64Zm1.43-.58c-.08,.23-.21,.44-.39,.64l-.14-.07c.17-.19,.3-.39,.39-.62l.13,.05Z"/>
    <path class="cls-6" d="M19.82,47.35l-.07,.13c-.53-.09-.9-.3-1.13-.62-.12,.18-.28,.32-.5,.43-.16,.08-.37,.14-.63,.19l-.07-.13c.25-.04,.44-.1,.59-.16,.21-.09,.37-.22,.47-.38h-1v-.13h1.07c.03-.08,.04-.16,.05-.23l.14,.02c-.01,.08-.03,.15-.05,.21h1.07v.13h-1.02c.22,.29,.58,.47,1.07,.54Zm-1.59-.87h-.13v-.53h-.3c-.01,.22-.09,.38-.24,.5l-.1-.09c.14-.12,.21-.26,.21-.41h-.18v-.13h.62v-.25h-.49v-.43h.13v.3h.36v-.36h.13v1.4Zm1.47-1.22v.12c-.36,.26-.8,.4-1.31,.44l-.06-.12c.26-.01,.5-.05,.71-.12-.09-.08-.19-.15-.32-.22-.07,.03-.19,.07-.34,.11l-.07-.11c.32-.09,.55-.19,.71-.29l.12,.07s-.05,.03-.09,.05l.64,.07Zm.12,.78h-.26v.23c0,.11-.05,.17-.15,.19-.07,0-.15,0-.25,0l-.04-.12c.05,0,.13,0,.23,0,.02,0,.04,0,.05-.03,.02-.02,.02-.04,.02-.05v-.22h-1.06v-.13h1.06v-.22h.14v.22h.26v.13Zm-1.06-.49c-.1,.03-.19,.05-.27,.07l-.04-.1c.1-.02,.19-.04,.28-.07l.02,.1Zm.23,.73l-.08,.1c-.1-.07-.22-.14-.35-.19l.07-.11c.12,.05,.24,.12,.36,.2Zm.49-.91l-.62-.07c.09,.05,.2,.13,.31,.23,.13-.06,.24-.11,.31-.16Zm.3,1.15l-.07,.1c-.06-.04-.12-.08-.2-.11l.06-.1c.08,.03,.14,.07,.2,.12Z"/>
    <path class="cls-6" d="M20.88,45.71c-.04,.09-.11,.22-.21,.38v1.37h-.14v-1.17c-.1,.12-.19,.22-.28,.3l-.09-.12c.25-.23,.45-.5,.6-.82l.12,.06Zm-.02-.59c-.16,.28-.35,.48-.58,.63l-.09-.12c.2-.11,.39-.3,.55-.57l.12,.07Zm1.7,1.58h-.34v.55c0,.07-.02,.13-.07,.16-.04,.03-.15,.05-.31,.05-.05,0-.11,0-.16,0l-.05-.14c.06,0,.12,0,.19,0,.12,0,.2,0,.22-.02,.02-.01,.03-.03,.03-.07v-.53h-1.22v-.13h1.22v-.27h-1.17v-.13h1.58v.13h-.28v.27h.34v.13Zm-.17-.72h-1.33v-.85h1.33v.85Zm-.84,1.21l-.13,.08c-.06-.12-.15-.27-.29-.43l.12-.08c.12,.14,.22,.28,.29,.43Zm.69-1.71v-.22h-1.04v.22h1.04Zm0,.36v-.23h-1.04v.23h1.04Z"/>
    <path class="cls-6" d="M25.28,47.4h-2.38v-.14h1.12v-.74h-.89v-.14h.89v-.67h-1.02v-.14h1.07c-.08-.19-.17-.34-.26-.45l.14-.06c.11,.15,.2,.32,.27,.5h.96v.14h-1.01v.67h.87v.14h-.87v.74h1.1v.14Z"/>
    <path class="cls-6" d="M27.97,45.83h-1.21c-.02,.37-.1,.69-.25,.94-.15,.25-.41,.49-.78,.72l-.1-.12c.28-.16,.51-.35,.68-.58,.17-.23,.27-.55,.29-.97h-.9v-.15h.9v-.61h.15v.61h1.21v.15Zm.06,.94c0,.21-.02,.36-.06,.46-.04,.1-.09,.15-.15,.17-.06,.02-.2,.03-.43,.03-.13,0-.23,0-.29,0-.06,0-.1-.02-.14-.06-.03-.04-.05-.09-.05-.18v-1.14h.15v1.16s.03,.06,.08,.07c.05,0,.17,0,.34,0,.15,0,.24,0,.27-.02,.03-.01,.05-.03,.07-.06,.02-.03,.04-.11,.05-.22,.01-.12,.02-.21,.02-.28l.14,.06Zm-.36-1.31l-.09,.12c-.13-.11-.29-.22-.51-.32l.08-.12c.22,.11,.39,.21,.51,.32Z"/>
    <path class="cls-6" d="M30.58,46.53c0,.18-.02,.34-.05,.49-.03,.16-.06,.26-.09,.31-.03,.05-.07,.09-.13,.11-.06,.02-.16,.03-.3,.03-.08,0-.16,0-.24,0l-.06-.15c.13,0,.28,0,.46,0,.03,0,.06,0,.09-.03,.03-.02,.06-.04,.07-.08,.01-.04,.03-.11,.05-.21,.02-.1,.04-.22,.05-.35h-.83c-.07,.28-.21,.47-.41,.58-.21,.11-.45,.19-.73,.23l-.08-.14c.31-.04,.55-.11,.73-.21,.17-.09,.29-.25,.35-.47h-.99v-.13h1.01s.02-.1,.02-.19h.14s0,.11-.01,.19h.96Zm-1.04-1.07s-.08,.01-.11,.01c-.05,.2-.13,.37-.24,.51,.11,.05,.22,.11,.32,.17l-.08,.11c-.08-.05-.2-.11-.34-.18-.2,.17-.41,.28-.63,.34l-.08-.12c.23-.07,.42-.17,.57-.29-.11-.05-.23-.11-.37-.16,.07-.14,.13-.26,.17-.35-.1,0-.22,.01-.34,.01v-.13c.19,0,.33,0,.39-.01,.04-.07,.07-.17,.11-.28l.14,.03s-.04,.13-.09,.25c.12,0,.24,0,.35-.01,.01-.05,.02-.1,.02-.14h.14s0,.09-.01,.13c.02,0,.04,0,.09,0v.13Zm-.26,.03l-.38,.02c-.04,.1-.08,.19-.13,.29,.09,.03,.19,.08,.29,.13,.11-.13,.18-.28,.22-.43Zm1.5,.72l-.09,.12c-.19-.08-.35-.17-.49-.27-.14,.11-.32,.19-.54,.25l-.09-.12c.21-.04,.38-.12,.52-.22-.16-.14-.29-.35-.39-.62h-.06v-.14h1.02v.14c-.09,.26-.21,.46-.36,.62,.13,.09,.29,.17,.48,.24Zm-.27-.85h-.66c.07,.22,.19,.39,.34,.53,.14-.14,.24-.32,.31-.53Z"/>
    <path class="cls-6" d="M31.63,46.95c-.13,.2-.27,.37-.41,.51l-.12-.11c.15-.11,.28-.27,.41-.48l.12,.08Zm.77-1.43h-.19v1.13h.19v.13h-1.28v-.13h.24v-1.13h-.2v-.13h.2v-.31h.14v.31h.58v-.31h.14v.31h.19v.13Zm-.33,.27v-.27h-.58v.27h.58Zm0,.42v-.28h-.58v.28h.58Zm0,.44v-.3h-.58v.3h.58Zm.15,.58l-.12,.08c-.05-.11-.12-.23-.23-.35l.11-.07c.11,.12,.19,.23,.24,.34Zm1.28-1.14h-.3v1.39h-.14v-1.39h-.37c.01,.61-.09,1.07-.31,1.39l-.13-.07c.21-.3,.31-.71,.31-1.23v-.86c.31-.04,.58-.11,.82-.22l.09,.12c-.24,.1-.5,.18-.77,.22v.53h.81v.14Z"/>
    <path class="cls-6" d="M34.54,45.89h-.24v1.57h-.14v-1.57h-.31v-.14h.31v-.67h.14v.67h.24v.14Zm1.68,1.01h-.34v.37c0,.06-.02,.11-.06,.14-.04,.03-.09,.05-.15,.05-.06,0-.14,0-.23,0l-.06-.14c.07,0,.13,0,.17,0,.09,0,.14,0,.16-.02,.02-.01,.02-.04,.02-.07v-.34h-1.27v-.13h1.27v-.1h.14v.1h.34v.13Zm-.02-1.43h-.77v.17h.63v.75c0,.06-.02,.1-.05,.14-.03,.04-.11,.06-.22,.06-.03,0-.08,0-.12,0l-.05-.13c.07,0,.13,.01,.19,.01,.05,0,.08,0,.09-.02,.02-.02,.02-.03,.02-.05v-.09h-.49v.26h-.14v-.26h-.49v.32h-.14v-.98h.62v-.17h-.77v-.13h.77v-.26h.14v.26h.77v.13Zm-.97,1.75l-.09,.1c-.13-.11-.24-.18-.34-.23l.09-.11c.13,.07,.25,.14,.34,.23Zm.06-1.31v-.14h-.49v.14h.49Zm0,.27v-.15h-.49v.15h.49Zm.63-.27v-.14h-.49v.14h.49Zm0,.27v-.15h-.49v.15h.49Zm.07-.95l-.08,.09c-.08-.06-.16-.1-.23-.14l.09-.1c.09,.04,.17,.09,.23,.14Z"/>
    <path class="cls-6" d="M38.95,46.14h-1.11v1.12h.96v.15h-2.07v-.15h.96v-1.12h-1.11v-.15h1.11v-.91h.14v.91h1.11v.15Z"/>
    <path class="cls-6" d="M40.07,46.28c-.06,.04-.15,.08-.26,.12v.85c0,.14-.07,.21-.22,.21-.06,0-.13,0-.19,0l-.04-.14s.09,0,.14,0c.08,0,.13,0,.15-.01,.01,0,.02-.02,.02-.04v-.81c-.11,.04-.22,.08-.32,.11l-.04-.13c.12-.04,.24-.08,.36-.12v-.62h-.36v-.13h.36v-.49h.14v.49h.23v.13h-.23v.55c.08-.03,.15-.06,.22-.1l.04,.13Zm1.64,1.07l-.08,.12c-.26-.09-.49-.2-.7-.32-.24,.15-.51,.26-.8,.33l-.11-.11c.3-.08,.56-.18,.78-.3-.21-.16-.36-.32-.45-.5h-.11v-.14h1.25v.14c-.09,.19-.24,.36-.43,.5,.19,.11,.41,.2,.65,.28Zm-.09-1.01h-.14v-.28h-1.2v.28h-.14v-.42h1.48v.42Zm-.09-1.15c-.39,.11-.83,.18-1.32,.19l-.06-.13c.49,0,.92-.07,1.3-.18l.08,.12Zm-1.02,.59l-.12,.06c-.06-.13-.12-.23-.2-.33l.13-.06c.08,.11,.14,.21,.19,.33Zm.83,.79h-.83c.1,.17,.24,.3,.43,.41,.16-.1,.29-.24,.4-.41Zm-.3-.78l-.13,.05c-.04-.13-.08-.24-.14-.34l.13-.06c.06,.1,.1,.21,.14,.34Zm.57-.34c-.06,.15-.13,.28-.22,.4l-.13-.07c.09-.13,.17-.26,.22-.39l.12,.06Z"/>
    <path class="cls-6" d="M42.89,46.26l-.1,.11c-.05-.08-.12-.18-.21-.29v1.39h-.13v-1.38c-.09,.25-.2,.46-.31,.63l-.1-.11c.17-.25,.3-.54,.4-.87h-.36v-.13h.38v-.53h.13v.53h.25v.13h-.25v.15c.13,.14,.23,.26,.31,.37Zm1.54,1.09h-1.26v.12h-.14v-.91c-.07,.08-.14,.14-.21,.2l-.09-.12c.19-.14,.34-.33,.46-.56l.13,.05c-.03,.06-.06,.11-.09,.15h.48s-.04-.07-.07-.11l.13-.06c.04,.06,.08,.11,.11,.17h.51v.12h-.57v.19h.51v.12h-.51v.19h.51v.12h-.51v.2h.63v.13Zm-.93-1.83h-.14v-.12h-.49v-.13h.49v-.19h.14v.43Zm.05,.53h-.59v-.45h.59v.45Zm-.12-.12v-.21h-.34v.21h.34Zm.24,.66v-.19h-.5v.19h.5Zm0,.31v-.19h-.5v.19h.5Zm0,.33v-.2h-.5v.2h.5Zm.67-1.18h-.6v-.45h.6v.45Zm.1-.64h-.48v.12h-.14v-.43h.14v.19h.48v.13Zm-.22,.52v-.21h-.34v.21h.34Z"/>
    <path class="cls-6" d="M45.52,46.22l-.11,.09c-.05-.09-.11-.18-.17-.27v1.43h-.14v-1.36c-.1,.28-.19,.5-.27,.63l-.08-.15c.14-.24,.25-.54,.34-.89h-.32v-.14h.32v-.5h.14v.5h.2v.14h-.2v.15c.1,.12,.19,.24,.28,.37Zm1.66,.82c-.02,.15-.05,.27-.09,.34-.04,.08-.09,.12-.16,.12-.12,0-.25-.12-.39-.37-.15,.13-.32,.23-.53,.33l-.1-.11c.21-.08,.4-.19,.56-.33-.08-.17-.14-.33-.16-.49h-.5l-.02,.17c.15,.08,.28,.17,.39,.27l-.08,.12c-.07-.07-.18-.16-.33-.25-.06,.26-.17,.48-.34,.67l-.13-.09c.22-.2,.34-.49,.36-.88h-.24v-.14h.86c-.05-.44-.08-.87-.09-1.32h.14c.01,.6,.04,1.03,.09,1.32h.28s-.03-.06-.07-.13l.11-.05s.07,.1,.1,.17h.29v.14h-.69c.02,.12,.06,.25,.13,.39,.09-.09,.17-.2,.24-.33l.11,.07c-.09,.15-.18,.27-.29,.38,.04,.08,.09,.15,.14,.22,.06,.07,.1,.11,.14,.11,.02,0,.05-.02,.07-.07,.02-.05,.04-.15,.06-.31l.12,.07Zm-.97-.81l-.12,.04s0-.07-.02-.13c-.19,.02-.36,.04-.5,.05l-.02-.1c.12-.14,.21-.26,.29-.38l-.28,.04-.04-.12c.12-.21,.22-.39,.28-.55l.12,.06c-.06,.13-.14,.29-.24,.47,.09,0,.17-.02,.26-.04,.04-.06,.08-.13,.13-.22l.12,.06c-.13,.22-.28,.43-.45,.64,.09,0,.19-.01,.31-.03-.01-.06-.03-.13-.06-.18l.12-.03c.05,.11,.09,.26,.12,.43Zm.95,0l-.12,.04s-.01-.07-.03-.13c-.15,.02-.31,.04-.49,.07l-.04-.12c.12-.14,.21-.26,.28-.36-.08,0-.17,.02-.28,.04l-.04-.12c.11-.18,.21-.36,.27-.54l.12,.06c-.07,.16-.15,.31-.24,.45,.05,0,.14-.02,.26-.04,.03-.05,.07-.11,.12-.19l.12,.06c-.1,.17-.24,.37-.43,.61l.3-.04c-.02-.06-.03-.11-.05-.15l.12-.04c.05,.12,.09,.25,.12,.4Z"/>
    <path class="cls-6" d="M48.28,46.27l-.1,.11c-.06-.13-.12-.24-.17-.32v1.41h-.14v-1.33c-.08,.23-.17,.43-.26,.58l-.1-.11c.13-.23,.25-.52,.35-.87h-.31v-.14h.32v-.52h.14v.52h.25v.14h-.25v.1c.1,.14,.2,.28,.28,.43Zm1.61,.71h-.19v.27c0,.06-.01,.1-.04,.14-.02,.03-.05,.05-.08,.06-.03,.01-.09,.02-.17,.02-.05,0-.1,0-.17,0l-.05-.14c.06,0,.15,0,.28,0,.05,0,.08-.03,.08-.08v-.27h-1.05v.49h-.13v-.49h-.19v-.13h.19v-.64h.59v-.19h-.75v-.12h.42v-.19h-.28v-.13h.28v-.18h-.36v-.12h.36v-.19h.13v.19h.53v-.19h.14v.19h.35v.12h-.35v.18h.28v.13h-.28v.19h.41v.12h-.75v.19h.59v.64h.19v.13Zm-.91-.45v-.19h-.46v.19h.46Zm0,.32v-.19h-.46v.19h.46Zm.34-1.27v-.18h-.53v.18h.53Zm0,.32v-.19h-.53v.19h.53Zm.25,.63v-.19h-.46v.19h.46Zm0,.32v-.19h-.46v.19h.46Z"/>
  </g>
  <g>
    <path class="cls-4" d="M5.51,37.89c-.72-2.13-1.11-4.4-1.11-6.76,0-12.03,10.09-21.82,22.5-21.82s22.49,9.79,22.49,21.82c0,2.36-.39,4.63-1.11,6.76h1.6c.67-2.14,1.03-4.41,1.03-6.76,0-12.85-10.77-23.3-24.02-23.3S2.88,18.27,2.88,31.12c0,2.35,.37,4.62,1.04,6.76h1.6Z"/>
    <path class="cls-5" d="M6.75,32.68h-1.19v-1.08h3.56v1.08h-1.19v5.21h-1.18v-5.21Z"/>
    <path class="cls-5" d="M13.39,31.59h.92l2.68,6.29h-1.29l-.63-1.62h-2.42l-.62,1.62h-1.3l2.67-6.29Zm-.33,3.58h1.57l-.79-2.01h0l-.78,2.01Z"/>
    <path class="cls-5" d="M25.34,37.89l-1.88-6.29h1.22l1.16,4.44h0l1.09-4.44h.9l1.1,4.44h0l1.16-4.44h1.23l-1.88,6.29h-.97l-1.08-4.22h0l-1.07,4.22h-.97Z"/>
    <path class="cls-5" d="M35.54,31.59h.93l2.72,6.29h-1.32l-.65-1.62h-2.46l-.63,1.62h-1.33l2.72-6.29Zm-.34,3.58h1.6l-.81-2.01h0l-.79,2.01Z"/>
    <path class="cls-5" d="M42.85,37.89h-1.2v-6.29h1.38l2.71,4.6v-4.6h1.2v6.29h-1.33l-2.76-4.63v4.63Z"/>
    <g>
      <path class="cls-1" d="M19.25,20.66c-.79,1.11-1.41,2.43-1.54,3.86-.12,1.21,.03,2.45,.36,3.78,.17-.13,.39-.33,.46-.47,.1-.19-.3-1.62-.32-1.95-.06-.9,.51-2.68,.52-2.78,.4-.74,1.02-1.22,1.46-1.92,.1-.15,.08-.53,.17-.71,.3-.58,.64-1.37,.84-2.03-.67,.62-1.36,1.36-1.95,2.23Z"/>
      <path class="cls-1" d="M23.12,1.4c-.17,0-.34,0-.5,0-.32-.12-.65-.17-.94-.35-.36-.22-.39-.95-.84-1.05-.28-.06-.84,.46-.84,.46,0,0-.23,.3-.3,.43-.19,.32-.61,.66-.93,.85-.23,.02-.46,.05-.69,.07-.19,.1-1.13,.67-1.27,.85-.21,.28-.76,1.76-.8,1.76-.1,.79-.85,1.42-1.24,2.01-.14,.21-.13,.62-.26,.83-.31,.51-.51,1.17-.8,1.71-.08,.15-.07,.59-.14,.75-.3,.67-.67,1.43-1.05,2.06-.03,.14-.06,.28-.09,.42-.23,.36-1.05,2.14-1.09,2.14,0,.43-.36,.64-.21,1.22,.13,.5,.37,1.58,.16,2.13,0,.23,.01,.47,.02,.7-.04,.11-.31,1.29-.19,1.45,.22,.32,.73,1.18,.77,1.18,.08,.61,1.03,1.91,1.36,2.39,.12,.18,.33,.77,.47,.88,.2,.17,.5,.12,.74,.27,.49,.29,1.15,.46,1.53,.89,.1,.11,.05,.27,.14,.4,.23,.32,.44,.7,.65,1.07,.04,.53,.1,1.6,.1,1.6l.32,.3,.32-.18c-.38-2.49-.84-5.14-.53-10.51-.26-1.35-.84-2.59-1.48-3.46,.4,.11,.82,.76,1.13,1.31,.3,.55,.51,1.01,.54,.78,.35-1.52,.57-3.88,1.06-6.49,.43-2.61,1.13-5.45,2.22-8-.77,2.55-1.26,4.78-1.55,6.53-.29,1.74-.38,2.99-.4,3.5,.21,.46,1.36-1.4,2.28-2.82-.59,1.57-1.65,2.95-2.3,4.52-.47,1.15-.79,2.29-.97,3.5-.19,1.21-.22,2.48-.08,3.89,.11,1.08,.55,.29,1.33-.81,.65-.92,1.55-2.05,2.55-2.57,.15-.66,.2-1.34,.45-1.96,.14-.35-.11-1.29,.02-1.61,.17-.44,.21-.97,.39-1.42,.12-.31-.02-.97,.1-1.3-.04-.7-.07-1.39-.11-2.09,.19-.34,1.12-2.41,1.23-2.87,.16-.62-.28-1.95-.46-2.26-.21-.37,.09-.89,.12-1.14,.04,0,.9-.67,.94-1.09,0-.02,0-.05,0-.07-.14-.14-.73-.74-.87-.81Z"/>
    </g>
    <path class="cls-1" d="M25.61,17.6c-1.25,1.46-4.39,3.31-5.79,5.46-.83,1.29-1.18,3.92-.08,4.99,.09,.09,.2,.07,.32-.12,.96-1.91,1.5-3.67,1-4.98,.3,.25,.38,1.21,.46,1.07,.77-1.15,.96-2.68,2.22-3.87-.54,.78-1.29,1.99-1.22,2.64,.05,.3,1.51-.79,1.72-.86-1.67,1.17-2.74,1.87-3.1,3.69-.15,.77,1.17-.54,2.21-.23-.83,.16-1.93,.5-2.49,1.27-.3,.41-.45,.93-.45,1.6,.03,.78,.96,.13,1.83-.37,1.77-.98,2.52-2.97,2.9-5.01,.38-2.03,.37-4.12,.48-5.31Z"/>
    <path class="cls-1" d="M0,20.66c5.05,2.03,12.52,1.36,15.38,6.02,.67,1.09,.91,2.26,.31,3.12-.11,.15-.29,.18-.6,.01-2.74-1.74-4.68-3.52-4.69-5.28-.33,.44,.14,1.58-.08,1.46-2.57-1.13-3.92-2.99-6.75-3.77-1.84-.51,3.87,1.52,4.39,2.9,.1,.37-2.91-.11-3.28-.07,3.38,.45,5.57,.67,7.24,2.61,.7,.81-2.26-.02-3.78,.9,1.45-.25,3.48-.44,4.87,.17,.74,.32,1.3,.86,1.71,1.64,.41,.93-1.52,.61-3.27,.48-3.51-.19-5.91-2.06-7.66-4.2-1.76-2.16-2.93-4.63-3.8-5.99Z"/>
    <path class="cls-5" d="M21.89,36.53s-.03-.09-.06-.13c-1.13-1.65-1.93-3.01-2.45-4.17,.06-.61,.22-1.62,.41-2.26,.17-.56,.42-1.12,.68-1.49,.13-.19,.09-.44-.09-.58-.18-.14-.43-.12-.59,.05-.39,.43-.79,1.2-1.04,2.02-.04,.12-.07,.24-.1,.36-.25-.81-.43-1.61-.52-2.3-.03-.23-.23-.39-.46-.38-.23,.02-.4,.21-.4,.44,.02,1.2,.4,2.87,1,4.46-.4-.26-.82-.56-1.22-.9-.64-.54-1.23-1.19-1.56-1.74-.12-.19-.37-.26-.57-.16-.2,.1-.29,.34-.2,.55,.31,.71,1.06,1.63,1.96,2.4,.83,.71,1.76,1.32,2.41,1.75,.6,1.25,1.25,2.37,1.72,3.18l.12,.21c.14,.28,.33,.34,.47,.34s.29-.08,.37-.19c.25-.33,.12-1.4,.1-1.45Z"/>
    <g>
      <path class="cls-3" d="M26.37,23.48v-2.35h1.04v.21h-.84v.85h.81v.21h-.81v1.08h-.21Z"/>
      <path class="cls-3" d="M28.04,23.17c-.21-.23-.32-.52-.32-.86s.11-.63,.32-.87c.21-.24,.47-.35,.77-.35s.57,.12,.78,.35c.21,.24,.32,.52,.32,.87s-.11,.63-.32,.86c-.21,.24-.47,.35-.78,.35s-.56-.12-.77-.35Zm1.4-.15c.17-.19,.26-.43,.26-.71s-.09-.52-.26-.72c-.17-.2-.38-.29-.63-.29s-.46,.1-.63,.29c-.17,.19-.26,.43-.26,.72s.09,.52,.26,.71c.17,.2,.38,.29,.63,.29s.46-.1,.63-.29Z"/>
      <path class="cls-3" d="M31.71,22.6c0,.3-.06,.52-.18,.68-.12,.16-.29,.24-.52,.24s-.39-.08-.51-.25c-.13-.17-.19-.39-.19-.68v-1.47h.21v1.51c0,.21,.04,.37,.13,.5,.09,.12,.21,.18,.36,.18s.28-.06,.37-.18c.09-.12,.13-.28,.13-.5v-1.51h.21v1.47Z"/>
      <path class="cls-3" d="M32.41,23.48h-.21v-2.35h.28l1.15,1.95v-1.95h.21v2.35h-.21l-1.22-2.07v2.07Z"/>
      <path class="cls-3" d="M34.33,21.12h.59c.35,0,.62,.11,.83,.32,.21,.21,.32,.49,.32,.84s-.1,.65-.31,.87c-.21,.22-.48,.33-.83,.33h-.6v-2.35Zm.21,2.15h.4c.29,0,.51-.09,.68-.26,.17-.17,.25-.41,.25-.7s-.08-.53-.25-.71c-.17-.17-.4-.26-.69-.26h-.38v1.93Z"/>
      <path class="cls-3" d="M37.19,21.12h.23l.89,2.35h-.23l-.29-.8h-.97l-.29,.8h-.22l.89-2.35Zm-.3,1.35h.82l-.41-1.1h0l-.41,1.1Z"/>
      <path class="cls-3" d="M38.89,21.34h-.47v-.21h1.15v.21h-.47v2.14h-.21v-2.14Z"/>
      <path class="cls-3" d="M39.87,21.12h.21v2.35h-.21v-2.35Z"/>
      <path class="cls-3" d="M40.8,23.17c-.21-.23-.32-.52-.32-.86s.11-.63,.32-.87c.21-.24,.47-.35,.77-.35s.56,.12,.78,.35c.21,.24,.32,.52,.32,.87s-.11,.63-.32,.86c-.21,.24-.47,.35-.78,.35s-.56-.12-.77-.35Zm1.4-.15c.17-.19,.25-.43,.25-.71s-.09-.52-.25-.72c-.17-.2-.38-.29-.63-.29s-.46,.1-.63,.29c-.17,.19-.26,.43-.26,.72s.09,.52,.26,.71c.17,.2,.38,.29,.63,.29s.46-.1,.63-.29Z"/>
      <path class="cls-3" d="M43.27,23.48h-.21v-2.35h.28l1.15,1.95v-1.95h.21v2.35h-.21l-1.23-2.07v2.07Z"/>
      <path class="cls-3" d="M26.38,26.83v-2.36h1.09v.21h-.87v.85h.84v.21h-.84v1.08h-.22Z"/>
      <path class="cls-3" d="M28.59,26.52c-.22-.23-.33-.52-.33-.87s.11-.63,.33-.86c.22-.24,.49-.35,.81-.35s.59,.12,.81,.35c.22,.24,.33,.52,.33,.86s-.11,.63-.33,.87c-.22,.23-.49,.35-.81,.35s-.59-.12-.81-.35Zm1.46-.15c.18-.2,.26-.43,.26-.72s-.09-.52-.26-.71c-.18-.2-.4-.29-.65-.29s-.48,.1-.65,.29c-.18,.19-.27,.43-.27,.71s.09,.52,.27,.72c.18,.19,.39,.29,.65,.29s.48-.1,.65-.29Z"/>
      <path class="cls-3" d="M31.41,24.47h.66c.25,0,.45,.07,.59,.2,.14,.13,.21,.32,.21,.55s-.07,.42-.21,.55c-.11,.1-.25,.16-.43,.19l.61,.87h-.27l-.74-1.07h.23c.18,0,.33-.05,.43-.14,.1-.09,.15-.23,.15-.4s-.05-.3-.15-.4c-.1-.1-.25-.14-.43-.14h-.44v2.15h-.22v-2.36Z"/>
      <path class="cls-3" d="M35.63,26.04l-.75-1.57h.25l.62,1.34h0l.61-1.34h.24l-.75,1.57v.79h-.22v-.79Z"/>
      <path class="cls-3" d="M38.83,25.95c0,.29-.07,.52-.19,.68-.13,.16-.31,.24-.54,.24s-.4-.08-.53-.25c-.13-.16-.2-.39-.2-.67v-1.48h.22v1.5c0,.21,.05,.38,.14,.5,.09,.12,.22,.18,.38,.18s.29-.06,.38-.18c.09-.12,.13-.28,.13-.5v-1.5h.22v1.48Z"/>
      <path class="cls-3" d="M40.04,26.83h-.22v-2.36h.29l1.2,1.95v-1.95h.22v2.36h-.22l-1.28-2.07v2.07Z"/>
      <path class="cls-3" d="M43.98,25.95c0,.29-.06,.52-.19,.68-.12,.16-.31,.24-.54,.24s-.4-.08-.53-.25c-.13-.16-.2-.39-.2-.67v-1.48h.21v1.5c0,.21,.05,.38,.14,.5,.09,.12,.22,.18,.38,.18s.29-.06,.38-.18c.09-.12,.13-.28,.13-.5v-1.5h.22v1.48Z"/>
      <path class="cls-3" d="M45.87,25.08c-.01-.13-.05-.24-.13-.31-.07-.08-.16-.12-.27-.12s-.2,.04-.28,.11c-.08,.08-.11,.17-.11,.28s.03,.2,.1,.26c.07,.07,.18,.12,.34,.17,.21,.06,.37,.15,.46,.27,.1,.11,.14,.26,.14,.45s-.06,.35-.19,.49c-.13,.13-.28,.2-.47,.2-.2,0-.36-.06-.47-.19-.12-.13-.18-.3-.18-.5h.21c.02,.16,.06,.28,.14,.36,.08,.08,.18,.12,.31,.12s.23-.04,.31-.13c.09-.09,.13-.2,.13-.32s-.04-.24-.11-.32c-.08-.08-.2-.14-.38-.2-.19-.06-.33-.14-.42-.24-.09-.1-.13-.23-.13-.4,0-.17,.06-.32,.17-.44,.12-.12,.26-.18,.43-.18s.31,.06,.43,.18c.11,.12,.17,.27,.17,.46h-.21Z"/>
      <path class="cls-3" d="M27.2,28.43c-.01-.13-.05-.24-.11-.31-.06-.08-.15-.11-.24-.11s-.19,.04-.26,.11c-.07,.08-.11,.17-.11,.28s.03,.19,.09,.26c.06,.07,.16,.12,.31,.17,.19,.06,.34,.15,.43,.26,.09,.11,.13,.27,.13,.45s-.06,.35-.17,.49c-.12,.13-.26,.2-.43,.2s-.32-.07-.43-.2c-.11-.13-.17-.3-.17-.5h.19c.02,.16,.06,.28,.13,.36,.07,.08,.16,.12,.28,.12s.21-.05,.29-.13c.08-.09,.12-.2,.12-.32s-.03-.24-.1-.32c-.07-.08-.19-.14-.35-.2-.17-.06-.3-.14-.38-.24-.08-.1-.12-.23-.12-.4s.05-.32,.16-.44c.11-.12,.24-.18,.39-.18s.29,.06,.39,.18c.1,.12,.16,.27,.16,.46h-.19Z"/>
      <path class="cls-3" d="M27.9,29.87c-.2-.23-.3-.52-.3-.86s.1-.63,.3-.87c.2-.23,.45-.35,.74-.35s.54,.12,.74,.35c.2,.24,.3,.52,.3,.87s-.1,.63-.3,.86c-.2,.23-.45,.36-.74,.36s-.54-.12-.74-.36Zm1.35-.15c.16-.19,.24-.43,.24-.71s-.08-.52-.24-.72c-.16-.2-.36-.29-.6-.29s-.44,.1-.6,.29c-.16,.19-.25,.43-.25,.72s.08,.52,.25,.71c.16,.19,.36,.29,.6,.29s.44-.1,.6-.29Z"/>
      <path class="cls-3" d="M31.84,29.56c-.07,.19-.19,.35-.37,.47-.17,.12-.35,.19-.54,.19-.29,0-.54-.12-.74-.36-.2-.23-.3-.52-.3-.86s.1-.63,.3-.87c.2-.23,.45-.35,.74-.35,.19,0,.36,.06,.53,.18,.17,.12,.28,.28,.35,.46h-.21c-.06-.13-.16-.23-.28-.31-.13-.08-.26-.12-.39-.12-.24,0-.43,.1-.6,.29-.16,.19-.24,.43-.24,.72s.08,.52,.24,.71c.16,.19,.36,.29,.6,.29,.14,0,.27-.04,.4-.13,.13-.08,.23-.19,.29-.32h.22Z"/>
      <path class="cls-3" d="M32.13,27.83h.2v2.36h-.2v-2.36Z"/>
      <path class="cls-3" d="M33.39,27.83h.22l.85,2.36h-.22l-.28-.8h-.93l-.28,.8h-.21l.85-2.36Zm-.28,1.35h.78l-.4-1.1h0l-.39,1.1Z"/>
      <path class="cls-3" d="M34.68,30.18v-2.36h.2v2.14h.82v.21h-1.01Z"/>
      <path class="cls-3" d="M36.58,27.83h.52c.19,0,.35,.05,.46,.16,.11,.11,.16,.25,.16,.44s-.05,.33-.16,.44c-.02,.02-.04,.04-.07,.05,.06,.03,.12,.07,.16,.11,.12,.12,.19,.28,.19,.49s-.06,.37-.17,.49c-.11,.12-.27,.18-.48,.18h-.61v-2.36Zm.2,1.01h.35c.12,0,.22-.03,.29-.11,.07-.07,.1-.17,.1-.29s-.04-.22-.11-.29c-.08-.07-.18-.11-.31-.11h-.32v.8Zm0,1.13h.41c.14,0,.25-.04,.33-.12,.08-.08,.12-.19,.12-.34s-.04-.26-.13-.34c-.09-.08-.21-.12-.36-.12h-.37v.92Z"/>
      <path class="cls-3" d="M39.44,29.3c0,.29-.06,.52-.18,.68-.11,.16-.28,.24-.5,.24s-.37-.09-.49-.25c-.12-.16-.18-.39-.18-.67v-1.47h.2v1.5c0,.21,.04,.37,.13,.5,.09,.12,.2,.18,.35,.18s.27-.06,.35-.18c.08-.12,.12-.29,.12-.5v-1.5h.2v1.47Z"/>
      <path class="cls-3" d="M40.65,28.43c-.01-.13-.05-.24-.12-.31-.06-.08-.14-.11-.24-.11-.1,0-.19,.04-.26,.11-.07,.08-.1,.17-.1,.28s.03,.19,.09,.26c.06,.07,.16,.12,.31,.17,.2,.06,.34,.15,.42,.26,.09,.11,.13,.27,.13,.45s-.06,.35-.17,.49c-.11,.13-.26,.2-.43,.2-.18,0-.32-.07-.44-.2-.11-.13-.17-.3-.17-.5h.19c.02,.16,.06,.28,.13,.36,.07,.08,.16,.12,.28,.12s.21-.05,.29-.13c.08-.09,.12-.2,.12-.32s-.04-.24-.1-.32c-.07-.08-.19-.14-.35-.2-.18-.06-.31-.14-.39-.24-.08-.1-.12-.23-.12-.4s.05-.32,.16-.44c.11-.12,.24-.18,.39-.18s.29,.06,.39,.18c.1,.12,.16,.27,.16,.46h-.19Z"/>
      <path class="cls-3" d="M41.13,27.83h.2v2.36h-.2v-2.36Z"/>
      <path class="cls-3" d="M41.9,30.18h-.2v-2.36h.27l1.11,1.95v-1.95h.2v2.36h-.2l-1.18-2.07v2.07Z"/>
      <path class="cls-3" d="M43.64,30.18v-2.36h1.08v.21h-.89v.85h.86v.21h-.86v.87h.89v.21h-1.08Z"/>
      <path class="cls-3" d="M45.89,28.43c-.01-.13-.05-.24-.12-.31-.06-.08-.14-.11-.24-.11s-.19,.04-.26,.11c-.07,.08-.1,.17-.1,.28s.03,.19,.09,.26c.06,.07,.17,.12,.31,.17,.2,.06,.34,.15,.43,.26,.09,.11,.13,.27,.13,.45s-.06,.35-.17,.49c-.12,.13-.26,.2-.43,.2-.18,0-.33-.07-.44-.2-.11-.13-.17-.3-.17-.5h.2c.02,.16,.06,.28,.13,.36,.07,.08,.16,.12,.28,.12s.21-.05,.29-.13c.08-.09,.12-.2,.12-.32s-.04-.24-.1-.32c-.07-.08-.19-.14-.35-.2-.18-.06-.31-.14-.38-.24-.08-.1-.12-.23-.12-.4s.05-.32,.16-.44c.11-.12,.24-.18,.39-.18s.29,.06,.39,.18c.11,.12,.16,.27,.16,.46h-.19Z"/>
      <path class="cls-3" d="M47.36,28.43c-.01-.13-.05-.24-.12-.31-.06-.08-.14-.11-.24-.11s-.19,.04-.26,.11c-.07,.08-.1,.17-.1,.28s.03,.19,.09,.26c.06,.07,.16,.12,.31,.17,.2,.06,.34,.15,.43,.26,.09,.11,.13,.27,.13,.45s-.06,.35-.17,.49c-.12,.13-.26,.2-.43,.2-.18,0-.32-.07-.43-.2-.11-.13-.17-.3-.17-.5h.2c.02,.16,.06,.28,.13,.36,.07,.08,.16,.12,.28,.12s.22-.05,.29-.13c.08-.09,.12-.2,.12-.32s-.04-.24-.1-.32c-.07-.08-.19-.14-.35-.2-.18-.06-.31-.14-.39-.24-.08-.1-.12-.23-.12-.4s.05-.32,.16-.44c.11-.12,.24-.18,.39-.18s.29,.06,.39,.18c.11,.12,.16,.27,.16,.46h-.19Z"/>
    </g>
  </g>
</svg>