<svg width="93" height="133" viewBox="0 0 93 133" fill="none" xmlns="http://www.w3.org/2000/svg">
<path d="M20.1641 17.9799V20.0499H44.334V16.5699H21.5741C20.7941 16.5599 20.1641 17.1899 20.1641 17.9799Z" fill="#A61E32"/>
<path d="M52.7617 16.56V20.04H75.5217C76.3017 20.04 76.9417 19.41 76.9417 18.62V16.55H52.7617V16.56Z" fill="#A61E32"/>
<path d="M25.2734 72.77V74.84H48.4734V71.36H26.6935C25.9135 71.35 25.2734 71.99 25.2734 72.77Z" fill="#A61E32"/>
<path d="M52.5508 71.3501V74.8301H70.1908C70.9708 74.8301 71.6108 74.2001 71.6108 73.4101V71.3401H52.5508V71.3501Z" fill="#A61E32"/>
<path d="M52.5508 81.4399V84.9199H67.7808C68.5608 84.9199 69.2008 84.2899 69.2008 83.4999V81.4299H52.5508V81.4399Z" fill="#A61E32"/>
<path d="M27.6914 82.8601V84.9301H44.3414V81.4501H29.1014C28.3214 81.4401 27.6914 82.0701 27.6914 82.8601Z" fill="#A61E32"/>
<path d="M52.5508 91.1201V94.6001H70.1908C70.9708 94.6001 71.6108 93.9701 71.6108 93.1801V91.1101H52.5508V91.1201Z" fill="#A61E32"/>
<path d="M25.2734 92.54V94.61H44.3334V91.13H26.6935C25.9135 91.12 25.2734 91.76 25.2734 92.54Z" fill="#A61E32"/>
<path d="M44.3308 101.7H43.2308H42.1308H21.9008C21.1508 101.7 20.5508 102.33 20.5508 103.11V105.17H43.2308V105.14C44.2108 103.99 44.3308 101.7 44.3308 101.7Z" fill="#A61E32"/>
<path d="M48.5312 101.69V105.17H76.2712C77.0512 105.17 77.6913 104.54 77.6913 103.75V101.68H48.5312V101.69Z" fill="#A61E32"/>
<path d="M77.2117 48.69C75.3917 48.93 72.6317 49.13 70.9417 49.11C59.5117 48.93 50.2117 39.32 50.2117 27.7V1.45004C50.2117 0.810043 49.6917 0.290039 49.0517 0.290039H47.8917C47.2517 0.290039 46.7317 0.810043 46.7317 1.45004V27.7C46.7317 39.33 37.4317 48.93 26.0017 49.11C24.6617 49.13 23.2717 49.07 21.8517 48.92C21.2217 48.86 20.6517 49.29 20.5717 49.92L20.2617 52.2401C22.0517 52.4801 23.8117 52.59 25.4917 52.59C25.6817 52.59 25.8717 52.59 26.0517 52.59C36.1917 52.43 44.8917 45.91 48.4617 36.84C52.0317 45.91 60.7317 52.43 70.8717 52.59C71.0617 52.59 71.2517 52.59 71.4317 52.59C73.1117 52.59 75.4017 52.4 77.1917 52.17V48.69H77.2117Z" fill="#A61E32"/>
<path d="M20.2923 123.83L20.0423 121.5C19.9723 120.87 20.4223 120.31 21.0523 120.23C34.5623 118.38 46.6023 109.58 46.6023 101.36L46.7823 71.3501L50.2623 71.3701L50.0823 101.37C50.0823 106.6 46.7323 111.88 40.6423 116.24C35.0023 120.28 27.5923 123.04 20.2923 123.83Z" fill="#A61E32"/>
<path d="M74.9805 123.68C57.2705 123.68 49.8105 110.68 49.4805 110.1L52.5204 108.4C52.8204 108.92 59.8405 120.99 76.6405 120.16C77.2705 120.13 77.8205 120.59 77.8705 121.22L78.0605 123.55C77.0005 123.64 75.9705 123.68 74.9805 123.68Z" fill="#A61E32"/>
<path d="M30.4316 62.75H32.0816C32.5316 62.75 32.9416 63.01 33.1316 63.42L36.9816 71.63H33.5016L29.8116 63.74C29.5816 63.28 29.9216 62.75 30.4316 62.75Z" fill="#A61E32"/>
<path d="M66.4836 62.75H64.8336C64.3836 62.75 63.9736 63.01 63.7836 63.42L59.9336 71.63H63.4136L67.1036 63.74C67.3336 63.28 66.9936 62.75 66.4836 62.75Z" fill="#A61E32"/>
<path d="M0.822007 3.6001H6.592C6.632 4.1501 6.67199 4.8101 6.65199 5.4101C6.59199 6.7601 6.04201 7.49009 5.35201 7.87009C4.88201 8.13009 4.33201 8.19009 3.70201 8.19009C3.00201 8.19009 2.36199 8.0701 1.86199 7.7101C1.20199 7.2401 0.811989 6.47009 0.771989 5.36009C0.751989 4.76009 0.782007 4.1801 0.822007 3.6001ZM3.71199 7.33009C5.41199 7.33009 6.10201 6.63009 6.10201 5.11009C6.10201 4.89009 6.092 4.6401 6.062 4.4101H1.36199C1.30199 4.6201 1.30199 4.85009 1.30199 5.06009C1.30199 6.62009 2.05199 7.33009 3.71199 7.33009Z" fill="#A61E32"/>
<path d="M1.31052 12.3702C0.930517 12.1502 0.690533 11.7002 0.670533 11.1102C0.620533 9.91018 1.31053 9.57018 1.98053 9.60018C2.72053 9.62018 3.28051 10.2202 3.33051 11.5502C3.34051 11.8702 3.34052 12.1202 3.31052 12.3102H3.6105C4.3205 12.3102 4.60053 12.0202 4.60053 11.4602C4.60053 10.9502 4.30051 10.3402 4.02051 9.92017H4.59052C4.81052 10.3402 5.04051 10.9502 5.05051 11.5002C5.08051 12.4702 4.5305 13.0702 3.6105 13.0702H1.67053C1.43053 13.0802 1.01051 13.1202 0.770508 13.1702V12.4302C0.980508 12.3902 1.13052 12.3802 1.31052 12.3702ZM2.89053 11.6002C2.87053 10.9502 2.63053 10.3502 2.01053 10.3402C1.51053 10.3302 1.16052 10.6202 1.16052 11.1902C1.16052 11.5302 1.20053 11.7802 1.45053 12.0302C1.76053 12.3102 2.07053 12.3202 2.39053 12.3302H2.85053C2.90053 12.1502 2.90053 11.8702 2.89053 11.6002Z" fill="#A61E32"/>
<path d="M4.9317 14.73V15.42H4.17172C4.46172 15.48 5.05171 15.88 5.06171 16.54C5.07171 17.28 4.7217 17.76 4.1217 17.91C4.5717 18.07 5.06171 18.5 5.06171 19.13C5.06171 20.15 4.5217 20.6 3.5217 20.6H0.761719V19.85H3.45172C4.11172 19.85 4.53171 19.64 4.53171 19C4.53171 18.33 3.86172 18.04 3.29172 18.04H0.761719V17.29H3.41171C4.03171 17.29 4.54172 17.05 4.54172 16.39C4.54172 15.79 3.88171 15.48 3.31171 15.48H0.771698V14.73H4.9317Z" fill="#A61E32"/>
<path d="M1.31052 24.8401C0.930517 24.6201 0.690533 24.1701 0.670533 23.5801C0.620533 22.3801 1.31053 22.0402 1.98053 22.0702C2.72053 22.0902 3.28051 22.6901 3.33051 24.0201C3.34051 24.3401 3.34052 24.5901 3.31052 24.7801H3.6105C4.3205 24.7801 4.60053 24.4901 4.60053 23.9301C4.60053 23.4201 4.30051 22.8101 4.02051 22.3901H4.59052C4.81052 22.8101 5.04051 23.4201 5.05051 23.9701C5.08051 24.9401 4.5305 25.5401 3.6105 25.5401H1.67053C1.43053 25.5501 1.01051 25.5901 0.770508 25.6401V24.9001C0.980508 24.8501 1.13052 24.8401 1.31052 24.8401ZM2.89053 24.0601C2.87053 23.4101 2.63053 22.8101 2.01053 22.8001C1.51053 22.7901 1.16052 23.0801 1.16052 23.6501C1.16052 23.9901 1.20053 24.2402 1.45053 24.4902C1.76053 24.7702 2.07053 24.7801 2.39053 24.7901H2.85053C2.90053 24.6101 2.90053 24.3301 2.89053 24.0601Z" fill="#A61E32"/>
<path d="M4.92953 27.3102V28.0602H0.769531V27.3102H4.92953ZM6.32953 27.2002C6.58953 27.2002 6.78955 27.4202 6.78955 27.6902C6.78955 27.9602 6.58953 28.1702 6.32953 28.1702C6.07953 28.1702 5.86954 27.9602 5.86954 27.6902C5.85954 27.4202 6.07953 27.2002 6.32953 27.2002Z" fill="#A61E32"/>
<path d="M2.90109 29.68C4.09109 29.7 5.07111 30.5 5.07111 31.66C5.06111 32.9 4.06109 33.5 3.18109 33.5C3.05109 33.51 2.9411 33.49 2.8111 33.47V30.5C1.7911 30.5 1.11111 30.87 1.07111 31.79C1.05111 32.38 1.2411 32.83 1.5611 33.23H0.96109C0.76109 32.97 0.621094 32.48 0.621094 31.76C0.621094 30.52 1.34109 29.66 2.90109 29.68ZM3.23111 32.66C3.87111 32.68 4.65109 32.26 4.65109 31.6C4.65109 30.9 3.87111 30.54 3.23111 30.52V32.66Z" fill="#A61E32"/>
<path d="M6.21234 40.5401C6.21234 39.3301 5.00235 38.8801 3.72235 38.8701C2.48235 38.8501 1.22235 39.2601 1.22235 40.6601C1.22235 41.3001 1.48234 41.7201 1.77234 42.0501H1.05234C0.792338 41.7401 0.652344 41.2201 0.652344 40.4701C0.652344 38.7701 2.03234 38.0001 3.71234 38.0101C5.47234 38.0301 6.76236 38.8301 6.76236 40.4701C6.76236 41.0101 6.63234 41.6101 6.37234 42.0501H5.59235C5.90235 41.7501 6.21234 41.1201 6.21234 40.5401Z" fill="#A61E32"/>
<path d="M2.14062 44.3701C1.60062 44.3701 1.14062 44.5701 1.14062 45.2401C1.14062 46.1001 1.8806 46.3801 2.6106 46.3801H4.92062V47.1301H0.76062V46.4401H1.54062C1.16062 46.3101 0.640625 45.7801 0.640625 45.0301C0.640625 44.0901 1.19061 43.6101 2.06061 43.6101H4.9306V44.3601H2.14062V44.3701Z" fill="#A61E32"/>
<path d="M0.829938 49.1701C1.00994 48.9501 1.27994 48.8401 1.85994 48.8401H6.89995V49.5901H1.91996C1.30996 49.5901 1.13997 49.6401 1.13997 50.0101C1.13997 50.1401 1.16995 50.3001 1.24995 50.4501H0.759961C0.599961 50.0501 0.579938 49.4801 0.829938 49.1701Z" fill="#A61E32"/>
<path d="M0.660156 53.07C0.660156 52.54 0.820161 52.3 1.04016 52.16C1.29016 51.99 1.59014 51.94 1.96014 51.94H4.47015V51.28H4.92017V51.94H6.04016V52.69H4.92017V53.67H4.47015V52.69H1.93015C1.48015 52.69 1.15015 52.72 1.15015 53.24C1.15015 53.4 1.17014 53.52 1.27014 53.7H0.790161C0.690161 53.52 0.660156 53.28 0.660156 53.07Z" fill="#A61E32"/>
<path d="M2.14062 55.8201C1.60062 55.8201 1.14062 56.0201 1.14062 56.6901C1.14062 57.5501 1.8806 57.8301 2.6106 57.8301H4.92062V58.5801H0.76062V57.8901H1.54062C1.16062 57.7601 0.640625 57.2301 0.640625 56.4801C0.640625 55.5401 1.19061 55.0601 2.06061 55.0601H4.9306V55.8101H2.14062V55.8201Z" fill="#A61E32"/>
<path d="M4.92953 60.3101V61.0001C4.64953 60.9901 4.28954 60.9901 4.02954 60.9801C4.60954 61.1701 4.99955 61.6101 5.03955 62.0401C5.05955 62.1801 5.05953 62.3301 5.01953 62.4801H4.27954C4.37954 62.2401 4.37953 62.1001 4.29953 61.9001C4.03953 61.2001 3.37954 61.0601 2.93954 61.0601H0.769531V60.3101H4.92953Z" fill="#A61E32"/>
<path d="M2.90109 63.4C4.09109 63.42 5.07111 64.22 5.07111 65.38C5.06111 66.62 4.06109 67.22 3.18109 67.22C3.05109 67.23 2.9411 67.21 2.8111 67.19V64.22C1.7911 64.22 1.11111 64.59 1.07111 65.51C1.05111 66.1 1.2411 66.55 1.5611 66.95H0.96109C0.76109 66.69 0.621094 66.2 0.621094 65.48C0.621094 64.25 1.34109 63.39 2.90109 63.4ZM3.23111 66.39C3.87111 66.41 4.65109 65.99 4.65109 65.33C4.65109 64.63 3.87111 64.27 3.23111 64.25V66.39Z" fill="#A61E32"/>
<path d="M1.31052 74.3802C0.930517 74.1602 0.690533 73.7102 0.670533 73.1202C0.620533 71.9202 1.31053 71.5802 1.98053 71.6102C2.72053 71.6302 3.28051 72.2302 3.33051 73.5602C3.34051 73.8802 3.34052 74.1302 3.31052 74.3202H3.6105C4.3205 74.3202 4.60053 74.0302 4.60053 73.4702C4.60053 72.9602 4.30051 72.3502 4.02051 71.9302H4.59052C4.81052 72.3502 5.04051 72.9602 5.05051 73.5102C5.08051 74.4802 4.5305 75.0802 3.6105 75.0802H1.67053C1.43053 75.0902 1.01051 75.1302 0.770508 75.1802V74.4402C0.980508 74.3902 1.13052 74.3902 1.31052 74.3802ZM2.89053 73.6002C2.87053 72.9502 2.63053 72.3502 2.01053 72.3402C1.51053 72.3302 1.16052 72.6202 1.16052 73.1902C1.16052 73.5302 1.20053 73.7802 1.45053 74.0302C1.76053 74.3102 2.07053 74.3202 2.39053 74.3302H2.85053C2.90053 74.1502 2.90053 73.8702 2.89053 73.6002Z" fill="#A61E32"/>
<path d="M3.5517 79.51C4.0917 79.51 4.5517 79.31 4.5517 78.64C4.5517 77.78 3.8117 77.5 3.0817 77.5H0.771698V76.75H4.9317V77.44H4.1517C4.5717 77.58 5.0617 78.07 5.0517 78.85C5.0417 79.79 4.50171 80.27 3.63171 80.27H0.761719V79.52H3.5517V79.51Z" fill="#A61E32"/>
<path d="M2.90068 81.76C4.15068 81.76 5.06067 82.46 5.05067 83.56C5.06067 84.21 4.74069 84.65 4.35069 84.87H6.91069V85.62H0.770673V84.93H1.47069C1.10069 84.78 0.640699 84.32 0.640699 83.6C0.630699 82.32 1.64068 81.76 2.90068 81.76ZM2.65068 84.95H3.22069C3.95069 84.89 4.6707 84.45 4.6707 83.73C4.6707 82.83 3.67068 82.57 2.90068 82.57C2.04068 82.57 1.08068 82.78 1.06068 83.73C1.07068 84.45 1.78068 84.88 2.65068 84.95Z" fill="#A61E32"/>
<path d="M0.769531 90.4702H6.63956V93.8202H6.11954V91.2802H4.11954V93.4802H3.59955V91.2802H1.29953V93.8902H0.769531V90.4702Z" fill="#A61E32"/>
<path d="M0.632812 96.2002C0.632812 95.7702 0.74282 95.3002 0.95282 94.9402H1.51282C1.23282 95.3502 1.08281 95.6802 1.07281 96.2002C1.06281 96.9502 1.54281 97.0402 1.82281 97.0402C2.14281 97.0402 2.37281 96.7602 2.56281 96.2702C2.90281 95.4102 3.17281 94.9902 3.85281 94.9902C4.58281 94.9902 5.04282 95.6302 5.04282 96.4902C5.04282 96.8202 4.97281 97.2102 4.78281 97.5702H4.1828C4.5028 97.1902 4.60281 96.7502 4.60281 96.5502C4.60281 96.0502 4.31281 95.7202 4.00281 95.7202C3.59281 95.7202 3.48281 95.8602 3.19281 96.5302C2.86281 97.2902 2.5328 97.7802 1.9028 97.7802C1.1528 97.7902 0.632812 97.4002 0.632812 96.2002Z" fill="#A61E32"/>
<path d="M0.660156 100.64C0.660156 100.11 0.820161 99.8701 1.04016 99.7301C1.29016 99.5601 1.59014 99.5101 1.96014 99.5101H4.47015V98.8501H4.92017V99.5101H6.04016V100.26H4.92017V101.24H4.47015V100.26H1.93015C1.48015 100.26 1.15015 100.29 1.15015 100.81C1.15015 100.97 1.17014 101.09 1.27014 101.27H0.790161C0.690161 101.08 0.660156 100.84 0.660156 100.64Z" fill="#A61E32"/>
<path d="M3.5517 105.44C4.0917 105.44 4.5517 105.22 4.5517 104.55C4.5517 103.69 3.8117 103.41 3.0817 103.41H0.771698V102.66H6.9017V103.41H4.2417C4.6417 103.59 5.0617 104.02 5.0517 104.75C5.0417 105.69 4.50171 106.19 3.63171 106.19H0.761719V105.44H3.5517Z" fill="#A61E32"/>
<path d="M2.90109 107.72C4.09109 107.74 5.07111 108.54 5.07111 109.7C5.06111 110.94 4.06109 111.54 3.18109 111.54C3.05109 111.55 2.9411 111.53 2.8111 111.51V108.54C1.7911 108.54 1.11111 108.91 1.07111 109.83C1.05111 110.42 1.2411 110.87 1.5611 111.27H0.96109C0.76109 111.01 0.621094 110.52 0.621094 109.8C0.621094 108.56 1.34109 107.7 2.90109 107.72ZM3.23111 110.7C3.87111 110.72 4.65109 110.3 4.65109 109.64C4.65109 108.94 3.87111 108.58 3.23111 108.56V110.7Z" fill="#A61E32"/>
<path d="M0.660156 114.47C0.660156 113.94 0.820161 113.7 1.04016 113.56C1.29016 113.39 1.59014 113.34 1.96014 113.34H4.47015V112.68H4.92017V113.34H6.04016V114.09H4.92017V115.07H4.47015V114.09H1.93015C1.48015 114.09 1.15015 114.12 1.15015 114.64C1.15015 114.8 1.17014 114.92 1.27014 115.1H0.790161C0.690161 114.91 0.660156 114.67 0.660156 114.47Z" fill="#A61E32"/>
<path d="M4.92953 116.61V117.36H0.769531V116.61H4.92953ZM6.32953 116.5C6.58953 116.5 6.78955 116.72 6.78955 116.99C6.78955 117.26 6.58953 117.47 6.32953 117.47C6.07953 117.47 5.86954 117.26 5.86954 116.99C5.85954 116.72 6.07953 116.5 6.32953 116.5Z" fill="#A61E32"/>
<path d="M0.621094 120.99C0.641094 119.56 1.4811 118.98 2.8511 118.98C3.9011 118.98 5.0811 119.56 5.0611 120.95C5.0511 121.56 4.90109 121.96 4.71109 122.28H4.08109C4.39109 121.94 4.63109 121.6 4.62109 121.03C4.60109 120.02 3.52111 119.79 2.82111 119.79C1.89111 119.79 1.07109 120.09 1.05109 121.12C1.04109 121.74 1.20111 121.95 1.51111 122.31H0.911102C0.731102 122 0.621094 121.58 0.621094 120.99Z" fill="#A61E32"/>
<path d="M0.632812 124.77C0.632812 124.34 0.74282 123.87 0.95282 123.51H1.51282C1.23282 123.92 1.08281 124.25 1.07281 124.77C1.06281 125.52 1.54281 125.61 1.82281 125.61C2.14281 125.61 2.37281 125.33 2.56281 124.84C2.90281 123.98 3.17281 123.56 3.85281 123.56C4.58281 123.56 5.04282 124.2 5.04282 125.06C5.04282 125.39 4.97281 125.78 4.78281 126.14H4.1828C4.5028 125.76 4.60281 125.32 4.60281 125.12C4.60281 124.62 4.31281 124.29 4.00281 124.29C3.59281 124.29 3.48281 124.43 3.19281 125.1C2.86281 125.86 2.5328 126.35 1.9028 126.35C1.1528 126.35 0.632812 125.97 0.632812 124.77Z" fill="#A61E32"/>
<path d="M88.7208 132.46C86.4208 132.46 84.5508 130.59 84.5508 128.29C84.5508 125.99 86.4208 124.12 88.7208 124.12C91.0208 124.12 92.8908 125.99 92.8908 128.29C92.8908 130.59 91.0208 132.46 88.7208 132.46ZM88.7208 125.22C87.0208 125.22 85.6408 126.6 85.6408 128.3C85.6408 130 87.0208 131.37 88.7208 131.37C90.4208 131.37 91.8008 129.99 91.8008 128.3C91.8008 126.61 90.4108 125.22 88.7208 125.22Z" fill="#A61E32"/>
</svg>
