<?xml version="1.0" encoding="UTF-8"?>
<svg xmlns="http://www.w3.org/2000/svg" xmlns:xlink="http://www.w3.org/1999/xlink" width="321px" height="56px" viewBox="0 0 321 56" version="1.1">
<g id="surface1">
<path style=" stroke:none;fill-rule:nonzero;fill:rgb(1.568627%,0%,0%);fill-opacity:1;" d="M 28.714844 25.917969 L 24.957031 23.691406 C 23.414062 22.785156 22.300781 21.933594 21.652344 21.164062 C 21.105469 20.519531 20.835938 19.859375 20.835938 19.160156 C 20.835938 18.460938 21.144531 17.90625 21.808594 17.425781 C 22.597656 16.859375 23.65625 16.574219 24.957031 16.574219 C 27.425781 16.574219 29.785156 17.648438 31.976562 19.761719 L 34.300781 22.007812 L 34.300781 12.460938 L 33.695312 12.050781 C 31.085938 10.289062 28.175781 9.402344 25.046875 9.402344 C 21.71875 9.402344 18.953125 10.375 16.832031 12.285156 C 14.664062 14.238281 13.566406 16.796875 13.566406 19.894531 C 13.566406 21.980469 14.152344 23.859375 15.308594 25.480469 C 16.402344 27.011719 18.21875 28.554688 20.703125 30.082031 L 24.425781 32.347656 C 26.992188 33.949219 28.292969 35.554688 28.292969 37.128906 C 28.292969 38.007812 27.960938 38.699219 27.246094 39.296875 C 26.472656 39.949219 25.503906 40.261719 24.285156 40.261719 C 21.214844 40.261719 18.558594 38.785156 16.160156 35.734375 L 13.710938 32.625 L 13.710938 43.515625 L 14.265625 43.933594 C 17.273438 46.191406 20.664062 47.335938 24.335938 47.335938 C 27.628906 47.335938 30.351562 46.34375 32.449219 44.382812 C 34.570312 42.402344 35.644531 39.804688 35.644531 36.664062 C 35.644531 32.296875 33.304688 28.679688 28.699219 25.921875 Z M 28.714844 25.917969 "/>
<path style=" stroke:none;fill-rule:nonzero;fill:rgb(1.568627%,0%,0%);fill-opacity:1;" d="M 48.46875 21.121094 C 44.96875 21.121094 42.078125 22.363281 39.871094 24.808594 C 37.699219 27.210938 36.597656 30.351562 36.597656 34.128906 C 36.597656 36.636719 37.117188 38.894531 38.148438 40.835938 C 39.179688 42.777344 40.570312 44.347656 42.292969 45.5 C 44.046875 46.683594 46.335938 47.28125 49.089844 47.28125 C 51.027344 47.28125 52.757812 47.066406 54.222656 46.636719 C 55.703125 46.207031 57.203125 45.484375 58.683594 44.496094 L 59.292969 44.085938 L 59.292969 36.25 L 57.105469 37.863281 C 54.875 39.511719 52.402344 40.351562 49.777344 40.351562 C 48.019531 40.351562 46.636719 39.851562 45.554688 38.8125 C 44.78125 38.0625 44.269531 37.148438 44.007812 36.019531 L 59.6875 36.019531 L 59.6875 34.078125 C 59.6875 30.234375 58.675781 27.101562 56.683594 24.753906 C 54.636719 22.339844 51.871094 21.121094 48.476562 21.121094 Z M 48.46875 27.757812 C 49.699219 27.757812 50.632812 28.097656 51.316406 28.800781 C 51.761719 29.25 52.085938 29.851562 52.285156 30.585938 L 44.324219 30.585938 C 44.609375 29.871094 44.996094 29.285156 45.472656 28.832031 C 46.242188 28.113281 47.214844 27.757812 48.46875 27.757812 Z M 48.46875 27.757812 "/>
<path style=" stroke:none;fill-rule:nonzero;fill:rgb(1.568627%,0%,0%);fill-opacity:1;" d="M 74.164062 40.390625 C 72.144531 40.390625 70.609375 39.851562 69.46875 38.742188 C 68.332031 37.640625 67.785156 36.164062 67.785156 34.226562 C 67.785156 32.285156 68.304688 30.898438 69.363281 29.726562 C 70.394531 28.597656 71.679688 28.050781 73.308594 28.050781 C 74.933594 28.050781 76.828125 28.703125 78.847656 29.996094 L 80.957031 31.347656 L 80.957031 23.179688 L 80.140625 22.820312 C 78.714844 22.179688 77.476562 21.738281 76.476562 21.496094 C 75.449219 21.253906 74.289062 21.128906 73.03125 21.128906 C 69.316406 21.128906 66.257812 22.375 63.957031 24.835938 C 61.671875 27.265625 60.515625 30.476562 60.515625 34.382812 C 60.515625 38.292969 61.714844 41.4375 64.074219 43.789062 C 66.429688 46.144531 69.597656 47.335938 73.492188 47.335938 C 75.789062 47.335938 78.164062 46.886719 80.546875 45.996094 L 81.441406 45.664062 L 81.441406 38.160156 L 79.503906 39.035156 C 77.464844 39.949219 75.664062 40.414062 74.152344 40.414062 Z M 74.164062 40.390625 "/>
<path style=" stroke:none;fill-rule:nonzero;fill:rgb(1.568627%,0%,0%);fill-opacity:1;" d="M 95.953125 21.507812 C 92.132812 21.507812 88.90625 22.75 86.351562 25.195312 C 83.785156 27.65625 82.480469 30.773438 82.480469 34.460938 C 82.480469 38.148438 83.765625 41.203125 86.308594 43.648438 C 88.835938 46.082031 92.015625 47.316406 95.753906 47.316406 C 99.488281 47.316406 102.84375 46.101562 105.402344 43.710938 C 107.988281 41.292969 109.296875 38.222656 109.296875 34.578125 C 109.296875 30.933594 108.007812 27.703125 105.46875 25.222656 C 102.9375 22.757812 99.734375 21.503906 95.945312 21.503906 Z M 100.324219 38.707031 C 99.183594 39.835938 97.738281 40.386719 95.902344 40.386719 C 94.070312 40.386719 92.589844 39.835938 91.4375 38.722656 C 90.292969 37.613281 89.742188 36.207031 89.742188 34.410156 C 89.742188 32.617188 90.289062 31.140625 91.414062 29.992188 C 92.527344 28.847656 93.933594 28.292969 95.710938 28.292969 C 97.488281 28.292969 99.050781 28.859375 100.253906 30.019531 C 101.445312 31.167969 102.019531 32.589844 102.019531 34.363281 C 102.019531 36.136719 101.464844 37.578125 100.332031 38.707031 Z M 100.324219 38.707031 "/>
<path style=" stroke:none;fill-rule:nonzero;fill:rgb(1.568627%,0%,0%);fill-opacity:1;" d="M 128.78125 22.410156 C 127.355469 21.550781 125.800781 21.121094 124.144531 21.121094 C 122.203125 21.121094 120.382812 21.683594 118.722656 22.796875 L 118.722656 21.566406 L 111.410156 21.566406 L 111.410156 46.933594 L 118.722656 46.933594 L 118.722656 29.851562 C 119.878906 28.339844 121.183594 27.605469 122.722656 27.605469 C 123.910156 27.605469 124.699219 27.90625 125.136719 28.515625 C 125.5 29.027344 125.9375 30.171875 125.9375 32.671875 L 125.9375 46.933594 L 133.152344 46.933594 L 133.152344 32.625 C 133.152344 29.628906 132.800781 27.453125 132.066406 25.980469 C 131.320312 24.476562 130.21875 23.277344 128.78125 22.410156 Z M 128.78125 22.410156 "/>
<path style=" stroke:none;fill-rule:nonzero;fill:rgb(1.568627%,0%,0%);fill-opacity:1;" d="M 151.703125 21.542969 C 150.464844 21.230469 149.28125 21.074219 148.167969 21.074219 C 144.558594 21.074219 141.542969 22.300781 139.195312 24.710938 C 136.867188 27.113281 135.675781 30.199219 135.675781 33.878906 C 135.675781 37.78125 136.804688 40.960938 139.03125 43.328125 C 141.277344 45.722656 144.300781 46.933594 148.015625 46.933594 L 158.9375 46.933594 L 158.9375 9.832031 L 151.703125 9.832031 Z M 142.9375 34.417969 C 142.9375 32.304688 143.484375 30.636719 144.558594 29.445312 C 145.609375 28.273438 147.019531 27.710938 148.851562 27.710938 C 149.800781 27.710938 150.753906 27.90625 151.703125 28.277344 L 151.703125 40.351562 L 149.613281 40.351562 C 147.207031 40.351562 146.257812 40.148438 145.90625 40.03125 C 145.359375 39.84375 144.820312 39.457031 144.292969 38.882812 C 143.390625 37.882812 142.933594 36.386719 142.933594 34.425781 Z M 142.9375 34.417969 "/>
<path style=" stroke:none;fill-rule:nonzero;fill:rgb(1.568627%,0%,0%);fill-opacity:1;" d="M 306.449219 33.953125 C 306.449219 30.058594 305.425781 26.878906 303.402344 24.507812 C 301.328125 22.070312 298.535156 20.835938 295.089844 20.835938 C 291.644531 20.835938 288.617188 22.089844 286.382812 24.570312 C 284.183594 27.011719 283.0625 30.183594 283.0625 34.011719 C 283.0625 36.554688 283.585938 38.839844 284.625 40.800781 C 285.664062 42.769531 287.082031 44.355469 288.816406 45.527344 C 290.601562 46.726562 292.917969 47.328125 295.707031 47.328125 C 297.671875 47.328125 299.421875 47.105469 300.90625 46.675781 C 302.402344 46.242188 303.921875 45.511719 305.429688 44.507812 L 306.046875 44.097656 L 306.046875 36.179688 L 303.839844 37.808594 C 301.578125 39.476562 299.074219 40.328125 296.402344 40.328125 C 294.621094 40.328125 293.222656 39.816406 292.121094 38.769531 C 291.335938 38.015625 290.808594 37.074219 290.546875 35.921875 L 306.441406 35.921875 L 306.441406 33.960938 Z M 292.046875 28.632812 C 292.820312 27.898438 293.816406 27.539062 295.089844 27.539062 C 296.363281 27.539062 297.28125 27.882812 297.980469 28.589844 C 298.429688 29.046875 298.761719 29.664062 298.96875 30.421875 L 290.878906 30.421875 C 291.167969 29.6875 291.5625 29.089844 292.046875 28.625 Z M 292.046875 28.632812 "/>
<path style=" stroke:none;fill-rule:nonzero;fill:rgb(1.568627%,0%,0%);fill-opacity:1;" d="M 205.507812 24.128906 L 188.882812 24.128906 L 188.882812 9.179688 L 181.183594 9.179688 L 181.183594 46.503906 L 188.882812 46.503906 L 188.882812 31.464844 L 205.507812 31.464844 L 205.507812 46.503906 L 213.199219 46.503906 L 213.199219 9.179688 L 205.507812 9.179688 Z M 205.507812 24.128906 "/>
<path style=" stroke:none;fill-rule:nonzero;fill:rgb(1.568627%,0%,0%);fill-opacity:1;" d="M 229.675781 20.933594 C 225.839844 20.933594 222.585938 22.179688 220.019531 24.640625 C 217.433594 27.121094 216.125 30.253906 216.125 33.960938 C 216.125 37.667969 217.425781 40.746094 219.980469 43.207031 C 222.523438 45.652344 225.71875 46.890625 229.476562 46.890625 C 233.230469 46.890625 236.609375 45.671875 239.179688 43.269531 C 241.78125 40.835938 243.101562 37.746094 243.101562 34.078125 C 243.101562 30.414062 241.808594 27.164062 239.257812 24.667969 C 236.710938 22.1875 233.488281 20.925781 229.675781 20.925781 Z M 234.074219 38.242188 C 232.929688 39.378906 231.46875 39.933594 229.621094 39.933594 C 227.773438 39.933594 226.28125 39.386719 225.125 38.257812 C 223.976562 37.140625 223.417969 35.722656 223.417969 33.917969 C 223.417969 32.117188 223.96875 30.628906 225.097656 29.464844 C 226.21875 28.3125 227.636719 27.753906 229.421875 27.753906 C 231.207031 27.753906 232.78125 28.320312 233.992188 29.492188 C 235.191406 30.648438 235.769531 32.082031 235.769531 33.863281 C 235.769531 35.644531 235.210938 37.101562 234.070312 38.238281 Z M 234.074219 38.242188 "/>
<path style=" stroke:none;fill-rule:nonzero;fill:rgb(1.568627%,0%,0%);fill-opacity:1;" d="M 271.953125 20.492188 C 269.386719 20.492188 266.917969 21.613281 264.601562 23.835938 C 262.84375 21.648438 260.539062 20.539062 257.730469 20.539062 C 255.960938 20.539062 254.167969 21.164062 252.390625 22.390625 L 252.390625 20.984375 L 245.144531 20.984375 L 245.144531 46.503906 L 252.390625 46.503906 L 252.390625 29.144531 C 253.140625 28.375 253.796875 27.835938 254.355469 27.53125 C 254.929688 27.21875 255.582031 27.058594 256.28125 27.058594 C 257.484375 27.058594 258.265625 27.351562 258.671875 27.953125 C 258.964844 28.382812 259.445312 29.535156 259.445312 32.457031 L 259.445312 46.503906 L 266.722656 46.503906 L 266.722656 29.125 C 267.96875 27.800781 269.222656 27.15625 270.554688 27.15625 C 271.574219 27.15625 272.285156 27.46875 272.796875 28.125 C 273.378906 28.882812 273.667969 30.058594 273.667969 31.640625 L 273.667969 46.503906 L 280.917969 46.503906 L 280.917969 31.6875 C 280.917969 28.042969 280.082031 25.242188 278.433594 23.378906 C 276.746094 21.460938 274.5625 20.492188 271.953125 20.492188 Z M 271.953125 20.492188 "/>
</g>
</svg>
