<svg xmlns="http://www.w3.org/2000/svg" xmlns:xlink="http://www.w3.org/1999/xlink" width="188" zoomAndPan="magnify" viewBox="0 0 141.75 84.749997" height="113" preserveAspectRatio="xMidYMid meet" version="1.0"><defs><g/></defs><g fill="#403737" fill-opacity="1"><g transform="translate(4.725279, 51.770752)"><g><path d="M 0.984375 -6.25 C 1.890625 -6.777344 2.921875 -7.257812 4.511719 -7.257812 C 8.441406 -7.257812 9.828125 -4.886719 13.277344 -4.863281 C 13.203125 -1.511719 12.800781 -0.253906 10.984375 -0.253906 L 10.984375 0 L 17.789062 0 L 17.789062 -0.253906 C 15.898438 -0.253906 15.519531 -1.636719 15.46875 -5.339844 C 16.578125 -5.871094 17.410156 -6.804688 17.410156 -8.039062 C 17.410156 -9.902344 15.46875 -9.324219 15.46875 -10.53125 L 15.46875 -20.964844 L 13.328125 -20.964844 L 13.328125 -11.464844 C 13.328125 -8.96875 17.132812 -10.253906 17.132812 -8.164062 C 17.132812 -6.980469 15.699219 -6.449219 14.136719 -6.449219 C 11.640625 -6.449219 9.5 -8.742188 6.476562 -8.742188 C 5.015625 -8.742188 3.199219 -8.238281 1.992188 -7.40625 C 6.476562 -14.335938 9.195312 -18.265625 13.679688 -25.195312 L 10.808594 -25.195312 C 8.96875 -19.375 5.796875 -13.730469 0.757812 -6.25 Z M 0.984375 -6.25 "/></g></g></g><g fill="#403737" fill-opacity="1"><g transform="translate(23.269382, 51.770752)"><g/></g></g><g fill="#403737" fill-opacity="1"><g transform="translate(32.08791, 51.770752)"><g><path d="M 7.558594 0 L 7.558594 -0.253906 C 5.390625 -0.253906 5.242188 -2.039062 5.242188 -7.003906 L 5.242188 -17.839844 L 0.757812 -17.839844 L 0.757812 -17.585938 C 2.921875 -17.585938 3.074219 -15.796875 3.074219 -10.835938 L 3.074219 -7.003906 C 3.074219 -2.039062 2.921875 -0.253906 0.757812 -0.253906 L 0.757812 0 Z M 2.34375 -21.140625 C 2.34375 -20.207031 3.097656 -19.453125 4.03125 -19.453125 C 4.964844 -19.453125 5.71875 -20.207031 5.71875 -21.140625 C 5.71875 -22.070312 4.964844 -22.828125 4.03125 -22.828125 C 3.097656 -22.828125 2.34375 -22.070312 2.34375 -21.140625 Z M 2.34375 -21.140625 "/></g></g></g><g fill="#403737" fill-opacity="1"><g transform="translate(40.150564, 51.770752)"><g><path d="M 7.558594 0 L 7.558594 -0.253906 C 5.390625 -0.253906 5.242188 -2.039062 5.242188 -7.003906 L 5.242188 -17.257812 C 6.449219 -17.6875 7.859375 -17.988281 9.144531 -17.988281 C 10.859375 -17.988281 14.816406 -17.839844 14.816406 -12.195312 C 14.816406 -12.195312 14.839844 -7.761719 14.839844 -7.003906 C 14.839844 -2.039062 14.691406 -0.253906 12.523438 -0.253906 L 12.523438 0 L 19.324219 0 L 19.324219 -0.253906 C 17.160156 -0.253906 17.007812 -2.039062 17.007812 -7.003906 L 17.007812 -12.722656 C 17.007812 -14.589844 16.453125 -15.847656 15.621094 -16.679688 C 17.210938 -17.613281 19.046875 -18.015625 20.886719 -18.015625 C 22.601562 -18.015625 26.558594 -17.839844 26.558594 -12.195312 C 26.558594 -12.195312 26.582031 -7.761719 26.582031 -7.003906 C 26.582031 -2.039062 26.429688 -0.253906 24.265625 -0.253906 L 24.265625 0 L 31.066406 0 L 31.066406 -0.253906 C 28.898438 -0.253906 28.75 -2.039062 28.75 -7.003906 L 28.75 -12.722656 C 28.75 -18.015625 24.265625 -18.34375 22.023438 -18.34375 C 18.089844 -18.34375 15.621094 -17.308594 14.816406 -17.308594 C 13.355469 -18.242188 11.488281 -18.34375 10.28125 -18.34375 C 8.84375 -18.34375 5.695312 -17.839844 3.628906 -17.839844 L 0.757812 -17.839844 L 0.757812 -17.585938 C 2.921875 -17.585938 3.074219 -15.796875 3.074219 -10.835938 L 3.074219 -7.003906 C 3.074219 -2.039062 2.921875 -0.253906 0.757812 -0.253906 L 0.757812 0 Z M 7.558594 0 "/></g></g></g><g fill="#403737" fill-opacity="1"><g transform="translate(71.72089, 51.770752)"><g><path d="M 0.503906 -17.585938 C 2.671875 -17.585938 2.820312 -15.796875 2.820312 -10.835938 L 2.820312 3.453125 C 2.820312 8.414062 2.671875 10.203125 0.503906 10.203125 L 0.503906 10.457031 L 7.308594 10.457031 L 7.308594 10.203125 C 5.140625 10.203125 4.988281 8.414062 4.988281 3.453125 L 4.988281 -0.402344 C 6.675781 0 7.105469 0 8.390625 0 C 14.210938 0 18.492188 -3.828125 18.492188 -10.53125 C 18.492188 -15.371094 15.320312 -18.34375 11.113281 -18.34375 C 8.617188 -18.34375 6.5 -17.160156 4.988281 -14.890625 L 4.988281 -17.839844 L 0.503906 -17.839844 Z M 4.988281 -11.011719 C 4.988281 -15.972656 7.433594 -17.738281 10.027344 -17.738281 C 13 -17.738281 16.300781 -15.671875 16.300781 -10.003906 C 16.300781 -4.257812 12.398438 -0.253906 8.089844 -0.253906 C 6.878906 -0.253906 5.796875 -0.554688 4.988281 -0.984375 Z M 4.988281 -11.011719 "/></g></g></g><g fill="#403737" fill-opacity="1"><g transform="translate(91.726351, 51.770752)"><g><path d="M 1.511719 -5.089844 C 1.511719 -1.839844 3.878906 0.503906 7.128906 0.503906 C 11.539062 0.503906 13.203125 -3.097656 14.109375 -7.433594 L 14.109375 -3.125 C 14.109375 -1.234375 15.167969 0 16.503906 0 L 18.292969 0 L 18.292969 -0.253906 C 17.613281 -0.253906 16.378906 -0.707031 16.378906 -2.820312 C 16.378906 -5.492188 16.351562 -5.871094 16.351562 -8.113281 C 16.351562 -10.128906 16.125 -12.042969 14.285156 -12.042969 C 13.882812 -12.042969 13.605469 -11.84375 13.605469 -11.691406 C 13.984375 -11.589844 14.035156 -11.011719 14.035156 -10.457031 C 14.035156 -3.125 10.582031 -0.328125 7.859375 -0.328125 C 5.390625 -0.328125 3.730469 -2.316406 3.730469 -4.9375 C 3.730469 -14.789062 16.402344 -11.113281 16.402344 -15.167969 C 16.402344 -17.160156 12.699219 -18.34375 9.851562 -18.34375 C 5.894531 -18.34375 2.921875 -17.058594 2.921875 -14.5625 C 2.921875 -13.480469 3.652344 -12.546875 4.738281 -12.546875 C 5.570312 -12.546875 6.398438 -13.253906 6.148438 -14.007812 C 5.921875 -13.78125 5.140625 -14.210938 5.140625 -15.167969 C 5.140625 -17.257812 7.457031 -18.089844 9.851562 -18.089844 C 11.894531 -18.089844 14.261719 -17.257812 14.261719 -15.21875 C 14.261719 -11.0625 1.511719 -13.957031 1.511719 -5.089844 Z M 1.511719 -5.089844 "/></g></g></g><g fill="#403737" fill-opacity="1"><g transform="translate(110.522419, 51.770752)"><g><path d="M 10.152344 0.503906 C 13.910156 0.503906 16.65625 -1.535156 17.964844 -4.535156 L 17.613281 -4.6875 C 16.378906 -1.4375 13.050781 -0.351562 11.0625 -0.351562 C 6.425781 -0.351562 3.730469 -4.308594 3.679688 -8.996094 C 3.628906 -12.546875 4.988281 -18.039062 10.105469 -18.039062 C 12.75 -18.039062 15.648438 -16.378906 17.03125 -13.605469 L 17.132812 -13.605469 L 17.132812 -16.578125 C 17.132812 -16.578125 14.414062 -18.34375 10.152344 -18.34375 C 4.738281 -18.34375 1.511719 -14.109375 1.511719 -8.917969 C 1.511719 -3.730469 4.738281 0.503906 10.152344 0.503906 Z M 10.152344 0.503906 "/></g></g></g><g fill="#403737" fill-opacity="1"><g transform="translate(128.990935, 51.770752)"><g><path d="M 0.503906 -17.839844 L 0.503906 -17.585938 L 2.820312 -17.585938 L 2.820312 -2.316406 C 2.820312 -0.65625 3.300781 0.503906 4.738281 0.503906 C 6.023438 0.503906 6.851562 -0.175781 7.507812 -1.261719 L 7.257812 -1.386719 C 7.257812 -1.386719 6.578125 -0.203125 5.796875 -0.203125 C 4.835938 -0.203125 4.988281 -1.5625 4.988281 -5.492188 L 4.988281 -17.585938 L 6.902344 -17.585938 L 6.902344 -17.839844 L 4.988281 -17.839844 L 4.988281 -23.9375 L 4.738281 -23.9375 C 4.738281 -22.222656 4.710938 -17.839844 0.503906 -17.839844 Z M 0.503906 -17.839844 "/></g></g></g></svg>
