<svg width="80" height="80" viewBox="0 0 80 80" fill="none" xmlns="http://www.w3.org/2000/svg">
<path d="M40.0714 68.3333C40.0714 61.725 37.43 55.3874 32.7282 50.7146C28.0264 46.0418 21.6494 43.4167 15 43.4167V22.3333L30.4286 7H65.1429C66.1658 7 67.1469 7.40387 67.8703 8.12276C68.5936 8.84165 69 9.81667 69 10.8333V72.1667C69 73.1833 68.5936 74.1584 67.8703 74.8772C67.1469 75.5961 66.1658 76 65.1429 76H38.8371C39.6619 73.5273 40.0788 70.9383 40.0714 68.3333Z" fill="#FFF38D"/>
<path d="M13.334 63.3333H26.6673M20.0007 70V56.6667M46.6673 43.3333H53.334M53.334 30H33.334" stroke="#4472C4" stroke-width="5" stroke-linecap="round" stroke-linejoin="round"/>
<path d="M18 44.6667V22.6667L32.5714 8H65.3571C66.3233 8 67.2499 8.38631 67.933 9.07394C68.6162 9.76158 69 10.6942 69 11.6667V70.3333C69 71.3058 68.6162 72.2384 67.933 72.9261C67.2499 73.6137 66.3233 74 65.3571 74H39.8571" stroke="#4472C4" stroke-width="5" stroke-linecap="round" stroke-linejoin="round"/>
</svg>
