<?xml version="1.0" encoding="utf-8"?>
<!-- Generator: Adobe Illustrator 26.0.2, SVG Export Plug-In . SVG Version: 6.00 Build 0)  -->
<svg version="1.1" id="圖層_1" xmlns="http://www.w3.org/2000/svg" xmlns:xlink="http://www.w3.org/1999/xlink" x="0px" y="0px"
	 viewBox="0 0 24 24" style="enable-background:new 0 0 24 24;" xml:space="preserve">
<style type="text/css">
	.st0{fill:none;}
	.st1{fill:#3E6896;}
</style>
<g>
	<rect class="st0" width="24" height="24"/>
</g>
<g>
	<path class="st1" d="M5.5,11.2c0.3,0,0.6-0.1,0.9-0.4c0.2-0.2,0.4-0.5,0.4-0.9c0-0.1,0-0.1,0-0.2c0-0.1,0-0.1,0-0.2L10.2,6
		c0.2,0,0.4,0.1,0.4,0.1c0.1,0,0.1,0,0.2,0c0.1,0,0.1,0,0.2,0L12.9,8c0,0.1,0,0.2,0,0.2c0,0.1,0,0.1,0,0.2c0,0.3,0.1,0.6,0.4,0.9
		c0.2,0.2,0.5,0.4,0.9,0.4c0.3,0,0.6-0.1,0.9-0.4c0.2-0.2,0.4-0.5,0.4-0.9c0-0.1,0-0.1,0-0.2c0-0.1,0-0.1,0-0.2l2.8-2.8
		c0.1,0,0.2,0,0.2,0c0.1,0,0.1,0,0.2,0c0.3,0,0.6-0.1,0.9-0.4c0.2-0.2,0.4-0.5,0.4-0.9s-0.1-0.6-0.4-0.9s-0.5-0.4-0.9-0.4
		s-0.6,0.1-0.9,0.4c-0.2,0.2-0.4,0.5-0.4,0.9c0,0.1,0,0.1,0,0.2c0,0.1,0,0.1,0,0.2l-2.8,2.8c-0.1,0-0.2,0-0.2,0c-0.1,0-0.1,0-0.2,0
		s-0.1,0-0.2,0c-0.1,0-0.1,0-0.2,0l-1.9-1.9c0-0.2,0.1-0.4,0.1-0.4c0-0.3-0.1-0.6-0.4-0.9c-0.2-0.2-0.5-0.4-0.9-0.4
		C10.2,3.6,10,3.7,9.7,4C9.5,4.2,9.4,4.5,9.4,4.8c0,0.1,0,0.1,0,0.2c0,0.1,0,0.1,0,0.2L5.9,8.8c-0.1,0-0.2,0-0.2,0
		c-0.1,0-0.1,0-0.2,0c-0.3,0-0.6,0.1-0.9,0.4C4.4,9.3,4.2,9.6,4.2,10c0,0.3,0.1,0.6,0.4,0.9C4.8,11.1,5.1,11.2,5.5,11.2z"/>
	<rect x="4.2" y="15.8" class="st1" width="2.7" height="5.2"/>
	<rect x="8.5" y="10.6" class="st1" width="2.7" height="10.4"/>
	<rect x="12.8" y="13.5" class="st1" width="2.7" height="7.6"/>
	<rect x="17" y="8.6" class="st1" width="2.7" height="12.4"/>
</g>
</svg>
