<?xml version="1.0" encoding="utf-8"?>
<!-- Generator: Adobe Illustrator 26.0.2, SVG Export Plug-In . SVG Version: 6.00 Build 0)  -->
<svg version="1.1" id="圖層_1" xmlns="http://www.w3.org/2000/svg" xmlns:xlink="http://www.w3.org/1999/xlink" x="0px" y="0px"
	 viewBox="0 0 24 24" style="enable-background:new 0 0 24 24;" xml:space="preserve">
<style type="text/css">
	.st0{fill:none;}
	.st1{fill:#3E6896;}
</style>
<g>
	<rect class="st0" width="24" height="24"/>
</g>
<g>
	<path class="st1" d="M11.8,21.2l-1.7-1C10,20.1,9.9,20,9.9,20c0-0.1-0.1-0.1-0.1-0.2v-2c0-0.1,0-0.1,0-0.2s0.1-0.1,0.1-0.1l1.8-1
		c0.1,0,0.1-0.1,0.2-0.1s0.1,0,0.2,0.1l1.8,1c0.1,0,0.1,0.1,0.1,0.1s0,0.1,0,0.2v2c0,0.1,0,0.1-0.1,0.2c0,0.1-0.1,0.1-0.1,0.1
		l-1.8,1c-0.1,0-0.1,0.1-0.2,0.1C11.9,21.2,11.8,21.2,11.8,21.2z M11.8,20.6v-1.7l-1.5-0.8v1.7L11.8,20.6z M12.2,20.6l1.5-0.9v-1.7
		l-1.5,0.8V20.6z M12,18.5l1.5-0.8L12,16.8l-1.5,0.8L12,18.5z"/>
	<path class="st1" d="M11.8,7.4l-1.7-1c-0.1,0-0.1-0.1-0.1-0.1c0-0.1-0.1-0.1-0.1-0.2V4c0-0.1,0-0.1,0-0.2S10,3.7,10,3.6l1.8-1
		c0.1,0,0.1-0.1,0.2-0.1s0.1,0,0.2,0.1l1.8,1c0.1,0,0.1,0.1,0.1,0.1s0,0.1,0,0.2v2c0,0.1,0,0.1-0.1,0.2c0,0.1-0.1,0.1-0.1,0.1
		l-1.8,1c-0.1,0-0.1,0.1-0.2,0.1C11.9,7.4,11.8,7.4,11.8,7.4z M11.8,6.8V5.1l-1.5-0.8V6L11.8,6.8z M12.2,6.8L13.7,6V4.3l-1.5,0.8
		V6.8z M12,4.7l1.5-0.8L12,3l-1.5,0.8L12,4.7z"/>
	<path class="st1" d="M11.8,14.3l-1.7-1c-0.1,0-0.1-0.1-0.1-0.1c0-0.1-0.1-0.1-0.1-0.2v-2c0-0.1,0-0.1,0-0.2c0-0.1,0.1-0.1,0.1-0.1
		l1.8-1c0.1,0,0.1-0.1,0.2-0.1s0.1,0,0.2,0.1l1.8,1c0.1,0,0.1,0.1,0.1,0.1c0,0.1,0,0.1,0,0.2v2c0,0.1,0,0.1-0.1,0.2
		c0,0.1-0.1,0.1-0.1,0.1l-1.8,1c-0.1,0-0.1,0.1-0.2,0.1C11.9,14.3,11.8,14.3,11.8,14.3z M11.8,13.7V12l-1.5-0.8v1.7L11.8,13.7z
		 M12.2,13.7l1.5-0.9v-1.7L12.2,12V13.7z M12,11.6l1.5-0.8L12,9.9l-1.5,0.8L12,11.6z"/>
	<path class="st1" d="M5.3,18.1l-1.7-1c-0.1,0-0.1-0.1-0.1-0.1s-0.1-0.1-0.1-0.2v-2c0-0.1,0-0.1,0-0.2c0-0.1,0.1-0.1,0.1-0.1l1.8-1
		c0.1,0,0.1-0.1,0.2-0.1s0.1,0,0.2,0.1l1.8,1c0.1,0,0.1,0.1,0.1,0.1c0,0.1,0,0.1,0,0.2v2c0,0.1,0,0.1-0.1,0.2c0,0.1-0.1,0.1-0.1,0.1
		l-1.8,1c-0.1,0-0.1,0.1-0.2,0.1S5.3,18.1,5.3,18.1z M5.3,17.5v-1.7L3.8,15v1.7L5.3,17.5z M5.7,17.5l1.5-0.9V15l-1.5,0.8V17.5z
		 M5.5,15.4l1.5-0.8l-1.5-0.8L4,14.6L5.5,15.4z"/>
	<g>
		<path class="st1" d="M18.3,18.1l-1.7-1c-0.1,0-0.1-0.1-0.1-0.1c0-0.1-0.1-0.1-0.1-0.2v-2c0-0.1,0-0.1,0-0.2c0-0.1,0.1-0.1,0.1-0.1
			l1.8-1c0.1,0,0.1-0.1,0.2-0.1s0.1,0,0.2,0.1l1.8,1c0.1,0,0.1,0.1,0.1,0.1c0,0.1,0,0.1,0,0.2v2c0,0.1,0,0.1-0.1,0.2
			c0,0.1-0.1,0.1-0.1,0.1l-1.8,1c-0.1,0-0.1,0.1-0.2,0.1C18.4,18.1,18.4,18.1,18.3,18.1z M18.3,17.5v-1.7L16.8,15v1.7L18.3,17.5z
			 M18.7,17.5l1.5-0.9V15l-1.5,0.8V17.5z M18.5,15.4l1.5-0.8l-1.5-0.8l-1.5,0.8L18.5,15.4z"/>
		<path class="st1" d="M18.3,10.5l-1.7-1c-0.1,0-0.1-0.1-0.1-0.1c0-0.1-0.1-0.1-0.1-0.2v-2c0-0.1,0-0.1,0-0.2c0-0.1,0.1-0.1,0.1-0.1
			l1.8-1c0.1,0,0.1-0.1,0.2-0.1s0.1,0,0.2,0.1l1.8,1c0.1,0,0.1,0.1,0.1,0.1c0,0.1,0,0.1,0,0.2v2c0,0.1,0,0.1-0.1,0.2
			c0,0.1-0.1,0.1-0.1,0.1l-1.8,1c-0.1,0-0.1,0.1-0.2,0.1C18.4,10.5,18.4,10.5,18.3,10.5z M18.3,9.9V8.2l-1.5-0.8V9L18.3,9.9z
			 M18.7,9.9L20.2,9V7.4l-1.5,0.8V9.9z M18.5,7.8L20,7l-1.5-0.8L17.1,7L18.5,7.8z"/>
	</g>
	<path class="st1" d="M5.3,10.5l-1.7-1c-0.1,0-0.1-0.1-0.1-0.1c0-0.1-0.1-0.1-0.1-0.2v-2c0-0.1,0-0.1,0-0.2c0-0.1,0.1-0.1,0.1-0.1
		l1.8-1c0.1,0,0.1-0.1,0.2-0.1s0.1,0,0.2,0.1l1.8,1c0.1,0,0.1,0.1,0.1,0.1c0,0.1,0,0.1,0,0.2v2c0,0.1,0,0.1-0.1,0.2
		c0,0.1-0.1,0.1-0.1,0.1l-1.8,1c-0.1,0-0.1,0.1-0.2,0.1S5.3,10.5,5.3,10.5z M5.3,9.9V8.2L3.8,7.4V9L5.3,9.9z M5.7,9.9L7.2,9V7.4
		L5.7,8.2V9.9z M5.5,7.8L6.9,7L5.5,6.1L4,7L5.5,7.8z"/>
	<rect x="7.4" y="6.3" transform="matrix(0.9255 -0.3788 0.3788 0.9255 -1.8204 3.8004)" class="st1" width="2.7" height="0.5"/>
	<rect x="15" y="5.2" transform="matrix(0.3866 -0.9223 0.9223 0.3866 3.3281 18.058)" class="st1" width="0.5" height="2.7"/>
	<rect x="13.9" y="17" transform="matrix(0.9255 -0.3788 0.3788 0.9255 -5.3829 7.0533)" class="st1" width="2.7" height="0.5"/>
	<rect x="8.5" y="15.9" transform="matrix(0.3866 -0.9223 0.9223 0.3866 -10.5053 18.6221)" class="st1" width="0.5" height="2.7"/>
	<g>
		<line class="st1" x1="7.4" y1="9.3" x2="10.1" y2="10.7"/>
		<polygon class="st1" points="10,11 7.3,9.5 7.5,9.1 10.2,10.5 		"/>
	</g>
	<g>
		<line class="st1" x1="16.7" y1="9.3" x2="14" y2="10.7"/>
		<polygon class="st1" points="14.1,11 16.8,9.5 16.6,9.1 13.9,10.5 		"/>
	</g>
	<g>
		<line class="st1" x1="7.4" y1="14.5" x2="10.1" y2="13.1"/>
		<polygon class="st1" points="10,12.8 7.3,14.3 7.5,14.7 10.2,13.3 		"/>
	</g>
	<g>
		<line class="st1" x1="16.7" y1="14.4" x2="14" y2="13"/>
		<polygon class="st1" points="14.1,12.8 16.8,14.2 16.6,14.7 13.9,13.2 		"/>
	</g>
	<g>
		<line class="st1" x1="5.5" y1="10.2" x2="5.5" y2="13.5"/>
		<rect x="5.2" y="10.2" class="st1" width="0.5" height="3.3"/>
	</g>
	<g>
		<line class="st1" x1="18.5" y1="10.2" x2="18.5" y2="13.5"/>
		<rect x="18.3" y="10.2" class="st1" width="0.5" height="3.3"/>
	</g>
</g>
</svg>
