<svg width="65" height="80" viewBox="0 0 65 80" fill="none" xmlns="http://www.w3.org/2000/svg">
<path d="M54.5892 75.6512C55.6142 75.6512 56.5972 75.244 57.322 74.5192C58.0468 73.7944 58.4539 72.8114 58.4539 71.7864V9.95067C58.4539 8.92568 58.0468 7.94267 57.322 7.21789C56.5972 6.49311 55.6142 6.08594 54.5892 6.08594H19.8066L4.34766 21.5449V71.7864C4.34766 72.8114 4.75483 73.7944 5.47961 74.5192C6.20439 75.244 7.1874 75.6512 8.21239 75.6512H54.5892Z" fill="#FFF38D"/>
<path d="M25.6035 35.0703L37.1977 46.6645" stroke="#4472C4" stroke-width="5" stroke-linecap="round" stroke-linejoin="round"/>
<path d="M37.1977 35.0703L25.6035 46.6645" stroke="#4472C4" stroke-width="5" stroke-linecap="round" stroke-linejoin="round"/>
<path d="M8.21239 75.6512C7.1874 75.6512 6.20439 75.244 5.47961 74.5192C4.75483 73.7944 4.34766 72.8114 4.34766 71.7864V21.5449L19.8066 6.08594H54.5892C55.6142 6.08594 56.5972 6.49311 57.322 7.21789C58.0468 7.94267 58.4539 8.92568 58.4539 9.95067V71.7864C58.4539 72.8114 58.0468 73.7944 57.322 74.5192C56.5972 75.244 55.6142 75.6512 54.5892 75.6512H8.21239Z" stroke="#4472C4" stroke-width="5" stroke-linecap="round" stroke-linejoin="round"/>
</svg>
