<svg width="6" height="16" viewBox="0 0 6 16" fill="none" xmlns="http://www.w3.org/2000/svg">
<path d="M1 7C1.55313 7 2 7.44688 2 8C2 8.55312 1.55313 9 1 9C0.446875 9 0 8.55312 0 8C0 7.44688 0.446875 7 1 7ZM0 4.25C0 4.80313 0.446875 5.25 1 5.25C1.55313 5.25 2 4.80313 2 4.25C2 3.69687 1.55313 3.25 1 3.25C0.446875 3.25 0 3.69687 0 4.25ZM0 11.75C0 12.3031 0.446875 12.75 1 12.75C1.55313 12.75 2 12.3031 2 11.75C2 11.1969 1.55313 10.75 1 10.75C0.446875 10.75 0 11.1969 0 11.75Z" fill="#D0D0CE"/>
<path d="M5 7C5.55313 7 6 7.44688 6 8C6 8.55312 5.55313 9 5 9C4.44687 9 4 8.55312 4 8C4 7.44688 4.44687 7 5 7ZM4 4.25C4 4.80313 4.44687 5.25 5 5.25C5.55313 5.25 6 4.80313 6 4.25C6 3.69687 5.55313 3.25 5 3.25C4.44687 3.25 4 3.69687 4 4.25ZM4 11.75C4 12.3031 4.44687 12.75 5 12.75C5.55313 12.75 6 12.3031 6 11.75C6 11.1969 5.55313 10.75 5 10.75C4.44687 10.75 4 11.1969 4 11.75Z" fill="#D0D0CE"/>
</svg>
