<svg width="36" height="35" viewBox="0 0 36 35" fill="none" xmlns="http://www.w3.org/2000/svg">
<g clip-path="url(#clip0_1147_7530)">
<path d="M10.854 20.5015L7.56081 28.8459L15.8673 25.4507L10.854 20.5015ZM34.9657 2.67946L33.9117 1.639C32.7489 0.489649 30.8601 0.48967 29.6959 1.63905L27.5879 3.72L32.8577 8.92373L34.9656 6.84278C36.1314 5.6934 36.1314 3.82881 34.9657 2.67946ZM11.021 20.0762L11.7753 19.3315L17.045 24.5338L31.8037 9.96421L26.5339 4.76195L27.5879 3.72L11.021 20.0762ZM29.2244 31.9758L3.84283 31.985L3.84758 6.92848L21.6189 6.9224L24.4036 4.00848L2.33301 4.00872C1.51011 4.00873 0.842242 4.66657 0.842232 5.4804L0.841919 33.4419C0.84191 34.2558 1.50976 34.9136 2.33266 34.9136L30.657 34.9133C31.4814 34.9133 32.1478 34.2554 32.1478 33.4416L32.148 12.753L29.1441 15.6625L29.2244 31.9758Z" fill="black"/>
</g>
<defs>
<clipPath id="clip0_1147_7530">
<rect width="34.9977" height="34.5684" fill="white" transform="matrix(1 -1.10598e-05 -1.11972e-05 1 0.842285 0.433594)"/>
</clipPath>
</defs>
</svg>
