<?xml version="1.0" encoding="utf-8"?>
<!-- Generator: Adobe Illustrator 26.0.2, SVG Export Plug-In . SVG Version: 6.00 Build 0)  -->
<svg version="1.1" id="圖層_1" xmlns="http://www.w3.org/2000/svg" xmlns:xlink="http://www.w3.org/1999/xlink" x="0px" y="0px"
	 viewBox="0 0 48 48" style="enable-background:new 0 0 48 48;" xml:space="preserve">
<path d="M25.6,44.2c-0.5,0-0.9-0.2-1.2-0.5c-0.3-0.3-0.5-0.7-0.5-1.2V25.4c0-0.5,0.2-0.9,0.5-1.2c0.3-0.3,0.7-0.5,1.2-0.5h17.1
	c0.5,0,0.9,0.2,1.2,0.5c0.3,0.3,0.5,0.7,0.5,1.2v17.1c0,0.5-0.2,0.9-0.5,1.2c-0.3,0.3-0.7,0.5-1.2,0.5H25.6z M26.9,41.1h14.5l0,0
	l0,0V26.7l0,0l0,0H26.9l0,0l0,0V41.1L26.9,41.1L26.9,41.1z"/>
<g>
	<path d="M21.9,13.4c-1.3,0-2.5,0.5-3.4,1.4c-0.9,0.9-1.4,2-1.4,3.4c0,1.3,0.5,2.5,1.4,3.4c0.8,0.8,1.7,1.2,2.7,1.3
		c0.2-0.4,0.5-0.7,0.8-1c1-1,2.2-1.5,3.6-1.5h0.5c0.3-0.6,0.5-1.4,0.5-2.2c0-1.3-0.5-2.5-1.4-3.4S23.2,13.4,21.9,13.4z"/>
	<path d="M20.6,25.4c0-0.1,0-0.1,0-0.2c-1.4-0.2-2.7-0.9-3.8-2c-1.4-1.4-2.1-3.1-2.1-5.1c0-2,0.7-3.7,2.1-5.1
		c1.4-1.4,3.1-2.1,5.1-2.1c2,0,3.7,0.7,5.1,2.1s2.1,3.1,2.1,5.1c0,0.8-0.1,1.5-0.3,2.2h10.6c0.2-0.3,0.4-0.7,0.5-1
		c0.1-0.1,0.1-0.3,0.2-0.5c0-0.2,0.1-0.4,0.1-0.6c0-0.2,0-0.4-0.1-0.6c0-0.2-0.1-0.4-0.2-0.5c-1.8-3.5-4.2-6.3-7.4-8.4
		s-6.8-3.2-10.7-3.2c-3.9,0-7.5,1.1-10.7,3.2C8,10.7,5.6,13.5,3.8,17c-0.1,0.1-0.1,0.3-0.2,0.5c0,0.2-0.1,0.4-0.1,0.6
		c0,0.2,0,0.4,0.1,0.6c0,0.2,0.1,0.4,0.2,0.5c1.8,3.5,4.2,6.3,7.4,8.4c2.8,1.9,5.9,2.9,9.3,3.1V25.4z"/>
</g>
</svg>
