<svg width="51" height="51" viewBox="0 0 51 51" fill="none" xmlns="http://www.w3.org/2000/svg">
<path d="M2.96289 0.171875H47.4316C48.9629 0.171875 50.1816 1.39451 50.1816 2.93063V47.5724C50.1816 49.0771 48.9629 50.3311 47.4316 50.3311H34.6816V30.8944H41.1816L42.1504 23.3392H34.6816V18.5113C34.6816 16.3169 35.3066 14.8121 38.4316 14.8121H42.4316V8.04061C41.7441 7.94656 39.3691 7.75846 36.6191 7.75846C30.8379 7.75846 26.9004 11.2696 26.9004 17.759V23.3392H20.3691V30.8944H26.9004V50.3311H2.96289C1.43164 50.3311 0.181641 49.0771 0.181641 47.5724V2.93063C0.181641 1.39451 1.43164 0.171875 2.96289 0.171875Z" fill="black"/>
</svg>
