<svg width="1870" height="126" viewBox="0 0 1870 126" fill="none" xmlns="http://www.w3.org/2000/svg">
<path fill-rule="evenodd" clip-rule="evenodd" d="M1870 0L1792.57 4.7341C1713.68 9.46821 1558.82 18.9364 1402.5 34.9595C1246.18 51.3468 1091.32 74.6532 935 79.3873C778.68 84.1214 623.82 69.9191 467.5 65.5491C311.18 60.815 156.32 65.5491 77.4297 67.7341L0 69.9191V126H77.4297C156.32 126 311.18 126 467.5 126C623.82 126 778.68 126 935 126C1091.32 126 1246.18 126 1402.5 126C1558.82 126 1713.68 126 1792.57 126H1870V0Z" fill="#E3E3E3"/>
<path fill-rule="evenodd" clip-rule="evenodd" d="M1870 50.4L1807.67 60.48C1745.33 70.56 1620.67 90.72 1496 85.68C1371.33 80.64 1246.67 50.4 1122 30.24C997.333 10.08 872.667 0 748 0C623.333 0 498.667 10.08 374 27.72C249.333 45.36 124.667 70.56 62.3334 83.16L0.00012207 95.76V126H62.3334C124.667 126 249.333 126 374 126C498.667 126 623.333 126 748 126C872.667 126 997.333 126 1122 126C1246.67 126 1371.33 126 1496 126C1620.67 126 1745.33 126 1807.67 126H1870V50.4Z" fill="#FFF38D"/>
</svg>
