<?xml version="1.0" encoding="utf-8"?>
<!-- Generator: Adobe Illustrator 23.1.0, SVG Export Plug-In . SVG Version: 6.00 Build 0)  -->
<svg version="1.1" id="圖層_1" xmlns="http://www.w3.org/2000/svg" xmlns:xlink="http://www.w3.org/1999/xlink" x="0px" y="0px"
	 viewBox="0 0 24 24" style="enable-background:new 0 0 24 24;" xml:space="preserve">
<style type="text/css">
	.st0{fill:none;}
</style>
<rect y="0" class="st0" width="24" height="24"/>
<g>
	<path class="st0" d="M12,13L4,8v10h8.4c0-0.1,0-0.3,0-0.4c0-3.3,2.7-6.1,6.1-6.1c0.6,0,1.1,0.1,1.6,0.2V8L12,13z"/>
	<polygon class="st0" points="20,6 4,6 12,11 	"/>
	<path d="M4,18V8l8,5l8-5v3.7c0.7,0.2,1.4,0.5,2,1V6c0-1.1-0.9-2-2-2H4C2.9,4,2,4.9,2,6v12c0,1.1,0.9,2,2,2h8.8
		c-0.3-0.6-0.4-1.3-0.5-2H4z M20,6l-8,5L4,6H20z"/>
</g>
<g>
	<path d="M13.4,17.8c0,2.8,2.2,5,5,5s5-2.2,5-5s-2.2-5-5-5S13.4,15,13.4,17.8z M21.4,17.8l-3,3l-0.7-0.7l1.8-1.8h-4.1v-1h4.1
		l-1.8-1.8l0.7-0.7L21.4,17.8z"/>
</g>
</svg>
