<?xml version="1.0" encoding="utf-8"?>
<!-- Generator: Adobe Illustrator 26.0.2, SVG Export Plug-In . SVG Version: 6.00 Build 0)  -->
<svg version="1.1" id="圖層_1" xmlns="http://www.w3.org/2000/svg" xmlns:xlink="http://www.w3.org/1999/xlink" x="0px" y="0px"
	 viewBox="0 0 24 24" style="enable-background:new 0 0 24 24;" xml:space="preserve">
<style type="text/css">
	.st0{fill:none;}
	.st1{fill:#3E6896;}
</style>
<g>
	<rect class="st0" width="24" height="24"/>
</g>
<g>
	<g>
		<path class="st1" d="M16.5,10.4c-0.4,0.4-1,0.4-1.4,0l-4.5-4.5l-7.1,7l-0.7-0.6c-1.2-1.2-1.2-3.1,0-4.2l4.2-4.2
			c1.2-1.2,3.1-1.2,4.2,0L16.5,9C16.9,9.4,16.9,10,16.5,10.4z M17.2,8.3c0.8,0.8,0.8,2.1,0,2.8c-1.3,1.3-2.6,0.2-2.8,0l-3.8-3.8
			L5,12.9c-0.4,0.4-0.4,1,0,1.4c0.4,0.4,1,0.4,1.4,0l4.6-4.6l0.7,0.7l-4.6,4.6c-0.4,0.4-0.4,1,0,1.4c0.4,0.4,1,0.4,1.4,0l4.6-4.6
			l0.7,0.7l-4.6,4.6c-0.4,0.4-0.4,1,0,1.4s1,0.4,1.4,0l4.6-4.6l0.7,0.7l-4.6,4.6c-0.4,0.4-0.4,1,0,1.4s1,0.4,1.4,0l8.3-8.3
			c1.2-1.2,1.2-3.1,0-4.2l-4.2-4.2c-1.1-1.2-3-1.2-4.2-0.1L17.2,8.3z"/>
	</g>
</g>
</svg>
