<svg width="51" height="51" viewBox="0 0 51 51" fill="none" xmlns="http://www.w3.org/2000/svg">
<g clip-path="url(#clip0_1827_5747)">
<path d="M39.4674 0.171875H10.8959C4.97859 0.171875 0.181641 4.9841 0.181641 10.9203V39.5827C0.181641 45.5189 4.97859 50.3311 10.8959 50.3311H39.4674C45.3847 50.3311 50.1816 45.5189 50.1816 39.5827V10.9203C50.1816 4.9841 45.3847 0.171875 39.4674 0.171875Z" fill="black"/>
<path d="M39.4674 0.171875H10.8959C4.97859 0.171875 0.181641 4.9841 0.181641 10.9203V39.5827C0.181641 45.5189 4.97859 50.3311 10.8959 50.3311H39.4674C45.3847 50.3311 50.1816 45.5189 50.1816 39.5827V10.9203C50.1816 4.9841 45.3847 0.171875 39.4674 0.171875Z" fill="black"/>
<path d="M39.4674 0.171875H10.8959C4.97859 0.171875 0.181641 4.9841 0.181641 10.9203V39.5827C0.181641 45.5189 4.97859 50.3311 10.8959 50.3311H39.4674C45.3847 50.3311 50.1816 45.5189 50.1816 39.5827V10.9203C50.1816 4.9841 45.3847 0.171875 39.4674 0.171875Z" fill="black"/>
<path d="M37.6814 15.398C37.6814 16.882 36.4821 18.0851 35.0028 18.0851C33.5235 18.0851 32.3242 16.882 32.3242 15.398C32.3242 13.914 33.5235 12.7109 35.0028 12.7109C36.4821 12.7109 37.6814 13.914 37.6814 15.398Z" fill="#FFF38D"/>
<path fill-rule="evenodd" clip-rule="evenodd" d="M25.1825 34.207C30.1136 34.207 34.111 30.1968 34.111 25.25C34.111 20.3032 30.1136 16.293 25.1825 16.293C20.2514 16.293 16.2539 20.3032 16.2539 25.25C16.2539 30.1968 20.2514 34.207 25.1825 34.207ZM25.1825 30.6242C28.1412 30.6242 30.5396 28.2181 30.5396 25.25C30.5396 22.2818 28.1412 19.8758 25.1825 19.8758C22.2237 19.8758 19.8253 22.2818 19.8253 25.25C19.8253 28.2181 22.2237 30.6242 25.1825 30.6242Z" fill="#FFF38D"/>
<path fill-rule="evenodd" clip-rule="evenodd" d="M7.32422 24.5334C7.32422 18.5137 7.32422 15.5038 8.492 13.2047C9.51922 11.1822 11.1583 9.53793 13.1743 8.50744C15.4662 7.33594 18.4665 7.33594 24.4671 7.33594H25.8956C31.8962 7.33594 34.8965 7.33594 37.1883 8.50744C39.2044 9.53793 40.8435 11.1822 41.8707 13.2047C43.0385 15.5038 43.0385 18.5137 43.0385 24.5334V25.9665C43.0385 31.9862 43.0385 34.9961 41.8707 37.2952C40.8435 39.3176 39.2044 40.962 37.1883 41.9924C34.8965 43.164 31.8962 43.164 25.8956 43.164H24.4671C18.4665 43.164 15.4662 43.164 13.1743 41.9924C11.1583 40.962 9.51922 39.3176 8.492 37.2952C7.32422 34.9961 7.32422 31.9862 7.32422 25.9665V24.5334ZM24.4671 10.9187H25.8956C28.9549 10.9187 31.0344 10.9215 32.6419 11.0533C34.2078 11.1816 35.0085 11.4142 35.5671 11.6997C36.911 12.3867 38.0037 13.4829 38.6885 14.8312C38.9731 15.3915 39.2051 16.1948 39.333 17.7657C39.4642 19.3783 39.4671 21.4644 39.4671 24.5334V25.9665C39.4671 29.0355 39.4642 31.1216 39.333 32.7342C39.2051 34.3051 38.9731 35.1084 38.6885 35.6687C38.0037 37.0169 36.911 38.1131 35.5671 38.8001C35.0085 39.0857 34.2078 39.3184 32.6419 39.4466C31.0344 39.5783 28.9549 39.5812 25.8956 39.5812H24.4671C21.4078 39.5812 19.3283 39.5783 17.7208 39.4466C16.1549 39.3184 15.3542 39.0857 14.7956 38.8001C13.4517 38.1131 12.359 37.0169 11.6742 35.6687C11.3896 35.1084 11.1577 34.3051 11.0298 32.7342C10.8984 31.1216 10.8956 29.0355 10.8956 25.9665V24.5334C10.8956 21.4644 10.8984 19.3783 11.0298 17.7657C11.1577 16.1948 11.3896 15.3915 11.6742 14.8312C12.359 13.4829 13.4517 12.3867 14.7956 11.6997C15.3542 11.4142 16.1549 11.1816 17.7208 11.0533C19.3283 10.9215 21.4078 10.9187 24.4671 10.9187Z" fill="#FFF38D"/>
</g>
<defs>
<clipPath id="clip0_1827_5747">
<rect width="50" height="50.1592" fill="white" transform="translate(0.181641 0.171875)"/>
</clipPath>
</defs>
</svg>
