<svg width="51" height="51" viewBox="0 0 51 51" fill="none" xmlns="http://www.w3.org/2000/svg">
<g clip-path="url(#clip0_1827_5757)">
<path d="M42.7858 42.7398H35.3775V31.0987C35.3775 28.3232 35.3275 24.7494 31.5233 24.7494C27.665 24.7494 27.0733 27.7756 27.0733 30.8939V42.7398H19.665V18.8013H26.7775V22.0742H26.8775C28.3275 19.5914 31.0275 18.1033 33.8941 18.2078C41.4025 18.2078 42.79 23.161 42.79 29.6106L42.7858 42.7356V42.7398ZM11.3066 15.5285C10.1686 15.523 9.0787 15.0673 8.27359 14.2604C7.46849 13.4536 7.01321 12.3606 7.00664 11.219C7.00664 8.85314 8.94831 6.90529 11.3066 6.90529C13.665 6.90529 15.6025 8.85314 15.6066 11.219C15.6066 13.5848 13.665 15.5326 11.3066 15.5326V15.5285ZM15.0108 42.7398H7.59414V18.8013H15.0108V42.7398ZM46.4733 6.21271e-05H3.86914C2.9031 -0.00556667 1.97388 0.371488 1.2834 1.04929C0.592928 1.72709 0.196993 2.65087 0.181641 3.61987V46.5393C0.196993 47.5083 0.592928 48.4321 1.2834 49.1099C1.97388 49.7877 2.9031 50.1647 3.86914 50.1591H46.4775C47.4457 50.167 48.378 49.7912 49.0716 49.1134C49.7652 48.4356 50.1641 47.5105 50.1816 46.5393V3.61569C50.1641 2.64523 49.7649 1.72105 49.0711 1.04458C48.3772 0.368099 47.445 -0.00584459 46.4775 0.00424174L46.4733 6.21271e-05Z" fill="black"/>
</g>
<defs>
<clipPath id="clip0_1827_5757">
<rect width="50" height="50.1592" fill="white" transform="translate(0.181641)"/>
</clipPath>
</defs>
</svg>
