<?xml version="1.0" encoding="utf-8"?>
<!-- Generator: Adobe Illustrator 23.1.0, SVG Export Plug-In . SVG Version: 6.00 Build 0)  -->
<svg version="1.1" id="圖層_1" xmlns="http://www.w3.org/2000/svg" xmlns:xlink="http://www.w3.org/1999/xlink" x="0px" y="0px"
	 viewBox="0 0 22.7 22.7" style="enable-background:new 0 0 22.7 22.7;" xml:space="preserve">
<style type="text/css">
	.st0{fill:#0A66C2;}
</style>
<title>linkedin logo icon</title>
<path class="st0" d="M19.3,19.3H16v-5.3c0-1.3,0-2.9-1.7-2.9c-1.7,0-2,1.4-2,2.8v5.4H8.8V8.5h3.2V10h0c0.7-1.1,1.9-1.8,3.2-1.7
	c3.4,0,4,2.2,4,5.2L19.3,19.3z M5,7c-1.1,0-2-0.9-2-1.9c0-1.1,0.9-2,1.9-2c1.1,0,2,0.9,2,1.9c0,0,0,0,0,0C7,6.1,6.1,7,5,7L5,7
	 M6.7,19.3H3.4V8.5h3.4L6.7,19.3z M21,0H1.7C0.8,0,0,0.7,0,1.6c0,0,0,0,0,0V21c0,0.9,0.8,1.6,1.7,1.6H21c0.9,0,1.7-0.7,1.7-1.6V1.6
	C22.7,0.7,21.9,0,21,0"/>
</svg>
