<svg width="36" height="35" viewBox="0 0 36 35" fill="none" xmlns="http://www.w3.org/2000/svg">
<g clip-path="url(#clip0_1147_7526)">
<path d="M16.7458 32.4091C7.95982 32.4092 0.837857 25.2516 0.837956 16.4215C0.838055 7.59136 7.96017 0.433519 16.7462 0.433422C19.2162 0.43153 21.6525 1.00857 23.8617 2.11869C26.0709 3.22881 27.9921 4.84143 29.4726 6.82843L25.1615 6.82847C23.3245 5.20055 21.0591 4.13993 18.6372 3.77391C16.2152 3.40788 13.7396 3.75198 11.5074 4.76493C9.27525 5.77788 7.38128 7.41664 6.05281 9.48457C4.72433 11.5525 4.0178 13.9617 4.01797 16.4232C4.01815 18.8847 4.72503 21.2938 6.0538 23.3614C7.38257 25.4291 9.27677 27.0675 11.5091 28.08C13.7415 29.0926 16.2171 29.4362 18.639 29.0697C21.0609 28.7032 23.3261 27.6422 25.1629 26.0139L29.4739 26.0139C27.9933 28.0011 26.0718 29.6139 23.8623 30.7241C21.6528 31.8343 19.2161 32.4112 16.7458 32.4091ZM27.8816 22.8163L27.8816 18.0199L15.1552 18.0201L15.1552 14.8225L27.8817 14.8224L27.8817 10.026L35.8357 16.4211L27.8816 22.8163Z" fill="black"/>
</g>
<defs>
<clipPath id="clip0_1147_7526">
<rect width="34.9977" height="34.5684" fill="white" transform="matrix(1 -1.10598e-05 -1.11972e-05 1 0.838135 0.433594)"/>
</clipPath>
</defs>
</svg>
