<?xml version="1.0" encoding="utf-8"?>
<!-- Generator: Adobe Illustrator 23.1.0, SVG Export Plug-In . SVG Version: 6.00 Build 0)  -->
<svg version="1.1" id="圖層_1" xmlns="http://www.w3.org/2000/svg" xmlns:xlink="http://www.w3.org/1999/xlink" x="0px" y="0px"
	 viewBox="0 0 1000 1000" style="enable-background:new 0 0 1000 1000;" xml:space="preserve">
<g>
	<g transform="translate(0.000000,512.000000) scale(0.100000,-0.100000)">
		<path d="M7663,2934.5c-245.2,1011.6-1074.8,1810.6-2113.3,2036.7c-237.6,51.7-724.3,65.1-961.9,26.8
			C3568.5,4833.2,2733.2,4139.7,2394,3177.8c-130.3-373.6-170.5-689.7-136-1120.8c61.3-770.2,297-1429.3,829.6-2314.5
			c86.2-143.7,375.5-588.2,639.9-984.8c498.1-743.4,728.1-1111.3,875.6-1406.3c116.9-231.8,191.6-295.1,350.6-295.1
			c143.7,0,201.2,55.6,379.4,373.6c168.6,297,450.3,724.2,873.7,1322C6842.9-349.5,7109.3,75.9,7327.7,528
			c275.9,580.5,429.2,1155.3,431.1,1615.2C7758.8,2344.4,7712.8,2733.3,7663,2934.5z M5902.3,2129.7
			c-88.2-532.7-613.2-885.2-1122.8-753c-490.5,128.4-800.9,640-672.5,1111.3c86.2,323.8,342.9,582.5,664.8,668.7
			c136,36.4,308.5,38.4,448.4,1.9C5674.3,3039.8,5977,2583.8,5902.3,2129.7z"/>
		<path d="M7406.2-644.5c-128.4-40.2-210.8-168.6-199.2-316.1c11.5-130.3,67.1-206.9,193.5-260.6c429.2-189.7,705.1-364,944.6-601.6
			c137.9-136,189.7-205,249.1-323.8c70.9-145.6,74.7-160.9,74.7-337.2c0-174.3-3.8-191.6-74.7-333.4
			c-331.5-674.4-1586.4-1216.6-3086.6-1335.4c-312.3-24.9-975.2-13.4-1264.6,21.1C2844.3-3966.8,1744.6-3461,1407.4-2828.7
			c-74.7,139.9-76.6,149.5-76.6,335.3c0,183.9,1.9,197.3,76.6,344.9c59.4,120.7,113,191.6,249.1,325.7
			c206.9,208.8,417.7,352.5,743.4,507.7c251,120.7,304.6,164.8,341,285.5c44.1,147.5-57.5,321.9-214.6,367.9
			c-99.6,30.7-205-1.9-503.9-153.3c-684-346.8-1115.1-799-1258.8-1316.3c-57.5-203.1-57.5-492.4,0-703.2
			C939.9-3501.3,1622-4078,2641.2-4426.7c647.6-222.2,1312.4-331.5,2147.8-350.6c1916-46,3500.5,488.6,4190.2,1412.1
			c342.9,459.8,396.6,1038.5,138,1532.8C8885.4-1386,8391-981.7,7737.7-703.9C7549.9-623.4,7504-615.8,7406.2-644.5z"/>
	</g>
</g>
</svg>
