<?xml version="1.0" encoding="utf-8"?>
<!-- Generator: Adobe Illustrator 23.1.0, SVG Export Plug-In . SVG Version: 6.00 Build 0)  -->
<svg version="1.1" id="圖層_1" xmlns="http://www.w3.org/2000/svg" xmlns:xlink="http://www.w3.org/1999/xlink" x="0px" y="0px"
	 viewBox="0 0 64.1 40" style="enable-background:new 0 0 64.1 40;" xml:space="preserve">
<style type="text/css">
	.st0{fill:#C30D23;}
	.st1{fill:#231815;}
</style>
<g>
	<g>
		<path class="st0" d="M15.7,23.2c0,0,0-0.1,0-0.1c0-0.2,0-0.4,0-0.7c0,0,0,0,0,0c0-0.1,0-0.2,0-0.2c0-0.1-0.1-0.1-0.1-0.2
			c0,0,0,0,0-0.1c-0.1,0-0.1-0.1-0.1-0.1c0,0-0.1-0.1-0.1-0.1c-0.1,0-0.2,0-0.3-0.1c0,0-0.1,0-0.1,0c-0.2,0-0.3,0-0.5,0
			c0,0-0.1,0-0.1,0c0,0-0.1,0-0.1,0c-0.1,0-0.3,0-0.4,0c0,0-0.1,0-0.1,0c-0.1,0-0.2,0-0.2,0c0,0,0,0,0,0c-0.1,0-0.2,0.1-0.3,0.2
			c0,0,0,0,0,0.1c0,0.2-0.1,0.3-0.2,0.5c0,0,0,0.1,0,0.1c0,0.1,0,0.2-0.1,0.3c0,0,0,0.1,0,0.1c0,0,0,0,0,0.1c0,0.2,0,0.3,0,0.5
			c0,0.1,0,0.3,0,0.4c0,0.1,0,0.3,0,0.4c0,0,0,0.1,0,0.1c0,0.1,0,0.2,0,0.3c0,0.1,0,0.2,0,0.4c0,0.2,0,0.3,0,0.5c0,0.1,0,0.1,0,0.2
			c0,0,0,0.1,0,0.1c0.1,0.1,0.1,0.2,0.1,0.2c0,0,0,0.1,0,0.1c0,0.1,0.1,0.2,0.2,0.2c0,0,0,0,0.1,0c0.1,0.1,0.2,0.2,0.4,0.2
			c0.2,0.1,0.4,0.1,0.6,0.1c0.1,0,0.1,0,0.2-0.1c0,0,0,0,0,0c0.1,0,0.2,0,0.2-0.1c0,0,0.1,0,0.1,0c0.2,0,0.3,0,0.4-0.1
			c0,0,0.1,0,0.1-0.1c0.1-0.1,0.1-0.2,0.1-0.3c0.1-0.1,0.1-0.3,0.1-0.5c0-0.1,0.1-0.2,0-0.4c0-0.1,0-0.2,0-0.3c0-0.1,0-0.2,0-0.4
			c0,0,0-0.1,0-0.1c0-0.1,0-0.2,0-0.3c0-0.1,0-0.2,0-0.3c0-0.1,0.1-0.3,0-0.4c0-0.1,0-0.1,0-0.2C15.7,23.4,15.7,23.3,15.7,23.2
			C15.7,23.2,15.7,23.2,15.7,23.2z M13.5,22.7c0-0.1,0-0.2,0.1-0.3c0.1-0.1,0.1-0.1,0.2-0.2c0,0,0.1-0.1,0.1-0.1
			c0.1,0,0.2-0.1,0.3,0c0.1,0,0.2,0,0.3,0c0.1,0,0.1,0,0.2,0c0,0,0.1,0,0.1,0c0.1,0,0.1,0,0.2,0.1c0.1,0.1,0.2,0.2,0.2,0.3
			c0,0.1,0,0.1,0,0.2c0,0.2,0,0.2-0.2,0.2c-0.1,0-0.2,0-0.2,0c-0.1,0-0.2,0-0.3,0c-0.1,0-0.1,0-0.2,0c-0.1,0-0.2-0.1-0.4-0.1
			c-0.1,0-0.1,0-0.2-0.1c0,0,0,0-0.1-0.1C13.5,22.8,13.4,22.7,13.5,22.7z M15,25.4c0,0,0,0.1,0,0.1c0,0.1,0,0.2-0.1,0.3
			c0,0.1-0.1,0.1-0.1,0.2c0,0.1-0.1,0.1-0.1,0.1c-0.1,0-0.2,0.1-0.3,0.1c0,0,0,0-0.1,0c-0.1,0-0.2,0-0.3,0c-0.1,0-0.3-0.1-0.4-0.2
			c0,0,0-0.1-0.1-0.1c-0.1-0.1-0.1-0.1-0.1-0.2c0,0,0,0,0-0.1c-0.1-0.1-0.1-0.2-0.1-0.3c0-0.1,0-0.2,0-0.3c0,0,0-0.1,0-0.1
			c0,0,0.1-0.1,0.1-0.1c0.1-0.1,0.2-0.1,0.3-0.1c0.1,0,0.2,0,0.2,0c0.3,0,0.5,0,0.8,0.1c0,0,0.1,0,0.1,0.1C15,25.2,15,25.3,15,25.4z
			 M15.1,24.2c0,0.1-0.1,0.1-0.1,0.1c-0.1,0-0.3,0.1-0.4,0.1c-0.1,0-0.2,0-0.3,0c0,0,0,0,0,0c-0.1,0-0.2,0-0.3,0c0,0-0.1,0-0.1,0
			c0,0-0.1,0-0.1,0c0,0-0.1,0-0.1,0c-0.1-0.1-0.2-0.2-0.2-0.3c0-0.1,0-0.2,0-0.3c0-0.1,0.1-0.2,0.2-0.2c0.1,0,0.1,0,0.2,0
			c0.1,0,0.1,0,0.2,0c0,0,0.1,0,0.1,0c0.2,0,0.4,0,0.6,0.1c0,0,0.1,0,0.1,0c0.1,0,0.1,0,0.1,0.1c0,0,0,0.1,0,0.1c0,0,0,0.1,0,0.1
			c0,0.1,0,0.1,0,0.2C15.1,24.1,15.1,24.1,15.1,24.2z"/>
		<path class="st0" d="M12,20.3c0,0.1,0,0.2,0,0.3c0,0.1,0.1,0.2,0.2,0.3c0,0,0,0,0.1,0.1c0.1,0.1,0.1,0.1,0.2,0.1
			c0.1,0,0.1,0,0.2,0.1c0,0,0.1,0,0.1,0c0.2,0,0.4,0,0.7,0c0.1,0,0.2,0,0.2,0c0.1,0,0.2,0,0.2,0c0.1,0,0.1,0,0.2,0
			c0.1,0,0.3,0,0.4,0c0.1,0,0.1,0,0.2,0c0,0,0.1,0,0.1,0c0.1,0,0.1,0,0.2,0c0.1,0,0.1,0,0.1,0c0.2,0,0.3-0.1,0.5-0.2c0,0,0,0,0,0
			c0.1,0,0.1-0.2,0-0.2c0,0-0.1-0.1-0.2-0.1c-0.1,0-0.3-0.1-0.4-0.1c0,0-0.1,0-0.1,0c-0.1,0-0.1,0-0.1,0c-0.1,0-0.2,0-0.3,0
			c-0.1,0-0.2,0-0.3,0c-0.1,0-0.2,0-0.3,0c0,0-0.1,0-0.1,0c-0.2,0-0.3,0-0.5,0c-0.1,0-0.2,0-0.2,0c-0.1,0-0.2,0-0.2-0.1
			c-0.1,0-0.2-0.1-0.3-0.1c0,0,0,0,0,0c0-0.1-0.1-0.1,0-0.2c0-0.1,0.1-0.1,0.1-0.1c0,0,0.1,0,0.1,0c0.1,0,0.2-0.1,0.3,0
			c0,0,0.1,0,0.1,0c0.1,0,0.3,0,0.4,0c0.1,0,0.1,0,0.2,0c0.1,0,0.2,0,0.4,0c0.1,0,0.2,0,0.3,0c0.1,0,0.3,0,0.4,0c0.1,0,0.1,0,0.2,0
			c0.1,0,0.2,0,0.3,0c0.1,0,0.2-0.1,0.2-0.1c0,0,0,0,0-0.1c0-0.1,0-0.2-0.1-0.2c-0.2-0.1-0.3-0.1-0.5-0.2c0,0,0,0-0.1,0
			c-0.1,0-0.1,0-0.1,0c-0.1,0-0.1,0-0.2,0c-0.1,0-0.1,0-0.2,0c-0.2,0-0.3,0-0.5,0c-0.2,0-0.4,0-0.6,0c0,0,0,0,0,0
			c-0.1,0-0.1,0-0.2,0c-0.1,0-0.2,0-0.3,0c0,0-0.1,0-0.1-0.1c-0.1-0.1-0.1-0.1-0.1-0.2c0-0.2-0.1-0.3-0.2-0.5c0,0,0-0.1-0.1-0.1
			c0-0.1-0.1,0-0.2,0c0,0,0,0,0,0.1c0,0,0,0.1,0,0.1c-0.1,0.1-0.1,0.2-0.1,0.2c0,0.1,0,0.1,0,0.2c0,0.1,0,0.1,0,0.2
			c0,0.1,0,0.2,0,0.3c0,0.1,0,0.3,0,0.4C12,20.1,12,20.2,12,20.3z"/>
		<path class="st0" d="M10.6,25c0,0.1,0,0.2,0,0.3c0,0,0,0,0,0.1c0.1,0.2,0.1,0.4,0.1,0.6c0,0.2,0,0.3,0.1,0.5
			c0,0.2,0.1,0.3,0.1,0.5c0,0.1,0.1,0.2,0.1,0.3c0,0.1,0.1,0.2,0,0.3c0.1,0.1,0,0.3,0.2,0.3c0,0,0,0,0,0c0.1,0.1,0.1,0.3,0.2,0.4
			c0,0.1,0.1,0.2,0.2,0.2c0,0,0.1,0,0.1,0c0,0,0.1,0,0.1-0.1c0,0,0-0.1,0-0.1c0-0.1,0-0.1,0-0.2c0-0.1,0-0.2,0-0.3
			c0-0.1,0-0.2,0-0.2c0-0.1-0.1-0.2-0.1-0.3c0-0.1,0-0.1,0-0.2c-0.1-0.1-0.1-0.2-0.1-0.3c-0.1-0.2-0.1-0.3-0.2-0.5c0,0,0-0.1,0-0.1
			c0,0,0-0.1,0-0.1c0-0.2-0.1-0.4-0.2-0.6c0-0.1-0.1-0.2-0.1-0.3c0-0.1,0-0.2-0.1-0.3c0-0.1-0.1-0.2-0.1-0.3c0,0,0-0.1,0-0.1
			c0-0.1,0-0.2-0.1-0.3c-0.1-0.1-0.1-0.1-0.1-0.2c0,0,0-0.1-0.1-0.1c0,0-0.1,0-0.1,0.1c0,0.1,0,0.1,0,0.2c0,0.1,0,0.2,0,0.3
			C10.5,24.8,10.6,24.9,10.6,25z"/>
		<path class="st0" d="M8.2,27.6C8.2,27.6,8.2,27.5,8.2,27.6L8.2,27.6z"/>
		<path class="st0" d="M8.2,27.9c0,0.1,0,0.2,0.1,0.3c0,0.1,0,0.5,0.2,0.6c0,0,0.1,0,0.1,0l0,0c0,0,0,0,0,0c0.1-0.1,0.2-0.2,0.3-0.3
			c0,0,0,0,0,0C8.9,28.2,8.9,28,9,27.8c0-0.1,0-0.2,0.1-0.3c0.1-0.1,0.1-0.3,0.1-0.4c0,0,0,0,0-0.1c0-0.1,0-0.3,0-0.4
			c0-0.1,0-0.2,0.1-0.4c0-0.1,0-0.2,0.1-0.3c0-0.1,0.1-0.1,0-0.2c0,0,0-0.1,0-0.1c0-0.1,0-0.1,0-0.2c0-0.1,0-0.1,0-0.2
			c0-0.1,0-0.2,0-0.3c0,0,0-0.1,0-0.1c0-0.1,0-0.2,0-0.2c0-0.2-0.1-0.3-0.1-0.5c0,0,0-0.1-0.1-0.1c-0.1,0-0.1,0-0.2,0.1
			c0,0,0,0.1,0,0.1c0,0.2-0.1,0.4-0.1,0.6c0,0.1-0.1,0.2-0.1,0.3c0,0.1,0,0.2,0,0.3c0,0.2-0.1,0.3-0.1,0.5c0,0.1-0.1,0.3-0.1,0.4
			c0,0.1,0,0.1,0,0.2c0,0,0,0,0,0.1c0,0,0,0.1,0,0.1c0,0.1-0.1,0.2-0.1,0.3c-0.1,0.2-0.1,0.4-0.1,0.5l0,0c0,0,0,0.1,0,0.1
			C8.2,27.7,8.2,27.8,8.2,27.9z"/>
		<path class="st0" d="M5.1,5.7c0-0.1,0-0.2-0.1-0.2C4.8,5.4,4.7,5.4,4.6,5.4c-0.1,0-0.3,0-0.4,0c0,0-0.1,0-0.1,0c0,0-0.1,0-0.1,0
			C4,5.5,4,5.6,3.9,5.7c0,0.1-0.1,0.2-0.1,0.3C3.8,6.2,3.7,6.4,3.7,6.7c0,0.1-0.1,0.2,0,0.4c0,0.1,0,0.1,0.1,0.2
			c0,0,0.1,0.1,0.1,0.1c0,0.1,0.1,0.1,0.1,0.2C4,7.6,4.1,7.7,4.2,7.7c0,0,0.1,0,0.1,0c0,0,0.1-0.1,0.1-0.1c0.1,0,0.2-0.1,0.3-0.2
			c0-0.1,0.1-0.1,0.1-0.1C5,7.2,5,7.1,5,7.1c0,0,0-0.1,0-0.1c0-0.1,0-0.2,0-0.3c0-0.1,0-0.2,0-0.3c0-0.1,0-0.2,0-0.3
			c0,0,0-0.1,0-0.1c0,0,0-0.1,0-0.1C5.1,5.8,5.1,5.8,5.1,5.7z"/>
		<path class="st0" d="M5,14.9c0-0.2-0.1-0.3-0.1-0.5c0-0.1-0.1-0.3-0.1-0.4c0-0.1,0-0.3-0.1-0.4c0,0,0,0,0-0.1
			c0-0.1-0.1-0.1-0.1-0.2c0,0,0,0,0,0c-0.1,0-0.1,0-0.1,0.1c0,0,0,0.1,0,0.1c0,0.1,0,0.1,0,0.2c0,0.1,0,0.1,0,0.2
			c0,0.1-0.1,0.2-0.1,0.4c0,0.1,0,0.2-0.1,0.3c0,0.1,0,0.1,0,0.2c0,0.2,0.1,0.3,0.2,0.5c0.1,0.1,0.2,0.1,0.3,0.2c0,0,0.1,0,0.1,0
			c0.2-0.1,0.2-0.1,0.3-0.3c0,0,0-0.1,0-0.1C5,15.1,5,15,5,14.9C5,15,5,14.9,5,14.9z"/>
		<path class="st0" d="M2.1,33.8c0,0.1,0,0.2,0.1,0.3c0,0.2,0.1,0.4,0.2,0.6c0,0.1,0.1,0.3,0.2,0.4c0,0,0,0,0,0.1
			c0.1,0.3,0.3,0.5,0.5,0.6c0.1,0.1,0.2,0.2,0.4,0.2c0.1,0,0.2,0,0.3,0c0.1,0,0.2-0.1,0.3-0.2c0-0.1,0.1-0.1,0.1-0.2
			c0.1-0.1,0.1-0.1,0.1-0.2c0.1-0.2,0.1-0.3,0.1-0.5c0,0,0,0,0-0.1c0-0.2,0.1-0.4,0.1-0.6c0,0,0-0.1,0-0.1c0-0.1,0-0.3,0-0.4
			c0,0,0-0.1,0-0.1c0-0.2,0-0.3,0-0.5c0-0.3,0-0.5,0-0.8c0,0,0-0.1,0-0.1c-0.1-0.2,0-0.3-0.1-0.5c0-0.1-0.1-0.2-0.1-0.4
			c0-0.1,0-0.1-0.1-0.2c0,0,0-0.1-0.1-0.1C4,31.1,4,31.1,4,31.2c0,0,0,0.1,0,0.1c0,0.1,0,0.1,0,0.2c0,0.1,0,0.2-0.1,0.3
			c0,0,0,0.1-0.1,0.1c0,0.1-0.1,0.1-0.1,0.2c-0.1,0.1-0.2,0.1-0.3,0.1c-0.2,0-0.4,0-0.6-0.1c-0.1,0-0.2,0-0.2-0.1c0,0,0,0,0,0
			c-0.1-0.1-0.1-0.1-0.1-0.2c0-0.1-0.1-0.2-0.1-0.3c0-0.1-0.1-0.3-0.2-0.4c0,0,0-0.1-0.1-0.1c0,0-0.1,0-0.1,0c0,0.1,0,0.2,0,0.3
			c0,0.1,0,0.1,0,0.2c0,0.1,0,0.1,0,0.2c0,0.2-0.1,0.4,0,0.6c0,0.1,0,0.2,0,0.2c0,0.1,0,0.1,0,0.2c0,0.1,0,0.3,0,0.4
			C2,33.4,2.1,33.6,2.1,33.8C2.1,33.8,2.1,33.8,2.1,33.8z M2.6,33.2c0-0.1,0-0.2,0.1-0.3c0,0,0,0,0.1,0c0.1-0.1,0.2-0.1,0.4-0.1
			c0.1,0,0.2,0,0.4,0.1c0,0,0,0,0,0c0.1,0.1,0.2,0.3,0.2,0.5c0,0.1,0,0.2,0,0.4c0,0,0,0,0,0c0,0.1,0,0.1,0,0.2c0,0.1,0,0.1,0,0.2
			c0,0.2-0.1,0.3-0.1,0.5c0,0.1,0,0.1-0.1,0.2c-0.1,0.1-0.1,0.2-0.2,0.2c0,0-0.1,0.1-0.1,0.1c0,0-0.1,0-0.1,0
			c-0.1,0-0.1-0.1-0.1-0.1c0-0.1-0.1-0.1-0.1-0.2c-0.1-0.1-0.1-0.2-0.2-0.4c0,0,0-0.1,0-0.1c0-0.1-0.1-0.2-0.1-0.3c0,0,0,0,0-0.1
			c-0.1-0.1,0-0.2-0.1-0.3c0-0.1,0-0.1,0-0.2C2.6,33.4,2.6,33.3,2.6,33.2z"/>
		<path class="st0" d="M0.7,27.4C0.8,27.3,0.9,27.2,1,27c0.1-0.1,0.2-0.2,0.3-0.3c0.1-0.1,0.2-0.2,0.2-0.2c0.1-0.1,0.1-0.2,0.3-0.2
			c0.1,0,0.1,0,0.2-0.1c0,0,0,0,0.1,0c0.1,0,0.3-0.1,0.4-0.1c0.1,0,0.2,0,0.2,0c0.4,0,0.4,0,0.7,0.1c0.2,0,0.3,0.1,0.5,0.1
			c0.1,0,0.2,0,0.4,0.1c0.1,0,0.1,0.1,0.2,0.1c0.1,0,0.2,0.1,0.2,0.2c0.1,0,0.1,0.1,0.2,0.1C4.9,26.9,5,27,5.1,27.1
			c0.1,0.1,0.1,0.2,0.2,0.2c0.1,0,0.1,0,0.2,0c0,0,0,0,0-0.1c0,0,0,0,0-0.1c-0.1-0.1-0.1-0.2-0.1-0.3c-0.1-0.1-0.1-0.2-0.2-0.3
			c0-0.1-0.1-0.1-0.2-0.2c0,0,0,0-0.1-0.1c-0.1-0.2-0.3-0.3-0.4-0.5c0,0,0,0,0,0c-0.1-0.1-0.2-0.3-0.3-0.4c0-0.1-0.1-0.1-0.1-0.2
			C4,25.1,4,25,3.9,24.9c0-0.1-0.1-0.1-0.1-0.2c0-0.1-0.1-0.1-0.1-0.2c0,0-0.1-0.1-0.1-0.1c-0.1-0.1-0.2-0.2-0.2-0.4
			c-0.1-0.1-0.2-0.2-0.4-0.2c-0.1,0-0.1,0-0.2,0.1c0,0-0.1,0.1-0.1,0.1c0,0,0,0.1-0.1,0.1c-0.1,0.1-0.1,0.1-0.1,0.2
			c-0.1,0.1-0.1,0.1-0.1,0.2c0,0-0.1,0.1-0.1,0.1C2.2,24.7,2.1,24.8,2,25C2,25,1.9,25.1,1.9,25.2c-0.1,0.1-0.1,0.1-0.2,0.2
			c0,0,0,0,0,0c-0.2,0.2-0.3,0.5-0.5,0.7C1,26.1,1,26.2,0.9,26.3c0,0.1-0.1,0.1-0.1,0.1c-0.1,0.1-0.2,0.2-0.3,0.3c0,0,0,0,0,0
			c-0.1,0.1-0.2,0.2-0.2,0.3c0,0.1-0.1,0.1-0.1,0.2c0,0,0,0,0,0.1c0,0.1,0.1,0.1,0.1,0.1c0.1,0,0.1,0,0.2,0
			C0.6,27.5,0.7,27.4,0.7,27.4z M2.5,25.3C2.6,25.2,2.8,25,2.9,25C3,25,3,25,3,25c0.1,0,0.1,0,0.2,0c0.1,0,0.2,0,0.2,0.1
			c0.1,0.1,0.2,0.2,0.3,0.3c0,0,0,0,0,0.1c0,0.1,0,0.1-0.1,0.1c-0.1,0-0.2,0.1-0.3,0.1c-0.1,0-0.2,0-0.3,0c0,0,0,0-0.1,0
			c-0.1,0-0.1,0-0.2,0c-0.1,0-0.2-0.1-0.3-0.2C2.5,25.4,2.5,25.4,2.5,25.3z"/>
		<path class="st0" d="M17.3,19.3C17.3,19.3,17.3,19.3,17.3,19.3c0-0.2,0-0.4,0-0.5c0-0.1,0-0.3,0-0.4c0-0.1,0-0.2,0-0.2
			c0-0.1,0-0.3,0-0.4c0-0.1,0-0.2-0.1-0.2c0,0,0,0,0-0.1c0-0.2,0-0.4,0-0.6c0,0,0-0.1,0-0.1c0-0.1,0-0.2,0-0.3c0-0.1,0-0.3,0-0.4
			c0-0.1,0-0.1,0-0.2c0-0.1,0-0.1,0-0.2c0-0.1,0-0.2,0-0.3c0-0.1,0-0.2,0-0.3c0-0.1,0-0.2,0-0.3c0,0,0,0,0,0c-0.1-0.2,0-0.3,0-0.5
			c0-0.1,0-0.3,0-0.5c0-0.1,0-0.1,0-0.1c0-0.1,0-0.2,0-0.3c0-0.1,0-0.2,0-0.3c0,0,0-0.1,0-0.1c0-0.2,0-0.4,0-0.5c0-0.2,0-0.4,0-0.6
			c0-0.1,0-0.3,0-0.4c0-0.1,0-0.3,0-0.4c0,0,0,0,0-0.1c0-0.1,0-0.1,0-0.2c0,0,0-0.1,0-0.1c0,0,0-0.1,0-0.1c0-0.2,0-0.3,0-0.5
			c0,0,0,0,0-0.1c0-0.1,0-0.2,0-0.2c0-0.2,0-0.4,0-0.6c0,0,0-0.1,0-0.1c0-0.1,0-0.2,0-0.3c0-0.1,0-0.2,0-0.4c0-0.1,0.1-0.2,0-0.4
			c0,0,0,0,0,0c0-0.1,0-0.1,0-0.2c0-0.1,0-0.1,0-0.2c0-0.2,0-0.4,0-0.6c0-0.1,0-0.3-0.1-0.4c0,0,0,0,0-0.1c0-0.1,0-0.1,0-0.2
			c0,0,0-0.1,0-0.1c0,0,0,0,0-0.1c0-0.2,0-0.3-0.1-0.4c0,0,0-0.1,0-0.1c-0.1-0.1,0-0.3-0.1-0.4c0-0.2-0.1-0.4-0.2-0.6
			c0-0.2-0.1-0.3-0.2-0.4c-0.1-0.1-0.1-0.2-0.2-0.3C16.2,4.1,16.1,4,16,3.9c0,0,0,0-0.1-0.1c-0.1-0.1-0.1-0.2-0.2-0.3
			c-0.1-0.1-0.2-0.2-0.2-0.3c-0.1-0.1-0.2-0.2-0.2-0.3C15.2,3,15.1,2.8,15,2.8c0,0,0,0,0,0c-0.1-0.1-0.3-0.2-0.4-0.4
			c-0.1-0.1-0.3-0.2-0.4-0.4C14,2,13.9,1.9,13.9,1.8c0,0,0,0-0.1,0c-0.1,0-0.1-0.1-0.2-0.1c-0.1-0.1-0.2-0.2-0.3-0.2
			c0,0-0.1,0-0.2-0.1c-0.1-0.1-0.2-0.1-0.3-0.2C12.7,1.1,12.6,1,12.5,1c0,0,0,0,0,0c0,0-0.1-0.1-0.1-0.1c-0.1,0-0.2-0.1-0.3-0.1
			c-0.2-0.1-0.5-0.1-0.7-0.2c-0.2,0-0.3-0.1-0.4-0.1c0,0-0.1,0-0.1,0c0,0,0,0,0,0c0,0,0,0,0,0c0,0-0.1,0-0.1,0c0,0-0.1,0-0.1,0
			c0,0-0.1,0-0.1,0c-0.2-0.1-0.5-0.1-0.7-0.1c0,0-0.1,0-0.1,0C9.5,0,9.4,0,9.3,0c0,0-0.1,0-0.1,0C9,0,8.8,0,8.6,0C8.6,0,8.5,0,8.4,0
			C8.4,0,8.3,0,8.2,0C8.1,0,8.1,0,8,0.1c0,0-0.1,0-0.1,0c-0.1,0-0.2,0-0.2,0.1C7.5,0.2,7.3,0.3,7.2,0.3C7,0.4,6.8,0.4,6.6,0.5
			c-0.1,0-0.1,0-0.2,0.1C6.2,0.7,6,0.8,5.8,0.8C5.6,0.9,5.5,1,5.3,1.1C5.2,1.2,5,1.2,4.9,1.3c0,0-0.1,0-0.1,0.1c0,0-0.1,0-0.1,0.1
			C4.6,1.5,4.5,1.6,4.4,1.6C4.3,1.7,4.2,1.8,4.1,1.9C3.9,2,3.7,2.2,3.5,2.3C3.3,2.5,3.1,2.7,2.8,2.8C2.8,2.9,2.7,2.9,2.7,3
			C2.6,3,2.5,3,2.5,3.1C2.4,3.1,2.3,3.2,2.2,3.3c0,0-0.1,0-0.1,0.1C2.1,3.4,2,3.4,1.9,3.5C1.8,3.5,1.7,3.6,1.6,3.7
			C1.4,3.7,1.3,3.8,1.1,3.9C1.1,3.9,1,3.9,0.9,4C0.8,4,0.8,4,0.7,4.1c0,0-0.1,0-0.1,0.1c0,0-0.1,0-0.1,0c0,0-0.1,0,0,0.1
			c0,0,0,0,0,0.1c0.1,0.1,0.2,0.1,0.3,0.1c0.3,0,0.6,0,0.8-0.1c0,0,0.1,0,0.1,0c0.1,0.1,0.1,0.2,0.1,0.4c0,0.3,0,0.6,0,0.8
			c0,0.2,0,0.3,0,0.5c0,0,0,0.1,0,0.1c0,0.1,0,0.2,0,0.4c0,0.2-0.1,0.4-0.1,0.6c0,0.1-0.1,0.2-0.1,0.2c0,0.1-0.1,0.3-0.1,0.4
			c0,0.1-0.1,0.2-0.1,0.2C1.2,8.2,1.1,8.5,1,8.8c0,0.2-0.1,0.3-0.1,0.5c0,0.1,0,0.2,0,0.3c0,0.1,0,0.1,0,0.2c0,0.1,0,0.2,0,0.2
			c0,0.1,0,0.2,0.1,0.3C1,10.3,1,10.4,1,10.5c0,0.1,0,0.1,0,0.2c0,0.1,0.1,0.2,0.1,0.2c0,0,0,0.1,0,0.1c0,0,0,0,0.1,0
			c0,0,0.1,0,0.1-0.1c0-0.1,0-0.3,0-0.4c0-0.2,0-0.4,0-0.5c0-0.1,0-0.3,0.1-0.4c0-0.1,0.1-0.2,0.1-0.3c0.1-0.2,0.3-0.4,0.3-0.6
			C1.9,8.5,1.9,8.4,2,8.3c0.1-0.2,0.2-0.3,0.3-0.5c0-0.1,0-0.2,0-0.2c0-0.1,0-0.1,0-0.2c0-0.1,0.1-0.3,0.1-0.4c0,0,0-0.1,0-0.1
			c0-0.1,0-0.2,0-0.3c0-0.2,0-0.4,0.1-0.6c0-0.2,0-0.4,0-0.6c0-0.1,0-0.2,0-0.2c0-0.1,0-0.3,0-0.4c0-0.1,0-0.2,0.1-0.3
			c0-0.1,0.1-0.2,0.1-0.3C2.9,3.9,3,3.7,3.1,3.6c0.1-0.1,0.2-0.2,0.2-0.2c0.1-0.1,0.2-0.2,0.3-0.3C3.8,3,4,2.9,4.1,2.8
			c0.1-0.1,0.3-0.2,0.4-0.3c0.1-0.1,0.2-0.1,0.3-0.2c0,0,0.1,0,0.2,0c0.2,0,0.4,0.1,0.5,0.2c0.1,0.1,0.1,0.1,0.2,0.2
			C5.7,2.8,5.8,2.9,5.9,3C5.9,3,6,3.1,6,3.1c0.1,0.1,0.2,0.2,0.2,0.3c0,0,0,0.1,0,0.1c0,0.2-0.1,0.3-0.3,0.4
			C5.6,4.1,5.4,4.2,5.1,4.3c0,0-0.1,0-0.1,0C4.9,4.4,4.8,4.5,4.7,4.5c-0.1,0-0.1,0-0.2,0.1c0,0-0.1,0.1-0.1,0.1c0,0,0,0.1,0.1,0.1
			c0.1,0,0.3,0,0.4,0c0.1,0,0.2,0,0.3,0c0,0,0.1,0,0.1,0c0.2,0,0.4-0.1,0.6-0.1c0.1,0,0.1,0,0.2,0c0.1,0.1,0.2,0.1,0.2,0.2
			c0,0.1,0.1,0.1,0.1,0.2C6.4,5,6.5,5.1,6.5,5.2c0,0.1,0.1,0.1,0.1,0.2c0,0.2,0,0.5,0,0.7c0,0.1,0,0.2-0.1,0.4c0,0.1,0,0.2,0,0.4
			c0,0.2-0.1,0.4-0.1,0.6c0,0,0,0,0,0.1c0,0.1,0,0.3-0.1,0.4c0,0.1,0,0.3-0.1,0.4c0,0.2-0.1,0.3-0.1,0.5c0,0.2,0,0.3-0.1,0.5
			C6,9.5,6.1,9.7,6.2,9.9c0,0,0,0,0,0.1c0.2,0.3,0.5,0.4,0.8,0.4c0.1,0,0.2,0,0.3,0c0,0,0,0,0,0c0.1,0,0.3,0,0.4,0
			c0.1,0,0.1,0,0.2,0c0.1,0,0.3,0.1,0.4,0c0,0,0,0,0,0c0.1,0,0.3,0,0.4,0c0.1,0,0.1,0,0.2,0c0.2,0,0.4,0,0.5,0.1c0.1,0,0.1,0,0.2,0
			c0.1,0,0.1,0,0.2,0.1c0,0,0.1,0.1,0.1,0.1c0,0,0.1,0,0,0.1C10,10.9,9.9,11,9.8,11.2c-0.1,0.2-0.2,0.3-0.3,0.4c0,0,0,0.1-0.1,0.1
			c-0.1,0-0.1,0.1-0.2,0.1C9.2,11.9,9,12,8.9,12c-0.1,0-0.1,0-0.2,0.1c-0.1,0-0.1,0-0.2,0c-0.1,0-0.2,0-0.3,0c-0.1,0-0.2,0-0.3,0
			c0,0-0.1,0-0.1,0c-0.1,0-0.1,0-0.2,0c0,0-0.1,0-0.1,0c0,0-0.1,0-0.1,0c0,0,0,0,0,0c-0.1,0-0.2,0-0.3,0c-0.1,0-0.2,0-0.3,0
			c-0.1,0-0.3,0-0.4-0.1c-0.1,0-0.2,0-0.3,0c0,0,0,0-0.1,0c0,0-0.1,0-0.1,0c-0.2,0.1-0.3,0-0.5,0c0,0-0.1,0-0.1,0
			c-0.2-0.1-0.3-0.4-0.3-0.6c0-0.1,0-0.2-0.1-0.2c0-0.2-0.1-0.3-0.2-0.5c-0.1-0.2-0.2-0.4-0.4-0.5c0,0,0,0,0,0c0,0,0,0,0,0
			c0,0.1,0,0.2,0,0.2c0,0,0,0,0,0.1c0,0.1,0,0.1,0,0.2c0,0.1,0,0.1,0,0.2c0,0,0,0.1,0,0.1c0,0.1,0,0.2,0,0.4c0,0.1,0,0.2-0.1,0.3
			C4.2,11.9,4,12,3.9,12.1c0,0,0,0-0.1,0c-0.1,0-0.2,0-0.3,0c-0.1,0-0.2,0-0.3,0c-0.1,0-0.3,0-0.4,0c-0.1,0-0.3,0-0.4,0
			c-0.1,0-0.2,0-0.4,0c0,0-0.1,0-0.1,0c-0.1,0-0.2,0-0.2,0c-0.1,0-0.2,0-0.3,0c0,0-0.1,0-0.1,0c0,0-0.1,0-0.1,0c0,0-0.1,0-0.1,0
			c-0.1-0.1-0.2,0-0.3-0.1c0,0,0,0-0.1,0c-0.1,0-0.2,0-0.3,0c-0.1,0-0.1,0-0.1,0.1c0,0,0,0.1,0.1,0.1c0,0,0.1,0,0.1,0
			c0,0,0.1,0,0.1,0.1c0,0,0.1,0.1,0.1,0.1c0.1,0,0.1,0.1,0.2,0.1c0.1,0.1,0.2,0.1,0.3,0.1c0.1,0,0.2,0,0.3,0.1C1.7,13,1.9,13,2,13
			c0,0,0.1,0,0.1,0.1c0,0.1,0.1,0.2,0.1,0.3c0,0,0,0.1,0,0.1c0.1,0.2,0.1,0.3,0.1,0.5c0,0,0,0,0,0.1c0,0.1,0,0.2,0,0.2
			c0,0,0,0.1,0,0.1c0,0.1,0,0.1,0,0.2c0,0.1,0,0.1,0,0.2c0,0.1,0,0.1,0,0.2c0,0,0,0.1,0,0.1c0,0.1,0.1,0.3,0.1,0.4
			c0,0.1,0.1,0.2,0.1,0.3c0,0.1,0.1,0.3,0.2,0.4C3,16.2,3,16.3,3.1,16.4c0.1,0.1,0.1,0.1,0.2,0.2c0.1,0.1,0.2,0.2,0.2,0.3
			c0,0.1,0.1,0.1,0,0.2c0,0.1-0.1,0.2-0.2,0.3c-0.1,0-0.1,0.1-0.2,0.1c-0.1,0-0.1,0.1-0.2,0.2C3.1,17.6,3,17.7,3,17.8
			c0,0.1-0.1,0.1-0.2,0.2C2.7,18,2.7,18,2.6,18.1c-0.2,0.2-0.4,0.4-0.6,0.7c0,0,0,0-0.1,0.1C2,19,1.9,19.1,1.8,19.3
			c-0.1,0.1-0.1,0.3-0.2,0.4c0,0.2-0.1,0.4-0.1,0.6c0,0.1,0,0.1-0.1,0.2c0,0,0,0.1,0,0.1c0,0,0,0.1,0,0.1c0,0.3-0.1,0.6,0,0.8
			c0,0.1,0,0.2,0,0.3c0,0.1,0,0.1,0,0.2c0,0.1,0,0.3,0.1,0.4c0,0.2,0.1,0.4,0.1,0.5c0,0.1,0,0.2,0,0.4c0,0,0,0.1,0,0.1
			c0,0.1,0,0.3,0,0.4c0,0.1,0.1,0.2,0.2,0.2c0,0,0.1,0,0.1-0.1c0-0.1,0-0.2,0.1-0.3c0,0,0-0.1,0-0.1c0-0.1,0-0.3,0-0.4
			c0-0.1,0-0.2,0-0.3c0,0,0-0.1,0-0.1c0-0.1,0-0.3,0-0.4c0,0,0-0.1,0-0.1c0-0.1,0-0.2,0-0.3c0.1-0.1,0.1-0.3,0.1-0.5
			c0-0.1,0-0.3,0-0.4c0,0,0,0,0-0.1c0.1-0.1,0-0.1,0.1-0.2c0-0.1,0-0.2,0.1-0.3c0,0,0,0,0-0.1c0-0.1,0-0.2,0.1-0.3
			c0,0,0-0.1,0.1-0.2c0,0,0-0.1,0-0.1c0.1-0.1,0.1-0.2,0.2-0.3c0-0.1,0.1-0.2,0.2-0.3C2.9,19.2,3,19.1,3,19c0-0.1,0.1-0.1,0.1-0.2
			c0.1-0.1,0.2-0.2,0.3-0.3c0.1-0.1,0.2-0.2,0.3-0.3c0.1-0.1,0.1-0.1,0.2-0.2C4,18,4.1,17.9,4.2,17.9c0.1,0,0.1-0.1,0.2-0.1
			c0.1,0,0.2,0,0.3,0c0,0,0.1,0,0.1,0c0.1,0,0.1,0,0.2,0.1C5.1,18,5.2,18,5.2,18c0.1,0,0.2,0.1,0.3,0.2c0.1,0.1,0.1,0.1,0.2,0.2
			c0.2,0.2,0.4,0.4,0.6,0.6c0,0,0,0,0,0.1c0.1,0.1,0.2,0.3,0.3,0.4c0,0,0,0,0,0c0,0.1,0.1,0.2,0.1,0.3c0,0.1,0.1,0.1,0.1,0.2
			c0,0.1,0.1,0.2,0.1,0.3c0.1,0.1,0.1,0.2,0.1,0.2c0,0.1,0,0.3,0.1,0.4c0,0.1,0,0.1,0.1,0.2c0.1,0.1,0,0.3,0.1,0.4c0,0,0,0,0,0
			c0,0.1,0,0.2,0,0.3c0,0.1,0,0.1,0,0.2c0,0.1,0,0.3,0,0.4c0,0,0,0.1,0,0.1c0,0.1,0,0.3,0,0.4c0,0,0,0.1,0,0.1c0,0.1,0,0.2,0.1,0.3
			c0,0,0,0,0.1,0c0.1,0,0.2,0,0.2-0.1c0-0.1,0-0.1,0-0.2c0-0.1,0-0.2,0-0.3c0-0.1,0-0.3,0-0.4c0-0.1,0-0.3,0.1-0.4c0,0,0,0,0,0
			C7.9,22,8,21.9,8,21.7c0-0.1,0-0.2,0-0.3c0-0.1,0-0.2,0-0.3c0-0.1,0-0.1,0-0.2c0-0.1-0.1-0.3-0.1-0.4c0-0.1,0-0.2,0-0.4
			c0,0,0,0,0-0.1c-0.1-0.2-0.1-0.3-0.2-0.5c0-0.1-0.1-0.2-0.1-0.3c0-0.1-0.1-0.2-0.1-0.3c0,0,0,0,0,0c-0.1-0.2-0.2-0.3-0.3-0.4
			c-0.2-0.1-0.4-0.3-0.6-0.5c-0.1-0.1-0.1-0.1-0.2-0.1c0,0-0.1,0-0.1-0.1c-0.1-0.1-0.1-0.1-0.2-0.1c0,0,0,0-0.1,0
			c0-0.1-0.1-0.1-0.2-0.1c-0.1,0-0.1-0.1-0.2-0.1c-0.1-0.1-0.2-0.1-0.3-0.2c-0.1-0.1-0.1-0.1-0.1-0.2c0,0,0-0.1,0-0.1c0,0,0,0,0-0.1
			c0.1-0.1,0.2-0.2,0.4-0.3c0,0,0.1,0,0.1-0.1c0-0.1,0.1-0.1,0.1-0.2c0.1-0.1,0.1-0.2,0.2-0.3c0,0,0,0,0-0.1c0-0.1,0.1-0.2,0.1-0.2
			c0,0,0,0,0-0.1c0-0.1,0.1-0.1,0.1-0.2c0-0.1,0.1-0.2,0.1-0.3c0,0,0,0,0,0c0.1-0.1,0.1-0.2,0.1-0.2c0,0,0,0,0,0c0,0,0,0,0-0.1
			c0-0.1,0.1-0.2,0.1-0.3c0.1-0.1,0.1-0.2,0.1-0.3c0,0,0-0.1,0-0.1c0-0.1,0-0.2,0.1-0.3c0-0.1,0-0.2,0.1-0.2c0-0.1,0.1-0.2,0.1-0.2
			c0,0,0,0,0-0.1c0,0,0-0.1,0.1-0.1c0.1-0.1,0.1-0.1,0.2-0.1c0.1,0,0.2,0,0.4,0c0.1,0,0.2,0,0.3,0c0.1,0,0.3,0,0.4,0
			c0.2,0,0.4-0.1,0.6-0.2c0,0,0,0,0.1,0c0.3,0,0.5-0.2,0.7-0.3c0,0,0,0,0,0c0.1,0,0.2-0.1,0.3-0.1c0,0,0.1,0,0.1-0.1
			c0.1-0.1,0.2-0.2,0.3-0.4c0-0.1,0.1-0.1,0.1-0.2c0,0,0.1-0.1,0.1-0.1c0,0,0-0.1,0-0.1c0.1-0.1,0.1-0.2,0.1-0.3c0,0,0,0,0-0.1
			c0-0.1,0.1-0.3,0.1-0.4c0-0.1,0.1-0.3,0.1-0.4c0-0.1,0.1-0.2,0.1-0.3c0-0.2,0-0.3,0.1-0.5c0-0.1,0-0.2,0-0.2c0-0.1,0-0.2,0-0.3
			c0-0.1,0-0.1,0-0.2c0-0.1,0-0.3,0-0.4c0-0.1,0-0.2,0-0.3c0,0,0-0.1,0-0.1c0-0.1,0-0.1,0-0.2c0-0.1,0-0.1,0-0.2c0,0,0-0.1,0-0.1
			c0-0.2,0-0.3,0-0.5c0,0,0-0.1,0-0.1c0-0.1,0-0.3,0-0.4c0-0.1,0-0.3,0-0.4c0,0,0-0.1,0-0.1c0-0.1,0-0.2,0-0.3c0,0,0-0.1,0-0.1
			c0-0.2,0-0.3-0.1-0.5c0-0.1,0-0.3-0.1-0.4c0-0.1,0-0.2-0.1-0.4c0-0.1,0-0.2,0-0.3c0-0.1,0-0.2,0-0.3c0-0.1,0-0.2-0.1-0.3
			c0-0.2,0-0.3-0.1-0.5c0-0.1,0-0.2-0.1-0.3c0,0,0-0.1-0.1,0c0,0-0.1,0-0.1,0.1c0,0.1-0.1,0.2,0,0.3c0,0.1,0,0.2,0,0.3
			c0,0.1,0,0.2,0,0.3c0,0,0,0.1,0,0.1c0,0.1,0,0.2,0,0.4c0,0.1,0,0.1,0,0.2c0,0.1,0,0.1,0,0.2c0,0,0,0,0,0c0,0.1,0,0.2,0,0.3
			c0,0.1,0,0.3,0,0.4c0,0.1,0,0.2,0,0.3c0,0.1,0,0.1,0,0.2c0,0.1,0,0.1,0,0.2c0,0,0,0,0,0.1c0,0.1,0,0.1,0,0.2c0,0,0,0.1,0,0.1
			c0,0.2,0,0.3,0,0.5c0,0.1,0,0.1,0,0.2c0,0.1,0,0.1,0,0.2c0,0.1,0,0.2-0.1,0.3c0,0-0.1,0-0.1,0.1c0,0-0.1,0-0.1,0
			c-0.1,0-0.3,0-0.4,0c-0.1,0-0.1,0-0.2,0c-0.1,0-0.3,0-0.4,0c-0.1,0-0.1,0-0.2,0c-0.1,0-0.1,0-0.2,0c-0.2,0-0.4,0.1-0.5,0.1
			c0,0,0,0-0.1,0C8.2,7.4,8,7.5,7.9,7.6C7.7,7.7,7.7,7.8,7.6,7.9c-0.1,0.1,0,0.3,0.1,0.4C7.8,8.4,7.9,8.5,8,8.5c0.1,0,0.1,0,0.2,0
			c0.1,0,0.1,0,0.2,0c0.1,0,0.1,0.1,0.2,0c0.2,0,0.3,0,0.5,0.1c0.1,0,0.2,0.1,0.2,0.2c0,0,0,0.1,0,0.1C9.1,9.1,9,9.2,8.8,9.2
			c-0.3,0-0.6,0-0.9,0c-0.1,0-0.2,0-0.3,0c-0.1,0-0.3,0-0.4,0c-0.1,0-0.1,0-0.1-0.1c0-0.1,0-0.1-0.1-0.2C7,8.9,7,8.8,7,8.7
			c0-0.1,0-0.2,0-0.2c0-0.1,0-0.3,0-0.4C7,8,7,8,7,7.9c0-0.1,0-0.2,0-0.3c0-0.2,0-0.3,0-0.5c0,0,0,0,0-0.1c0-0.2,0-0.4,0-0.5
			c0-0.2,0-0.3,0.1-0.5c0-0.2,0-0.3,0.1-0.5c0-0.1,0-0.2,0-0.3c0-0.1,0-0.2,0.1-0.3c0-0.1,0.1-0.2,0.1-0.3c0.1-0.2,0.1-0.3,0.2-0.5
			C7.7,4,7.8,3.9,8,3.7c0,0,0,0,0-0.1c0.1-0.2,0.2-0.3,0.3-0.4C8.4,3.2,8.6,3.1,8.7,3c0.3-0.2,0.5-0.5,0.7-0.8c0,0,0,0,0.1-0.1
			c0.1-0.1,0.2-0.3,0.3-0.4c0,0,0,0,0-0.1c0.1-0.1,0.1-0.2,0.2-0.3c0,0,0-0.1,0.1-0.1c0-0.1,0.1-0.1,0.1-0.2c0-0.1,0.1-0.1,0.1-0.2
			c0.1,0,0.1,0,0.2,0.1c0.1,0,0.1,0.1,0.2,0.1c0,0,0.1,0,0.1,0c0.2,0.1,0.4,0.1,0.6,0.3c0,0,0,0,0.1,0c0.1,0.1,0.2,0.1,0.3,0.2
			c0,0,0,0,0,0c0,0.1,0.1,0.1,0.2,0.2C12,2,12,2,12.1,2.1c0.1,0.2,0.2,0.5,0.2,0.7c0,0.1,0,0.2,0,0.3c0,0,0,0,0,0c0,0.1,0,0.2,0,0.4
			c0,0.1,0,0.2,0,0.2c0,0.2,0,0.3,0,0.5c0,0,0,0,0,0.1c0,0.1,0,0.1,0,0.2c0,0,0,0.1,0,0.1c0,0.3,0,0.6,0,1c0,0.1,0,0.2,0,0.3
			c0,0.1,0,0.1,0,0.2c0,0,0,0.1,0,0.1c0,0.1,0,0.1,0,0.2c0,0,0,0.1,0,0.1c0,0.1,0,0.1,0,0.1c0,0.3,0,0.6,0,0.9c0,0.1,0,0.1,0,0.2
			c0,0.1,0,0.1,0,0.2c0,0,0,0.1,0,0.1c0,0.2,0,0.3,0,0.5c0,0.2,0,0.5,0,0.7c0,0,0,0.1,0,0.1c0,0.2,0,0.3,0,0.5c0,0.1,0,0.2,0,0.3
			c0,0.1,0,0.1,0,0.2c0,0.1,0,0.2,0,0.3c0,0.1,0,0.2,0,0.3c0,0.1-0.1,0.3-0.1,0.4c0,0,0,0.1,0,0.1c0,0.1,0,0.1,0,0.2
			c0,0,0,0.1,0,0.1c0,0.1-0.1,0.2-0.1,0.3c0,0.1,0,0.1,0,0.2c0,0.1,0,0.2-0.1,0.4c0,0.1,0,0.3,0,0.4c0,0.1,0,0.2-0.1,0.3
			c0,0.1,0,0.1-0.1,0.2c0,0.2-0.1,0.3-0.2,0.5c0,0.1-0.1,0.2-0.1,0.3c-0.1,0.2-0.2,0.4-0.3,0.6c0,0-0.1,0.1-0.1,0.1
			c0,0.1,0,0.1-0.1,0.2c-0.1,0-0.1,0.1-0.1,0.2c0,0,0,0,0,0c-0.1,0.1-0.2,0.2-0.2,0.3c0,0.1-0.1,0.1-0.1,0.2
			c-0.2,0.2-0.3,0.3-0.5,0.5c-0.2,0.2-0.5,0.4-0.8,0.6C9.3,16.8,9.2,16.9,9,17c0,0-0.1,0.1-0.1,0.1c-0.1,0-0.1,0.1-0.2,0.1
			c0,0,0,0.1,0,0.1c0,0,0.1,0,0.1,0c0.3,0,0.5,0,0.7-0.1c0,0,0.1,0,0.1,0c0.1,0,0.2,0,0.2-0.1c0,0,0.1,0,0.1,0
			c0.1,0,0.1-0.1,0.2-0.1c0.2-0.2,0.5-0.3,0.7-0.4c0,0,0.1,0,0.1-0.1c0.1-0.1,0.2-0.1,0.3-0.2c0.1,0,0.2-0.1,0.2-0.1
			c0.1-0.1,0.1-0.1,0.2-0.2c0,0,0,0,0-0.1c0,0,0-0.1,0-0.1c0.1-0.1,0.2-0.2,0.3-0.3c0.1-0.2,0.2-0.3,0.3-0.5
			c0.1-0.1,0.2-0.3,0.3-0.4c0.1-0.1,0.1-0.3,0.2-0.4c0.1-0.1,0.1-0.3,0.1-0.5c0-0.1,0-0.1,0-0.2c0-0.1,0-0.1,0-0.2
			c0-0.1,0-0.2,0-0.3c0,0,0-0.1,0-0.1c0,0,0-0.1,0-0.1c0-0.1,0-0.3,0-0.4c0-0.1,0-0.2,0-0.3c0,0,0-0.1,0-0.1c0-0.1-0.1-0.3,0-0.4
			c0,0,0,0,0-0.1c0,0,0-0.1,0-0.1c0,0,0-0.1,0-0.1c0-0.1,0-0.1,0-0.2c0-0.2,0-0.3,0-0.5c0-0.4,0-0.7,0-1.1c0-0.1,0-0.1,0-0.2
			c0-0.1,0-0.1,0-0.2c0-0.1,0-0.1,0-0.2c0-0.1,0-0.2,0-0.3c0,0,0,0,0,0c-0.1-0.2,0-0.3,0-0.5c0-0.1,0-0.2,0-0.2c0,0,0-0.1,0-0.1
			c0-0.1,0-0.2,0-0.4c0-0.1,0-0.2,0-0.4c0,0,0-0.1,0-0.1c0-0.1,0-0.1,0-0.2c0,0,0-0.1,0-0.2c0-0.1,0-0.2,0-0.3c0-0.1,0-0.2,0-0.3
			c0-0.1,0-0.2-0.1-0.3c0,0,0-0.1,0-0.1c0,0,0-0.1,0-0.1c0-0.2,0-0.3,0-0.5c0.1-0.2,0-0.3,0.1-0.5c0,0,0,0,0,0c0-0.1,0-0.2,0-0.3
			c0,0,0-0.1,0-0.1c0-0.2,0-0.4,0-0.5c0-0.2,0.1-0.3,0.1-0.5c0-0.1,0-0.2,0.1-0.3c0,0,0,0,0-0.1c0.1,0,0.1-0.1,0.2-0.1
			c0,0,0.1,0,0.1,0c0.1,0,0.1,0.1,0.2,0.2c0,0.1,0.1,0.1,0.1,0.2c0,0.1,0.1,0.2,0.1,0.3c0,0.1,0,0.2,0,0.2c0,0.1,0,0.2,0,0.3
			c0,0.2,0,0.3,0,0.5c0,0.1,0,0.3,0,0.4c0,0.1,0,0.2,0,0.3c0,0,0,0,0,0.1c0,0.1,0,0.1,0,0.2c0,0.1,0,0.2,0,0.3c0,0.2,0,0.3,0,0.5
			c0,0.1,0,0.2,0,0.2c0,0,0,0.1,0,0.1c0,0.1,0,0.2,0,0.3c0,0.2,0,0.5,0,0.7c0,0.2,0,0.4,0,0.5c0,0,0,0.1,0,0.1c0,0.1,0,0.2,0,0.4
			c0,0,0,0.1,0,0.1C14,8.9,14,9,14,9.2c0,0,0,0,0,0.1c0,0.1,0.1,0.3,0.1,0.4c0,0.2,0.1,0.3,0.1,0.5c0,0.2,0.1,0.3,0.2,0.5
			c0,0.1,0.1,0.1,0.1,0.2c0.1,0.2,0.2,0.3,0.3,0.5c0.1,0.2,0.3,0.3,0.4,0.5c0,0,0.1,0,0.1,0.1c0.1,0.1,0.2,0.2,0.3,0.3
			c0.1,0.1,0.2,0.1,0.4,0.2c0.1,0.1,0.2,0.2,0.3,0.3c0,0,0,0,0,0c0,0,0,0.1,0,0.1c0,0.1,0,0.3,0,0.4c0,0,0,0.1,0,0.1
			c0,0.3,0,0.6,0,0.9c0,0.2,0,0.4,0,0.6c0,0.2,0,0.3,0,0.5c0,0.2,0,0.3,0,0.5c0,0.1,0,0.1,0,0.2c0,0.1,0,0.1,0,0.2
			c0,0.1,0,0.2,0,0.2c0,0,0,0.1,0,0.1c0,0.3,0,0.5,0,0.8c0,0,0,0,0,0c0,0.1,0,0.2,0,0.4c0,0.1,0,0.1,0,0.2c0,0.3,0,0.6,0,0.9
			c0,0.2,0,0.4,0,0.5c0,0.2-0.1,0.4,0,0.5c0,0.1,0,0.1,0,0.2c0,0,0,0.1,0,0.1c0,0.1,0,0.2,0,0.4c0,0.2,0,0.4,0,0.6
			c0,0.1,0,0.3,0,0.4c0,0.2,0,0.4,0,0.6c0,0.1,0,0.1,0,0.2c0,0.2,0,0.4,0,0.6c0,0.1,0,0.2,0,0.3c0,0.1,0,0.2,0,0.3
			c0,0.1,0,0.3,0,0.4c0,0.5,0,1,0,1.5c0,0.3,0,0.7,0,1c0,0.1,0,0.2-0.1,0.3c0,0,0,0.1-0.1,0.1c-0.1,0.1-0.2,0.2-0.4,0.2
			c0,0-0.1,0-0.1,0c0,0-0.1,0-0.1,0c-0.1,0-0.2,0-0.3,0c-0.1,0-0.2,0-0.3,0c0,0,0,0-0.1,0c0,0,0,0-0.1,0c-0.1,0-0.2,0-0.3,0
			c-0.1,0-0.3,0-0.4,0c-0.1,0-0.1,0-0.2,0c-0.1,0-0.2,0-0.3,0c-0.1,0-0.3,0-0.4,0c-0.1,0-0.2-0.1-0.3-0.2c0,0-0.1-0.1-0.1-0.1
			c-0.1-0.1-0.1-0.2-0.2-0.3c0-0.1,0-0.2,0-0.3c0-0.2-0.1-0.3-0.1-0.5c0-0.1,0-0.2,0-0.3c0-0.1,0-0.1,0-0.2c0,0,0-0.1,0-0.1
			c0-0.4,0-0.7,0-1.1c0-0.1,0-0.2,0-0.3c0,0,0-0.1,0-0.1c0-0.1,0-0.1,0-0.2c0-0.1,0-0.1,0-0.2c0-0.2,0-0.4,0-0.6c0-0.1,0-0.3,0-0.4
			c0-0.1,0-0.1,0-0.2c0-0.2-0.1-0.6-0.2-0.8c0,0-0.1-0.1-0.1-0.1c0,0,0,0,0,0c0,0.1-0.1,0.1-0.1,0.2c0,0.1,0,0.2,0,0.3
			c0,0,0,0.1,0,0.1c0,0,0,0,0,0c-0.1,0-0.1-0.1-0.1-0.1c0-0.1-0.1-0.2-0.1-0.2c0-0.1-0.1-0.2-0.1-0.3c0-0.1-0.1-0.1-0.1-0.2
			c-0.1-0.1-0.1-0.2-0.2-0.3c-0.1-0.2-0.2-0.3-0.2-0.5c-0.1-0.1-0.1-0.3-0.2-0.4c0,0,0-0.1,0-0.1c-0.1-0.1-0.1-0.2-0.1-0.3
			c0-0.1,0-0.2-0.1-0.3c0-0.1-0.1-0.1-0.1-0.2c0-0.1-0.1-0.1-0.1-0.2c0-0.1-0.1-0.1-0.1-0.2c0,0-0.1,0-0.1,0c-0.1,0-0.1,0-0.2,0.1
			c0,0-0.1,0.1-0.1,0.1c-0.1,0.2-0.3,0.3-0.3,0.6c0,0,0,0,0,0c-0.1,0.1-0.1,0.3-0.2,0.4c-0.1,0.1-0.2,0.2-0.2,0.3
			c0,0.1-0.1,0.2-0.1,0.3c-0.1,0.2-0.2,0.4-0.3,0.6c-0.1,0.2-0.2,0.4-0.3,0.6c-0.1,0.3-0.2,0.6-0.3,0.9c-0.1,0.2-0.1,0.4,0,0.5
			c0,0.1,0,0.1,0,0.2c0,0.1,0.1,0.2,0.1,0.1c0,0,0.1,0,0.1-0.1c0-0.1,0.1-0.1,0.1-0.2c0.1-0.1,0.2-0.2,0.2-0.3c0-0.1,0-0.1,0.1-0.1
			c0.1-0.1,0.1-0.2,0.2-0.3C9,22,9.1,21.8,9.1,21.6c0.1-0.2,0.1-0.4,0.3-0.6c0,0,0,0,0,0c0.1-0.1,0.2-0.2,0.3-0.3
			c0.1,0,0.1-0.1,0.2-0.1c0.1,0,0.1,0,0.2,0c0.1,0,0.1,0,0.2,0c0.2,0,0.3,0.1,0.4,0.3c0,0,0.1,0,0.1,0.1c0,0,0,0,0,0.1
			c0,0,0,0,0,0.1c0,0.1-0.1,0.1-0.1,0.1c-0.1,0-0.3,0-0.4,0c-0.1,0-0.2,0-0.2,0c-0.1,0-0.1,0.1-0.2,0.1c-0.1,0-0.2,0.1-0.2,0.2
			c-0.1,0.1-0.1,0.3,0,0.5c0,0.2,0.1,0.4,0,0.6c0,0,0,0.1,0,0.1c0,0.1,0,0.1-0.1,0.2c0,0-0.1,0.1-0.1,0.1c0,0,0,0-0.1,0
			c-0.1,0-0.2,0.1-0.3,0c0,0-0.1,0-0.1,0c-0.1,0-0.2,0-0.3,0c0,0,0,0-0.1,0c-0.1,0.1-0.1,0.2,0,0.3c0.1,0.1,0.1,0.1,0.2,0.1
			c0.1,0,0.2,0,0.3,0.1c0.1,0.1,0.2,0.1,0.4,0.1c0,0,0.1,0,0.1,0c0,0,0,0,0.1,0c0,0.1,0,0.1,0,0.2c0,0,0,0.1,0,0.1
			c0,0.1,0,0.2,0,0.2c0,0.1,0,0.1,0,0.1c0,0,0,0,0,0.1c0,0.1,0,0.2,0,0.3c0,0.1,0,0.1,0,0.2c0,0.1,0,0.1,0,0.2c0,0,0,0.1,0,0.1
			c0,0.1,0,0.1,0,0.2c0,0.1,0,0.1,0,0.2c0,0,0,0.1,0,0.1c0,0.2,0,0.3,0,0.5c0,0.1,0,0.3,0,0.4c0,0.2,0,0.4,0,0.5c0,0,0,0.1,0,0.1
			c0,0.1,0,0.2,0,0.3c0,0,0,0.1,0,0.1c0,0.1,0,0.2,0,0.4c0,0,0,0.1,0,0.1c0,0.1,0,0.1,0,0.1c0,0,0,0.1,0,0.1c0,0,0,0.1-0.1,0.1
			c0,0-0.1,0.1-0.1,0.1c0,0-0.1,0.1-0.1,0.1c-0.1,0.1-0.2,0.1-0.3,0.1c-0.2,0-0.5,0-0.7-0.1c0,0-0.1,0-0.1,0c-0.1,0-0.2,0-0.3,0
			c0,0,0,0,0,0c0-0.1-0.1-0.2-0.1-0.4c0-0.1-0.1-0.2-0.1-0.3c-0.1-0.1-0.2-0.3-0.2-0.4c-0.1-0.1-0.1-0.3-0.2-0.4
			c-0.1-0.2-0.2-0.4-0.3-0.6c-0.1-0.1-0.1-0.3-0.2-0.5c0-0.1,0-0.1,0-0.2c0-0.3,0.1-0.5,0.1-0.7c0.1-0.2,0.2-0.4,0.3-0.6
			c0,0,0-0.1,0.1-0.1c0.1-0.1,0.2-0.2,0.4-0.4c0,0,0.1-0.1,0.1-0.2c0.1-0.1,0.2-0.2,0.2-0.3c0.1-0.1,0.1-0.2,0.2-0.3
			c0-0.1,0-0.1,0-0.1c0,0-0.1-0.1-0.1,0c-0.1,0.2-0.3,0.3-0.5,0.5c-0.1,0.1-0.2,0.2-0.3,0.2c-0.1,0.1-0.2,0.1-0.3,0.2
			c-0.1,0.1-0.2,0.2-0.3,0.2c-0.1,0.1-0.2,0.2-0.3,0.3c0,0,0,0,0,0.1c-0.1,0.1-0.1,0.2-0.2,0.3c0,0-0.1,0.1-0.1,0.2c0,0,0,0,0,0.1
			c0,0,0,0.1,0,0.1c0,0.1,0,0.2,0,0.3c0,0.1,0,0.1,0,0.2c0,0.1,0,0.2,0,0.3c0,0,0,0.1,0,0.1C5.9,27,6,27.1,6,27.3c0,0,0,0,0,0
			c0,0.1,0.1,0.1,0.1,0.2c0,0.1,0.1,0.1,0.1,0.2c0,0,0,0.1,0.1,0.1c0,0,0,0,0.1,0.1c0,0,0,0.1,0,0.1c0,0,0,0,0,0
			c-0.1,0.1-0.2,0.3-0.3,0.4c0,0.1-0.1,0.2-0.2,0.3c0,0.1-0.1,0.1-0.1,0.2c-0.1,0.1-0.2,0.3-0.2,0.4c0,0,0,0.1-0.1,0.1
			c0,0,0,0.1-0.1,0.1c0,0,0,0.1,0,0.1c-0.1,0.1-0.1,0.3-0.2,0.4c-0.1,0.2-0.2,0.4-0.2,0.6c0,0,0,0.1,0,0.1c0,0.1-0.1,0.2-0.1,0.3
			c0,0.1,0,0.3,0,0.4c0,0.2,0,0.3-0.1,0.5c0,0.1,0,0.1,0,0.2c0,0.1,0,0.2,0,0.3c0,0.1,0,0.2,0,0.3c0,0.2,0,0.4,0,0.6
			c0,0,0,0.1,0,0.1c0,0.1,0,0.3,0,0.4c0,0,0,0,0,0.1c0,0.1,0,0.1,0,0.2c0,0.1,0,0.1,0,0.2c0,0.3,0,0.5,0,0.7c0,0.1,0,0.2,0,0.2
			c0,0,0,0.1,0,0.1c0,0.1,0,0.1,0,0.2c0,0,0,0.1,0,0.1c0,0,0,0.1,0,0.1C5,36,5,36.1,5,36.3c0,0,0,0.1,0,0.1c0.1,0.3,0.1,0.6,0.2,0.8
			c0,0.1,0.1,0.3,0.2,0.4c0,0,0,0,0,0.1c0,0.1,0.1,0.1,0.1,0.2c0,0,0.1,0.1,0.1,0.1c0,0,0,0.1,0.1,0.1c0,0.1,0.1,0.1,0.1,0.1
			c0,0,0.1,0,0.1-0.1c0,0,0-0.1,0-0.1c-0.1-0.2-0.1-0.3-0.2-0.5c0-0.1,0-0.1,0-0.2c0-0.1,0-0.1,0-0.2c0-0.2-0.1-0.4-0.1-0.6
			c0-0.1,0-0.1,0-0.2c0-0.1,0-0.2,0-0.3c0-0.1,0-0.3,0-0.4c0-0.1,0-0.2,0-0.3c0-0.1,0-0.3,0-0.4c0,0,0-0.1,0-0.1c0-0.2,0-0.3,0-0.5
			c0-0.2,0-0.3,0-0.5c0-0.2-0.1-0.3,0-0.4c0,0,0,0,0-0.1c0-0.1,0-0.2,0-0.3c0-0.1,0-0.1,0-0.2c0-0.1,0-0.1,0-0.2c0-0.1,0-0.1,0-0.2
			c0-0.1,0-0.1,0-0.2c0-0.2,0-0.3,0.1-0.5c0,0,0,0,0,0c0-0.2,0.1-0.4,0.2-0.6c0-0.1,0.1-0.1,0.1-0.2c0.1-0.3,0.2-0.6,0.3-0.8
			c0-0.1,0.1-0.2,0.1-0.3c0.1-0.1,0.1-0.3,0.2-0.4c0.1-0.1,0.2-0.2,0.2-0.4C6.9,29.1,7,29,7,28.9c0,0,0.1,0,0.1,0c0,0,0,0.1,0.1,0.1
			c0,0.1,0.1,0.2,0.1,0.3c0.1,0.1,0.1,0.2,0.1,0.2c0,0.1,0,0.2,0,0.2c0,0,0,0.1,0,0.1c0,0.1,0,0.1,0,0.2c0,0.1,0,0.2,0,0.2
			c0,0,0,0,0,0.1c0,0.1-0.1,0.3-0.1,0.4c0,0.2-0.1,0.3-0.1,0.5c0,0.2-0.1,0.4-0.2,0.7c0,0.1,0,0.2-0.1,0.3c0,0,0,0,0,0.1
			c0,0.2-0.1,0.3-0.1,0.5c-0.1,0.2-0.2,0.4-0.2,0.6c0,0,0,0.1,0,0.1c0,0,0,0,0,0.1c0,0.2-0.1,0.3-0.1,0.4c0,0.2-0.1,0.4-0.1,0.5
			c0,0,0,0.1,0,0.1c0,0.1,0,0.3,0,0.4c0,0.1,0,0.3,0,0.4c0,0,0,0,0,0.1c0,0.2,0.1,0.4,0.1,0.6c0,0.1,0.1,0.2,0.2,0.2
			c0.1,0.1,0.1,0.1,0.2,0.2c0.1,0.1,0.2,0.2,0.3,0.3C7,37,7.2,37.1,7.4,37.1c0.1,0,0.1,0,0.2,0c0.2,0.1,0.5,0.1,0.7,0
			c0,0,0.1,0,0.1,0c0.1,0,0.2,0.1,0.3,0c0,0,0,0,0.1,0c0.1,0,0.2,0,0.4,0c0,0,0.1,0,0.1,0c0,0,0,0,0.1,0c0.1,0,0.2,0.1,0.3,0.1
			c0.1,0,0.1,0.1,0,0.2c0,0.1-0.1,0.1-0.1,0.1c-0.1,0-0.2,0-0.2,0c-0.3,0-0.7,0-1,0.1c0,0-0.1,0-0.1,0c-0.1,0-0.3,0.1-0.4,0.1
			c-0.1,0-0.2,0.1-0.3,0.2c-0.1,0.1-0.1,0.1-0.1,0.2c0,0.1,0,0.2,0.1,0.3c0,0,0.1,0.1,0.1,0.1c0,0.1,0,0.1,0.1,0.1
			c-0.2,0-0.3-0.1-0.5-0.1c-0.1,0-0.1,0-0.2-0.1c0,0,0,0,0,0c-0.2,0-0.3-0.1-0.5-0.1c-0.1,0-0.1,0-0.2-0.1c-0.1,0-0.2,0-0.3,0
			c-0.1,0-0.3-0.1-0.4,0c0,0,0,0,0,0c-0.1,0-0.1-0.1-0.2-0.1c-0.2-0.2-0.5-0.3-0.8-0.5c-0.1-0.1-0.3-0.2-0.4-0.3
			c0,0-0.1-0.1-0.1-0.1c-0.1-0.1-0.2-0.2-0.3-0.2c0,0-0.1-0.1-0.1-0.1c-0.3-0.3-0.6-0.6-0.8-0.8c-0.1-0.1-0.2-0.2-0.3-0.3
			c0,0,0,0,0-0.1c0-0.1-0.1-0.1-0.1-0.2c0,0-0.1-0.1-0.1-0.1c0,0,0-0.1-0.1-0.1c0,0-0.1-0.1-0.1-0.1c0,0,0-0.1-0.1-0.1
			C2,35.2,2,35.1,1.9,35c0-0.1-0.1-0.1-0.1-0.2c0-0.1-0.1-0.3-0.1-0.4c0,0,0,0,0,0c0-0.1-0.1-0.2-0.1-0.4c-0.1-0.2-0.1-0.4-0.2-0.6
			c-0.1-0.2,0-0.4-0.1-0.6c0,0,0,0,0,0c0-0.1,0-0.2,0-0.3c0,0,0-0.1,0-0.1c0-0.1,0-0.1,0-0.1c0-0.1,0-0.1,0-0.2c0-0.2,0-0.3,0.1-0.5
			c0,0,0-0.1,0-0.1c0-0.1,0-0.2,0.1-0.2c0,0,0,0,0.1-0.1c0.1-0.1,0.1-0.2,0.2-0.2c0,0,0-0.1,0.1-0.1c0.1,0,0.2-0.1,0.2-0.2
			c0.1-0.1,0.2-0.1,0.4-0.1c0.2,0,0.3,0,0.5,0c0.1,0,0.2,0,0.2,0c0.1,0,0.2,0,0.2,0c0.1,0,0.1,0,0.2,0c0,0,0,0,0,0
			c0.1,0,0.1,0,0.2,0c0.1,0,0.3-0.1,0.4-0.1c0,0,0.1,0,0.1,0c0.1-0.1,0.2-0.1,0.3-0.2c0.1-0.1,0.2-0.2,0.2-0.3c0,0,0-0.1,0-0.1
			c0.1-0.1,0-0.2,0-0.3c0-0.1,0-0.2,0-0.3c0-0.1,0.1-0.3,0-0.4c0-0.1,0-0.2,0-0.4c0,0,0-0.1,0-0.1c0-0.1,0-0.2,0-0.4
			c0-0.1-0.1-0.3-0.1-0.4c0,0,0,0,0,0c0-0.1-0.1-0.2-0.1-0.3c0-0.1,0-0.1-0.1-0.1c-0.1-0.1-0.2-0.2-0.3-0.2c-0.1,0-0.1,0-0.2-0.1
			c-0.2,0-0.4,0-0.5,0c0,0-0.1,0-0.1,0c-0.1,0-0.1,0-0.2,0c-0.1,0-0.3,0-0.4-0.1c0,0-0.1,0-0.1,0c-0.1,0-0.2,0-0.3,0
			C2.3,27,2.1,27,2,27c0,0,0,0,0,0c-0.2,0.1-0.3,0.1-0.4,0.2c-0.1,0.1-0.2,0.2-0.2,0.3c0,0.1,0,0.1,0,0.2c0,0,0,0.1,0,0.1
			c0,0.1-0.1,0.2-0.1,0.3c0,0,0,0.1,0,0.1c0,0,0,0.1,0,0.1c0,0.1,0,0.2,0,0.2c0,0.1,0,0.2,0,0.2c0,0.1,0,0.1,0,0.2c0,0,0,0.1,0,0.1
			c0.1,0.1,0,0.2,0,0.4c0,0.1,0,0.2,0,0.3c0,0.2,0,0.3-0.1,0.4c-0.1,0.2-0.2,0.4-0.2,0.6c0,0,0,0.1,0,0.1c0,0.1-0.1,0.2-0.1,0.3
			c0,0.1,0,0.1-0.1,0.2c-0.1,0.2-0.1,0.4-0.1,0.6c0,0,0,0.1,0,0.1c-0.1,0.2,0,0.5-0.1,0.7c0,0,0,0,0,0.1c0,0.1,0,0.2,0,0.3
			c0,0.2,0,0.3,0.1,0.4c0.1,0.2,0.1,0.4,0.2,0.6c0,0,0,0.1,0,0.1c0,0,0,0.1,0,0.1c0,0.1,0.1,0.1,0.1,0.2c0,0.1,0,0.2,0.1,0.3
			C1.1,34.9,1,35,1.1,35.1c0,0.2,0.2,0.3,0.2,0.4c0.1,0.1,0.1,0.3,0.2,0.4c0,0.1,0.1,0.2,0.2,0.3c0,0,0,0,0,0
			c0.1,0.2,0.3,0.5,0.4,0.7c0,0,0,0.1,0.1,0.1c0.1,0.1,0.1,0.1,0.2,0.2c0.1,0.1,0.1,0.2,0.2,0.3c0,0,0.1,0.1,0.1,0.1
			c0.2,0.1,0.3,0.2,0.4,0.3c0.1,0.1,0.2,0.2,0.3,0.2c0,0,0,0,0,0c0,0.1,0.1,0.1,0.1,0.1c0.1,0,0.1,0.1,0.2,0.1
			c0.2,0.1,0.3,0.2,0.5,0.3c0.1,0.1,0.3,0.2,0.4,0.3c0.1,0.1,0.2,0.1,0.3,0.2c0.1,0.1,0.2,0.1,0.4,0.2c0.1,0.1,0.2,0.1,0.2,0.1
			c0,0,0.1,0,0.1,0c0.1,0,0.1,0.1,0.2,0.1c0,0,0,0,0,0c0.1,0,0.1,0,0.2,0.1c0.1,0,0.2,0.1,0.3,0.1c0.1,0,0.3,0.1,0.4,0.1
			c0,0,0.1,0,0.1,0c0.1,0,0.2,0.1,0.4,0.1c0.2,0,0.3,0,0.5,0.1c0.1,0,0.2,0,0.2,0c0.1,0,0.2,0,0.3,0c0.1,0,0.2,0,0.3,0
			c0.1,0,0.2,0,0.3,0c0.1,0,0.2,0,0.4,0c0.1,0,0.1,0,0.2,0c0.1,0,0.2,0,0.4,0c0.1,0,0.3-0.1,0.4-0.1c0.2,0,0.3,0,0.5-0.1
			c0.1-0.1,0.3-0.1,0.5-0.2c0.2,0,0.3-0.1,0.5-0.2c0,0,0.1,0,0.1-0.1c0.1,0,0.2,0,0.3-0.1c0,0,0,0,0,0c0.1,0,0.3-0.1,0.4-0.2
			c0,0,0.1-0.1,0.2-0.1c0.1-0.1,0.2-0.2,0.3-0.2c0,0,0,0,0.1-0.1c0.2-0.1,0.3-0.2,0.4-0.2c0.1,0,0.1-0.1,0.2-0.1
			c0.2-0.1,0.3-0.3,0.5-0.4c0,0,0,0,0,0c0.1-0.1,0.2-0.2,0.3-0.3c0.1-0.1,0.1-0.1,0.2-0.2c0-0.1,0.1-0.2,0.2-0.2
			c0.1-0.1,0.2-0.2,0.3-0.3c0-0.1,0.1-0.1,0.1-0.2c0-0.1,0.1-0.1,0.1-0.2c0.1-0.1,0.2-0.3,0.3-0.4c0,0,0-0.1,0-0.1
			c0-0.1,0.1-0.2,0.1-0.3c0.1-0.2,0.2-0.3,0.2-0.5c0,0,0,0,0-0.1c0.1-0.1,0.1-0.2,0.1-0.3c0,0,0-0.1,0-0.1c0.1-0.1,0.1-0.2,0.1-0.3
			c0-0.1,0.1-0.1,0.1-0.2c0-0.1,0.1-0.2,0.1-0.3c0-0.1,0-0.2,0.1-0.3c0-0.1,0.1-0.2,0.1-0.3c0-0.1,0-0.2,0.1-0.3c0,0,0-0.1,0-0.1
			c0-0.1,0-0.1,0.1-0.2c0-0.1,0-0.2,0-0.2c0,0,0-0.1,0-0.1c0-0.1,0-0.2,0-0.3c0-0.1,0-0.2,0-0.3c0,0,0-0.1,0-0.1c0-0.1,0-0.2,0-0.3
			c0-0.1,0-0.2,0-0.3c0-0.2,0-0.3,0-0.5c0,0,0-0.1,0-0.1c0-0.1,0-0.2,0-0.2c0-0.1,0-0.2,0-0.3c0-0.1,0-0.1,0-0.2
			c0.1-0.2,0-0.3,0-0.5c0-0.1,0-0.1,0-0.2c0-0.1,0-0.2,0-0.2c0-0.1,0-0.2,0-0.4c0-0.2,0-0.3,0-0.5c0-0.1,0-0.1,0-0.2
			c0,0,0-0.1,0-0.1c0-0.1,0.1-0.2,0-0.4c0-0.1,0-0.2,0-0.4c0-0.1,0-0.2,0-0.3c0-0.1,0-0.2,0-0.3c0-0.1,0-0.2,0-0.3
			c0-0.1,0-0.2,0-0.4c0-0.2,0-0.4,0-0.6c0,0,0,0,0,0c0-0.1,0-0.2,0-0.4c0,0,0,0,0-0.1c0-0.1,0-0.2,0-0.3c0,0,0-0.1,0-0.1
			c0,0,0,0,0-0.1c0-0.2,0-0.5,0-0.7c0-0.1,0-0.3,0-0.4c0,0,0,0,0,0c0.1-0.1,0-0.2,0-0.4c-0.1-0.1,0-0.2,0-0.4c0,0,0-0.1,0-0.1
			c0,0,0,0,0-0.1c0-0.2,0-0.4,0-0.6c0,0,0,0,0-0.1c0-0.1,0-0.1,0-0.2c0-0.1,0-0.2,0-0.4c0,0,0-0.1,0-0.1c0-0.1,0-0.2,0-0.4
			c0,0,0,0,0-0.1c0,0,0-0.1,0-0.1c0-0.1,0-0.1,0-0.2c0,0,0,0,0-0.1c0-0.1,0-0.1,0-0.2c0-0.1,0-0.1,0-0.2
			C17.3,19.5,17.3,19.4,17.3,19.3z M6,14.3c0,0.1,0,0.1,0,0.2c0,0.1,0,0.1,0,0.2c0,0.2-0.1,0.3-0.1,0.5c0,0,0,0.1,0,0.1
			c-0.1,0.3-0.3,0.5-0.5,0.7c-0.2,0.2-0.3,0.3-0.5,0.5c-0.1,0.1-0.2,0.2-0.3,0.2c0,0,0,0-0.1,0c0,0-0.1,0-0.1,0c0,0,0,0-0.1,0
			c-0.1-0.1-0.2-0.1-0.3-0.2c-0.1,0-0.1-0.1-0.2-0.2c-0.2-0.3-0.3-0.6-0.5-0.9c0-0.1-0.1-0.2-0.1-0.4c0-0.1,0-0.1-0.1-0.2
			c-0.1-0.1-0.1-0.3-0.1-0.4c0-0.1,0-0.2,0-0.3c0,0,0,0,0,0c0-0.1,0-0.2,0-0.3c0-0.1,0-0.3,0.1-0.4c0-0.1,0.1-0.2,0.2-0.3
			C3.4,13,3.5,13,3.7,13c0.1,0,0.3,0,0.4,0c0,0,0.1,0,0.1,0c0.2,0,0.4,0,0.6,0c0.1,0,0.3,0,0.4,0c0,0,0.1,0,0.1,0c0.1,0,0.2,0,0.2,0
			c0,0,0,0,0.1,0c0.1,0.1,0.3,0.2,0.4,0.3C6,13.5,6,13.6,6,13.7c0,0.1,0,0.1,0,0.2C6.1,14,6.1,14.1,6,14.3z M7.2,9.8
			c0.1-0.1,0.2-0.2,0.3-0.2c0,0,0.1,0,0.1,0c0.1,0,0.2,0,0.2,0c0.2,0,0.3,0,0.5,0c0.1,0,0.3,0,0.4,0c0.2,0,0.3,0,0.5-0.1
			c0.2,0,0.4-0.1,0.5-0.3c0.1,0,0.1-0.1,0.1-0.2c0-0.1,0-0.1,0-0.2c0,0,0,0,0-0.1C9.7,8.8,9.6,8.7,9.6,8.6c0,0-0.1-0.1-0.2-0.1
			C9.3,8.4,9.2,8.4,9.1,8.3c-0.1,0-0.3-0.1-0.4-0.2c-0.1,0-0.1,0-0.1-0.1C8.3,8,8.3,8,8.5,7.8c0,0,0.1-0.1,0.1-0.1
			c0.2,0,0.3-0.1,0.5,0c0,0,0,0,0.1,0c0.1,0,0.3,0,0.4,0c0.1,0,0.1,0,0.2,0c0.1,0,0.2,0,0.3,0c0.1,0,0.2,0,0.4,0.1
			c0.1,0,0.1,0.1,0.2,0.1c0,0,0.1,0.1,0,0.1c0,0,0,0,0,0.1c0,0.1-0.1,0.3-0.1,0.4c0,0.1,0,0.3-0.1,0.4c0,0.1,0,0.2-0.1,0.3
			c0,0,0,0,0,0c0,0.2-0.1,0.3-0.1,0.5c0,0,0,0.1,0,0.1c-0.1,0.1-0.3,0.1-0.4,0.1c-0.1,0-0.3,0-0.4,0c-0.2,0-0.4,0-0.6,0
			c0,0-0.1,0-0.1,0c-0.1,0-0.2,0-0.3,0c-0.1,0-0.2,0-0.2,0c-0.1,0-0.2,0-0.3,0c-0.1,0-0.2,0-0.2,0c-0.1,0-0.1,0-0.2,0c0,0,0,0-0.1,0
			c0,0-0.1,0-0.1,0c-0.1,0-0.1,0-0.2,0C7.1,9.9,7.1,9.9,7.2,9.8z M9.2,1.3C9.1,1.4,9,1.6,8.8,1.7C8.7,1.8,8.6,2,8.4,2.1
			C8.4,2.2,8.3,2.3,8.2,2.3C8,2.5,7.8,2.7,7.5,2.8C7.5,2.9,7.4,2.9,7.2,2.9c0,0-0.1,0-0.1,0C7,2.9,6.9,2.8,6.7,2.8c0,0,0,0-0.1,0
			c-0.1,0-0.1-0.1-0.2-0.1C6.4,2.6,6.3,2.5,6.2,2.4C6.1,2.3,6.1,2.2,6.1,2.1c0-0.2,0.1-0.3,0.2-0.4c0.1-0.1,0.3-0.2,0.4-0.3
			c0.1,0,0.2-0.1,0.3-0.1c0,0,0.1,0,0.1,0c0.1-0.1,0.2-0.1,0.3-0.1c0.1,0,0.1,0,0.2-0.1C7.7,1,7.7,1,7.8,1C7.9,1,8,1,8.1,1
			c0.1,0,0.1,0,0.2,0c0,0,0.1,0,0.1,0c0.1,0,0.2,0,0.3,0c0,0,0.1,0,0.2,0c0,0,0.1,0,0.1,0c0,0,0.1,0,0.1,0c0,0,0.1,0,0.1,0
			c0,0,0.1,0.1,0.1,0.1C9.2,1.1,9.2,1.2,9.2,1.3z M16.3,11.3c0,0.1,0,0.2-0.1,0.3c0,0-0.1,0.1-0.1,0.1c0,0-0.1,0-0.1,0
			c-0.1,0-0.2-0.1-0.3-0.2c0,0-0.1-0.1-0.1-0.1c-0.1,0-0.1-0.1-0.2-0.2c0-0.1-0.1-0.1-0.1-0.2c-0.1-0.1-0.2-0.2-0.2-0.3
			c0-0.1-0.1-0.1-0.1-0.2c-0.1-0.3-0.2-0.6-0.2-0.9c0-0.2-0.1-0.4-0.1-0.6c0-0.2,0-0.3-0.1-0.5c0-0.1,0-0.2,0-0.3c0-0.2,0-0.4,0-0.5
			c0-0.1,0-0.2,0-0.3c0,0,0-0.1,0-0.1c0-0.2,0-0.5,0-0.7c0-0.2,0-0.4,0-0.6c0-0.1,0-0.2,0-0.3c0-0.1,0-0.2,0-0.3
			c0-0.1,0.1-0.2,0-0.3c0-0.1,0.1-0.2,0.1-0.3c0-0.1,0.1-0.1,0.1-0.2c0.1-0.2,0.1-0.3,0.3-0.4c0.1,0,0.1,0,0.2,0
			c0,0,0.1,0.1,0.1,0.1c0,0,0,0,0,0c0.1,0,0.1,0.1,0.2,0.2c0,0.1,0.1,0.1,0.1,0.2c0,0.1,0.1,0.2,0.1,0.3c0.1,0.1,0.1,0.2,0.1,0.3
			c0,0.1,0,0.2,0.1,0.3C16,5.9,16,6,16,6.1c0,0.1,0,0.3,0.1,0.4c0,0,0,0,0,0.1c0,0.2,0,0.4,0.1,0.6c0,0.1,0,0.1,0,0.2
			c0,0.1,0,0.2,0,0.2c0,0.1,0,0.3,0,0.4c0,0.5,0,1,0,1.5c0,0.1,0,0.1,0,0.2c0,0.1,0,0.3,0,0.4c0,0.1,0,0.2,0,0.2c0,0,0,0,0,0.1
			c0,0.1,0,0.2,0,0.2c-0.1,0.1,0,0.2,0,0.3C16.3,11,16.3,11.1,16.3,11.3z M10.3,20c0,0-0.1,0.1-0.2,0c0,0-0.1,0-0.1,0
			c0,0-0.1,0-0.1,0c-0.1,0-0.1,0-0.1-0.1c0,0,0,0,0,0c-0.1-0.1-0.1-0.2,0-0.3c0.1-0.1,0.1-0.2,0.2-0.3c0,0,0.1,0,0.1,0
			c0.1,0.1,0.1,0.1,0.2,0.2c0,0,0,0,0,0c0,0.1,0.1,0.2,0.1,0.3C10.4,20,10.4,20,10.3,20z M2,28c0-0.1,0.1-0.2,0.1-0.2
			c0.1-0.1,0.2-0.1,0.2-0.2c0.1,0,0.1,0,0.2,0c0,0,0.1,0,0.1,0c0.1,0,0.2,0,0.3,0c0.1,0,0.2,0,0.3,0c0.1,0,0.2,0,0.4,0
			c0.1,0,0.1,0,0.2,0c0,0,0.1,0,0.1,0c0.1,0,0.2,0.1,0.3,0.1c0.1,0.1,0.2,0.2,0.2,0.3c0,0.1,0,0.2,0,0.3c0,0.1,0,0.1-0.1,0.1
			c-0.1,0.1-0.3,0.1-0.4,0.1c-0.1,0-0.2,0-0.3,0c0,0,0,0,0,0c-0.1,0-0.2-0.1-0.3,0c-0.1,0-0.2,0-0.3,0c-0.1,0-0.2,0-0.3,0
			c-0.1,0-0.2,0-0.3,0c-0.1,0-0.1,0-0.2,0c-0.1,0-0.1,0-0.1-0.1c0,0,0-0.1,0-0.1c0,0,0,0,0,0C1.9,28.2,2,28.1,2,28z M1.7,29.5
			c0-0.1,0.1-0.2,0.1-0.2c0-0.1,0.1-0.1,0.2-0.1c0,0,0,0,0,0C2.1,29,2.3,29.1,2.5,29c0.1,0,0.2,0,0.4,0c0.1,0,0.1,0,0.2,0
			c0.1,0,0.2,0,0.3,0c0.1,0,0.1,0,0.2,0c0,0,0.1,0,0.1,0c0.1,0,0.1,0,0.2,0c0.1,0,0.2,0.1,0.2,0.1c0,0.1,0.1,0.2,0.1,0.3
			c0,0,0,0,0,0.1c0,0,0,0.1-0.1,0.1C4.1,29.9,4,30,3.9,30c-0.1,0-0.2,0.1-0.3,0.1c0,0-0.1,0-0.1,0c0,0-0.1,0-0.1,0
			c-0.2,0-0.5,0-0.7,0c-0.1,0-0.2,0-0.2,0c-0.2,0-0.4,0-0.5-0.1c-0.1,0-0.1-0.1-0.2-0.2C1.6,29.7,1.6,29.7,1.7,29.5z M12.9,30.6
			c0-0.1,0.1-0.1,0.1-0.2c0,0,0-0.1,0-0.1c0,0,0,0,0,0c0-0.1,0.1-0.3,0.1-0.4c0-0.2,0.1-0.4,0.1-0.6c0,0,0,0,0,0
			c0-0.2,0.1-0.4,0.1-0.5c0-0.1,0-0.1,0-0.2c0,0,0-0.1,0-0.1c0.1-0.1,0.1-0.2,0.2-0.3c0-0.1,0.1-0.1,0.2-0.2c0,0,0.1,0,0.1,0
			c0.1-0.1,0.2-0.1,0.3-0.1c0,0,0.1,0,0.1,0c0,0,0,0,0,0c0,0.1,0.1,0.2,0.2,0.3c0,0,0.1,0.1,0,0.1c0.1,0.1,0.1,0.3,0.1,0.4
			c0,0.1,0,0.2,0,0.3c0,0.1,0,0.2,0.1,0.3c0,0,0,0,0,0c-0.1,0.1,0,0.2,0,0.3c0.1,0.1,0,0.3,0,0.4c0,0.1,0,0.3,0,0.4c0,0,0,0.1,0,0.1
			c0,0.1-0.1,0.2-0.2,0.3c0,0.1-0.1,0.1-0.1,0.1c-0.2,0.1-0.4,0.2-0.7,0.1c-0.1,0-0.1,0-0.2,0c-0.2,0-0.4,0-0.7,0c0,0-0.1,0-0.1,0
			c0,0-0.1-0.1,0-0.2C12.9,30.9,12.9,30.8,12.9,30.6C12.9,30.6,12.9,30.6,12.9,30.6z M10.2,25.8C10.3,25.8,10.3,25.7,10.2,25.8
			c0-0.3,0-0.4,0-0.6c0,0,0,0,0,0c0-0.1,0-0.3,0-0.4c0-0.1,0-0.3,0-0.4c0-0.1,0-0.1,0-0.2c0-0.1,0-0.2,0-0.4c0-0.1,0-0.1,0.1-0.1
			c0.1,0,0.2,0,0.4,0c0,0,0.1,0,0.1,0c0.2,0,0.4-0.1,0.5-0.1c0,0,0.1,0,0.1,0c0.1,0,0.1,0,0.1-0.1c0,0,0-0.1,0-0.1
			c-0.1-0.1-0.2-0.2-0.3-0.2c-0.1,0-0.3-0.1-0.4-0.1c0,0-0.1,0-0.1,0c-0.1,0-0.2-0.1-0.3-0.1c-0.1-0.1-0.1-0.1-0.2-0.2
			c0,0,0-0.1,0-0.1c0-0.2,0.1-0.3,0.2-0.5c0-0.1,0.1-0.1,0.2-0.1c0.1,0,0.2,0,0.4,0c0.1,0,0.2,0.1,0.3,0.1c0,0,0,0,0,0.1
			c0,0.1,0.1,0.2,0.2,0.3c0,0.1,0.1,0.2,0.2,0.3c0.1,0.1,0.1,0.1,0.1,0.2c0,0.1,0,0.2,0,0.3c0,0.1,0,0.2,0,0.3c0,0,0,0.1,0,0.1
			c0,0.1,0,0.2,0,0.4c0,0.1,0,0.2,0,0.3c0,0,0,0,0,0c0,0.3,0,0.5,0,0.8c0,0.1,0,0.3,0,0.5c0,0.1,0,0.1,0,0.2c0,0.1,0,0.2,0,0.2
			c0,0,0,0,0,0.1c0,0.2,0,0.2,0.1,0.4c0.1,0.2,0.2,0.4,0.3,0.6c0.1,0.1,0.1,0.2,0.2,0.2c0,0,0.1,0,0.1,0.1c0.1,0,0.1,0,0.2,0.1
			c0.1,0.1,0.2,0.2,0.2,0.4c0,0.1,0,0.1,0,0.2c0,0,0,0.1,0,0.2c0,0.1,0,0.2-0.1,0.3c0,0,0,0.1,0,0.1c0,0,0,0,0,0c0,0,0,0.1-0.1,0.1
			c-0.1,0.1-0.1,0.1-0.2,0.1c-0.1,0-0.2,0-0.3,0c0,0,0,0,0,0c-0.1,0-0.2,0-0.2,0c-0.1,0-0.1,0-0.2,0c0,0-0.1,0-0.1,0
			c-0.2,0-0.4,0-0.6,0c-0.1,0-0.2,0-0.3-0.1c-0.1-0.1-0.1-0.1-0.1-0.2c-0.1-0.1-0.1-0.3-0.1-0.5c0,0,0-0.1,0-0.1
			c0-0.2,0-0.3-0.1-0.5c0,0,0,0,0,0c0-0.2,0-0.4,0-0.7c0-0.1,0-0.2,0-0.2c0-0.1,0-0.2,0-0.2c0-0.2,0-0.3,0-0.5c0,0,0-0.1,0-0.1
			C10.2,25.9,10.2,25.9,10.2,25.8z M14.7,35.9C14.6,35.9,14.6,35.9,14.7,35.9c-0.1,0.1-0.1,0.1-0.1,0.2c-0.1,0.1-0.1,0.2-0.2,0.3
			c0,0,0,0,0,0c-0.1,0.2-0.3,0.4-0.5,0.5c0,0-0.1,0.1-0.1,0.1c-0.1,0.1-0.2,0.2-0.3,0.3c-0.1,0-0.1,0.1-0.2,0.1
			c-0.3,0.2-0.5,0.3-0.8,0.5c0,0,0,0,0,0c-0.2,0.1-0.3,0.2-0.5,0.3c-0.2,0.1-0.3,0.2-0.5,0.3c0,0-0.1,0-0.1,0
			c-0.1,0.1-0.2,0.2-0.4,0.3c-0.1,0-0.2,0.1-0.3,0.1c-0.1,0-0.2,0.1-0.3,0.1c-0.1,0-0.2,0-0.2,0c0,0-0.1,0-0.1,0
			c-0.1,0-0.1,0-0.2,0.1c-0.1,0-0.2,0.1-0.3,0.1c-0.1,0-0.1,0-0.2,0c0,0,0,0,0,0C9.2,39.1,9,39,8.9,39c-0.2,0-0.4-0.1-0.5-0.2
			c-0.1,0-0.1-0.1-0.1-0.1c0-0.1,0-0.2,0-0.2c0.1-0.1,0.2-0.2,0.3-0.2c0.1,0,0.2,0,0.3-0.1c0.2,0,0.3,0,0.5,0c0,0,0.1,0,0.1,0
			c0.1,0,0.3,0,0.4,0c0,0,0.1,0,0.1,0c0.1,0,0.2-0.1,0.3-0.1c0.2-0.1,0.3-0.2,0.4-0.3c0.1-0.1,0.1-0.2,0.1-0.4c0,0,0-0.1-0.1-0.1
			c0,0-0.1-0.1-0.1-0.1c-0.1-0.1-0.1-0.1-0.2-0.2c-0.1,0-0.2-0.1-0.3-0.1c-0.2,0-0.4-0.1-0.7-0.1c-0.1,0-0.2,0-0.3,0
			c0,0-0.1,0-0.1,0c0,0-0.1,0-0.1,0c-0.1,0-0.2,0-0.4,0c-0.1,0-0.2,0-0.4,0c0,0-0.1,0-0.1,0c-0.1,0-0.1,0-0.2,0c0,0-0.1,0-0.1,0
			c-0.1,0-0.3-0.1-0.4-0.2c0,0-0.1-0.1-0.1-0.1c-0.2-0.2-0.3-0.3-0.3-0.6c0,0,0,0,0-0.1c0-0.2-0.1-0.3-0.1-0.5c0,0,0-0.1,0-0.1
			c0-0.1,0-0.2,0-0.3c0-0.1,0-0.1,0-0.2c0,0,0-0.1,0-0.1c0-0.1,0-0.3,0.1-0.4c0,0,0,0,0-0.1C7,34,7,33.8,7.1,33.6
			c0-0.2,0.1-0.3,0.1-0.5c0,0,0-0.1,0-0.1c0-0.1,0-0.1,0.1-0.2c0-0.1,0-0.1,0.1-0.2c0-0.1,0.1-0.2,0.1-0.4c0-0.2,0.1-0.3,0.2-0.4
			c0-0.1,0.1-0.2,0.1-0.3c0.1-0.2,0.2-0.4,0.2-0.5c0-0.1,0-0.2,0-0.3c0,0,0-0.1,0-0.1c0-0.1,0-0.1,0.1-0.2C8,30.3,8,30.1,8,29.8
			c0,0,0,0,0,0c0.1,0,0.1,0,0.2,0c0,0,0.1,0,0.1,0c0.1,0,0.1,0,0.1,0c0,0,0.1,0,0.1,0c0.1,0,0.2,0,0.2,0c0.1,0,0.2,0,0.2,0
			c0.1,0,0.2,0,0.2,0c0.1,0,0.1,0,0.2,0c0,0,0.1,0,0.1,0c0.1,0,0.2,0,0.3,0c0.1,0,0.2,0,0.2,0c0.1,0,0.1,0,0.2,0c0.1,0,0.1,0,0.2,0
			c0.2,0,0.3,0,0.5,0c0.1,0,0.2,0,0.3,0c0.1,0,0.2,0,0.3,0c0.1,0,0.2,0,0.3,0c0,0,0,0,0.1,0c0.1,0,0.2,0.1,0.1,0.2
			c0,0.1-0.1,0.1-0.1,0.2c-0.1,0.1-0.2,0.3-0.2,0.5c0,0.1,0,0.2,0,0.3c0,0,0,0,0,0c-0.1,0-0.2,0.1-0.3,0.2c0,0-0.1,0.1-0.1,0.1
			c0,0-0.1,0-0.1,0.1c-0.1,0.1-0.2,0.2-0.3,0.3c-0.1,0.1-0.1,0.2-0.1,0.3c0,0,0,0.1,0,0.1c0,0.1,0,0.1,0.1,0.2
			c0.1,0.2,0.2,0.4,0.4,0.4c0.2,0,0.4,0.1,0.6,0.1c0,0,0.1,0,0.1,0c0.1,0,0.3,0,0.4,0c0.1,0,0.2,0,0.2,0c0.2,0,0.4,0.1,0.6,0.1
			c0.1,0,0.1,0.1,0.2,0.1c0,0.1,0,0.2,0,0.2c0,0-0.1,0.1-0.1,0.1c0,0-0.1,0.1-0.2,0.1c-0.1,0-0.3,0.1-0.4,0.1c0,0-0.1,0-0.1,0
			c-0.1,0-0.3,0-0.4,0c0,0-0.1,0-0.1,0c-0.1,0-0.3,0-0.4,0c0,0,0,0,0,0c-0.1,0-0.3,0-0.4,0c-0.1,0-0.3,0-0.4,0.1
			c-0.2,0-0.3,0.1-0.5,0.1c-0.1,0-0.2,0-0.3,0C10,34,9.9,34,9.8,34c-0.1,0.1-0.2,0.1-0.3,0.2c-0.1,0-0.1,0.1-0.2,0.2
			c0,0.1-0.1,0.1-0.1,0.2c0,0.1,0,0.1,0,0.2c0,0.1,0,0.1,0.1,0.2c0,0.1,0.1,0.1,0.1,0.2c0,0.1,0.2,0.2,0.2,0.2c0.1,0,0.1,0,0.2,0.1
			c0.2,0,0.3,0.1,0.5,0.1c0.2,0,0.3,0,0.5,0c0,0,0.1,0,0.1,0c0.1,0,0.2,0,0.2,0c0.1,0,0.2,0,0.3,0c0.2,0,0.4,0,0.6,0
			c0,0,0.1,0,0.1,0c0.1,0,0.1,0,0.2,0c0.2,0,0.3,0,0.5,0c0.2,0,0.3,0,0.5,0c0.1,0,0.2,0,0.3,0c0.1,0,0.2,0,0.3,0
			c0.2,0,0.4,0.1,0.6,0.2C14.6,35.8,14.7,35.9,14.7,35.9C14.7,35.9,14.7,35.9,14.7,35.9z M15,34c0,0.1,0,0.2,0,0.4c0,0,0,0.1,0,0.1
			c0,0,0,0.1,0,0.1c0,0.1-0.1,0.2-0.2,0.3c-0.1,0.1-0.1,0.1-0.2,0.1c0,0-0.1,0-0.1,0c-0.1,0-0.2,0-0.2,0c-0.1,0-0.2,0-0.4,0
			c-0.1,0-0.2,0-0.3,0c-0.1,0-0.2,0-0.3,0c-0.1,0-0.1,0-0.2,0c-0.1,0-0.2,0.1-0.4,0c-0.1,0-0.1,0-0.2,0c-0.2,0-0.4,0-0.6,0
			c0,0-0.1,0-0.1,0c-0.1,0-0.2,0-0.3,0c-0.1,0-0.3,0-0.4,0c-0.1,0-0.2,0-0.2,0c-0.1,0-0.3,0-0.4,0c-0.1,0-0.2,0-0.2-0.1
			c0,0-0.1,0-0.1-0.1c0-0.1-0.1-0.1,0-0.2c0.1-0.1,0.1-0.2,0.3-0.3c0.1,0,0.2-0.1,0.3-0.1c0.1,0,0.3-0.1,0.4-0.1c0,0,0,0,0.1,0
			c0,0,0.1,0,0.1,0c0.3,0,0.5,0,0.8,0c0,0,0.1,0,0.1,0c0.2,0,0.4,0,0.7-0.1c0.1,0,0.2-0.1,0.3-0.1c0.1,0,0.2,0,0.3,0
			c0.2-0.1,0.3-0.1,0.5-0.2c0,0,0.1,0,0.1,0c0-0.1,0.1-0.2,0.1-0.3c0-0.1,0-0.2-0.1-0.3c0,0,0-0.1-0.1-0.1c0,0,0-0.1-0.1-0.1
			c-0.1-0.1-0.2-0.3-0.4-0.4c-0.1-0.1-0.3-0.2-0.5-0.2c-0.1,0-0.1,0-0.2,0c0,0-0.1,0-0.1,0c-0.2,0-0.3-0.1-0.5-0.1
			c-0.1,0-0.2-0.1-0.2-0.2c0,0,0-0.1,0-0.1c0.1-0.1,0.2-0.1,0.4-0.2c0.1,0,0.1,0,0.2,0c0.2,0,0.3,0,0.5-0.1c0,0,0,0,0,0
			c0.1,0,0.2,0,0.4,0c0,0,0.1,0,0.1,0c0.1,0,0.1,0,0.2,0c0.1,0,0.2,0,0.3,0c0,0,0.1,0,0.1,0c0.1,0,0.1,0,0.2,0c0.1,0,0.1,0,0.2,0.1
			c0.1,0.1,0.2,0.2,0.2,0.3c0.1,0.1,0.1,0.3,0.1,0.5c0,0,0.1,0.3,0.1,0.4c0,0.1,0,0.2,0,0.2c0,0.1,0,0.2,0,0.4c0,0.1,0,0.1,0,0.2
			c0,0,0,0,0,0c0,0,0,0,0,0c0,0,0,0,0,0C15,33.8,15.1,33.9,15,34z M16.4,29.6c0,0,0,0.1,0,0.1c0,0.2,0,0.3,0,0.5c0,0.1,0,0.2,0,0.3
			c0,0.1,0,0.2,0,0.3c0,0,0,0.1,0,0.1c0,0,0,0.1,0,0.1c0,0,0,0.1,0,0.1c0,0,0,0,0,0.1c0,0.2-0.1,0.4-0.1,0.5c0,0.2-0.1,0.4-0.1,0.6
			c0,0.1-0.1,0.2-0.2,0.3c0,0-0.1,0-0.1,0.1c0,0-0.1,0-0.1,0c0-0.1-0.1-0.3-0.1-0.4c0-0.2-0.1-0.4-0.1-0.6c0-0.2,0-0.3-0.1-0.5
			c0,0,0,0,0-0.1c0-0.3-0.1-0.6-0.1-0.9c0-0.3,0-0.5,0-0.8c0-0.2,0-0.4,0-0.5c0-0.1,0-0.2,0-0.3c0,0,0-0.1,0-0.1
			c0-0.1,0-0.3,0.1-0.4c0,0,0-0.1,0.1-0.1c0.1-0.1,0.3-0.1,0.4-0.1c0.1,0,0.1,0.1,0.1,0.1c0,0.1,0,0.2,0.1,0.3c0,0.1,0,0.2,0.1,0.3
			c0,0,0,0.1,0,0.1c0,0.1,0,0.3,0,0.4C16.4,29.3,16.4,29.5,16.4,29.6z"/>
	</g>
	<g>
		<g>
			<path class="st1" d="M24.4,23.4c0.4,0.1,0.6,0.2,0.6,0.3c0,0,0,0.1-0.1,0.1l-0.2,0.1c-0.7,1.8-1.7,3.1-2.9,3.9l-0.1-0.1
				c0.5-0.7,1-1.5,1.5-2.6c0.3-0.7,0.4-1.4,0.4-2L24.4,23.4z M25.9,28.7v-6c0-0.9,0-1.6-0.1-2.1c0.9,0.2,1.4,0.4,1.4,0.5
				c0,0,0,0.1-0.1,0.1l-0.2,0.1v7.5c0,0.4-0.1,0.7-0.3,1c-0.2,0.2-0.6,0.3-1.2,0.4c0-0.4-0.1-0.6-0.3-0.8c-0.2-0.2-0.6-0.3-1.1-0.4
				v-0.2c0.9,0.1,1.5,0.1,1.7,0.1C25.8,29,25.9,28.9,25.9,28.7z M27.9,23.3c1.3,0.7,2.1,1.5,2.6,2.5c0.3,0.6,0.3,1.1,0.2,1.4
				c-0.1,0.3-0.3,0.4-0.6,0.3c-0.1,0-0.2-0.1-0.3-0.2c-0.1-0.6-0.3-1.3-0.7-2c-0.4-0.7-0.8-1.4-1.3-2L27.9,23.3z"/>
			<path class="st1" d="M40.4,23.8l0.2-0.3c0,0,0-0.1,0.1-0.1c0-0.1,0.1-0.1,0.1-0.1c0,0,0,0,0.1,0c0.1,0,0.2,0.1,0.5,0.3
				c0.2,0.2,0.4,0.4,0.4,0.4c-0.1,0.1-0.2,0.1-0.3,0.2v3.1c0,0,0,0-0.1,0.1c0.3,0.2,0.5,0.4,0.8,0.7c0,0.1-0.1,0.2-0.3,0.2h-4.4v0.4
				c0,0-0.1,0.1-0.2,0.2c-0.2,0.1-0.3,0.1-0.4,0.1s-0.2-0.1-0.2-0.2l0-0.2v-0.2c-1.2,0.6-2.2,1.1-3,1.5c0,0.1-0.1,0.2-0.2,0.3
				l-0.5-1.1c0.4-0.1,0.9-0.2,1.5-0.3v-3.3h-0.5c-0.2,0-0.5,0.1-0.8,0.1l-0.3-0.5c0.3,0,0.6,0.1,1,0.1h0.5v-1.3h-0.7l0-0.2
				c-0.3,0.3-0.6,0.6-0.8,0.8l-0.1-0.1c0.3-0.4,0.7-1,1-1.8c0.3-0.7,0.5-1.4,0.5-2c0.8,0.3,1.2,0.5,1.2,0.5c0,0,0,0.1-0.1,0.1
				l-0.2,0.1c0.9,0.3,1.5,0.7,1.6,1.2c0.1,0.3,0.1,0.5-0.1,0.6c-0.2,0.1-0.4,0.1-0.6,0c-0.2-0.5-0.5-1-1.1-1.5
				c-0.3,0.7-0.8,1.4-1.3,2h1.4l0.2-0.3c0.2-0.2,0.3-0.3,0.3-0.3c0.1,0,0.2,0.1,0.4,0.3c0.2,0.2,0.3,0.4,0.3,0.5
				c0,0.1-0.1,0.2-0.3,0.2h-1V25h0.2l0.2-0.3c0,0,0-0.1,0.1-0.1c0,0,0-0.1,0.1-0.1c0,0,0,0,0.1-0.1c0,0,0,0,0.1-0.1c0,0,0,0,0,0
				c0.1,0,0.2,0.1,0.4,0.3c0.2,0.2,0.3,0.4,0.3,0.5c0,0.1-0.1,0.2-0.3,0.2h-1.2v3.1c0.2,0,0.4-0.1,0.8-0.2c0.3-0.1,0.6-0.1,0.7-0.2
				v-1.9c-0.1,0.1-0.1,0.1-0.3,0.1c-0.4,0.8-0.7,1.3-0.9,1.5l-0.2-0.1c0.2-0.8,0.3-1.5,0.2-2.1l1.1,0.4v-0.2c0-0.9,0-1.6-0.1-2.1
				c0.8,0.2,1.2,0.4,1.2,0.4c0,0,0,0-0.1,0.1l-0.2,0.1v3.5h3.3l0.3-0.4c-0.2,0.1-0.3,0.1-0.4,0.1h-0.1v-0.4h-1.7v0.3
				c0,0-0.1,0.1-0.2,0.2c-0.1,0.1-0.3,0.1-0.5,0.1c-0.1,0-0.1,0-0.1-0.1c0,0-0.1-0.1-0.1-0.1c0-0.3,0.1-0.7,0.1-1.3v-0.7
				c0-0.9,0-1.6-0.1-2.1l1,0.4H40.4z M33.1,25.9l0.1-0.1c0.6,0.5,0.9,1.1,0.9,1.6c0,0.3-0.1,0.5-0.3,0.6c-0.2,0.1-0.3,0-0.5-0.2
				C33.4,27.3,33.3,26.6,33.1,25.9z M35.7,30c0.5-0.2,1-0.4,1.5-0.8c0.5-0.3,0.8-0.7,1.1-1.1l0.6,0.5c0.4,0.3,0.6,0.4,0.4,0.4
				c0,0,0,0-0.1,0l-0.3,0c-0.4,0.2-0.8,0.4-1.4,0.6c-0.6,0.2-1.2,0.3-1.8,0.4L35.7,30z M37.9,21.7c1.3-0.4,2.1-0.8,2.6-1.2
				c0.6,0.6,0.9,0.9,0.7,0.9c0,0,0,0,0,0l-0.2,0c-0.8,0.2-1.8,0.4-3.1,0.6v0.3c0,0.1,0,0.1,0.1,0.1c0.1,0,0.2,0,0.4,0h1.3
				c0.6,0,0.9,0,1.2,0c0.1,0,0.2,0,0.3-0.1c0.1-0.1,0.2-0.3,0.3-0.7h0.1l0,0.7c0.2,0.1,0.4,0.2,0.4,0.3c0,0.1-0.1,0.2-0.2,0.3
				c-0.1,0.1-0.3,0.1-0.7,0.1c-0.3,0-0.8,0-1.5,0h-1.3c-0.5,0-0.8,0-0.9-0.1c-0.2-0.1-0.2-0.3-0.2-0.6v-0.9c0-0.4,0-0.7-0.1-1
				c0.7,0.2,1.1,0.3,1.1,0.4c0,0,0,0.1-0.1,0.1l-0.1,0.1V21.7z M40.5,24.8v-0.7h-1.7v0.7H40.5z M38.8,25.8h1.7v-0.7h-1.7V25.8z
				 M38.8,26.1v0.7h1.7v-0.7H38.8z M39.5,28.5l0.1-0.1c1.3,0.2,2.1,0.6,2.4,1c0.1,0.2,0.1,0.4-0.1,0.6c-0.2,0.2-0.4,0.2-0.6,0.1
				c-0.1,0-0.1-0.1-0.2-0.2C40.8,29.4,40.2,28.9,39.5,28.5z"/>
			<path class="st1" d="M51.3,22.5l0.3-0.4c0.2-0.3,0.3-0.4,0.4-0.4c0.1,0,0.3,0.1,0.6,0.4c0.3,0.3,0.5,0.5,0.5,0.6
				c0,0.1-0.1,0.2-0.3,0.2h-1.6c-0.4,1.8-1.1,3.2-2.2,4.4c1.1,0.9,2.5,1.6,4.2,2l0,0.1c-0.5,0.1-0.8,0.3-1,0.8
				c-1.5-0.6-2.8-1.4-3.7-2.4c-1.2,1.1-2.7,1.9-4.5,2.4L43.9,30c1.7-0.7,3.1-1.6,4.1-2.8c-0.7-0.9-1.2-2-1.5-3.2
				c-0.3,0.7-0.6,1.2-0.7,1.5c0.1,0.1,0.1,0.2-0.1,0.3L45,24.9c0.5-0.4,1-0.8,1.4-1.2l0.1-0.6l0.5,0.2l-0.4,0.5c0.4,1.1,1,2.1,1.8,3
				c0.8-1.1,1.4-2.4,1.7-3.8h-4.4c-0.5,0-1,0.1-1.5,0.1l-0.3-0.5c0.4,0,0.8,0.1,1.4,0.1H48c0-0.8,0-1.5-0.1-2
				c0.9,0.2,1.3,0.4,1.4,0.4c0,0,0,0.1-0.1,0.1L49,21.2v1.4H51.3z"/>
			<path class="st1" d="M59.2,23.8l0.2-0.3c0.1-0.2,0.2-0.3,0.3-0.3c0.1,0,0.2,0.1,0.5,0.4c0.3,0.2,0.4,0.4,0.4,0.5
				c-0.1,0.1-0.2,0.2-0.4,0.2V25c0,0.6,0,1,0.1,1.4c0,0.1-0.1,0.1-0.3,0.2c-0.2,0.1-0.3,0.1-0.5,0.1h-0.2v-0.3h-2.4
				c0,0.1,0,0.3-0.1,0.6l0.6,0.2h1.9l0.2-0.2c0,0,0,0,0.1-0.1c0-0.1,0.1-0.1,0.1-0.1c0,0,0,0,0.1,0c0.1,0,0.2,0.1,0.5,0.3
				c0.3,0.2,0.4,0.3,0.4,0.4c-0.1,0.1-0.2,0.2-0.4,0.2v0.7c0,0.6,0,1,0.1,1.3c0,0.1-0.1,0.1-0.3,0.2C59.8,30,59.6,30,59.5,30
				c-0.1,0-0.2-0.1-0.2-0.2c0,0,0-0.1,0-0.2v-0.2h-2.1v0.5c0,0,0,0.1-0.1,0.1c-0.1,0-0.1,0.1-0.3,0.1c-0.1,0-0.2,0.1-0.4,0.1
				c-0.1,0-0.2-0.1-0.2-0.2c0-0.3,0-0.7,0.1-1.1v-0.7c-0.3,0.7-0.7,1.3-1.3,1.7L55,29.7c0.4-0.6,0.7-1.3,0.8-2
				c0.1-0.7,0.2-1.6,0.2-2.5v-1.7c-0.3,0.3-0.7,0.5-1,0.7l-0.1-0.1c0.5-0.5,1-1.1,1.5-1.8c0.4-0.6,0.7-1.2,0.8-1.9
				c0.9,0.2,1.4,0.4,1.4,0.5c0,0,0,0.1-0.1,0.1L58.2,21c1.2,0.3,1.9,0.7,2.2,1.2c0.2,0.3,0.1,0.6,0,0.8c-0.1,0.2-0.3,0.2-0.6,0.1
				c0,0-0.1,0-0.1-0.1c-0.1-0.3-0.3-0.7-0.6-1c-0.3-0.4-0.6-0.7-1-0.9c-0.4,0.6-0.8,1.1-1.3,1.6h1.4l0.2-0.3
				c0.2-0.2,0.3-0.3,0.3-0.3c0.1,0,0.2,0.1,0.5,0.3c0.2,0.2,0.4,0.3,0.4,0.4c0,0.1-0.1,0.2-0.3,0.2h-2.5l0-0.2
				c-0.3,0.3-0.5,0.5-0.7,0.6l0.9,0.4H59.2z M56.9,25.2c0,0.3,0,0.6,0,0.8h2.4v-0.8H56.9z M59.2,24.9v-0.8h-2.4v0.8H59.2z
				 M57.2,27.5v1.6h2.1v-1.6H57.2z M61.1,25.8v-2.3c0-0.8,0-1.5-0.1-2.1c0.8,0.2,1.2,0.4,1.2,0.5c0,0,0,0.1-0.1,0.1L61.9,22v3.2
				c0,0.7,0,1.5,0.1,2.4c0,0.1-0.1,0.2-0.3,0.2C61.6,28,61.4,28,61.2,28c-0.1,0-0.1,0-0.2-0.1c0,0-0.1-0.1-0.1-0.1
				C61,27.1,61.1,26.4,61.1,25.8z M62.9,28.9v-6.1c0-0.8,0-1.5-0.1-2.1c0.8,0.2,1.3,0.4,1.3,0.5c0,0,0,0.1-0.1,0.1l-0.2,0.1V29
				c0,0.4-0.1,0.7-0.2,0.9c-0.2,0.2-0.5,0.3-1,0.4c0-0.3-0.1-0.5-0.2-0.7c-0.1-0.2-0.4-0.3-0.8-0.3V29c0.6,0.1,1,0.1,1.2,0.1
				C62.8,29.1,62.9,29,62.9,28.9z"/>
		</g>
		<g>
			<g>
				<path class="st1" d="M23.5,33.4h-0.7c0,0.3,0,0.7,0,1.2v0.2c0,0.5,0,1,0,1.2l0.4,0v0.1h-1.4v-0.1l0.5,0c0-0.3,0-0.7,0-1.2v-0.2
					c0-0.6,0-1,0-1.2h-0.7L21.5,34h-0.2l0-0.8h2.5l0,0.8h-0.2L23.5,33.4z"/>
				<path class="st1" d="M25.6,36.3c-0.3,0-0.6-0.1-0.8-0.3c-0.2-0.2-0.3-0.5-0.3-0.8c0-0.4,0.1-0.6,0.3-0.8
					c0.2-0.2,0.5-0.3,0.8-0.3c0.3,0,0.5,0.1,0.8,0.3c0.2,0.2,0.3,0.5,0.3,0.8c0,0.4-0.1,0.6-0.3,0.8C26.1,36.2,25.9,36.3,25.6,36.3z
					 M25.6,36.2c0.2,0,0.3-0.1,0.4-0.2c0.1-0.2,0.2-0.4,0.2-0.7c0-0.3-0.1-0.6-0.2-0.7c-0.1-0.2-0.2-0.3-0.4-0.3
					c-0.2,0-0.3,0.1-0.4,0.3c-0.1,0.2-0.2,0.4-0.2,0.7c0,0.3,0.1,0.6,0.2,0.7C25.3,36.1,25.4,36.2,25.6,36.2z"/>
				<path class="st1" d="M31,34.1v0.1l-0.3,0l-0.7,2h-0.2c-0.3-0.8-0.5-1.4-0.6-1.7l-0.6,1.7h-0.2l-0.7-2l-0.2,0v-0.1h1.1v0.1
					l-0.3,0l0.5,1.5l0.5-1.5l-0.3,0v-0.1h1v0.1l-0.3,0l0.5,1.5l0.4-1.5l-0.4-0.1v-0.1H31z"/>
				<path class="st1" d="M34.1,36.1l0.3,0v0.1h-1.1v-0.1l0.3,0c0-0.3,0-0.6,0-0.8v-0.5c0-0.2,0-0.3-0.1-0.4
					c-0.1-0.1-0.1-0.1-0.3-0.1c-0.2,0-0.4,0.1-0.6,0.3v0.7c0,0.1,0,0.3,0,0.8l0.3,0v0.1h-1.1v-0.1l0.3,0c0-0.2,0-0.5,0-0.8V35
					c0-0.2,0-0.4,0-0.6l-0.3,0v-0.1l0.7-0.2l0.1,0l0,0.4c0.2-0.3,0.5-0.4,0.8-0.4c0.4,0,0.6,0.3,0.6,0.8v0.5
					C34.1,35.5,34.1,35.8,34.1,36.1z"/>
				<path class="st1" d="M39.2,33.2v0.1l-0.4,0.1L38,36.3h-0.2L37,33.9l-0.7,2.4h-0.2l-0.8-2.9l-0.3,0v-0.1h1.3v0.1l-0.4,0l0.6,2.2
					l0.7-2.2l-0.4-0.1v-0.1h1.2v0.1l-0.5,0.1l0.7,2.2l0.6-2.2l-0.4-0.1v-0.1H39.2z"/>
				<path class="st1" d="M41.8,36L41.8,36c0,0.2-0.2,0.3-0.3,0.3c-0.1,0-0.2,0-0.3-0.1c-0.1-0.1-0.1-0.2-0.1-0.3
					c-0.1,0.1-0.2,0.2-0.3,0.3c-0.1,0.1-0.2,0.1-0.3,0.1c-0.2,0-0.3,0-0.4-0.1c-0.1-0.1-0.2-0.2-0.2-0.4c0-0.2,0.1-0.3,0.2-0.4
					c0.1-0.1,0.3-0.2,0.6-0.3c0.3-0.1,0.4-0.1,0.5-0.1v-0.2c0-0.2,0-0.4-0.1-0.4c-0.1-0.1-0.2-0.1-0.3-0.1c-0.1,0-0.2,0-0.2,0
					l-0.1,0.3c0,0.2-0.1,0.3-0.2,0.3c-0.1,0-0.2-0.1-0.2-0.2c0-0.2,0.1-0.3,0.3-0.4c0.2-0.1,0.4-0.2,0.6-0.2c0.3,0,0.4,0.1,0.6,0.2
					c0.1,0.1,0.2,0.3,0.2,0.6v1c0,0.2,0.1,0.3,0.2,0.3C41.7,36.1,41.8,36.1,41.8,36z M41.1,35.8v-0.8c-0.1,0-0.2,0.1-0.4,0.1
					c-0.2,0.1-0.3,0.1-0.4,0.2c-0.1,0.1-0.1,0.2-0.1,0.3c0,0.1,0,0.2,0.1,0.3c0.1,0.1,0.1,0.1,0.3,0.1c0.1,0,0.1,0,0.2-0.1
					C40.8,36,40.9,35.9,41.1,35.8z"/>
				<path class="st1" d="M44.9,34.1v0.1l-0.3,0l-0.8,2.1c-0.2,0.7-0.5,1-0.9,1c-0.1,0-0.2,0-0.3-0.1c-0.1-0.1-0.1-0.1-0.1-0.2
					c0-0.1,0-0.1,0.1-0.2c0.1,0,0.1-0.1,0.2-0.1c0.1,0,0.2,0.1,0.3,0.2l0,0c0.2-0.1,0.3-0.4,0.4-0.7l0,0l-0.9-2.2l-0.2,0v-0.1h1.1
					v0.1l-0.4,0l0.6,1.6l0.6-1.6l-0.4,0v-0.1H44.9z"/>
			</g>
		</g>
	</g>
</g>
</svg>
