<?xml version="1.0" encoding="utf-8"?>
<!-- Generator: Adobe Illustrator 23.1.0, SVG Export Plug-In . SVG Version: 6.00 Build 0)  -->
<svg version="1.1" id="圖層_1" xmlns="http://www.w3.org/2000/svg" xmlns:xlink="http://www.w3.org/1999/xlink" x="0px" y="0px"
	 viewBox="0 0 64.5 40" style="enable-background:new 0 0 64.5 40;" xml:space="preserve">
<style type="text/css">
	.st0{fill:#231815;}
	.st1{fill:#C30D23;}
</style>
<g>
	<g>
		<path class="st0" d="M24.7,23.5c0.4,0.1,0.6,0.2,0.6,0.3c0,0,0,0.1-0.1,0.1L25,23.9c-0.7,1.8-1.7,3.1-2.9,3.9L22,27.7
			c0.5-0.7,1-1.5,1.5-2.6c0.3-0.7,0.4-1.4,0.4-2L24.7,23.5z M26.2,28.7v-6c0-0.9,0-1.6-0.1-2.1c0.9,0.2,1.4,0.4,1.4,0.5
			c0,0,0,0.1-0.1,0.1l-0.2,0.1v7.5c0,0.4-0.1,0.7-0.3,1c-0.2,0.2-0.6,0.3-1.2,0.4c0-0.4-0.1-0.6-0.3-0.8c-0.2-0.2-0.6-0.3-1.1-0.4
			v-0.2c0.9,0.1,1.5,0.1,1.7,0.1C26.1,29,26.2,28.9,26.2,28.7z M28.2,23.3c1.3,0.7,2.1,1.5,2.6,2.5c0.3,0.6,0.3,1.1,0.2,1.4
			c-0.1,0.3-0.3,0.4-0.6,0.3c-0.1,0-0.2-0.1-0.3-0.2c-0.1-0.6-0.3-1.3-0.7-2c-0.4-0.7-0.8-1.4-1.3-2L28.2,23.3z"/>
		<path class="st0" d="M40.7,23.8l0.2-0.3c0,0,0-0.1,0.1-0.1c0-0.1,0.1-0.1,0.1-0.1c0,0,0,0,0.1,0c0.1,0,0.2,0.1,0.5,0.3
			C41.8,23.8,42,24,42,24c-0.1,0.1-0.2,0.1-0.3,0.2v3.1c0,0,0,0-0.1,0.1c0.3,0.2,0.5,0.4,0.8,0.7c0,0.1-0.1,0.2-0.3,0.2h-4.4v0.4
			c0,0-0.1,0.1-0.2,0.2c-0.2,0.1-0.3,0.1-0.4,0.1s-0.2-0.1-0.2-0.2l0-0.2v-0.2c-1.2,0.6-2.2,1.1-3,1.5c0,0.1-0.1,0.2-0.2,0.3
			L33.1,29c0.4-0.1,0.9-0.2,1.5-0.3v-3.3h-0.5c-0.2,0-0.5,0.1-0.8,0.1L33.1,25c0.3,0,0.6,0.1,1,0.1h0.5v-1.3h-0.7l0-0.2
			c-0.3,0.3-0.6,0.6-0.8,0.8l-0.1-0.1c0.3-0.4,0.7-1,1-1.8c0.3-0.7,0.5-1.4,0.5-2c0.8,0.3,1.2,0.5,1.2,0.5c0,0,0,0.1-0.1,0.1
			l-0.2,0.1c0.9,0.3,1.5,0.7,1.6,1.2c0.1,0.3,0.1,0.5-0.1,0.6c-0.2,0.1-0.4,0.1-0.6,0c-0.2-0.5-0.5-1-1.1-1.5
			c-0.3,0.7-0.8,1.4-1.3,2h1.4l0.2-0.3c0.2-0.2,0.3-0.3,0.3-0.3c0.1,0,0.2,0.1,0.4,0.3c0.2,0.2,0.3,0.4,0.3,0.5
			c0,0.1-0.1,0.2-0.3,0.2h-1V25h0.2l0.2-0.3c0,0,0-0.1,0.1-0.1c0,0,0-0.1,0.1-0.1c0,0,0,0,0.1-0.1c0,0,0,0,0.1-0.1c0,0,0,0,0,0
			c0.1,0,0.2,0.1,0.4,0.3c0.2,0.2,0.3,0.4,0.3,0.5c0,0.1-0.1,0.2-0.3,0.2h-1.2v3.1c0.2,0,0.4-0.1,0.8-0.2c0.3-0.1,0.6-0.1,0.7-0.2
			v-1.9c-0.1,0.1-0.1,0.1-0.3,0.1c-0.4,0.8-0.7,1.3-0.9,1.5l-0.2-0.1c0.2-0.8,0.3-1.5,0.2-2.1l1.1,0.4v-0.2c0-0.9,0-1.6-0.1-2.1
			c0.8,0.2,1.2,0.4,1.2,0.4c0,0,0,0-0.1,0.1l-0.2,0.1v3.5H41l0.3-0.4c-0.2,0.1-0.3,0.1-0.4,0.1h-0.1v-0.4h-1.7v0.3
			c0,0-0.1,0.1-0.2,0.2c-0.1,0.1-0.3,0.1-0.5,0.1c-0.1,0-0.1,0-0.1-0.1c0,0-0.1-0.1-0.1-0.1c0-0.3,0.1-0.7,0.1-1.3v-0.7
			c0-0.9,0-1.6-0.1-2.1l1,0.4H40.7z M33.4,25.9l0.1-0.1c0.6,0.5,0.9,1.1,0.9,1.6c0,0.3-0.1,0.5-0.3,0.6c-0.2,0.1-0.3,0-0.5-0.2
			C33.7,27.3,33.6,26.6,33.4,25.9z M36,30c0.5-0.2,1-0.4,1.5-0.8c0.5-0.3,0.8-0.7,1.1-1.1l0.6,0.5c0.4,0.3,0.6,0.4,0.4,0.4
			c0,0,0,0-0.1,0l-0.3,0c-0.4,0.2-0.8,0.4-1.4,0.6c-0.6,0.2-1.2,0.3-1.8,0.4L36,30z M38.2,21.8c1.3-0.4,2.1-0.8,2.6-1.2
			c0.6,0.6,0.9,0.9,0.7,0.9c0,0,0,0,0,0l-0.2,0c-0.8,0.2-1.8,0.4-3.1,0.6v0.3c0,0.1,0,0.1,0.1,0.1c0.1,0,0.2,0,0.4,0H40
			c0.6,0,0.9,0,1.2,0c0.1,0,0.2,0,0.3-0.1c0.1-0.1,0.2-0.3,0.3-0.7h0.1l0,0.7c0.2,0.1,0.4,0.2,0.4,0.3c0,0.1-0.1,0.2-0.2,0.3
			c-0.1,0.1-0.3,0.1-0.7,0.1c-0.3,0-0.8,0-1.5,0h-1.3c-0.5,0-0.8,0-0.9-0.1c-0.2-0.1-0.2-0.3-0.2-0.6v-0.9c0-0.4,0-0.7-0.1-1
			c0.7,0.2,1.1,0.3,1.1,0.4c0,0,0,0.1-0.1,0.1l-0.1,0.1V21.8z M40.8,24.8v-0.7h-1.7v0.7H40.8z M39.1,25.8h1.7v-0.7h-1.7V25.8z
			 M39.1,26.1v0.7h1.7v-0.7H39.1z M39.8,28.6l0.1-0.1c1.3,0.2,2.1,0.6,2.4,1c0.1,0.2,0.1,0.4-0.1,0.6c-0.2,0.2-0.4,0.2-0.6,0.1
			c-0.1,0-0.1-0.1-0.2-0.2C41.1,29.4,40.5,28.9,39.8,28.6z"/>
		<path class="st0" d="M51.2,21.3l0.2-0.3c0,0,0,0,0.1-0.1c0,0,0-0.1,0.1-0.1c0,0,0,0,0.1-0.1c0,0,0,0,0.1-0.1c0,0,0,0,0.1,0
			c0.1,0,0.2,0.1,0.5,0.4c0.3,0.3,0.4,0.4,0.4,0.5c-0.1,0.1-0.2,0.2-0.4,0.2c0,0.8-0.1,1.6-0.1,2.5c0,0.9,0.1,1.7,0.2,2.5
			c0.1,0.8,0.3,1.4,0.5,1.6c0.1,0.1,0.1,0.1,0.2-0.1c0.2-0.6,0.3-1,0.3-1.2l0.1,0L53.3,29c0.2,0.6,0.2,0.9,0.1,1
			c-0.2,0.1-0.4,0.1-0.6,0c-0.2-0.1-0.4-0.3-0.5-0.5c-0.2-0.3-0.4-0.8-0.6-1.4c-0.1-0.6-0.2-1.2-0.3-1.9c-0.1-0.7-0.1-1.5-0.1-2.3
			c0-0.8,0-1.6,0-2.4h-5.1v2.3c0,0.5,0,0.9,0,1.2c0,0.4-0.1,0.8-0.1,1.3c-0.1,0.5-0.2,1-0.3,1.4c-0.1,0.4-0.3,0.8-0.6,1.3
			c-0.2,0.4-0.5,0.8-0.9,1.2l-0.1-0.1c0.5-0.8,0.8-1.8,0.9-2.8c0.1-1,0.2-2.2,0.2-3.5v-1.5c0-0.6,0-1.2-0.1-1.6l1.2,0.5H51.2z
			 M50,24.2l0.2-0.2c0.1-0.2,0.2-0.2,0.3-0.2c0.1,0,0.2,0.1,0.4,0.3c0.2,0.2,0.3,0.3,0.3,0.4c-0.1,0.1-0.2,0.1-0.3,0.2v0.8
			c0,0.6,0,1.1,0.1,1.5c0,0.1-0.1,0.1-0.3,0.2c-0.2,0.1-0.3,0.1-0.4,0.1H50v-0.5h-0.9v1.8l1.1-0.1c-0.1-0.3-0.3-0.6-0.6-1l0.1-0.1
			c0.8,0.4,1.4,0.9,1.6,1.4c0.1,0.4,0.1,0.6-0.1,0.8c-0.2,0.2-0.4,0.2-0.6,0c0,0,0,0-0.1-0.1c0-0.3-0.1-0.6-0.3-0.9
			c-0.9,0.2-2.2,0.5-3.8,0.9c-0.1,0.1-0.2,0.2-0.3,0.2l-0.5-1.2c0.7,0,1.5,0,2.4-0.1v-1.8h-0.9v0.4c0,0-0.1,0.1-0.2,0.2
			c-0.1,0.1-0.3,0.1-0.4,0.1c-0.1,0-0.2-0.1-0.2-0.2c0-0.2,0-0.6,0.1-1v-0.6c0-0.7,0-1.3-0.1-1.8l0.9,0.4h0.8v-1.1
			c-0.8,0.1-1.4,0.1-2,0.1l0-0.2c0.7-0.1,1.4-0.3,2.1-0.5c0.7-0.2,1.3-0.4,1.8-0.6c0.6,0.6,0.8,0.9,0.8,0.9c0,0-0.1,0-0.2,0l-0.3,0
			c-0.4,0.1-0.9,0.1-1.4,0.2v1.2H50z M47.5,24.5v1.8h0.9v-1.8H47.5z M50,26.4v-1.8h-0.9v1.8H50z"/>
		<path class="st0" d="M62.2,24.2l0.3-0.4c0.2-0.3,0.3-0.4,0.4-0.4c0.1,0,0.3,0.1,0.6,0.4c0.3,0.3,0.5,0.5,0.5,0.5
			c0,0.1-0.1,0.2-0.3,0.2h-3.3v4.8h2.4l0.3-0.4c0,0,0-0.1,0.1-0.1c0-0.1,0.1-0.1,0.1-0.1c0,0,0-0.1,0.1-0.1c0,0,0.1-0.1,0.1-0.1
			c0,0,0,0,0.1,0c0.1,0,0.3,0.1,0.6,0.4c0.3,0.3,0.5,0.5,0.5,0.5c0,0.1-0.1,0.2-0.3,0.2H57c-0.5,0-1,0.1-1.5,0.1l-0.3-0.5
			c0.4,0,0.8,0.1,1.4,0.1h2.8v-4.8h-1.7c-0.5,0-1,0.1-1.5,0.1l-0.3-0.5c0.4,0,0.8,0.1,1.4,0.1h2.2v-1.6c0-0.8,0-1.5-0.1-2.1
			c0.9,0.2,1.4,0.4,1.4,0.5c0,0,0,0.1-0.1,0.1l-0.2,0.1v3H62.2z"/>
	</g>
	<g>
		<g>
			<path class="st0" d="M23.8,33.4h-0.7c0,0.3,0,0.7,0,1.2v0.2c0,0.5,0,1,0,1.2l0.4,0v0.1h-1.4v-0.1l0.5,0c0-0.3,0-0.7,0-1.2v-0.2
				c0-0.6,0-1,0-1.2H22l-0.2,0.6h-0.2l0-0.8h2.5l0,0.8H24L23.8,33.4z"/>
			<path class="st0" d="M25.9,36.3c-0.3,0-0.6-0.1-0.8-0.3c-0.2-0.2-0.3-0.5-0.3-0.8c0-0.4,0.1-0.6,0.3-0.8c0.2-0.2,0.5-0.3,0.8-0.3
				c0.3,0,0.5,0.1,0.8,0.3c0.2,0.2,0.3,0.5,0.3,0.8c0,0.4-0.1,0.6-0.3,0.8C26.5,36.2,26.2,36.3,25.9,36.3z M25.9,36.2
				c0.2,0,0.3-0.1,0.4-0.2c0.1-0.2,0.2-0.4,0.2-0.7c0-0.3-0.1-0.6-0.2-0.7c-0.1-0.2-0.2-0.3-0.4-0.3c-0.2,0-0.3,0.1-0.4,0.3
				c-0.1,0.2-0.2,0.4-0.2,0.7c0,0.3,0.1,0.6,0.2,0.7C25.6,36.1,25.7,36.2,25.9,36.2z"/>
			<path class="st0" d="M31.3,34.1v0.1l-0.3,0l-0.7,2h-0.2c-0.3-0.8-0.5-1.4-0.6-1.7L29,36.3h-0.2l-0.7-2l-0.2,0v-0.1h1.1v0.1
				l-0.3,0l0.5,1.5l0.5-1.5l-0.3,0v-0.1h1v0.1l-0.3,0l0.5,1.5l0.4-1.5l-0.4-0.1v-0.1H31.3z"/>
			<path class="st0" d="M34.4,36.1l0.3,0v0.1h-1.1v-0.1l0.3,0c0-0.3,0-0.6,0-0.8v-0.5c0-0.2,0-0.3-0.1-0.4c-0.1-0.1-0.1-0.1-0.3-0.1
				c-0.2,0-0.4,0.1-0.6,0.3v0.7c0,0.1,0,0.3,0,0.8l0.3,0v0.1h-1.1v-0.1l0.3,0c0-0.2,0-0.5,0-0.8v-0.3c0-0.2,0-0.4,0-0.6l-0.3,0v-0.1
				l0.7-0.2l0.1,0l0,0.4c0.2-0.3,0.5-0.4,0.8-0.4c0.4,0,0.6,0.3,0.6,0.8v0.5C34.4,35.5,34.4,35.8,34.4,36.1z"/>
			<path class="st0" d="M37.5,33.4h-0.7c0,0.3,0,0.7,0,1.2v0.2c0,0.5,0,1,0,1.2l0.4,0v0.1h-1.4v-0.1l0.5,0c0-0.3,0-0.7,0-1.2v-0.2
				c0-0.6,0-1,0-1.2h-0.7l-0.2,0.6h-0.2l0-0.8h2.5l0,0.8h-0.2L37.5,33.4z"/>
			<path class="st0" d="M40.5,35.2H39c0,0.3,0.1,0.5,0.2,0.7c0.1,0.2,0.3,0.2,0.5,0.2c0.3,0,0.5-0.1,0.6-0.3l0.1,0.1
				c-0.1,0.2-0.2,0.3-0.3,0.4c-0.1,0.1-0.3,0.1-0.5,0.1c-0.3,0-0.6-0.1-0.8-0.3c-0.2-0.2-0.3-0.5-0.3-0.8c0-0.3,0.1-0.6,0.3-0.8
				c0.2-0.2,0.5-0.3,0.8-0.3c0.3,0,0.5,0.1,0.6,0.2c0.2,0.2,0.2,0.4,0.2,0.6C40.5,35,40.5,35.1,40.5,35.2z M39,35h0.8
				c0.1,0,0.1,0,0.2-0.1c0,0,0.1-0.1,0.1-0.2c0-0.2,0-0.3-0.1-0.4c-0.1-0.1-0.2-0.2-0.3-0.2c-0.1,0-0.3,0.1-0.4,0.2
				C39.1,34.6,39.1,34.8,39,35z"/>
			<path class="st0" d="M42.3,34.1l0,0.6c0.1-0.2,0.2-0.3,0.3-0.4c0.1-0.1,0.2-0.2,0.4-0.2c0.2,0,0.3,0.1,0.3,0.2
				c0,0.2-0.1,0.3-0.3,0.3c-0.1,0-0.2-0.1-0.3-0.2l-0.1-0.1c-0.2,0.1-0.3,0.3-0.4,0.6v0.3c0,0.1,0,0.3,0,0.8l0.4,0.1v0.1h-1.2v-0.1
				l0.3,0c0-0.2,0-0.5,0-0.8v-0.3c0-0.2,0-0.4,0-0.6l-0.3,0v-0.1L42.3,34.1L42.3,34.1z"/>
			<path class="st0" d="M44.9,34.1l0,0.6c0.1-0.2,0.2-0.3,0.3-0.4c0.1-0.1,0.2-0.2,0.4-0.2c0.2,0,0.3,0.1,0.3,0.2
				c0,0.2-0.1,0.3-0.3,0.3c-0.1,0-0.2-0.1-0.3-0.2l-0.1-0.1c-0.2,0.1-0.3,0.3-0.4,0.6v0.3c0,0.1,0,0.3,0,0.8l0.4,0.1v0.1h-1.2v-0.1
				l0.3,0c0-0.2,0-0.5,0-0.8v-0.3c0-0.2,0-0.4,0-0.6l-0.3,0v-0.1L44.9,34.1L44.9,34.1z"/>
			<path class="st0" d="M47.9,36.3c-0.3,0-0.6-0.1-0.8-0.3c-0.2-0.2-0.3-0.5-0.3-0.8c0-0.4,0.1-0.6,0.3-0.8c0.2-0.2,0.5-0.3,0.8-0.3
				c0.3,0,0.5,0.1,0.8,0.3c0.2,0.2,0.3,0.5,0.3,0.8c0,0.4-0.1,0.6-0.3,0.8C48.4,36.2,48.2,36.3,47.9,36.3z M47.9,36.2
				c0.2,0,0.3-0.1,0.4-0.2c0.1-0.2,0.2-0.4,0.2-0.7c0-0.3-0.1-0.6-0.2-0.7c-0.1-0.2-0.2-0.3-0.4-0.3c-0.2,0-0.3,0.1-0.4,0.3
				c-0.1,0.2-0.2,0.4-0.2,0.7c0,0.3,0.1,0.6,0.2,0.7C47.6,36.1,47.7,36.2,47.9,36.2z"/>
			<path class="st0" d="M50.8,36.1l0.3,0v0.1H50v-0.1l0.3,0c0-0.3,0-0.6,0-0.8v-0.3c0-0.2,0-0.4,0-0.6l-0.3,0v-0.1l0.8-0.2l0.1,0
				l0,0.6v0.6C50.8,35.5,50.8,35.8,50.8,36.1z M50.5,33.5c-0.1,0-0.2,0-0.2-0.1c-0.1-0.1-0.1-0.1-0.1-0.2c0-0.1,0-0.2,0.1-0.2
				c0.1-0.1,0.1-0.1,0.2-0.1c0.1,0,0.2,0,0.2,0.1c0.1,0.1,0.1,0.1,0.1,0.2c0,0.1,0,0.2-0.1,0.2C50.7,33.5,50.6,33.5,50.5,33.5z"/>
			<path class="st0" d="M52.8,34.1l0,0.6c0.1-0.2,0.2-0.3,0.3-0.4c0.1-0.1,0.2-0.2,0.4-0.2c0.2,0,0.3,0.1,0.3,0.2
				c0,0.2-0.1,0.3-0.3,0.3c-0.1,0-0.2-0.1-0.3-0.2l-0.1-0.1c-0.2,0.1-0.3,0.3-0.4,0.6v0.3c0,0.1,0,0.3,0,0.8l0.4,0.1v0.1h-1.2v-0.1
				l0.3,0c0-0.2,0-0.5,0-0.8v-0.3c0-0.2,0-0.4,0-0.6l-0.3,0v-0.1L52.8,34.1L52.8,34.1z"/>
		</g>
	</g>
</g>
<g>
	<path class="st1" d="M12.2,27.7c0-0.1-0.1-0.2-0.1-0.3c0-0.1,0-0.1,0-0.2C12,27.1,12,27,11.9,26.9c-0.1-0.2-0.1-0.3-0.2-0.5
		c0,0,0-0.1,0-0.1c0,0,0-0.1,0-0.1c0-0.2-0.1-0.4-0.2-0.6c0-0.1-0.1-0.2-0.1-0.3c0-0.1,0-0.2-0.1-0.3c0-0.1-0.1-0.2-0.1-0.3
		c0,0,0-0.1,0-0.1c0-0.1,0-0.2-0.1-0.3c-0.1-0.1-0.1-0.1-0.1-0.2c0,0,0-0.1-0.1-0.1c0,0-0.1,0-0.1,0.1c0,0.1,0,0.1,0,0.2
		c0,0.1,0,0.2,0,0.3c0,0.1,0.1,0.2,0.1,0.4c0,0.1,0,0.2,0,0.3c0,0,0,0,0,0.1c0.1,0.2,0.1,0.4,0.1,0.6c0,0.2,0,0.3,0.1,0.5
		c0,0.2,0.1,0.3,0.1,0.5c0,0.1,0.1,0.2,0.1,0.3c0,0.1,0.1,0.2,0,0.3c0.1,0.1,0,0.3,0.2,0.3c0,0,0,0,0,0c0.1,0.1,0.1,0.3,0.2,0.4
		c0,0.1,0.1,0.2,0.2,0.2c0,0,0.1,0,0.1,0c0,0,0.1,0,0.1-0.1c0,0,0-0.1,0-0.1c0-0.1,0-0.1,0-0.2c0-0.1,0-0.2,0-0.3
		C12.2,27.8,12.2,27.7,12.2,27.7z"/>
	<path class="st1" d="M8.5,27.6C8.5,27.6,8.5,27.5,8.5,27.6L8.5,27.6z"/>
	<path class="st1" d="M8.5,27.9c0,0.1,0,0.2,0.1,0.3c0,0.1,0,0.5,0.2,0.6c0,0,0.1,0,0.1,0l0,0c0,0,0,0,0,0c0.1-0.1,0.2-0.2,0.3-0.3
		c0,0,0,0,0,0c0.1-0.2,0.1-0.4,0.2-0.6c0-0.1,0-0.2,0.1-0.3c0.1-0.1,0.1-0.3,0.1-0.4c0,0,0,0,0-0.1c0-0.1,0-0.3,0-0.4
		c0-0.1,0-0.2,0.1-0.4c0-0.1,0-0.2,0.1-0.3c0-0.1,0.1-0.1,0-0.2c0,0,0-0.1,0-0.1c0-0.1,0-0.1,0-0.2c0-0.1,0-0.1,0-0.2
		c0-0.1,0-0.2,0-0.3c0,0,0-0.1,0-0.1c0-0.1,0-0.2,0-0.2c0-0.2-0.1-0.3-0.1-0.5c0,0,0-0.1-0.1-0.1c-0.1,0-0.1,0-0.2,0.1
		c0,0,0,0.1,0,0.1c0,0.2-0.1,0.4-0.1,0.6C9.1,25,9,25.1,9,25.2c0,0.1,0,0.2,0,0.3c0,0.2-0.1,0.3-0.1,0.5c0,0.1-0.1,0.3-0.1,0.4
		c0,0.1,0,0.1-0.1,0.2c0,0,0,0,0,0.1c0,0,0,0.1,0,0.1c0,0.1-0.1,0.2-0.1,0.3c-0.1,0.2-0.1,0.4-0.1,0.5l0,0c0,0,0,0.1,0,0.1
		C8.5,27.8,8.5,27.8,8.5,27.9z"/>
	<path class="st1" d="M16,23c0-0.2,0-0.4,0-0.7c0,0,0,0,0,0c0-0.1,0-0.2,0-0.2c0-0.1-0.1-0.1-0.1-0.2c0,0,0,0,0-0.1
		c-0.1,0-0.1-0.1-0.1-0.1c0,0-0.1-0.1-0.1-0.1c-0.1,0-0.2,0-0.3-0.1c0,0-0.1,0-0.1,0c-0.2,0-0.3,0-0.5,0c0,0-0.1,0-0.1,0
		c0,0-0.1,0-0.1,0c-0.1,0-0.3,0-0.4,0c0,0-0.1,0-0.1,0c-0.1,0-0.2,0-0.2,0c0,0,0,0,0,0c-0.1,0-0.2,0.1-0.3,0.2c0,0,0,0,0,0.1
		c0,0.2-0.1,0.3-0.2,0.5c0,0,0,0.1,0,0.1c0,0.1,0,0.2-0.1,0.3c0,0,0,0.1,0,0.1c0,0,0,0,0,0.1c0,0.2,0,0.3,0,0.5c0,0.1,0,0.3,0,0.4
		c0,0.1,0,0.3,0,0.4c0,0,0,0.1,0,0.1c0,0.1,0,0.2,0,0.3c0,0.1,0,0.2,0,0.4c0,0.2,0,0.3,0,0.5c0,0.1,0,0.1,0,0.2c0,0,0,0.1,0,0.1
		c0.1,0.1,0.1,0.2,0.1,0.2c0,0,0,0.1,0,0.1c0,0.1,0.1,0.2,0.2,0.2c0,0,0,0,0.1,0c0.1,0.1,0.2,0.2,0.4,0.2c0.2,0.1,0.4,0.1,0.6,0.1
		c0.1,0,0.1,0,0.2-0.1c0,0,0,0,0,0c0.1,0,0.2,0,0.2-0.1c0,0,0.1,0,0.1,0c0.2,0,0.3,0,0.4-0.1c0,0,0.1,0,0.1-0.1
		c0.1-0.1,0.1-0.2,0.1-0.3c0.1-0.1,0.1-0.3,0.1-0.5c0-0.1,0.1-0.2,0-0.4c0-0.1,0-0.2,0-0.3c0-0.1,0-0.2,0-0.4c0,0,0-0.1,0-0.1
		c0-0.1,0-0.2,0-0.3c0-0.1,0-0.2,0-0.3c0-0.1,0.1-0.3,0-0.4c0-0.1,0-0.1,0-0.2c0-0.1,0-0.2,0-0.2c0,0,0,0,0,0C16,23.1,16,23.1,16,23
		z M13.8,22.7c0-0.1,0-0.2,0.1-0.3c0.1-0.1,0.1-0.1,0.2-0.2c0,0,0.1-0.1,0.1-0.1c0.1,0,0.2-0.1,0.3,0c0.1,0,0.2,0,0.3,0
		c0.1,0,0.1,0,0.2,0c0,0,0.1,0,0.1,0c0.1,0,0.1,0,0.2,0.1c0.1,0.1,0.2,0.2,0.2,0.3c0,0.1,0,0.1,0,0.2c0,0.2,0,0.2-0.2,0.2
		c-0.1,0-0.2,0-0.2,0c-0.1,0-0.2,0-0.3,0c-0.1,0-0.1,0-0.2,0c-0.1,0-0.2-0.1-0.4-0.1c-0.1,0-0.1,0-0.2-0.1c0,0,0,0-0.1-0.1
		C13.8,22.8,13.8,22.7,13.8,22.7z M15.3,25.4c0,0,0,0.1,0,0.1c0,0.1,0,0.2-0.1,0.3c0,0.1-0.1,0.1-0.1,0.2c0,0.1-0.1,0.1-0.1,0.1
		c-0.1,0-0.2,0.1-0.3,0.1c0,0,0,0-0.1,0c-0.1,0-0.2,0-0.3,0c-0.1,0-0.3-0.1-0.4-0.2c0,0,0-0.1-0.1-0.1c-0.1-0.1-0.1-0.1-0.1-0.2
		c0,0,0,0,0-0.1c-0.1-0.1-0.1-0.2-0.1-0.3c0-0.1,0-0.2,0-0.3c0,0,0-0.1,0-0.1c0,0,0.1-0.1,0.1-0.1c0.1-0.1,0.2-0.1,0.3-0.1
		c0.1,0,0.2,0,0.2,0c0.3,0,0.5,0,0.8,0.1c0,0,0.1,0,0.1,0.1C15.3,25.2,15.4,25.3,15.3,25.4z M15.4,24.2c0,0.1-0.1,0.1-0.1,0.1
		c-0.1,0-0.3,0.1-0.4,0.1c-0.1,0-0.2,0-0.3,0c0,0,0,0,0,0c-0.1,0-0.2,0-0.3,0c0,0-0.1,0-0.1,0c0,0-0.1,0-0.1,0c0,0-0.1,0-0.1,0
		c-0.1-0.1-0.2-0.2-0.2-0.3c0-0.1,0-0.2,0-0.3c0-0.1,0.1-0.2,0.2-0.2c0.1,0,0.1,0,0.2,0c0.1,0,0.1,0,0.2,0c0,0,0.1,0,0.1,0
		c0.2,0,0.4,0,0.6,0.1c0,0,0.1,0,0.2,0c0.1,0,0.1,0,0.1,0.1c0,0,0,0.1,0,0.1c0,0,0,0.1,0,0.1c0,0.1,0,0.1,0,0.2
		C15.4,24.1,15.4,24.2,15.4,24.2z"/>
	<path class="st1" d="M15.9,20.7c-0.1,0-0.3-0.1-0.4-0.1c0,0-0.1,0-0.1,0c-0.1,0-0.1,0-0.1,0c-0.1,0-0.2,0-0.3,0c-0.1,0-0.2,0-0.3,0
		c-0.1,0-0.2,0-0.3,0c0,0-0.1,0-0.1,0c-0.2,0-0.3,0-0.5,0c-0.1,0-0.2,0-0.2,0c-0.1,0-0.2,0-0.2-0.1c-0.1,0-0.2-0.1-0.3-0.1
		c0,0,0,0,0,0c0-0.1-0.1-0.1,0-0.2c0-0.1,0.1-0.1,0.1-0.1c0,0,0.1,0,0.1,0c0.1,0,0.2-0.1,0.3,0c0,0,0.1,0,0.1,0c0.1,0,0.3,0,0.4,0
		c0.1,0,0.1,0,0.2,0c0.1,0,0.2,0,0.4,0c0.1,0,0.2,0,0.3,0c0.1,0,0.3,0,0.4,0c0.1,0,0.1,0,0.2,0c0.1,0,0.2,0,0.3,0
		c0.1,0,0.2-0.1,0.2-0.1c0,0,0,0,0-0.1c0-0.1,0-0.2-0.1-0.2c-0.2-0.1-0.3-0.1-0.5-0.2c0,0,0,0-0.1,0c0,0-0.1,0-0.1,0
		c-0.1,0-0.1,0-0.2,0c-0.1,0-0.1,0-0.2,0c-0.2,0-0.3,0-0.5,0c-0.2,0-0.4,0-0.6,0c0,0,0,0,0,0c-0.1,0-0.1,0-0.2,0c-0.1,0-0.2,0-0.3,0
		c0,0-0.1,0-0.1-0.1c-0.1-0.1-0.1-0.1-0.1-0.2c0-0.2-0.1-0.3-0.2-0.5c0,0,0-0.1-0.1-0.1c0-0.1-0.1,0-0.2,0c0,0,0,0,0,0.1
		c0,0,0,0.1,0,0.1c-0.1,0.1-0.1,0.2-0.1,0.2c0,0.1,0,0.1,0,0.2c0,0.1,0,0.1,0,0.2c0,0.1,0,0.2,0,0.3c0,0.1,0,0.3,0,0.4
		c0,0.1,0,0.2,0,0.3c0,0.1,0,0.2,0,0.3c0,0.1,0.1,0.2,0.2,0.3c0,0,0,0,0.1,0.1c0.1,0.1,0.1,0.1,0.2,0.1c0.1,0,0.1,0,0.2,0.1
		c0,0,0.1,0,0.1,0c0.2,0,0.4,0,0.7,0c0.1,0,0.2,0,0.2,0c0.1,0,0.2,0,0.2,0c0.1,0,0.1,0,0.2,0c0.1,0,0.3,0,0.4,0c0.1,0,0.2,0,0.2,0
		c0,0,0.1,0,0.1,0c0.1,0,0.1,0,0.2,0c0,0,0.1,0,0.1,0c0.2,0,0.3-0.1,0.5-0.2c0,0,0,0,0,0c0.1,0,0.1-0.2,0-0.2
		C16,20.8,15.9,20.8,15.9,20.7z"/>
	<path class="st1" d="M17.6,19.3C17.6,19.3,17.6,19.3,17.6,19.3c0-0.2,0-0.4,0-0.5c0-0.1,0-0.3,0-0.4c0-0.1,0-0.2,0-0.2
		c0-0.1,0-0.3,0-0.4c0-0.1,0-0.2-0.1-0.2c0,0,0,0,0-0.1c0-0.2,0-0.4,0-0.6c0,0,0-0.1,0-0.1c0-0.1,0-0.2,0-0.3c0-0.1,0-0.3,0-0.4
		c0-0.1,0-0.1,0-0.2c0-0.1,0-0.1,0-0.2c0-0.1,0-0.2,0-0.3c0-0.1,0-0.2,0-0.3c0-0.1,0-0.2,0-0.3c0,0,0,0,0,0c-0.1-0.2,0-0.3,0-0.5
		c0-0.1,0-0.3,0-0.5c0-0.1,0-0.1,0-0.1c0-0.1,0-0.2,0-0.3c0-0.1,0-0.2,0-0.3c0,0,0-0.1,0-0.1c0-0.2,0-0.4,0-0.5c0-0.2,0-0.4,0-0.6
		c0-0.1,0-0.3,0-0.4c0-0.1,0-0.3,0-0.4c0,0,0,0,0-0.1c0-0.1,0-0.1,0-0.2c0,0,0-0.1,0-0.1c0,0,0-0.1,0-0.1c0-0.2,0-0.3,0-0.5
		c0,0,0,0,0-0.1c0-0.1,0-0.2,0-0.2c0-0.2,0-0.4,0-0.6c0,0,0-0.1,0-0.1c0-0.1,0-0.2,0-0.3c0-0.1,0-0.2,0-0.4c0-0.1,0.1-0.2,0-0.4
		c0,0,0,0,0,0c0-0.1,0-0.1,0-0.2c0-0.1,0-0.1,0-0.2c0-0.2,0-0.4,0-0.6c0-0.1,0-0.3-0.1-0.4c0,0,0,0,0-0.1c0-0.1,0-0.1,0-0.2
		c0,0,0-0.1,0-0.1c0,0,0,0,0-0.1c0-0.2,0-0.3-0.1-0.4c0,0,0-0.1,0-0.1c-0.1-0.1,0-0.3-0.1-0.4c0-0.2-0.1-0.4-0.2-0.6
		c0-0.2-0.1-0.3-0.2-0.4c-0.1-0.1-0.1-0.2-0.2-0.3C16.5,4,16.4,4,16.3,3.9c0,0,0,0-0.1-0.1c-0.1-0.1-0.1-0.2-0.2-0.3
		c-0.1-0.1-0.2-0.2-0.2-0.3c-0.1-0.1-0.2-0.2-0.2-0.3c-0.1-0.1-0.2-0.2-0.4-0.2c0,0,0,0,0,0c-0.1-0.1-0.3-0.2-0.4-0.4
		c-0.1-0.1-0.3-0.2-0.4-0.4c-0.1-0.1-0.2-0.1-0.2-0.2c0,0,0,0-0.1,0c-0.1,0-0.1-0.1-0.2-0.1c-0.1-0.1-0.2-0.2-0.3-0.2
		c0,0-0.1,0-0.2-0.1c-0.1-0.1-0.2-0.1-0.3-0.2C13,1.1,12.9,1,12.8,0.9c0,0,0,0,0,0c0,0-0.1-0.1-0.1-0.1c-0.1,0-0.2-0.1-0.3-0.1
		c-0.2-0.1-0.5-0.1-0.7-0.2c-0.2,0-0.3-0.1-0.4-0.1c0,0-0.1,0-0.1,0c0,0,0,0,0,0c0,0,0,0,0,0c0,0-0.1,0-0.1,0c0,0-0.1,0-0.1,0
		c0,0-0.1,0-0.1,0c-0.2-0.1-0.5-0.1-0.7-0.1c0,0-0.1,0-0.1,0C9.8,0,9.7,0,9.6,0c0,0-0.1,0-0.1,0C9.3,0,9.1,0,8.9,0
		C8.9,0,8.8,0,8.7,0C8.7,0,8.6,0,8.5,0c-0.1,0-0.1,0-0.2,0c0,0-0.1,0-0.1,0c-0.1,0-0.2,0-0.2,0.1C7.8,0.2,7.6,0.3,7.5,0.3
		C7.3,0.4,7.1,0.4,6.9,0.5c-0.1,0-0.1,0-0.2,0.1C6.5,0.7,6.3,0.8,6.1,0.8C5.9,0.9,5.8,1,5.6,1.1C5.5,1.2,5.3,1.2,5.2,1.3
		c0,0,0,0-0.1,0C5,1.4,5,1.5,4.9,1.6C4.8,1.6,4.7,1.7,4.6,1.8C4.5,1.9,4.4,2.1,4.2,2.1C4.1,2.3,4,2.4,3.9,2.6c0,0.1,0,0.3,0,0.4
		C3.9,3.1,4,3.2,4.2,3.3c0.1,0,0.2,0,0.3,0c0,0,0.1,0,0.1,0c0.1,0.1,0.3,0,0.5,0c0.2,0,0.4,0,0.6,0c0.2,0,0.4,0.1,0.6,0.1
		c0,0,0.1,0,0.1,0c0.1,0,0.1,0.1,0.1,0.1c0,0,0,0,0,0c-0.1,0-0.2,0.1-0.3,0.1C6,3.9,5.8,4,5.6,3.9c-0.3-0.1-0.7,0-1,0
		c-0.2,0-0.3,0-0.4,0.1C4.1,4,4,4,3.9,4.1C3.7,4.1,3.6,4.2,3.5,4.4c0,0.1-0.1,0.2-0.1,0.3c0,0.2,0.1,0.4,0.2,0.5
		c0,0.1,0.1,0.1,0.2,0.1c0.3,0.1,0.7,0.1,1,0.1c0.2,0,0.4,0,0.6,0c0.1,0,0.2,0,0.3,0c0.3,0,0.6,0,0.8,0c0.2,0,0.5,0.1,0.7,0.1
		c0.2,0,0.4,0.1,0.6,0.1c0.2,0,0.4,0,0.6,0c0.2,0,0.3,0,0.5,0c0,0,0,0.1,0,0.1C8.8,5.9,8.6,6,8.4,6C8.2,6,7.9,6,7.6,6
		c-0.2,0-0.4,0-0.5,0c-0.3,0-0.5,0.1-0.7,0.3c0,0.1,0,0.1,0,0.2c0,0.3,0.1,0.5,0.3,0.7c0.1,0.1,0.2,0.1,0.3,0.2
		c0.2,0,0.4,0.1,0.6,0.1c0.3,0,0.6,0,0.9,0c0.1,0,0.3,0.1,0.4,0c0,0,0,0,0.1,0c0.1,0,0.2,0,0.2,0c0.2,0,0.4-0.1,0.7,0c0,0,0,0,0.1,0
		c0.1,0,0.2,0,0.3,0c0.1,0,0.2,0,0.3,0c0.1,0,0.2,0,0.3,0c0,0,0,0,0,0c0,0.1,0,0.2,0,0.3c0,0,0,0,0,0c0,0,0.1,0.1,0,0.1
		c0,0,0,0,0,0.1c0,0.1-0.1,0.3-0.1,0.4c0,0.1,0,0.1,0,0.2c-0.2,0-0.3,0-0.5,0c-0.1,0-0.2,0-0.2,0c0,0-0.1,0-0.1,0
		c-0.2,0-0.4,0-0.6,0c-0.3,0-0.6,0.1-0.9,0c0,0,0,0-0.1,0c-0.3,0-0.5,0-0.8,0c-0.2,0-0.4,0-0.6-0.1c-0.1,0-0.2,0-0.3,0
		c-0.2,0-0.5,0-0.7,0.1c-0.1,0-0.1,0-0.1,0.1C5.9,9,6,9,6.1,9c0.3,0.1,0.5,0.2,0.8,0.2c0.4,0,0.7,0,1.1,0.1c0.1,0,0.3,0.1,0.4,0
		c0.3,0,0.6,0,0.8,0.1c0.3,0,0.5,0,0.8,0c0.2,0,0.4,0,0.6,0c0,0,0.1,0,0.1,0c0,0.1-0.1,0.2-0.1,0.4c0,0,0,0.1,0,0.1
		c0,0.3-0.1,0.6-0.3,0.8c-0.1,0.2-0.2,0.3-0.2,0.5c-0.1,0.2-0.2,0.3-0.3,0.4c0,0,0,0.1-0.1,0.1c-0.1,0-0.1,0.1-0.2,0.1
		C9.5,11.9,9.3,12,9.2,12c-0.1,0-0.1,0-0.2,0.1c0,0-0.1,0-0.1,0c0,0,0,0-0.1,0c-0.1,0-0.2,0-0.3,0c-0.1,0-0.1,0-0.2,0
		c-0.1,0-0.1,0-0.2,0.1c-0.2,0.2-0.5,0.2-0.5,0.4c0,0.1,0.3,0.2,0.3,0.3c-0.1,0.1,0.3,0,0.3,0.2c0,0,0,0,0,0c0,0,0.1,0,0.1,0
		c0.1,0,0.2,0,0.2,0c0.2,0,0.4-0.1,0.6-0.2c0,0,0,0,0.1,0c0.3,0,0.5-0.2,0.7-0.3c0,0,0,0,0,0c0.1,0,0.2-0.1,0.3-0.1
		c0,0,0.1,0,0.1-0.1c0.1-0.1,0.2-0.2,0.3-0.4c0-0.1,0.1-0.1,0.1-0.2c0,0,0.1-0.1,0.1-0.1c0,0,0-0.1,0-0.1c0.1-0.1,0.1-0.2,0.1-0.3
		c0,0,0,0,0-0.1c0-0.1,0.1-0.3,0.1-0.4c0-0.1,0.1-0.3,0.1-0.4c0-0.1,0.1-0.2,0.1-0.3c0-0.2,0-0.3,0.1-0.5c0-0.1,0-0.2,0-0.2
		c0-0.1,0-0.2,0-0.3c0-0.1,0-0.1,0-0.2c0-0.1,0-0.3,0-0.4c0-0.1,0-0.2,0-0.3c0,0,0-0.1,0-0.1c0-0.1,0-0.1,0-0.2c0-0.1,0-0.1,0-0.2
		c0,0,0-0.1,0-0.1c0-0.2,0-0.3,0-0.5c0,0,0-0.1,0-0.1c0-0.1,0-0.3,0-0.4c0-0.1,0-0.3,0-0.4c0,0,0-0.1,0-0.1c0-0.1,0-0.2,0-0.3
		c0,0,0-0.1,0-0.1c0-0.2,0-0.3-0.1-0.5c0-0.1,0-0.3-0.1-0.4c0-0.1,0-0.2-0.1-0.4c0-0.1,0-0.2,0-0.3c0-0.1,0-0.2,0-0.3
		c0-0.1,0-0.2-0.1-0.3c0-0.2-0.1-0.3-0.1-0.5c0-0.1,0-0.2-0.1-0.3c0,0,0-0.1-0.1,0c0,0-0.1,0-0.1,0.1c0,0.1-0.1,0.2,0,0.3
		c0,0.1,0,0.2,0,0.3c0,0.1,0,0.2,0,0.3c0,0,0,0.1,0,0.1c0,0.1,0,0.2,0,0.4c0,0.1,0,0.1,0,0.2c0,0.1,0,0.1,0,0.2c0,0,0,0,0,0
		c0,0.1,0,0.2,0,0.3c0,0.1,0,0.3,0,0.4c0,0.1,0,0.2,0,0.3c0,0.1,0,0.1,0,0.2c0,0.1,0,0.1,0,0.2c0,0,0,0,0,0.1c0,0.1,0,0.1,0,0.2
		c0,0,0,0.1,0,0.1c0,0.2,0,0.3,0,0.5c0,0.1,0,0.1,0,0.1c0,0.1,0,0.1,0,0.2c-0.1,0-0.2,0-0.3,0c0,0-0.1,0-0.1,0c-0.1,0-0.2,0-0.3,0
		c0,0-0.1,0-0.1,0C10.1,6.9,9.9,7,9.7,7c-0.2,0-0.3,0-0.5,0c-0.2,0-0.5,0-0.8,0c-0.1,0-0.1,0-0.2,0c-0.2,0-0.5,0-0.7,0
		c-0.2,0-0.3,0-0.5,0C7,7,7,7,7,7c0-0.1,0-0.1,0-0.2c0.1-0.1,0.2-0.2,0.3-0.1c0,0,0.1,0,0.1,0c0.3-0.1,0.6,0,0.9,0
		c0.2,0,0.4,0.1,0.6,0c0,0,0.1,0,0.1,0c0.2,0,0.4-0.1,0.6-0.3c0.1-0.1,0.2-0.3,0.2-0.4c0-0.1,0-0.1,0-0.2c0-0.2-0.2-0.4-0.3-0.4
		C9.2,5.2,8.9,5.1,8.6,5.1c-0.1,0-0.2,0-0.3,0c-0.5,0-0.9,0-1.4-0.1C6.7,5,6.4,4.9,6.2,4.9c-0.2,0-0.4,0-0.6,0C5.5,5,5.5,5,5.4,5
		C5.3,5,5.1,5,4.9,5C4.8,5,4.6,5,4.4,5C4.3,5,4.1,5,4,4.9c0-0.1,0-0.1,0-0.2c0.1-0.1,0.2-0.2,0.3-0.2c0.1,0,0.2,0,0.3,0
		c0.2,0,0.3,0,0.5-0.1c0.2-0.1,0.5,0,0.7,0c0.3,0,0.5,0,0.8-0.1c0.1,0,0.1,0,0.2-0.1c0.1,0,0.1,0,0.2,0C7,4.2,7,4.1,7.1,4
		c0.1-0.2,0.1-0.3,0-0.5C7,3.4,7,3.2,6.8,3.1C6.7,3.1,6.7,3.1,6.6,3C6.4,3,6.3,2.9,6.1,2.9c-0.1,0-0.2,0-0.2,0
		C5.7,2.8,5.5,2.8,5.3,2.8c-0.2,0-0.3,0-0.5,0c-0.1,0-0.2,0-0.3,0c0,0,0,0,0,0c0.1-0.1,0.2-0.1,0.3-0.2C4.9,2.4,5,2.4,5.1,2.4
		c0,0,0,0,0.1,0c0.4-0.4,0.9-0.5,1.4-0.7c0,0,0,0,0,0C6.7,1.5,6.8,1.5,7,1.4c0.1,0,0.2-0.1,0.3-0.1c0,0,0.1,0,0.1,0
		c0.1-0.1,0.2-0.1,0.3-0.1c0.1,0,0.1,0,0.2-0.1C8,1,8,1,8.1,1c0.1,0,0.2,0,0.2,0c0.1,0,0.1,0,0.2,0c0,0,0.1,0,0.1,0
		c0.1,0,0.2,0,0.3,0c0,0,0.1,0,0.2,0c0,0,0.1,0,0.1,0c0,0,0.1,0,0.1,0c0,0,0.1,0,0.1,0c0.4,0.1,0.8,0,1.2,0.1c0,0,0,0,0,0
		c0.1,0,0.1,0,0.2,0.1c0.1,0,0.1,0.1,0.2,0.1c0,0,0.1,0,0.1,0c0.2,0.1,0.4,0.1,0.6,0.3c0,0,0,0,0.1,0c0.1,0.1,0.2,0.1,0.3,0.2
		c0,0,0,0,0,0c0,0.1,0.1,0.1,0.2,0.2c0,0.1,0,0.1,0.1,0.2c0.1,0.2,0.2,0.5,0.2,0.7c0,0.1,0,0.2,0,0.3c0,0,0,0,0,0c0,0.1,0,0.2,0,0.4
		c0,0.1,0,0.2,0,0.2c0,0.2,0,0.3,0,0.5c0,0,0,0,0,0.1c0,0.1,0,0.1,0,0.2c0,0,0,0.1,0,0.1c0,0.3,0,0.6,0,1c0,0.1,0,0.2,0,0.3
		c0,0.1,0,0.1,0,0.2c0,0,0,0.1,0,0.1c0,0.1,0,0.1,0,0.2c0,0,0,0.1,0,0.1c0,0.1,0,0.1,0,0.1c0,0.3,0,0.6,0,0.9c0,0.1,0,0.1,0,0.2
		c0,0.1,0,0.1,0,0.2c0,0,0,0.1,0,0.1c0,0.2,0,0.3,0,0.5c0,0.2,0,0.5,0,0.7c0,0,0,0.1,0,0.1c0,0.2,0,0.3,0,0.5c0,0.1,0,0.2,0,0.3
		c0,0.1,0,0.1,0,0.2c0,0.1,0,0.2,0,0.3c0,0.1,0,0.2,0,0.3c0,0.1-0.1,0.3-0.1,0.4c0,0,0,0.1,0,0.1c0,0.1,0,0.1,0,0.2c0,0,0,0.1,0,0.1
		c0,0.1-0.1,0.2-0.1,0.3c0,0.1,0,0.1,0,0.2c0,0.1,0,0.2-0.1,0.4c0,0.1,0,0.3,0,0.4c0,0.1,0,0.2-0.1,0.3c0,0.1,0,0.1-0.1,0.2
		c0,0.2-0.1,0.3-0.2,0.5c0,0.1-0.1,0.2-0.1,0.3c-0.1,0.2-0.2,0.4-0.3,0.6c0,0-0.1,0.1-0.1,0.1c0,0.1,0,0.1-0.1,0.2
		c-0.1,0-0.1,0.1-0.1,0.2c0,0,0,0,0,0c-0.1,0.1-0.2,0.2-0.2,0.3c0,0.1-0.1,0.1-0.1,0.2c-0.2,0.2-0.3,0.3-0.5,0.5
		c-0.2,0.2-0.5,0.4-0.8,0.6c-0.2,0.1-0.3,0.2-0.5,0.3c0,0-0.1,0.1-0.1,0.1c-0.1-0.2-0.2-0.4-0.3-0.7c-0.1-0.2-0.1-0.3-0.2-0.5
		c-0.1-0.2-0.2-0.4-0.2-0.6c-0.1-0.3-0.3-0.5-0.4-0.7C8,14.6,8,14.6,8,14.5c-0.1-0.1-0.3-0.2-0.4-0.3c-0.2,0-0.3-0.1-0.5-0.2
		c0,0-0.1,0-0.1-0.1c-0.1,0-0.2,0-0.3-0.1c0,0-0.1,0-0.1,0c-0.1,0-0.2,0-0.3,0.1c-0.1,0-0.2,0-0.3,0c-0.1,0-0.1,0-0.2,0
		c-0.1,0-0.1,0-0.2,0c-0.1,0-0.2,0-0.3,0c-0.2,0-0.4,0-0.6,0c-0.2,0-0.4-0.1-0.6-0.1c0,0,0,0,0-0.1c0.1-0.1,0.2-0.2,0.4-0.2
		c0,0,0-0.1,0.1-0.1c0.2,0,0.3,0,0.5-0.1c0.1,0,0.2,0,0.3,0c0.2,0,0.5,0,0.7,0c0.3,0,0.5,0,0.8-0.1c0.1,0,0.2-0.1,0.2-0.1
		c0.2,0,0.3-0.2,0.4-0.3c0.1-0.1,0.1-0.2,0.1-0.3c0-0.1,0-0.3,0-0.5c0-0.1,0-0.2,0.1-0.3c0-0.1,0-0.2,0-0.3c0-0.1-0.1-0.1-0.1-0.2
		c0-0.1-0.1-0.1-0.1-0.2c-0.3-0.2-0.6-0.2-0.9-0.2c0,0,0,0-0.1,0c-0.2,0-0.5,0.1-0.7,0c-0.1,0-0.1,0-0.2,0c-0.3,0-0.7,0-1,0
		c-0.1,0-0.1,0-0.2,0c-0.2,0-0.3,0-0.5,0c0,0,0,0-0.1,0c-0.1,0-0.2,0-0.4,0c-0.1,0-0.2,0-0.3,0.1c0,0.2,0,0.2,0.1,0.3
		c0.1,0.1,0.2,0.1,0.2,0.2c0.1,0.1,0.2,0.1,0.3,0.1c0,0,0.1,0,0.1,0c0.1,0,0.3,0,0.4,0c0.2,0,0.5-0.1,0.7,0c0.2,0,0.5,0,0.8,0
		c0.1,0,0.2,0,0.3,0c0.1,0,0.2,0,0.3,0c0,0,0,0,0,0c0.1,0,0.1,0.1,0.2,0.1c0.1,0.1,0.2,0.3,0.2,0.5c-0.1,0-0.2,0-0.4,0
		c0,0-0.1,0.1-0.1,0.1c-0.2,0-0.3,0-0.5,0c-0.2,0-0.4,0-0.7,0c-0.1,0-0.2,0-0.4,0c-0.1,0-0.3,0-0.4,0c-0.2,0-0.4,0-0.5,0
		c-0.2,0.1-0.4,0.2-0.5,0.2c-0.1,0-0.1,0.1-0.2,0.1c-0.1,0.2-0.1,0.3-0.1,0.5c-0.1,0.2,0,0.4,0.1,0.6c0.1,0.1,0.2,0.2,0.2,0.3
		c0.1,0,0.2,0,0.3,0c0,0,0,0.1,0.1,0.1c0.2,0,0.4,0,0.5,0c0.1,0,0.2,0.1,0.3,0.1c0.2,0,0.3,0.1,0.4,0.2c0.1,0,0.1,0.1,0.2,0.1
		c0,0,0,0.1,0,0.1c0,0.1,0,0.2,0,0.3c0,0,0,0.1,0,0.1c0,0.1,0,0.2,0,0.3c0,0.1,0,0.2-0.1,0.3c-0.2,0-0.3,0.1-0.5,0.2
		c0,0-0.1,0-0.2,0c-0.1,0.1-0.2,0.1-0.2,0.2c0,0.1-0.1,0.1-0.2,0.1c-0.2,0.1-0.4,0.2-0.6,0.4C3.1,17,3,17.2,2.9,17.5
		c0,0,0,0.1,0,0.2c0,0,0,0.1,0,0.1c0,0.1,0,0.1,0,0.2c0,0.2,0.1,0.4,0.2,0.5c0.1,0.1,0.2,0.2,0.3,0.2c0.3,0.1,0.5,0.1,0.7-0.1
		c0.1-0.1,0.1-0.2,0.1-0.3C4.1,18.2,4,18,3.9,18.1c0,0,0,0-0.1,0c0-0.1-0.1-0.1-0.1-0.2c0,0-0.1,0-0.2,0c0-0.1-0.1-0.1-0.1-0.2
		c0-0.1,0.1-0.1,0.1-0.2c0.1-0.1,0.1-0.2,0.2-0.3c0.1-0.1,0.2-0.2,0.3-0.2c0.1-0.1,0.2-0.1,0.4-0.2c0.1,0,0.2-0.1,0.3-0.1
		c0.1,0,0.1,0,0.2,0c0.1,0.2,0.1,0.4,0,0.6c-0.1,0.2-0.1,0.3-0.1,0.5c0.1,0.1,0,0.2,0,0.3c0.1,0.1,0.1,0.2,0.1,0.3
		c0,0.1,0,0.2,0,0.3c0,0.2-0.1,0.3-0.2,0.5c-0.2,0.2-0.4,0.3-0.6,0.5c-0.1,0.1-0.3,0.2-0.4,0.4c-0.1,0.1-0.1,0.3-0.2,0.5
		c-0.1,0.2-0.1,0.4,0,0.6c0.1,0.3,0.2,0.6,0.5,0.7c0.1,0,0.2,0.1,0.2,0.1c0,0,0.1,0,0.1,0c0.1,0,0.3,0,0.4,0.1
		c0.3,0,0.5-0.1,0.7-0.2c0.2-0.1,0.4-0.3,0.5-0.6c0-0.1,0.1-0.2,0.2-0.2c0.1-0.1,0.3-0.2,0.4-0.4c0.1,0,0.3,0,0.4,0
		c0,0,0,0.1,0.1,0.1c0.1,0,0.1,0,0.2,0.1c0,0.2,0.2,0.2,0.3,0.3c0.1,0.1,0.3,0.1,0.4,0c0-0.1,0.1-0.2,0.1-0.2c0-0.1,0-0.2,0-0.2
		c0-0.1,0-0.1-0.1-0.1c-0.1-0.1-0.2-0.2-0.4-0.3c-0.1,0-0.1-0.1-0.2-0.1C7,20.1,6.9,20,6.8,20c-0.1,0-0.2,0-0.3,0c0,0-0.1,0-0.1,0
		c-0.1,0-0.2,0-0.3,0.1c-0.1,0-0.2,0.1-0.3,0.1c0,0-0.1,0-0.1,0.1c-0.2,0.2-0.5,0.4-0.7,0.7c-0.1,0.2-0.3,0.3-0.5,0.4
		c-0.1,0-0.1,0.1-0.2,0c-0.1,0-0.3-0.1-0.4-0.1c0,0-0.1-0.1-0.1-0.1c-0.1-0.1-0.1-0.2-0.1-0.3c0-0.4,0.3-0.6,0.5-0.8
		c0.2-0.1,0.3-0.2,0.5-0.4c0,0,0.1-0.1,0.1-0.1c0.1,0,0.2-0.1,0.2-0.2c0.2-0.3,0.3-0.7,0.4-1c0-0.1,0.1-0.2,0.1-0.3
		c0-0.2,0.1-0.5,0-0.7c0-0.2,0-0.5,0-0.7c0,0,0,0,0-0.1c0.3-0.1,0.5,0,0.8,0c0,0,0,0,0,0c0.1,0,0.1,0.1,0.2,0.1
		C6.8,16.9,6.9,17,7,17.1c0.1,0.1,0.1,0.2,0.2,0.3c0.1,0.1,0.1,0.2,0.1,0.3c0,0.1-0.1,0.2-0.2,0.3c0,0,0,0.1-0.1,0.1
		c-0.1,0-0.1,0-0.2,0c-0.1,0-0.1,0-0.2,0c0,0,0.1,0.1,0.1,0.1c-0.1,0.1-0.1,0.1-0.2,0c-0.1,0-0.1-0.1-0.2-0.1
		C6.2,17.9,6,18,5.9,18.2C6,18.3,6,18.4,6.1,18.4c0.1,0.1,0.3,0.1,0.4,0.2c0,0,0.1,0,0.1,0c0.1,0,0.2,0.1,0.3,0.1c0,0,0,0,0,0
		c0.2,0,0.5-0.1,0.6-0.3c0.3-0.3,0.4-0.6,0.3-1c-0.1-0.3-0.2-0.5-0.3-0.8c-0.1,0-0.2-0.1-0.2-0.1c0,0-0.1-0.1-0.1-0.1
		c-0.2-0.1-0.4-0.1-0.6-0.2c-0.2,0-0.4-0.1-0.6-0.1c-0.2,0-0.3-0.1-0.4-0.1c-0.1-0.4,0-0.7,0-1c0.1-0.1,0.2-0.2,0.2-0.3
		c0.1-0.2,0.3-0.2,0.5-0.3c0.1,0,0.1,0,0.2,0c0.1,0.1,0.1,0,0.2,0c0.1,0.1,0.1,0.1,0.2,0.1c0.1,0,0.1,0.1,0.2,0.1c0,0,0,0,0,0
		c0.1,0.2,0.3,0.3,0.4,0.5c0.1,0.3,0.3,0.5,0.5,0.8c0,0,0,0.1,0.1,0.1c0.1,0.1,0.2,0.2,0.1,0.3c0,0,0,0.1,0,0.1
		c0,0.1,0.1,0.2,0.1,0.2c0,0.2,0.2,0.4,0.2,0.7c0.1,0.1,0.1,0.3,0.1,0.5c0.1,0.4,0.1,0.7,0.2,1.1c0,0.2,0.1,0.5,0.1,0.7
		c0,0.1,0,0.1,0,0.2c0,0.2,0,0.5,0,0.7c0,0.2,0,0.3,0,0.5c0,0,0,0,0,0c0,0.1-0.1,0.1-0.1,0.2c-0.1,0.3-0.2,0.6-0.3,0.9
		c-0.1,0.2-0.1,0.4,0,0.5c0,0.1,0,0.1,0,0.2c0,0.1,0.1,0.2,0.2,0.1c0,0,0.1,0,0.1-0.1c0-0.1,0.1-0.1,0.1-0.2C8.9,22.8,9,22.7,9,22.6
		c0-0.1,0-0.1,0.1-0.1c0.1-0.1,0.1-0.2,0.2-0.3c0.1-0.2,0.1-0.3,0.2-0.5c0.1-0.2,0.1-0.4,0.2-0.6c0,0,0,0,0,0
		c0.1-0.1,0.2-0.2,0.3-0.3c0.1,0,0.1-0.1,0.2-0.1c0.1,0,0.1,0,0.2,0c0.1,0,0.1,0,0.2,0c0.2,0,0.3,0.1,0.4,0.3c0,0,0.1,0,0.1,0.1
		c0,0,0,0,0,0.1c0,0,0,0,0,0.1c0,0.1-0.1,0.1-0.1,0.1c-0.1,0-0.3,0-0.4,0c-0.1,0-0.2,0-0.2,0c-0.1,0-0.1,0.1-0.2,0.1
		c-0.1,0-0.2,0.1-0.2,0.2c-0.1,0.1-0.1,0.3,0,0.5c0,0.2,0.1,0.4,0,0.6c0,0,0,0.1,0,0.1c0,0.1,0,0.1-0.1,0.2c0,0-0.1,0.1-0.1,0.1
		c0,0,0,0-0.1,0c-0.1,0-0.2,0.1-0.3,0c0,0-0.1,0-0.1,0c-0.1,0-0.2,0-0.3,0c0,0,0,0-0.1,0c-0.1,0.1-0.1,0.2,0,0.3
		c0.1,0.1,0.1,0.1,0.2,0.1c0.1,0,0.2,0,0.3,0.1c0.1,0.1,0.2,0.1,0.4,0.1c0,0,0.1,0,0.1,0c0,0,0,0,0.1,0c0,0.1,0,0.1,0,0.2
		c0,0,0,0.1,0,0.1c0,0.1,0,0.2,0,0.2c0,0.1,0,0.1,0,0.1c0,0,0,0,0,0.1c0,0.1,0,0.2,0,0.3c0,0.1,0,0.1,0,0.2c0,0.1,0,0.1,0,0.2
		c0,0,0,0.1,0,0.1c0,0.1,0,0.1,0,0.2c0,0.1,0,0.1,0,0.2c0,0,0,0.1,0,0.1c0,0.2,0,0.3,0,0.5c0,0.1,0,0.3,0,0.4c0,0.2,0,0.4,0,0.5
		c0,0,0,0.1,0,0.1c0,0.1,0,0.2,0,0.3c0,0,0,0.1,0,0.1c0,0.1,0,0.2,0,0.4c0,0,0,0.1,0,0.1c0,0.1,0,0.1,0,0.1c0,0,0,0.1,0,0.1
		c0,0,0,0.1-0.1,0.1c0,0-0.1,0.1-0.1,0.1c0,0-0.1,0.1-0.1,0.1c-0.1,0.1-0.2,0.1-0.3,0.1c-0.2,0-0.5,0-0.7-0.1c0,0-0.1,0-0.1,0
		c-0.1,0-0.2,0-0.3,0c0,0-0.1,0-0.1,0c0.1,0.2,0.1,0.5,0.1,0.7c0,0,0.1,0,0.1,0c0.1,0,0.2,0,0.3,0c0,0,0.1,0,0.1,0
		c0.1,0,0.1,0,0.1,0c0,0,0.1,0,0.1,0c0.1,0,0.2,0,0.2,0c0.1,0,0.2,0,0.2,0c0.1,0,0.2,0,0.2,0c0.1,0,0.1,0,0.2,0c0,0,0.1,0,0.1,0
		c0.1,0,0.2,0,0.3,0c0.1,0,0.2,0,0.2,0c0.1,0,0.1,0,0.2,0c0.1,0,0.1,0,0.2,0c0.2,0,0.3,0,0.5,0c0.1,0,0.2,0,0.3,0c0.1,0,0.2,0,0.3,0
		c0.1,0,0.2,0,0.3,0c0,0,0,0,0.1,0c0.1,0,0.2,0.1,0.1,0.2c0,0.1-0.1,0.1-0.1,0.2c-0.1,0.1-0.2,0.3-0.2,0.5c-0.1,0.2,0,0.4,0,0.6
		c0,0.1,0,0.2,0.1,0.3c0.1,0.1,0.2,0.1,0.3,0c0,0,0,0,0,0c0.1,0,0.1-0.1,0.2-0.2c0.1-0.1,0.1-0.2,0.2-0.3C13,31,13,31,13,30.9
		c0,0,0,0,0-0.1c0.1-0.1,0.2-0.3,0.2-0.4c0,0,0-0.1,0-0.1c0,0,0,0,0,0c0-0.1,0.1-0.3,0.1-0.4c0-0.2,0.1-0.4,0.1-0.6c0,0,0,0,0,0
		c0-0.2,0.1-0.4,0.1-0.5c0-0.1,0-0.1,0-0.2c0,0,0-0.1,0-0.1c0.1-0.1,0.1-0.2,0.2-0.3c0-0.1,0.1-0.1,0.2-0.2c0,0,0.1,0,0.1,0
		c0.1-0.1,0.2-0.1,0.3-0.1c0,0,0.1,0,0.1,0c0,0,0,0,0,0c0,0.1,0.1,0.2,0.2,0.3c0,0,0.1,0.1,0,0.1c0.1,0.1,0.1,0.3,0.1,0.4
		c0,0.1,0,0.2,0,0.3c0,0.1,0,0.2,0.1,0.3c0,0,0,0,0,0c-0.1,0.1,0,0.2,0,0.3c0.1,0.1,0,0.3,0,0.4c0,0.1,0,0.3,0,0.4c0,0,0,0,0,0
		c-0.1,0-0.2,0-0.3-0.1c-0.2,0-0.4,0.1-0.6,0.2c-0.2,0.1-0.3,0.3-0.5,0.5c-0.2,0.2-0.4,0.5-0.6,0.7c-0.1,0.1-0.2,0.2-0.3,0.3
		c-0.2,0.2-0.4,0.4-0.6,0.5c-0.1,0.1-0.1,0.1-0.2,0.1c-0.1-0.1-0.1-0.1-0.2-0.1c-0.2-0.2-0.4-0.3-0.5-0.5c-0.1-0.1-0.2-0.2-0.3-0.3
		c-0.3-0.3-0.6-0.4-1-0.4c-0.2,0-0.3,0-0.4,0.2c0,0.1-0.1,0.1-0.1,0.1c0,0-0.1,0.1-0.1,0.1c-0.2,0.3-0.3,0.6-0.5,0.9
		c-0.1,0.3-0.3,0.6-0.5,0.8c-0.1,0-0.2,0.1-0.3,0.1c-0.4,0-0.8,0-1.2,0c-0.1,0-0.1,0-0.2,0c-0.2,0-0.3,0-0.5,0c0,0,0,0-0.1,0
		c-0.2,0.1-0.4,0.1-0.6,0c0,0,0,0,0,0c0,0,0.1-0.1,0.1-0.1c0,0,0-0.1,0-0.1c0,0-0.1-0.1-0.1-0.1c0-0.2,0-0.4,0-0.6
		c0-0.2,0-0.3,0-0.5c0-0.2,0-0.4,0-0.5c0-0.2,0-0.4,0-0.6c0-0.1,0-0.1,0-0.2c0-0.1,0-0.2,0-0.3c0-0.2,0-0.4-0.1-0.7
		c0-0.2,0-0.4,0-0.7c0-0.1,0-0.1,0-0.2c0-0.2-0.1-0.4,0-0.5c-0.1-0.4-0.1-0.8,0-1.3c0-0.1,0-0.1,0-0.1c0.1-0.3,0-0.5,0.3-0.7
		c0.1,0,0.2,0.1,0.3,0.1c0.1,0,0.2,0,0.3,0c0.2-0.1,0.4-0.1,0.7,0c0.2-0.2,0.4-0.1,0.6-0.1C7.4,26.1,7.5,26,7.6,26
		c0-0.1,0-0.1-0.1-0.2c0-0.1,0-0.1,0-0.2c-0.2-0.1-0.4-0.2-0.5-0.2c-0.1,0-0.3,0.1-0.4,0.1c0,0-0.1-0.1-0.1-0.1
		c-0.2,0.1-0.4,0-0.6,0.1c-0.2,0-0.3-0.1-0.5-0.1c0-0.2,0-0.5,0-0.7c0-0.2,0-0.5,0-0.7c-0.2-0.3-0.3-0.3-0.5-0.2
		c0,0.1-0.1,0.1-0.1,0.1c0,0.2,0,0.4,0,0.5c0,0.2,0,0.3-0.1,0.5c0,0,0,0,0,0c0.1,0.3,0,0.5-0.3,0.5c-0.3,0-0.6,0-1,0
		c0,0-0.1,0-0.1,0c-0.2,0-0.3-0.1-0.5,0c0,0-0.1,0-0.1,0c-0.2,0-0.3,0-0.5,0.1c-0.1,0.1-0.1,0.1-0.2,0.2c0,0.1,0,0.1,0,0.2
		c0,0,0.1,0.1,0.1,0.1c0.1,0.1,0.2,0.1,0.3,0.2c0.1,0,0.2,0,0.3,0c0.2,0,0.4,0,0.6,0c0.1,0,0.2,0,0.4,0c0.1,0,0.2,0,0.4,0
		c0.2,0,0.3,0,0.4,0.1c0,0,0.1,0.1,0.2,0.1c0,0,0,0.1,0,0.1c0,0.2,0,0.4,0,0.7c0,0,0,0,0,0c-0.1,0.1,0,0.2,0,0.2c0,0.1,0,0.1,0,0.2
		c0,0.4-0.1,0.8-0.1,1.1c0,0.2,0,0.5,0,0.7c0,0.2,0,0.4,0,0.6c0,0.2,0,0.4,0,0.5c0,0.4,0,0.8,0,1.2c0,0.1,0,0.1,0,0.2
		c0,0.1,0,0.1,0,0.2c0,0.3,0,0.6,0.1,0.9c0,0.1,0,0.2,0,0.3c0,0,0.1,0.1,0.1,0.1c0,0,0,0.1,0,0.1c-0.1,0.1-0.3,0.1-0.4,0.1
		c-0.1,0-0.2,0-0.3,0c0,0-0.1,0-0.1,0c-0.3,0-0.5,0-0.8,0c0,0-0.1,0-0.1,0c-0.2,0-0.3,0-0.5,0c-0.1,0-0.2,0-0.2,0
		c-0.2,0-0.4,0-0.6,0.1c-0.1,0-0.2,0.1-0.2,0.1c-0.1,0-0.2,0.1-0.2,0.1c0,0,0,0,0,0.1c0,0,0,0,0,0c0,0,0,0,0,0.1c0,0,0,0.1,0,0.1
		c0,0.1,0.1,0.1,0.1,0.2c0,0.1,0,0.2,0.1,0.3c0.1,0.1,0.1,0.2,0.1,0.3c0,0.2,0.2,0.3,0.2,0.4c0.1,0.1,0.1,0.3,0.2,0.4
		c0,0.1,0.1,0.2,0.2,0.3c0,0,0,0,0,0c0.1,0.2,0.3,0.5,0.4,0.7c0,0,0,0.1,0.1,0.1c0.1,0.1,0.1,0.1,0.2,0.2c0.1,0.1,0.1,0.2,0.2,0.3
		c0,0,0.1,0.1,0.1,0.1c0.2,0.1,0.3,0.2,0.4,0.3c0.1,0.1,0.2,0.2,0.3,0.2c0,0,0,0,0,0c0,0.1,0.1,0.1,0.1,0.1c0.1,0,0.1,0.1,0.2,0.1
		c0.2,0.1,0.3,0.2,0.5,0.3C4.9,38.9,5,38.9,5.1,39c0.1,0.1,0.2,0.1,0.3,0.2c0.1,0.1,0.2,0.1,0.4,0.2c0.1,0.1,0.2,0.1,0.2,0.1
		c0,0,0.1,0,0.1,0c0.1,0,0.1,0.1,0.2,0.1c0,0,0,0,0,0c0.1,0,0.1,0,0.2,0.1c0.1,0,0.2,0.1,0.3,0.1c0.1,0,0.3,0.1,0.4,0.1
		c0,0,0.1,0,0.1,0c0.1,0,0.2,0.1,0.4,0.1c0.2,0,0.3,0,0.5,0.1c0.1,0,0.2,0,0.2,0c0.1,0,0.2,0,0.3,0c0.1,0,0.2,0,0.3,0
		c0.1,0,0.2,0,0.3,0c0.1,0,0.2,0,0.4,0c0.1,0,0.1,0,0.2,0c0.1,0,0.2,0,0.4,0c0.1,0,0.3-0.1,0.4-0.1c0.2,0,0.3,0,0.5-0.1
		c0.1-0.1,0.3-0.1,0.5-0.2c0.2,0,0.3-0.1,0.5-0.2c0,0,0.1,0,0.1-0.1c0.1,0,0.2,0,0.3-0.1c0,0,0,0,0,0c0.1,0,0.3-0.1,0.4-0.2
		c0,0,0.1-0.1,0.2-0.1c0.1-0.1,0.2-0.2,0.3-0.2c0,0,0,0,0.1-0.1c0.2-0.1,0.3-0.2,0.4-0.2c0.1,0,0.1-0.1,0.2-0.1
		c0.2-0.1,0.3-0.3,0.5-0.4c0,0,0,0,0,0c0.1-0.1,0.2-0.2,0.3-0.3c0.1-0.1,0.1-0.1,0.2-0.2c0-0.1,0.1-0.2,0.2-0.2
		c0.1-0.1,0.2-0.2,0.3-0.3c0-0.1,0.1-0.1,0.1-0.2c0-0.1,0.1-0.1,0.1-0.2c0.1-0.1,0.2-0.3,0.3-0.4c0,0,0-0.1,0-0.1
		c0-0.1,0.1-0.2,0.1-0.3c0.1-0.2,0.2-0.3,0.2-0.5c0,0,0,0,0-0.1c0.1-0.1,0.1-0.2,0.1-0.3c0,0,0-0.1,0-0.1c0.1-0.1,0.1-0.2,0.1-0.3
		c0-0.1,0.1-0.1,0.1-0.2c0-0.1,0.1-0.2,0.1-0.3c0-0.1,0-0.2,0.1-0.3c0-0.1,0.1-0.2,0.1-0.3c0-0.1,0-0.2,0.1-0.3c0,0,0-0.1,0-0.1
		c0-0.1,0-0.1,0.1-0.2c0-0.1,0-0.2,0-0.2c0,0,0,0,0-0.1c0-0.1,0-0.2,0-0.3c0-0.1,0-0.2,0-0.3c0,0,0-0.1,0-0.1c0-0.1,0-0.2,0-0.3
		c0-0.1,0-0.2,0-0.3c0-0.2,0-0.3,0-0.5c0,0,0-0.1,0-0.1c0-0.1,0-0.2,0-0.2c0-0.1,0-0.2,0-0.3c0-0.1,0-0.1,0-0.2c0.1-0.2,0-0.3,0-0.5
		c0-0.1,0-0.1,0-0.2c0-0.1,0-0.2,0-0.2c0-0.1,0-0.2,0-0.4c0-0.2,0-0.3,0-0.5c0-0.1,0-0.1,0-0.2c0,0,0-0.1,0-0.1c0-0.1,0.1-0.2,0-0.4
		c0-0.1,0-0.2,0-0.4c0-0.1,0-0.2,0-0.3c0-0.1,0-0.2,0-0.3c0-0.1,0-0.2,0-0.3c0-0.1,0-0.2,0-0.4c0-0.2,0-0.4,0-0.6c0,0,0,0,0,0
		c0-0.1,0-0.2,0-0.4c0,0,0,0,0-0.1c0-0.1,0-0.2,0-0.3c0,0,0-0.1,0-0.1c0,0,0,0,0-0.1c0-0.2,0-0.5,0-0.7c0-0.1,0-0.3,0-0.4
		c0,0,0,0,0,0c0.1-0.1,0-0.2,0-0.4c-0.1-0.1,0-0.2,0-0.4c0,0,0-0.1,0-0.1c0,0,0,0,0-0.1c0-0.2,0-0.4,0-0.6c0,0,0,0,0-0.1
		c0-0.1,0-0.1,0-0.2c0-0.1,0-0.2,0-0.4c0,0,0-0.1,0-0.1c0-0.1,0-0.2,0-0.4c0,0,0,0,0-0.1c0,0,0-0.1,0-0.1c0-0.1,0-0.1,0-0.2
		c0,0,0,0,0-0.1c0-0.1,0-0.1,0-0.2c0-0.1,0-0.1,0-0.2C17.6,19.5,17.6,19.4,17.6,19.3z M14.7,5.7c0-0.1,0-0.2,0-0.3
		c0-0.1,0.1-0.2,0-0.3c0-0.1,0.1-0.2,0.1-0.4C15,4.8,15,4.7,15,4.6c0.1-0.2,0.1-0.3,0.3-0.4c0.1,0,0.1,0,0.2,0c0,0,0.1,0.1,0.1,0.1
		c0,0,0,0,0,0c0.1,0,0.1,0.1,0.2,0.2c0,0.1,0.1,0.1,0.1,0.2c0,0.1,0.1,0.2,0.1,0.3c0.1,0.1,0.1,0.2,0.1,0.3c0,0.1,0,0.2,0.1,0.3
		c0,0.1,0,0.2,0.1,0.4c0,0.1,0,0.3,0.1,0.4c0,0,0,0,0,0.1c0,0.2,0,0.4,0.1,0.6c0,0.1,0,0.1,0,0.2c0,0.1,0,0.2,0,0.2
		c0,0.1,0,0.3,0,0.4c0,0.5,0,1,0,1.5c0,0.1,0,0.1,0,0.2c0,0.1,0,0.3,0,0.4c0,0.1,0,0.2,0,0.2c0,0,0,0,0,0.1c0,0.1,0,0.2,0,0.2
		c-0.1,0.1,0,0.2,0,0.3c0,0.1,0,0.3,0,0.4c0,0.1,0,0.2-0.1,0.3c0,0-0.1,0.1-0.1,0.1c0,0-0.1,0-0.1,0c-0.1,0-0.2-0.1-0.3-0.2
		c0,0-0.1-0.1-0.1-0.1c-0.1,0-0.1-0.1-0.2-0.2c0-0.1-0.1-0.1-0.1-0.2c-0.1-0.1-0.2-0.2-0.2-0.3c0-0.1-0.1-0.1-0.1-0.2
		c-0.1-0.3-0.2-0.6-0.2-0.9c0-0.2-0.1-0.4-0.1-0.6c0-0.2,0-0.3-0.1-0.5c0-0.1,0-0.2,0-0.3c0-0.2,0-0.4,0-0.5c0-0.1,0-0.2,0-0.3
		c0,0,0-0.1,0-0.1c0-0.2,0-0.5,0-0.7c0-0.2,0-0.4,0-0.6C14.7,5.9,14.7,5.8,14.7,5.7z M10.6,20.1c0,0-0.1,0.1-0.2,0c0,0-0.1,0-0.1,0
		c0,0-0.1,0-0.1,0c-0.1,0-0.1,0-0.1-0.1c0,0,0,0,0,0c-0.1-0.1-0.1-0.2,0-0.3c0.1-0.1,0.1-0.2,0.2-0.3c0,0,0.1,0,0.1,0
		c0.1,0.1,0.1,0.1,0.2,0.2c0,0,0,0,0,0c0,0.1,0.1,0.2,0.1,0.3C10.7,20,10.7,20,10.6,20.1z M13.2,28.1c0,0.1,0,0.2,0,0.2
		c0,0.1,0,0.2-0.1,0.3c0,0,0,0.1,0,0.1c0,0.1-0.1,0.2-0.1,0.3c-0.1,0.1-0.1,0.1-0.2,0.1c-0.1,0-0.2,0-0.3,0c0,0,0,0,0,0
		c-0.1,0-0.2,0-0.2,0c-0.1,0-0.1,0-0.2,0c0,0-0.1,0-0.1,0c-0.2,0-0.4,0-0.6,0c-0.1,0-0.2,0-0.3-0.1c-0.1-0.1-0.1-0.1-0.1-0.2
		c-0.1-0.1-0.1-0.3-0.1-0.5c0,0,0-0.1,0-0.1c0-0.2,0-0.3-0.1-0.5c0,0,0,0,0,0c0-0.2,0-0.4,0-0.7c0-0.1,0-0.2,0-0.2
		c0-0.1,0-0.2,0-0.2c0-0.2,0-0.3,0-0.5c0,0,0-0.1,0-0.1c0-0.1,0-0.1,0-0.2c0,0,0-0.1,0-0.1c0-0.2,0-0.3,0-0.5c0,0,0,0,0,0
		c0-0.1,0-0.2,0-0.4c0-0.1,0-0.3,0-0.4c0-0.1,0-0.1,0-0.2c0-0.1,0-0.2,0-0.4c0-0.1,0-0.1,0.1-0.1c0.1,0,0.2,0,0.4,0c0,0,0.1,0,0.1,0
		c0.2,0,0.4-0.1,0.5-0.1c0,0,0.1,0,0.1,0c0.1,0,0.1,0,0.1-0.1c0,0,0-0.1,0-0.1c-0.1-0.1-0.2-0.2-0.3-0.2c-0.1,0-0.3-0.1-0.4-0.1
		c0,0-0.1,0-0.1,0c-0.1,0-0.2-0.1-0.3-0.1c-0.1-0.1-0.1-0.1-0.2-0.2c0,0,0-0.1,0-0.1c0-0.2,0.1-0.3,0.2-0.5c0-0.1,0.1-0.1,0.2-0.1
		c0.1,0,0.2,0,0.4,0c0.1,0,0.2,0.1,0.3,0.1c0,0,0,0,0,0.1c0,0.1,0.1,0.2,0.2,0.3c0,0.1,0.1,0.2,0.2,0.3c0.1,0.1,0.1,0.1,0.1,0.2
		c0,0.1,0,0.2,0,0.3c0,0.1,0,0.2,0,0.3c0,0,0,0.1,0,0.1c0,0.1,0,0.2,0,0.4c0,0.1,0,0.2,0,0.3c0,0,0,0,0,0c0,0.3,0,0.5,0,0.8
		c0,0.1,0,0.3,0,0.5c0,0.1,0,0.1,0,0.2c0,0.1,0,0.2,0,0.2c0,0,0,0,0,0.1c0,0.2,0,0.2,0.1,0.4c0.1,0.2,0.2,0.4,0.3,0.6
		c0.1,0.1,0.1,0.2,0.2,0.2c0,0,0.1,0,0.1,0.1c0.1,0,0.1,0,0.2,0.1C13.1,27.8,13.2,27.9,13.2,28.1z M4.2,37.1c-0.1,0-0.2,0-0.2,0.1
		c-0.3-0.3-0.5-0.5-0.8-0.8c-0.1-0.1-0.2-0.2-0.3-0.3c0,0,0,0,0-0.1c0-0.1-0.1-0.1-0.1-0.2c0,0-0.1-0.1-0.1-0.1c0,0,0-0.1-0.1-0.1
		c0,0-0.1-0.1-0.1-0.1c0,0,0-0.1-0.1-0.1c-0.1-0.1-0.1-0.2-0.2-0.3c0-0.1-0.1-0.1-0.1-0.2c0-0.1-0.1-0.3-0.2-0.4c0,0,0,0,0,0
		c0,0,0,0,0,0c0.1,0,0.1,0.1,0.2,0.1c0.1,0,0.2,0,0.2-0.1c0.1,0,0.1,0,0.2,0c0.2,0,0.5,0,0.7,0.1c0.4,0.1,0.7,0,1.1,0
		c0.3,0,0.6,0,0.9,0c0,0,0.1,0,0.1,0c0.5,0.1,1,0.1,1.5,0c0.3,0,0.6,0,0.8,0c0,0.1-0.1,0.1-0.1,0.1c-0.2,0.2-0.4,0.5-0.6,0.7
		c0,0,0,0-0.1,0.1c-0.2,0.3-0.5,0.5-0.8,0.7c-0.2,0.1-0.4,0.3-0.6,0.4c-0.2,0.1-0.4,0.1-0.5,0.2C4.7,36.9,4.4,37,4.2,37.1z
		 M14.6,36.4C14.6,36.4,14.6,36.4,14.6,36.4c-0.1,0.2-0.3,0.4-0.5,0.5c0,0-0.1,0.1-0.1,0.1c-0.1,0.1-0.2,0.2-0.3,0.3
		c-0.1,0-0.1,0.1-0.2,0.1c-0.3,0.2-0.5,0.4-0.8,0.5c0,0,0,0,0,0c-0.2,0.1-0.3,0.2-0.5,0.3c-0.2,0.1-0.3,0.2-0.5,0.3c0,0-0.1,0-0.1,0
		c-0.1,0.1-0.2,0.2-0.4,0.3c-0.1,0-0.2,0.1-0.3,0.1c-0.1,0-0.2,0.1-0.3,0.1c-0.1,0-0.2,0-0.2,0c0,0-0.1,0-0.1,0
		c-0.1,0-0.1,0-0.2,0.1c-0.1,0-0.2,0.1-0.3,0.1c-0.1,0-0.2,0.1-0.3,0c0,0-0.1,0-0.1,0c-0.2-0.1-0.4-0.1-0.6-0.1c-0.1,0-0.2,0-0.2,0
		c0,0,0,0,0,0c-0.4,0-0.8-0.1-1.1-0.2c-0.1,0-0.1,0-0.2-0.1c0,0,0,0,0,0c-0.2,0-0.3-0.1-0.5-0.1c-0.1,0-0.1,0-0.2-0.1
		c-0.1,0-0.2,0-0.3,0c-0.1,0-0.3-0.1-0.4,0c0,0,0,0,0,0c-0.1,0-0.1-0.1-0.2-0.1C5.5,38.3,5.2,38.1,5,38c-0.1-0.1-0.1-0.1-0.2-0.2
		c0,0,0,0,0,0c0.1,0,0.1,0,0.2-0.1c0,0,0-0.1,0-0.1c0,0,0.1-0.1,0.1-0.1c0.2-0.1,0.4-0.2,0.5-0.3C5.8,37.2,5.9,37.1,6,37
		c0.1-0.1,0.2-0.2,0.3-0.2c0.1-0.1,0.2-0.1,0.2-0.2c0.1-0.1,0.2-0.2,0.4-0.3c0.2-0.1,0.4-0.3,0.6-0.5c0.1-0.2,0.3-0.3,0.4-0.5
		c0.2-0.2,0.3-0.4,0.5-0.6c0.1-0.1,0.2-0.3,0.3-0.4c0,0,0,0,0,0c0-0.1,0.1-0.1,0.2-0.2c0,0,0,0,0,0c0,0,0-0.1-0.1-0.1
		c0-0.1,0.1-0.1,0.1-0.2c0.1-0.2,0.2-0.5,0.4-0.7c0-0.1,0.1-0.1,0.1-0.2c0-0.1,0-0.1,0.1-0.2c0-0.1,0.1-0.1,0.1-0.2
		c0.1-0.2,0.2-0.3,0.3-0.4c0.3,0,0.4,0.1,0.6,0.2c0.2,0.1,0.3,0.3,0.4,0.4c0.1,0.1,0.2,0.3,0.4,0.3c0.1,0.1,0.1,0.2,0.2,0.3
		c0,0,0.1,0.1,0.1,0.1c0.1,0.1,0.2,0.3,0.4,0.4c0.1,0.2,0.3,0.3,0.4,0.4c0.3,0.3,0.5,0.5,0.8,0.8c0.3,0.2,0.5,0.4,0.8,0.6
		c0.2,0.1,0.4,0.2,0.6,0.4c0.1,0,0.1,0.1,0.1,0.1C14.7,36.2,14.7,36.3,14.6,36.4z M15.4,34c0,0.1,0,0.2,0,0.4c0,0,0,0.1,0,0.1
		c0,0.1,0,0.1,0,0.2c0,0,0,0.1,0,0.1c0,0.1,0,0.2,0,0.3c0,0.2,0,0.4-0.1,0.6c-0.2-0.1-0.4-0.2-0.5-0.4c0,0,0,0-0.1-0.1
		c-0.1-0.1-0.3-0.2-0.4-0.3c-0.1,0-0.1-0.1-0.2-0.1c-0.1-0.1-0.1-0.1-0.2-0.2c-0.1-0.1-0.3-0.2-0.4-0.4c-0.2-0.2-0.3-0.3-0.5-0.5
		c-0.1-0.1-0.1-0.2-0.2-0.3c0.1,0,0.1-0.1,0.2-0.1c0.2,0,0.3-0.1,0.5-0.3c0.1-0.2,0.3-0.3,0.4-0.5c0.1-0.1,0.2-0.3,0.3-0.4
		c0.1-0.3,0.3-0.5,0.5-0.7c0.1-0.1,0.3-0.2,0.4-0.4c0,0,0,0,0.1,0c0.1,0,0.1,0,0.2,0.1c0,0,0.1,0.1,0.1,0.1c0,0.2,0,0.5,0,0.7
		c0,0.2,0,0.4,0,0.5c0,0.1,0,0.3,0,0.4c0,0,0,0,0,0.1c0,0,0,0.2,0,0.2c0,0.1,0,0.2,0,0.4c0,0.1,0,0.1,0,0.2c0,0,0,0,0,0c0,0,0,0,0,0
		c0,0,0,0,0,0C15.3,33.8,15.4,33.9,15.4,34z M16.7,29.6c0,0,0,0.1,0,0.1c0,0.2,0,0.3,0,0.5c0,0.1,0,0.2,0,0.3c0,0.1,0,0.2,0,0.3
		c0,0,0,0.1,0,0.1c0,0,0,0.1,0,0.1c0,0,0,0.1,0,0.1c0,0,0,0,0,0.1c0,0.2-0.1,0.4-0.1,0.5c0,0.2-0.1,0.4-0.1,0.6
		c0,0.1-0.1,0.2-0.2,0.3c0,0-0.1,0-0.1,0.1c0,0-0.1,0-0.1,0c0-0.1-0.1-0.3-0.1-0.4c0-0.2-0.1-0.4-0.1-0.6c0-0.2,0-0.3-0.1-0.5
		c0,0,0,0,0-0.1c0-0.3-0.1-0.6-0.1-0.9c0-0.3,0-0.5,0-0.8c0-0.2,0-0.4,0-0.5c0-0.1,0-0.2,0-0.3c0,0,0-0.1,0-0.1c0-0.1,0-0.3,0.1-0.4
		c0,0,0-0.1,0.1-0.1c0.1-0.1,0.3-0.1,0.4-0.1c0.1,0,0.1,0.1,0.1,0.1c0,0.1,0,0.2,0.1,0.3c0,0.1,0,0.2,0.1,0.3c0,0,0,0.1,0,0.1
		c0,0.1,0,0.3,0,0.4C16.7,29.3,16.8,29.5,16.7,29.6z M16.7,15c0,0.2,0,0.3,0,0.5c0,0.2,0,0.3,0,0.5c0,0.1,0,0.1,0,0.2
		c0,0.1,0,0.1,0,0.2c0,0.1,0,0.2,0,0.2c0,0,0,0.1,0,0.1c0,0.3,0,0.5,0,0.8c0,0,0,0,0,0c0,0.1,0,0.2,0,0.4c0,0.1,0,0.1,0,0.2
		c0,0.3,0,0.6,0,0.9c0,0.2,0,0.4,0,0.5c0,0.2-0.1,0.4,0,0.5c0,0.1,0,0.1,0,0.2c0,0,0,0.1,0,0.1c0,0.1,0,0.2,0,0.4c0,0.2,0,0.4,0,0.6
		c0,0.1,0,0.3,0,0.4c0,0.2,0,0.4,0,0.6c0,0.1,0,0.1,0,0.2c0,0.2,0,0.4,0,0.6c0,0.1,0,0.2,0,0.3c0,0.1,0,0.2,0,0.3c0,0.1,0,0.3,0,0.4
		c0,0.5,0,1,0,1.5c0,0.3,0,0.7,0,1c0,0.1,0,0.2-0.1,0.3c0,0,0,0.1-0.1,0.1c-0.1,0.1-0.2,0.2-0.4,0.2c0,0-0.1,0-0.1,0
		c0,0-0.1,0-0.1,0c-0.1,0-0.2,0-0.3,0c-0.1,0-0.2,0-0.3,0c0,0,0,0-0.1,0c0,0,0,0-0.1,0c-0.1,0-0.2,0-0.3,0c-0.1,0-0.3,0-0.4,0
		c-0.1,0-0.1,0-0.2,0c-0.1,0-0.2,0-0.3,0c-0.1,0-0.3,0-0.4,0c-0.1,0-0.2-0.1-0.3-0.2c0,0-0.1-0.1-0.1-0.1c-0.1-0.1-0.1-0.2-0.2-0.3
		c0-0.1,0-0.2,0-0.3c0-0.2-0.1-0.3-0.1-0.5c0-0.1,0-0.2,0-0.3c0-0.1,0-0.1,0-0.2c0,0,0-0.1,0-0.1c0-0.4,0-0.7,0-1.1
		c0-0.1,0-0.2,0-0.3c0,0,0-0.1,0-0.1c0-0.1,0-0.1,0-0.2c0-0.1,0-0.1,0-0.2c0-0.2,0-0.4,0-0.6c0-0.1,0-0.3,0-0.4c0-0.1,0-0.1,0-0.2
		c0-0.2-0.1-0.6-0.2-0.8c0,0-0.1-0.1-0.1-0.1c0,0,0,0,0,0c0,0.1-0.1,0.1-0.1,0.2c0,0.1,0,0.2,0,0.3c0,0,0,0.1,0,0.1c0,0,0,0,0,0
		c-0.1,0-0.1-0.1-0.1-0.1c0-0.1-0.1-0.2-0.1-0.2c0-0.1-0.1-0.2-0.1-0.3c0-0.1-0.1-0.1-0.1-0.2c-0.1-0.1-0.1-0.2-0.2-0.3
		c-0.1-0.2-0.2-0.3-0.2-0.5c-0.1-0.1-0.1-0.3-0.2-0.4c0,0,0-0.1,0-0.1c-0.1-0.1-0.1-0.2-0.1-0.3c0-0.1,0-0.2-0.1-0.3
		c0-0.1-0.1-0.1-0.1-0.2c0-0.1-0.1-0.1-0.1-0.2c0-0.1-0.1-0.1-0.1-0.2c0,0-0.1,0-0.1,0c-0.1,0-0.1,0-0.2,0.1c0,0-0.1,0.1-0.1,0.1
		c-0.1,0.2-0.3,0.3-0.3,0.6c0,0,0,0,0,0c-0.1,0.1-0.1,0.3-0.2,0.4c0,0.1-0.1,0.1-0.1,0.2c0,0,0,0,0,0c0,0,0-0.1,0-0.1
		c0-0.2,0-0.4,0-0.6c0-0.3-0.1-0.5-0.1-0.8c0-0.2,0-0.4-0.1-0.7c0,0,0,0,0-0.1c0.2,0,0.4,0,0.6-0.1c0,0,0.1,0,0.1,0
		c0.1,0,0.2,0,0.2-0.1c0,0,0.1,0,0.1,0c0.1,0,0.1-0.1,0.2-0.1c0.2-0.2,0.5-0.3,0.7-0.4c0,0,0.1,0,0.1-0.1c0.1-0.1,0.2-0.1,0.3-0.2
		c0.1,0,0.2-0.1,0.2-0.1c0.1-0.1,0.1-0.1,0.2-0.2c0,0,0,0,0-0.1c0,0,0-0.1,0-0.1c0.1-0.1,0.2-0.2,0.3-0.3c0.1-0.2,0.2-0.3,0.3-0.5
		c0.1-0.1,0.2-0.3,0.3-0.4c0.1-0.1,0.1-0.3,0.2-0.4c0.1-0.1,0.1-0.3,0.1-0.5c0-0.1,0-0.1,0-0.2c0-0.1,0-0.1,0-0.2c0-0.1,0-0.2,0-0.3
		c0,0,0-0.1,0-0.1c0,0,0-0.1,0-0.1c0-0.1,0-0.3,0-0.4c0-0.1,0-0.2,0-0.3c0,0,0-0.1,0-0.1c0-0.1-0.1-0.3,0-0.4c0,0,0,0,0-0.1
		c0,0,0-0.1,0-0.1c0,0,0-0.1,0-0.1c0-0.1,0-0.1,0-0.2c0-0.2,0-0.3,0-0.5c0-0.4,0-0.7,0-1.1c0-0.1,0-0.1,0-0.2c0-0.1,0-0.1,0-0.2
		c0-0.1,0-0.1,0-0.2c0-0.1,0-0.2,0-0.3c0,0,0,0,0,0c-0.1-0.2,0-0.3,0-0.5c0-0.1,0-0.2,0-0.2c0,0,0-0.1,0-0.1c0-0.1,0-0.2,0-0.4
		c0-0.1,0-0.2,0-0.4c0,0,0-0.1,0-0.1c0-0.1,0-0.1,0-0.2c0,0,0-0.1,0-0.2c0-0.1,0-0.2,0-0.3c0-0.1,0-0.2,0-0.3c0-0.1,0-0.2-0.1-0.3
		c0,0,0-0.1,0-0.1c0,0,0-0.1,0-0.1c0-0.2,0-0.3,0-0.5c0.1-0.2,0-0.3,0.1-0.5c0,0,0,0,0,0c0-0.1,0-0.2,0-0.3c0,0,0-0.1,0-0.1
		c0-0.2,0-0.4,0-0.5c0-0.2,0.1-0.3,0.1-0.5c0-0.1,0-0.2,0.1-0.3c0,0,0,0,0-0.1c0.1,0,0.1-0.1,0.2-0.1c0,0,0.1,0,0.1,0
		C13.9,2.9,14,2.9,14,3c0,0.1,0.1,0.1,0.1,0.2c0,0.1,0.1,0.2,0.1,0.3c0,0.1,0,0.2,0,0.2c0,0.1,0,0.2,0,0.3c0,0.2,0,0.3,0,0.5
		c0,0.1,0,0.3,0,0.4c0,0.1,0,0.2,0,0.3c0,0,0,0,0,0.1c0,0.1,0,0.1,0,0.2c0,0.1,0,0.2,0,0.3c0,0.2,0,0.3,0,0.5c0,0.1,0,0.2,0,0.2
		c0,0,0,0.1,0,0.1c0,0.1,0,0.2,0,0.3c0,0.2,0,0.5,0,0.7c0,0.2,0,0.4,0,0.5c0,0,0,0.1,0,0.1c0,0.1,0,0.2,0,0.4c0,0,0,0.1,0,0.1
		c0,0.2,0.1,0.4,0.1,0.5c0,0,0,0,0,0.1c0,0.1,0.1,0.3,0.1,0.4c0,0.2,0.1,0.3,0.1,0.5c0,0.2,0.1,0.3,0.2,0.5c0,0.1,0.1,0.1,0.1,0.2
		c0.1,0.2,0.2,0.3,0.3,0.5c0.1,0.2,0.3,0.3,0.4,0.5c0,0,0.1,0,0.1,0.1c0.1,0.1,0.2,0.2,0.3,0.3c0.1,0.1,0.2,0.1,0.4,0.2
		c0.1,0.1,0.2,0.2,0.3,0.3c0,0,0,0,0,0c0,0,0,0.1,0,0.1c0,0.1,0,0.3,0,0.4c0,0,0,0.1,0,0.1c0,0.3,0,0.6,0,0.9
		C16.7,14.6,16.7,14.8,16.7,15z"/>
	<path class="st1" d="M1,22.3c0,0,0-0.1,0-0.1c0.1-0.2,0.2-0.4,0.3-0.6c0.1-0.3,0.2-0.6,0.3-0.8c0.1-0.1,0.1-0.3,0.2-0.4
		c0.1-0.2,0.1-0.3,0.2-0.5C2,19.7,2,19.5,2,19.3c0,0,0-0.1,0-0.1c0-0.2,0-0.4,0.1-0.6c0-0.1,0-0.2,0.1-0.2c0-0.2,0.1-0.4,0.1-0.6
		c0-0.1,0-0.3,0-0.4c0-0.1,0-0.2,0-0.3c0-0.2,0.1-0.3,0-0.5c0-0.2,0-0.4,0-0.6c0,0-0.1,0-0.1-0.1c0,0,0-0.1,0.1-0.1
		c0,0-0.1-0.1-0.1-0.1c0-0.1,0-0.1,0-0.1c-0.1,0-0.1-0.1-0.1-0.1c0-0.1-0.1-0.2-0.1-0.2C2,15.1,1.9,15,1.9,14.8c0,0,0-0.1,0-0.1
		c-0.1-0.1-0.1-0.2-0.1-0.3c0-0.3,0-0.5,0.1-0.7c0-0.1,0.1-0.2,0.2-0.3c0.1-0.1,0.2-0.2,0.2-0.4c0-0.1,0-0.2,0.1-0.2
		c0.1-0.2,0.1-0.4,0.1-0.6c0-0.1,0-0.2,0-0.3c0-0.2,0-0.4-0.1-0.5c-0.1-0.1-0.1-0.2-0.3-0.2c-0.1,0-0.2,0-0.2,0.1
		c0,0.1-0.1,0.1-0.1,0.2c0,0.1,0,0.1,0,0.2c-0.1,0.2,0,0.3,0,0.5c0,0.2,0,0.3,0,0.4c0,0.2-0.1,0.3-0.2,0.4c0,0-0.1,0.1-0.1,0.1
		c-0.1,0.1-0.1,0.2-0.2,0.3c0,0-0.1,0.1-0.1,0.2c0,0.2-0.1,0.3-0.1,0.4c-0.1,0.1,0,0.2,0,0.3c0,0.1,0,0.2,0,0.4
		c0.1,0,0.1,0.1,0.1,0.2c0,0.3,0,0.6,0.1,0.8c0,0.1,0,0.1,0.1,0.2c0,0,0,0.1,0,0.1c0,0.1,0,0.2,0.1,0.2c0.1,0.2,0.1,0.4,0.1,0.7
		c0,0,0,0.1,0,0.1c0.1,0.2,0,0.3,0,0.4c0,0.1,0,0.2,0,0.2c0,0.1,0,0.3,0,0.4c0,0.1,0,0.1,0,0.2c0,0,0,0,0,0c0,0-0.1,0.1-0.1,0.1
		c0,0.1,0,0.2-0.1,0.3c0,0-0.1,0.1,0,0.1c0,0.1-0.1,0.2-0.1,0.3c0,0.2,0,0.1,0,0.3c0,0.1,0,0.1-0.1,0.2c0.1,0.3,0,0.5-0.1,0.7
		c0,0.1,0,0.3-0.1,0.4c0,0,0,0.1-0.1,0.2c0,0.1-0.1,0.2-0.1,0.3c-0.1,0-0.1,0-0.1,0c0,0.1-0.1,0.1-0.1,0.2c0,0.1-0.1,0.2-0.1,0.2
		c0,0.1,0,0.1,0,0.2c-0.1,0.1-0.1,0.3-0.1,0.4c0,0.1,0,0.2-0.1,0.3c0,0-0.1,0-0.1,0.1c0,0.1,0,0.1,0.1,0.1c0.1,0,0.2,0.2,0.3,0.1
		c0.2-0.1,0.4-0.1,0.6-0.2c0,0,0-0.1,0-0.1C1,22.5,1,22.4,1,22.3z"/>
	<path class="st1" d="M9.9,2.5C9.8,2.3,9.7,2.3,9.6,2.3c0,0-0.1,0-0.1,0c-0.1,0-0.2,0-0.3,0C9,2.3,8.8,2.3,8.6,2.3
		c-0.2,0-0.5,0-0.7,0.1c-0.2,0-0.3,0.1-0.5,0.1c0.1,0.2,0.2,0.2,0.3,0.2c0.1,0,0.2,0.1,0.3,0.1c0,0,0.1,0,0.2,0
		c0.2,0.1,0.4,0.1,0.6,0.1c0.4,0,0.8,0,1.1,0c0.1-0.1,0.2-0.2,0.2-0.2C10.1,2.6,10,2.5,9.9,2.5z"/>
	<path class="st1" d="M3.7,8.1c0.1,0,0.2,0,0.2,0c0.1,0,0.3,0,0.4,0c0.1,0,0.2,0,0.3,0c0.2,0,0.5-0.1,0.7-0.1
		c0.1-0.1,0.1-0.2,0.2-0.3C5.4,7.6,5,7.5,4.8,7.5c-0.2,0-0.3,0-0.4,0c0,0-0.1,0-0.1,0c-0.2,0-0.4,0.1-0.6,0.1C3.4,7.5,3.2,7.7,3,7.7
		c0,0,0,0.1,0,0.1C3.1,7.9,3.2,7.9,3.3,8C3.4,8,3.6,8,3.7,8.1z"/>
</g>
</svg>
