<?xml version="1.0" encoding="utf-8"?>
<!-- Generator: Adobe Illustrator 23.1.0, SVG Export Plug-In . SVG Version: 6.00 Build 0)  -->
<svg version="1.1" id="圖層_1" xmlns="http://www.w3.org/2000/svg" xmlns:xlink="http://www.w3.org/1999/xlink" x="0px" y="0px"
	 viewBox="0 0 63.8 40" style="enable-background:new 0 0 63.8 40;" xml:space="preserve">
<style type="text/css">
	.st0{fill:#231815;}
	.st1{fill:#C30D23;}
</style>
<g>
	<g>
		<g>
			<path class="st0" d="M24.1,23.5c0.4,0.1,0.6,0.2,0.6,0.3c0,0,0,0.1-0.1,0.1l-0.2,0.1c-0.7,1.8-1.7,3.1-2.9,3.9l-0.1-0.1
				c0.5-0.7,1-1.5,1.5-2.6c0.3-0.7,0.4-1.4,0.4-2L24.1,23.5z M25.6,28.7v-6c0-0.9,0-1.6-0.1-2.1c0.9,0.2,1.4,0.4,1.4,0.5
				c0,0,0,0.1-0.1,0.1l-0.2,0.1v7.5c0,0.4-0.1,0.7-0.3,1c-0.2,0.2-0.6,0.3-1.2,0.4c0-0.4-0.1-0.6-0.3-0.8c-0.2-0.2-0.6-0.3-1.1-0.4
				v-0.2c0.9,0.1,1.5,0.1,1.7,0.1C25.5,29,25.6,28.9,25.6,28.7z M27.7,23.3c1.3,0.7,2.1,1.5,2.6,2.5c0.3,0.6,0.3,1.1,0.2,1.4
				c-0.1,0.3-0.3,0.4-0.6,0.3c-0.1,0-0.2-0.1-0.3-0.2c-0.1-0.6-0.3-1.3-0.7-2c-0.4-0.7-0.8-1.4-1.3-2L27.7,23.3z"/>
			<path class="st0" d="M40.1,23.8l0.2-0.3c0,0,0-0.1,0.1-0.1c0-0.1,0.1-0.1,0.1-0.1c0,0,0,0,0.1,0c0.1,0,0.2,0.1,0.5,0.3
				c0.2,0.2,0.4,0.4,0.4,0.4c-0.1,0.1-0.2,0.1-0.3,0.2v3.1c0,0,0,0-0.1,0.1c0.3,0.2,0.5,0.4,0.8,0.7c0,0.1-0.1,0.2-0.3,0.2h-4.4v0.4
				c0,0-0.1,0.1-0.2,0.2c-0.2,0.1-0.3,0.1-0.4,0.1s-0.2-0.1-0.2-0.2l0-0.2v-0.2c-1.2,0.6-2.2,1.1-3,1.5c0,0.1-0.1,0.2-0.2,0.3
				L32.5,29c0.4-0.1,0.9-0.2,1.5-0.3v-3.3h-0.5c-0.2,0-0.5,0.1-0.8,0.1L32.5,25c0.3,0,0.6,0.1,1,0.1H34v-1.3h-0.7l0-0.2
				c-0.3,0.3-0.6,0.6-0.8,0.8l-0.1-0.1c0.3-0.4,0.7-1,1-1.8c0.3-0.7,0.5-1.4,0.5-2c0.8,0.3,1.2,0.5,1.2,0.5c0,0,0,0.1-0.1,0.1
				l-0.2,0.1c0.9,0.3,1.5,0.7,1.6,1.2c0.1,0.3,0.1,0.5-0.1,0.6c-0.2,0.1-0.4,0.1-0.6,0c-0.2-0.5-0.5-1-1.1-1.5
				c-0.3,0.7-0.8,1.4-1.3,2h1.4l0.2-0.3c0.2-0.2,0.3-0.3,0.3-0.3c0.1,0,0.2,0.1,0.4,0.3c0.2,0.2,0.3,0.4,0.3,0.5
				c0,0.1-0.1,0.2-0.3,0.2h-1V25h0.2l0.2-0.3c0,0,0-0.1,0.1-0.1c0,0,0-0.1,0.1-0.1c0,0,0,0,0.1-0.1c0,0,0,0,0.1-0.1c0,0,0,0,0,0
				c0.1,0,0.2,0.1,0.4,0.3c0.2,0.2,0.3,0.4,0.3,0.5c0,0.1-0.1,0.2-0.3,0.2h-1.2v3.1c0.2,0,0.4-0.1,0.8-0.2c0.3-0.1,0.6-0.1,0.7-0.2
				v-1.9c-0.1,0.1-0.1,0.1-0.3,0.1c-0.4,0.8-0.7,1.3-0.9,1.5L35,27.8c0.2-0.8,0.3-1.5,0.2-2.1l1.1,0.4v-0.2c0-0.9,0-1.6-0.1-2.1
				c0.8,0.2,1.2,0.4,1.2,0.4c0,0,0,0-0.1,0.1l-0.2,0.1v3.5h3.3l0.3-0.4c-0.2,0.1-0.3,0.1-0.4,0.1h-0.1v-0.4h-1.7v0.3
				c0,0-0.1,0.1-0.2,0.2c-0.1,0.1-0.3,0.1-0.5,0.1c-0.1,0-0.1,0-0.1-0.1c0,0-0.1-0.1-0.1-0.1c0-0.3,0.1-0.7,0.1-1.3v-0.7
				c0-0.9,0-1.6-0.1-2.1l1,0.4H40.1z M32.8,25.9l0.1-0.1c0.6,0.5,0.9,1.1,0.9,1.6c0,0.3-0.1,0.5-0.3,0.6c-0.2,0.1-0.3,0-0.5-0.2
				C33.1,27.3,33,26.6,32.8,25.9z M35.4,30c0.5-0.2,1-0.4,1.5-0.8c0.5-0.3,0.8-0.7,1.1-1.1l0.6,0.5c0.4,0.3,0.6,0.4,0.4,0.4
				c0,0,0,0-0.1,0l-0.3,0c-0.4,0.2-0.8,0.4-1.4,0.6c-0.6,0.2-1.2,0.3-1.8,0.4L35.4,30z M37.6,21.8c1.3-0.4,2.1-0.8,2.6-1.2
				c0.6,0.6,0.9,0.9,0.7,0.9c0,0,0,0,0,0l-0.2,0C40,21.6,39,21.8,37.6,22v0.3c0,0.1,0,0.1,0.1,0.1c0.1,0,0.2,0,0.4,0h1.3
				c0.6,0,0.9,0,1.2,0c0.1,0,0.2,0,0.3-0.1c0.1-0.1,0.2-0.3,0.3-0.7h0.1l0,0.7c0.2,0.1,0.4,0.2,0.4,0.3c0,0.1-0.1,0.2-0.2,0.3
				c-0.1,0.1-0.3,0.1-0.7,0.1c-0.3,0-0.8,0-1.5,0H38c-0.5,0-0.8,0-0.9-0.1c-0.2-0.1-0.2-0.3-0.2-0.6v-0.9c0-0.4,0-0.7-0.1-1
				c0.7,0.2,1.1,0.3,1.1,0.4c0,0,0,0.1-0.1,0.1l-0.1,0.1V21.8z M40.2,24.8v-0.7h-1.7v0.7H40.2z M38.5,25.8h1.7v-0.7h-1.7V25.8z
				 M38.5,26.1v0.7h1.7v-0.7H38.5z M39.2,28.6l0.1-0.1c1.3,0.2,2.1,0.6,2.4,1c0.1,0.2,0.1,0.4-0.1,0.6c-0.2,0.2-0.4,0.2-0.6,0.1
				c-0.1,0-0.1-0.1-0.2-0.2C40.5,29.4,40,28.9,39.2,28.6z"/>
			<path class="st0" d="M47.3,23.2l0.2-0.3c0,0,0-0.1,0.1-0.1c0,0,0.1-0.1,0.1-0.1c0,0,0-0.1,0.1-0.1c0,0,0,0,0.1-0.1c0,0,0,0,0.1,0
				c0.1,0,0.2,0.1,0.5,0.4c0.3,0.2,0.4,0.4,0.4,0.5c0,0.1-0.1,0.2-0.3,0.2h-1.8c0,0.1-0.1,0.3-0.1,0.5c0.9,0.1,1.4,0.4,1.7,0.8
				c0.1,0.3,0.1,0.5,0,0.7c-0.1,0.2-0.3,0.2-0.6,0.1c-0.2-0.4-0.6-0.9-1.2-1.4c-0.4,0.9-1.3,1.5-2.6,1.9L43.7,26
				c0.7-0.3,1.1-0.7,1.4-1.1c0.3-0.4,0.5-0.9,0.6-1.4h-0.7c-0.4,0-0.8,0.1-1.2,0.1l-0.3-0.5c0.4,0,0.8,0.1,1.4,0.1h0.8
				c0-0.3,0-0.7,0.1-1.2h-0.5c-0.3,0.5-0.7,0.8-1.1,1.1L44.1,23c0.1-0.2,0.2-0.3,0.2-0.4c0.1-0.3,0.3-0.6,0.4-1.1
				c0.1-0.4,0.1-0.8,0.1-1.1c0.8,0.2,1.2,0.4,1.2,0.5c0,0,0,0.1-0.1,0.1l-0.2,0.1c-0.1,0.2-0.2,0.4-0.3,0.6h1.6l0.2-0.3
				c0.2-0.2,0.3-0.3,0.3-0.3c0.1,0,0.2,0.1,0.5,0.4c0.3,0.2,0.4,0.4,0.4,0.5c0,0.1-0.1,0.2-0.3,0.2h-1.5c0,0.5-0.1,0.9-0.1,1.2H47.3
				z M46.4,29.5v0.3c0,0.1-0.1,0.1-0.3,0.2c-0.2,0.1-0.3,0.1-0.5,0.1c-0.1,0-0.1,0-0.2-0.1c0,0-0.1-0.1-0.1-0.1c0-0.5,0.1-1,0.1-1.4
				v-0.8c0-0.8,0-1.5-0.1-2.1l1.1,0.5h3.6l0.2-0.3c0,0,0-0.1,0.1-0.1c0,0,0.1-0.1,0.1-0.1c0,0,0,0,0.1-0.1c0,0,0,0,0.1,0
				c0.1,0,0.2,0.1,0.5,0.3c0.3,0.2,0.4,0.4,0.4,0.4c-0.1,0.1-0.2,0.2-0.4,0.2v1.1c0,0.9,0,1.6,0.1,2.2c0,0.1-0.2,0.1-0.3,0.2
				c-0.2,0.1-0.4,0.1-0.5,0.1c-0.1,0-0.2-0.1-0.2-0.2c0-0.1,0-0.1,0.1-0.2v-0.2H46.4z M50.2,27.6v-1.2h-3.8v1.2H50.2z M46.4,27.9
				v1.3h3.8v-1.3H46.4z M49.7,24.7v0.2c0,0,0,0.1,0,0.1c0,0,0,0.1,0,0.1c0,0,0,0.1,0,0.1c0,0.1-0.1,0.2-0.3,0.2
				c-0.2,0.1-0.3,0.1-0.5,0.1c-0.1,0-0.1,0-0.2-0.1c0,0-0.1-0.1-0.1-0.1c0-0.3,0.1-0.7,0.1-1.3v-0.8c0-0.9,0-1.6-0.1-2.1l1.1,0.5
				h1.5l0.2-0.2c0,0,0-0.1,0.1-0.1c0,0,0.1-0.1,0.1-0.1c0,0,0,0,0.1-0.1c0,0,0,0,0.1,0c0.1,0,0.2,0.1,0.5,0.3
				c0.3,0.2,0.4,0.4,0.4,0.4c-0.1,0.1-0.2,0.2-0.4,0.2v1c0,0.8,0,1.5,0.1,1.9c0,0.1-0.2,0.1-0.3,0.2c-0.2,0.1-0.3,0.1-0.5,0.1
				c-0.1,0-0.2-0.1-0.2-0.2l0-0.2v-0.2H49.7z M49.7,22v2.5h1.7V22H49.7z"/>
			<path class="st0" d="M56.3,22.7c0.2,0,0.5,0,1-0.1s0.7,0,0.9-0.1c-0.2-0.3-0.4-0.6-0.7-0.9l0.1-0.1c0.9,0.3,1.5,0.6,1.7,1.2
				c0.1,0.3,0.1,0.6,0,0.8c-0.2,0.2-0.4,0.2-0.6,0.1c0,0,0,0-0.1-0.1c0-0.2-0.1-0.4-0.3-0.7c-0.7,0.2-1.7,0.5-3.1,0.8
				c0,0.1-0.1,0.2-0.3,0.2l-0.4-1.1c0.4,0,0.8,0,1.3,0c0.2-0.9,0.4-1.7,0.4-2.2c0.9,0.2,1.4,0.4,1.4,0.5c0,0,0,0.1-0.1,0.1l-0.2,0.1
				C57.1,21.7,56.7,22.2,56.3,22.7z M57.7,30.2c0-0.3-0.1-0.6-0.2-0.7c-0.1-0.1-0.3-0.2-0.6-0.3V29c0.4,0,0.7,0.1,0.8,0.1
				c0.1,0,0.2-0.1,0.2-0.2v-1.3h-1.7v0.8c0,0.6,0,1.1,0.1,1.5c0,0.1-0.1,0.2-0.3,0.2c-0.2,0.1-0.3,0.1-0.5,0.1c-0.1,0-0.1,0-0.2-0.1
				c-0.1,0-0.1-0.1-0.1-0.1c0.1-1.1,0.1-2,0.1-2.6v-1.4c0-0.8,0-1.5-0.1-2.1l1.1,0.5h1.5L58,24c0.1-0.2,0.2-0.3,0.3-0.3
				c0.1,0,0.2,0.1,0.5,0.3c0.3,0.2,0.4,0.4,0.4,0.5c-0.1,0.1-0.2,0.2-0.4,0.2V29c0,0.4-0.1,0.7-0.2,0.9C58.5,30,58.2,30.1,57.7,30.2
				z M57.9,25.7v-1.2h-1.7v1.2H57.9z M56.3,26v1.2h1.7V26H56.3z M60.8,22.6c0.8-0.4,1.4-0.9,1.9-1.4c0.6,0.4,0.9,0.7,0.9,0.8
				c0,0,0,0.1-0.2,0.1l-0.3,0c-0.8,0.4-1.6,0.6-2.3,0.8V24c0,0.1,0,0.1,0.1,0.2c0,0,0.1,0,0.3,0h0.8c0.4,0,0.7,0,0.7,0
				c0.1,0,0.2,0,0.2-0.1c0.1-0.2,0.2-0.5,0.4-1.1h0.1l0,1.1c0.2,0.1,0.3,0.2,0.3,0.4c0,0.2-0.1,0.4-0.4,0.5
				c-0.3,0.1-0.7,0.1-1.5,0.1h-1c-0.4,0-0.7-0.1-0.9-0.2c-0.1-0.1-0.2-0.4-0.2-0.7v-1.8c0-0.8,0-1.4-0.1-1.8
				c0.8,0.2,1.3,0.4,1.3,0.5c0,0,0,0.1-0.1,0.1l-0.2,0.1V22.6z M60.8,27.4c0.8-0.5,1.4-1,1.9-1.6c0.6,0.4,0.9,0.7,0.9,0.8
				c0,0-0.1,0.1-0.2,0.1h-0.3c-0.7,0.4-1.5,0.7-2.4,1v1.2c0,0.1,0,0.1,0.1,0.2c0,0,0.1,0,0.3,0H62c0.4,0,0.7,0,0.8,0
				c0.1,0,0.2,0,0.2-0.1c0.1-0.1,0.2-0.5,0.4-1.2h0.1l0,1.2c0.2,0.1,0.3,0.2,0.3,0.4c0,0.2-0.1,0.4-0.4,0.5
				c-0.3,0.1-0.8,0.1-1.5,0.1h-1c-0.4,0-0.7-0.1-0.9-0.2c-0.1-0.1-0.2-0.4-0.2-0.7v-1.8c0-0.8,0-1.4-0.1-1.9
				c0.8,0.2,1.3,0.4,1.3,0.5c0,0,0,0.1-0.1,0.1L60.8,26V27.4z"/>
		</g>
		<g>
			<g>
				<path class="st0" d="M23.2,33.4h-0.7c0,0.3,0,0.7,0,1.2v0.2c0,0.5,0,1,0,1.2l0.4,0v0.1h-1.4v-0.1l0.5,0c0-0.3,0-0.7,0-1.2v-0.2
					c0-0.6,0-1,0-1.2h-0.7l-0.2,0.6H21l0-0.8h2.5l0,0.8h-0.2L23.2,33.4z"/>
				<path class="st0" d="M25.3,36.3c-0.3,0-0.6-0.1-0.8-0.3c-0.2-0.2-0.3-0.5-0.3-0.8c0-0.4,0.1-0.6,0.3-0.8
					c0.2-0.2,0.5-0.3,0.8-0.3c0.3,0,0.5,0.1,0.8,0.3c0.2,0.2,0.3,0.5,0.3,0.8c0,0.4-0.1,0.6-0.3,0.8C25.9,36.2,25.6,36.3,25.3,36.3z
					 M25.3,36.2c0.2,0,0.3-0.1,0.4-0.2c0.1-0.2,0.2-0.4,0.2-0.7c0-0.3-0.1-0.6-0.2-0.7c-0.1-0.2-0.2-0.3-0.4-0.3
					c-0.2,0-0.3,0.1-0.4,0.3c-0.1,0.2-0.2,0.4-0.2,0.7c0,0.3,0.1,0.6,0.2,0.7C25,36.1,25.1,36.2,25.3,36.2z"/>
				<path class="st0" d="M30.7,34.1v0.1l-0.3,0l-0.7,2h-0.2c-0.3-0.8-0.5-1.4-0.6-1.7l-0.6,1.7h-0.2l-0.7-2l-0.2,0v-0.1h1.1v0.1
					l-0.3,0l0.5,1.5l0.5-1.5l-0.3,0v-0.1h1v0.1l-0.3,0l0.5,1.5l0.4-1.5l-0.4-0.1v-0.1H30.7z"/>
				<path class="st0" d="M33.8,36.1l0.3,0v0.1H33v-0.1l0.3,0c0-0.3,0-0.6,0-0.8v-0.5c0-0.2,0-0.3-0.1-0.4c-0.1-0.1-0.1-0.1-0.3-0.1
					c-0.2,0-0.4,0.1-0.6,0.3v0.7c0,0.1,0,0.3,0,0.8l0.3,0v0.1h-1.1v-0.1l0.3,0c0-0.2,0-0.5,0-0.8v-0.3c0-0.2,0-0.4,0-0.6l-0.3,0
					v-0.1l0.7-0.2l0.1,0l0,0.4c0.2-0.3,0.5-0.4,0.8-0.4c0.4,0,0.6,0.3,0.6,0.8v0.5C33.8,35.5,33.8,35.8,33.8,36.1z"/>
				<path class="st0" d="M36.4,33.4l-0.4,0c0,0.3,0,0.7,0,1.2v0.2c0,0.5,0,1,0,1.2l0.4,0v0.1h-1.3v-0.1l0.4,0c0-0.3,0-0.7,0-1.2
					v-0.2c0-0.6,0-1,0-1.2l-0.4,0v-0.1h1.3V33.4z"/>
				<path class="st0" d="M39.6,36.1l0.3,0v0.1h-1.1v-0.1l0.3,0c0-0.3,0-0.6,0-0.8v-0.5c0-0.2,0-0.3-0.1-0.4
					c-0.1-0.1-0.1-0.1-0.3-0.1c-0.2,0-0.4,0.1-0.6,0.3v0.7c0,0.1,0,0.3,0,0.8l0.3,0v0.1h-1.1v-0.1l0.3,0c0-0.2,0-0.5,0-0.8v-0.3
					c0-0.2,0-0.4,0-0.6l-0.3,0v-0.1l0.7-0.2l0.1,0l0,0.4c0.2-0.3,0.5-0.4,0.8-0.4c0.4,0,0.6,0.3,0.6,0.8v0.5
					C39.6,35.5,39.6,35.8,39.6,36.1z"/>
				<path class="st0" d="M42.2,36L42.2,36c0,0.3-0.2,0.4-0.5,0.4c-0.4,0-0.5-0.2-0.5-0.6c0,0,0-0.1,0-0.2c0-0.1,0-0.2,0-0.2v-1.1
					h-0.4v-0.1l0.4,0l0.1-0.6h0.3l0,0.6h0.6v0.2h-0.6v1.5c0,0.2,0.1,0.3,0.3,0.3C42,36.1,42.1,36.1,42.2,36z"/>
				<path class="st0" d="M45.1,35.2h-1.4c0,0.3,0.1,0.5,0.2,0.7c0.1,0.2,0.3,0.2,0.5,0.2c0.3,0,0.5-0.1,0.6-0.3l0.1,0.1
					c-0.1,0.2-0.2,0.3-0.3,0.4c-0.1,0.1-0.3,0.1-0.5,0.1c-0.3,0-0.6-0.1-0.8-0.3c-0.2-0.2-0.3-0.5-0.3-0.8c0-0.3,0.1-0.6,0.3-0.8
					c0.2-0.2,0.5-0.3,0.8-0.3c0.3,0,0.5,0.1,0.6,0.2c0.2,0.2,0.2,0.4,0.2,0.6C45.1,35,45.1,35.1,45.1,35.2z M43.6,35h0.8
					c0.1,0,0.1,0,0.2-0.1c0,0,0.1-0.1,0.1-0.2c0-0.2,0-0.3-0.1-0.4c-0.1-0.1-0.2-0.2-0.3-0.2c-0.1,0-0.3,0.1-0.4,0.2
					C43.7,34.6,43.6,34.8,43.6,35z"/>
				<path class="st0" d="M46.9,36.1l0.3,0v0.1h-1.1v-0.1l0.3,0c0-0.3,0-0.6,0-0.8v-2.1l-0.4,0v-0.1l0.7-0.2l0.1,0l0,0.6v1.7
					C46.8,35.5,46.8,35.8,46.9,36.1z"/>
				<path class="st0" d="M48.9,36.1l0.3,0v0.1h-1.1v-0.1l0.3,0c0-0.3,0-0.6,0-0.8v-2.1l-0.4,0v-0.1l0.7-0.2l0.1,0l0,0.6v1.7
					C48.9,35.5,48.9,35.8,48.9,36.1z"/>
				<path class="st0" d="M51,36.1l0.3,0v0.1h-1.1v-0.1l0.3,0c0-0.3,0-0.6,0-0.8v-0.3c0-0.2,0-0.4,0-0.6l-0.3,0v-0.1L51,34l0.1,0
					l0,0.6v0.6C51,35.5,51,35.8,51,36.1z M50.8,33.5c-0.1,0-0.2,0-0.2-0.1c-0.1-0.1-0.1-0.1-0.1-0.2c0-0.1,0-0.2,0.1-0.2
					c0.1-0.1,0.1-0.1,0.2-0.1c0.1,0,0.2,0,0.2,0.1c0.1,0.1,0.1,0.1,0.1,0.2c0,0.1,0,0.2-0.1,0.2C51,33.5,50.9,33.5,50.8,33.5z"/>
				<path class="st0" d="M54.5,34.1v0.3l-0.5,0c0.1,0.1,0.1,0.3,0.1,0.4c0,0.2-0.1,0.4-0.2,0.6c-0.2,0.1-0.4,0.2-0.6,0.2
					c-0.1,0-0.3,0-0.4-0.1c-0.1,0.1-0.1,0.2-0.1,0.3c0,0.1,0,0.1,0.1,0.2c0,0,0.1,0.1,0.2,0.1h0.6c0.5,0,0.8,0.2,0.8,0.6
					c0,0.2-0.1,0.4-0.3,0.6c-0.2,0.2-0.5,0.2-0.9,0.2c-0.3,0-0.6-0.1-0.7-0.2c-0.2-0.1-0.2-0.2-0.2-0.4c0-0.2,0.1-0.4,0.4-0.5
					c-0.2-0.1-0.3-0.2-0.3-0.4c0-0.2,0.1-0.3,0.3-0.5c-0.2-0.1-0.4-0.3-0.4-0.6c0-0.2,0.1-0.4,0.2-0.5c0.2-0.1,0.4-0.2,0.6-0.2
					c0.3,0,0.5,0.1,0.6,0.2L54.5,34.1L54.5,34.1z M53.6,36.4h-0.5c-0.1,0-0.2,0-0.3,0c-0.1,0.1-0.2,0.3-0.2,0.4
					c0,0.1,0.1,0.3,0.2,0.3c0.1,0.1,0.3,0.1,0.4,0.1c0.3,0,0.4,0,0.6-0.1c0.1-0.1,0.2-0.2,0.2-0.3c0-0.1,0-0.2-0.1-0.3
					C53.9,36.4,53.8,36.4,53.6,36.4z M53.3,35.4c0.1,0,0.2-0.1,0.3-0.2c0.1-0.1,0.1-0.3,0.1-0.4c0-0.2,0-0.3-0.1-0.4
					c-0.1-0.1-0.2-0.2-0.3-0.2c-0.1,0-0.2,0.1-0.3,0.2c-0.1,0.1-0.1,0.3-0.1,0.4c0,0.2,0,0.3,0.1,0.4C53,35.4,53.1,35.4,53.3,35.4z"
					/>
				<path class="st0" d="M57.3,35.2h-1.4c0,0.3,0.1,0.5,0.2,0.7c0.1,0.2,0.3,0.2,0.5,0.2c0.3,0,0.5-0.1,0.6-0.3l0.1,0.1
					c-0.1,0.2-0.2,0.3-0.3,0.4c-0.1,0.1-0.3,0.1-0.5,0.1c-0.3,0-0.6-0.1-0.8-0.3c-0.2-0.2-0.3-0.5-0.3-0.8c0-0.3,0.1-0.6,0.3-0.8
					c0.2-0.2,0.5-0.3,0.8-0.3c0.3,0,0.5,0.1,0.6,0.2c0.2,0.2,0.2,0.4,0.2,0.6C57.3,35,57.3,35.1,57.3,35.2z M55.9,35h0.8
					c0.1,0,0.1,0,0.2-0.1c0,0,0.1-0.1,0.1-0.2c0-0.2,0-0.3-0.1-0.4c-0.1-0.1-0.2-0.2-0.3-0.2c-0.1,0-0.3,0.1-0.4,0.2
					C55.9,34.6,55.9,34.8,55.9,35z"/>
				<path class="st0" d="M60.6,36.1l0.3,0v0.1h-1.1v-0.1l0.3,0c0-0.3,0-0.6,0-0.8v-0.5c0-0.2,0-0.3-0.1-0.4
					c-0.1-0.1-0.1-0.1-0.3-0.1c-0.2,0-0.4,0.1-0.6,0.3v0.7c0,0.1,0,0.3,0,0.8l0.3,0v0.1h-1.1v-0.1l0.3,0c0-0.2,0-0.5,0-0.8v-0.3
					c0-0.2,0-0.4,0-0.6l-0.3,0v-0.1l0.7-0.2l0.1,0l0,0.4c0.2-0.3,0.5-0.4,0.8-0.4c0.4,0,0.6,0.3,0.6,0.8v0.5
					C60.5,35.5,60.5,35.8,60.6,36.1z"/>
				<path class="st0" d="M63.1,36L63.1,36c0,0.3-0.2,0.4-0.5,0.4c-0.4,0-0.5-0.2-0.5-0.6c0,0,0-0.1,0-0.2c0-0.1,0-0.2,0-0.2v-1.1
					h-0.4v-0.1l0.4,0l0.1-0.6h0.3l0,0.6h0.6v0.2h-0.6v1.5c0,0.2,0.1,0.3,0.3,0.3C62.9,36.1,63,36.1,63.1,36z"/>
			</g>
		</g>
	</g>
	<g>
		<path class="st1" d="M1.5,18.4c0,0.2,0,0.5-0.1,0.7c0,0.1,0,0.3,0,0.4c0,0.1,0,0.3,0,0.4c0,0,0,0.1,0,0.1c0,0.2,0.1,0.3,0.1,0.5
			c0,0.1,0,0.1,0.1,0.2c0,0.1,0.1,0.3,0.2,0.4c0.1,0.2,0.2,0.4,0.3,0.6c0.1,0.1,0.2,0.3,0.3,0.4c0,0,0,0,0,0c0,0.1,0.1,0.1,0.1,0.1
			c0.1,0,0.1,0.1,0.2,0.1c0.2,0.1,0.3,0.1,0.5,0.2c0.3,0.1,0.7,0.1,1,0.1c0,0,0.1,0,0.1,0c0.2,0,0.3,0,0.5,0c0.1,0,0.1,0,0.2,0
			c0.1,0,0.2,0,0.2,0c0.1-0.1,0.2-0.1,0.4-0.1c0.1,0,0.2,0,0.2-0.1c0.2-0.1,0.4-0.1,0.5-0.3c0,0,0,0,0,0c0.1-0.1,0.3-0.2,0.3-0.4
			c0-0.1,0.1-0.3,0.1-0.4c0,0,0,0,0,0C6.9,21.1,7,21,7,20.9c0-0.1,0-0.1,0-0.2c0-0.1,0-0.1,0-0.2c0-0.2,0-0.3,0-0.5c0,0,0,0,0,0
			c0-0.2,0-0.4,0-0.5c0-0.1,0-0.3,0-0.4c0-0.1,0-0.2,0-0.2c0-0.1,0-0.2,0-0.2c0-0.1,0-0.1,0-0.2c0-0.1,0-0.3-0.1-0.4
			c0-0.1,0-0.1,0-0.2c0-0.1,0-0.1,0-0.2c0,0,0-0.1,0-0.1c-0.1-0.2-0.1-0.4-0.2-0.5c0-0.1,0-0.1-0.1-0.2c0,0,0,0,0-0.1
			c0-0.1-0.1-0.2-0.1-0.2c0,0-0.1,0-0.1,0c0,0,0,0.1,0,0.1c0,0.1,0,0.1,0,0.2c0,0,0,0,0,0c0,0,0,0.1,0,0.1c0,0.3,0,0.4-0.2,0.7
			c0,0.1-0.1,0.1-0.1,0.1c0,0-0.1,0-0.1,0c-0.1,0-0.2-0.1-0.4-0.1c-0.2-0.1-0.4-0.2-0.6-0.4c0,0-0.1-0.1-0.1-0.1
			c-0.1,0-0.1-0.1-0.1-0.1c0-0.1-0.1-0.2-0.1-0.3c0-0.2,0-0.4-0.1-0.6c0,0-0.1-0.1-0.1-0.1c-0.1,0-0.1,0-0.1,0.1c0,0.1,0,0.1,0,0.2
			c0,0.1,0,0.2,0,0.2c0,0.2-0.1,0.3-0.2,0.5c-0.1,0.1-0.2,0.2-0.3,0.3c-0.1,0.1-0.2,0.1-0.2,0.2c-0.1,0.1-0.1,0.1-0.2,0.1
			c-0.1,0-0.1,0-0.2,0.1c-0.1,0.1-0.3,0.1-0.5,0.1c-0.2,0-0.3-0.1-0.4-0.2c0-0.1,0-0.1-0.1-0.2c0-0.1-0.1-0.2-0.1-0.3c0,0,0,0,0-0.1
			c0-0.1,0-0.2-0.1-0.3c0-0.1,0-0.2,0-0.2c0-0.1,0-0.1-0.1-0.1c-0.1,0-0.1,0-0.1,0.1c0,0,0,0-0.1,0.1c0,0.2-0.1,0.3-0.1,0.5
			c0,0.2,0,0.5,0,0.7c0,0.1-0.1,0.3-0.1,0.4c0,0,0,0,0,0C1.5,18.2,1.5,18.3,1.5,18.4z M2.6,19c0.1-0.1,0.2-0.2,0.3-0.3
			c0.1,0,0.1-0.1,0.2-0.2c0.1-0.1,0.3-0.2,0.4-0.3c0,0,0.1,0,0.1-0.1C3.8,18,4,17.8,4.2,17.6c0.1-0.1,0.1-0.1,0.2-0.2
			c0,0,0.1,0,0.1,0c0.1,0.1,0.2,0.1,0.3,0.2c0.1,0.1,0.2,0.1,0.2,0.2C5.1,17.9,5.2,18,5.3,18c0.2,0.1,0.3,0.1,0.5,0.2
			c0.1,0,0.1,0.1,0.1,0.1C6,18.3,6,18.4,6.1,18.5c0.1,0.1,0.1,0.2,0.1,0.3c0,0,0,0.1,0,0.1c0,0,0,0,0,0c0,0,0,0.1,0,0.1
			c0,0.1,0,0.2-0.1,0.4c0,0-0.1,0.1-0.1,0.1c0,0,0,0-0.1,0c-0.1,0-0.2,0-0.3,0c-0.1,0-0.3,0-0.4,0c0,0-0.1,0-0.1,0
			c-0.1,0-0.2,0-0.3,0c-0.1,0-0.3,0-0.4,0c0,0-0.1,0-0.1,0c-0.2,0-0.3,0-0.4,0c0,0,0,0-0.1,0c-0.1,0-0.2,0-0.3,0c-0.1,0-0.2,0-0.2,0
			c0,0-0.1,0-0.1,0c0,0-0.1,0-0.1,0c-0.1,0-0.1,0-0.2,0c-0.1,0-0.1,0-0.2,0c0,0-0.1,0-0.1,0c0,0,0,0,0-0.1c-0.1,0-0.1-0.1-0.1-0.2
			C2.5,19.2,2.5,19.1,2.6,19z M2.6,20.4c0.1-0.1,0.2-0.2,0.3-0.2c0,0,0.1,0,0.1,0c0.2,0,0.3,0,0.5,0c0,0,0.1,0,0.1,0
			c0.1,0,0.2,0,0.3,0c0,0,0.1,0,0.1,0c0.1,0,0.2,0,0.3,0c0.2,0,0.3,0,0.5,0c0,0,0,0,0.1,0c0.1,0,0.2,0,0.3,0c0.1,0,0.2,0,0.4,0
			c0,0,0.1,0,0.1,0c0.1,0,0.1,0,0.2,0c0.1,0,0.2,0.1,0.2,0.3c0,0.1,0,0.1,0,0.2c0,0.1,0,0.2,0,0.3c0,0,0,0.1,0,0.1
			c0,0.1,0,0.2-0.1,0.3C6,21.3,6,21.4,5.9,21.4c0,0,0,0,0,0.1c-0.1,0.1-0.2,0.2-0.3,0.3c-0.1,0-0.1,0.1-0.2,0.1
			c-0.1,0-0.1,0-0.2,0.1c-0.1,0-0.1,0-0.2,0c0,0-0.1,0-0.1,0C4.7,22,4.6,22,4.4,22c0,0-0.1,0-0.1,0c-0.1,0-0.1,0-0.2,0
			C4,22,4,22,3.9,21.9c-0.1,0-0.1-0.1-0.2,0c0,0,0,0-0.1,0c-0.2-0.1-0.4-0.2-0.6-0.3c-0.1-0.1-0.1-0.1-0.2-0.2
			c-0.1-0.2-0.2-0.3-0.2-0.5c0-0.1,0-0.1-0.1-0.2C2.5,20.6,2.5,20.5,2.6,20.4z"/>
		<path class="st1" d="M4.9,10.9c0-0.1,0-0.1,0-0.2c0-0.1,0-0.1,0-0.2c0,0,0,0,0-0.1c0,0,0-0.1-0.1-0.1c0,0-0.1,0-0.1,0.1
			c0,0.1,0,0.1,0,0.2c0,0.1-0.1,0.2-0.1,0.2c0,0,0,0.1,0,0.1c0,0.1,0,0.3-0.1,0.4c0,0.1,0,0.1,0,0.2c0,0,0,0.1,0,0.1
			c0,0.1,0,0.2-0.1,0.3c0,0.1-0.1,0.1-0.1,0.1c-0.1,0-0.3,0-0.4,0c-0.1,0-0.2,0-0.3,0c0,0-0.1,0-0.1,0c-0.1,0-0.1,0.1-0.1,0.2
			c0,0.1,0,0.1,0.1,0.1c0.1,0.1,0.3,0.2,0.4,0.2c0.1,0,0.1,0,0.1,0.1c0,0,0.1,0.1,0.1,0.1c0,0.1,0.1,0.1,0,0.2c0,0.1,0,0.1,0,0.2
			c0,0.1,0,0.1,0,0.2c0,0.1,0,0.2,0,0.3c0,0.1,0,0.2,0,0.2c0,0.1,0,0.2,0,0.3c0,0.1,0,0.2,0.1,0.4c0,0.2,0.1,0.3,0.2,0.5
			c0,0,0,0,0.1,0.1c0.1,0.1,0.2,0.2,0.3,0.3c0,0,0,0,0.1,0.1c0,0,0.1,0,0.1,0c0.1,0,0.2,0.1,0.3,0.1c0.1,0,0.2,0.1,0.3,0.1
			c0.2,0,0.4,0.1,0.6,0c0.1,0,0.3,0,0.4,0c0.1,0,0.3,0,0.4-0.1c0,0,0.1,0,0.1,0c0.1,0,0.1,0,0.2-0.1c0.1-0.1,0.2-0.1,0.2-0.2
			c0,0,0.1-0.1,0.1-0.1c0-0.1,0.1-0.1,0.1-0.2c0-0.1,0.1-0.3,0.1-0.4c0-0.2,0.1-0.3,0.1-0.5c0,0,0,0,0-0.1c0,0,0-0.1,0-0.1
			c0-0.2,0-0.4,0-0.6c0,0,0-0.1,0-0.1c0-0.1,0.1-0.1,0.1-0.2c0.1,0,0.1,0,0.2,0c0.2,0,0.4-0.1,0.6-0.2c0,0,0,0,0.1,0
			c0.3,0,0.5-0.2,0.7-0.3c0,0,0,0,0,0c0.1,0,0.2-0.1,0.3-0.1c0,0,0.1,0,0.1-0.1C9.9,12.1,10,12,10,11.9c0-0.1,0.1-0.1,0.1-0.2
			c0,0,0.1-0.1,0.1-0.1c0,0,0-0.1,0-0.1c0.1-0.1,0.1-0.2,0.1-0.3c0,0,0,0,0-0.1c0-0.1,0.1-0.3,0.1-0.4c0-0.1,0.1-0.3,0.1-0.4
			c0-0.1,0.1-0.2,0.1-0.3c0-0.2,0-0.3,0.1-0.5c0-0.1,0-0.2,0-0.2c0-0.1,0-0.2,0-0.3c0-0.1,0-0.1,0-0.2c0-0.1,0-0.3,0-0.4
			c0-0.1,0-0.2,0-0.3c0,0,0-0.1,0-0.1c0-0.1,0-0.1,0-0.2c0-0.1,0-0.1,0-0.2c0,0,0-0.1,0-0.1c0-0.2,0-0.3,0-0.5c0,0,0-0.1,0-0.1
			c0-0.1,0-0.3,0-0.4c0-0.1,0-0.3,0-0.4c0,0,0-0.1,0-0.1c0-0.1,0-0.2,0-0.3c0,0,0-0.1,0-0.1c0-0.2,0-0.3-0.1-0.5
			c0-0.1,0-0.3-0.1-0.4c0-0.1,0-0.2-0.1-0.4c0-0.1,0-0.2,0-0.3c0-0.1,0-0.2,0-0.3c0-0.1,0-0.2-0.1-0.3c0-0.2,0-0.3-0.1-0.5
			c0-0.1,0-0.2-0.1-0.3c0,0,0-0.1-0.1,0c0,0-0.1,0-0.1,0.1c0,0.1-0.1,0.2,0,0.3c0,0.1,0,0.2,0,0.3c0,0.1,0,0.2,0,0.3
			c0,0,0,0.1,0,0.1c0,0.1,0,0.2,0,0.4c0,0.1,0,0.1,0,0.2c0,0.1,0,0.1,0,0.2c0,0,0,0,0,0c0,0.1,0,0.2,0,0.3c0,0.1,0,0.3,0,0.4
			c0,0.1,0,0.2,0,0.3c0,0.1,0,0.1,0,0.2c0,0.1,0,0.1,0,0.2c0,0,0,0,0,0.1c0,0.1,0,0.1,0,0.2c0,0,0,0.1,0,0.1c0,0.2,0,0.3,0,0.5
			c0,0.1,0,0.1,0,0.2c0,0.1,0,0.1,0,0.2c0,0.1,0,0.1,0,0.2c0,0.2,0,0.4,0,0.6c0,0.1,0,0.2,0,0.3c0,0,0,0,0,0c0,0,0.1,0.1,0,0.1
			c0,0,0,0,0,0.1c0,0.1-0.1,0.3-0.1,0.4c0,0.1,0,0.3-0.1,0.4c0,0.1,0,0.2-0.1,0.3c0,0,0,0,0,0c0,0.2-0.1,0.3-0.1,0.5
			c0,0,0,0.1,0,0.1c0,0.2-0.1,0.4-0.2,0.6c-0.1,0.1-0.2,0.3-0.3,0.3c0,0,0,0.1-0.1,0.1c0,0.1-0.1,0.1-0.1,0.2c0,0-0.1,0.1-0.1,0.1
			c-0.1,0.1-0.2,0.2-0.3,0.3c0,0,0,0,0,0c-0.1,0.1-0.2,0.2-0.3,0.3c0,0-0.1,0-0.1,0.1C8.2,11.9,8,12,7.7,12c-0.1,0-0.1,0-0.1-0.1
			c0-0.1-0.1-0.3-0.1-0.4c0-0.2-0.1-0.4-0.1-0.5c0,0,0,0,0-0.1c-0.1-0.1-0.1-0.2-0.1-0.3c-0.1-0.1-0.1-0.2-0.2-0.3
			c0-0.1-0.1-0.1-0.1-0.2c0,0,0,0,0,0c0,0,0,0,0,0c0,0.1-0.1,0.2,0,0.3c0,0.2,0.1,0.4,0.1,0.6c0,0.1,0,0.2,0,0.3c0,0.1,0,0.2,0,0.2
			c0,0.1,0,0.1,0,0.2C6.9,11.9,6.7,12,6.6,12c-0.1,0-0.2,0-0.3,0c-0.1,0-0.2,0-0.3,0c-0.1,0-0.1,0-0.2,0c-0.2,0-0.4,0-0.6,0
			c0,0,0,0-0.1,0c-0.2-0.1-0.2-0.2-0.3-0.4c0-0.1,0-0.2,0-0.2C4.9,11.2,4.9,11,4.9,10.9z M4.9,12.9c0-0.1,0.1-0.2,0.2-0.2
			c0,0,0,0,0.1,0c0.1-0.1,0.2-0.1,0.4-0.1c0.1,0,0.2,0,0.3,0c0.1,0,0.2,0,0.2,0c0.1,0,0.3,0,0.4,0c0.1,0.1,0.2,0.1,0.3,0.1
			c0.1,0,0.2,0.1,0.2,0.2c0,0.1,0.1,0.2,0.1,0.3c0,0,0,0.1,0,0.1c0,0.1,0,0.2,0,0.3c0,0.2,0,0.4-0.1,0.6c0,0.1-0.1,0.2-0.1,0.3
			c0,0.1-0.1,0.2-0.2,0.2c0,0.1-0.1,0.2-0.2,0.2c0,0-0.1,0.1-0.1,0.1c-0.2,0.1-0.4,0.1-0.5,0c-0.1-0.1-0.3-0.1-0.4-0.1
			c-0.1,0-0.1-0.1-0.2-0.1c0,0-0.1-0.1-0.1-0.1c0,0,0,0-0.1-0.1c-0.1-0.2-0.2-0.3-0.2-0.4c-0.1-0.1-0.1-0.3-0.1-0.4
			c0-0.1,0-0.1,0-0.2c0-0.1,0-0.1,0-0.2c0-0.1,0-0.1,0-0.2c0-0.1,0-0.2,0.1-0.3C4.9,13,4.9,12.9,4.9,12.9z"/>
		<path class="st1" d="M17,19.3C17,19.3,17,19.3,17,19.3c0-0.2,0-0.4,0-0.5c0-0.1,0-0.3,0-0.4c0-0.1,0-0.2,0-0.2c0-0.1,0-0.3,0-0.4
			c0-0.1,0-0.2-0.1-0.2c0,0,0,0,0-0.1c0-0.2,0-0.4,0-0.6c0,0,0-0.1,0-0.1c0-0.1,0-0.2,0-0.3c0-0.1,0-0.3,0-0.4c0-0.1,0-0.1,0-0.2
			c0-0.1,0-0.1,0-0.2c0-0.1,0-0.2,0-0.3c0-0.1,0-0.2,0-0.3c0-0.1,0-0.2,0-0.3c0,0,0,0,0,0c-0.1-0.2,0-0.3,0-0.5c0-0.1,0-0.3,0-0.5
			c0-0.1,0-0.1,0-0.1c0-0.1,0-0.2,0-0.3c0-0.1,0-0.2,0-0.3c0,0,0-0.1,0-0.1c0-0.2,0-0.4,0-0.5c0-0.2,0-0.4,0-0.6c0-0.1,0-0.3,0-0.4
			c0-0.1,0-0.3,0-0.4c0,0,0,0,0-0.1c0-0.1,0-0.1,0-0.2c0,0,0-0.1,0-0.1c0,0,0-0.1,0-0.1c0-0.2,0-0.3,0-0.5c0,0,0,0,0-0.1
			c0-0.1,0-0.2,0-0.2c0-0.2,0-0.4,0-0.6c0,0,0-0.1,0-0.1c0-0.1,0-0.2,0-0.3c0-0.1,0-0.2,0-0.4c0-0.1,0.1-0.2,0-0.4c0,0,0,0,0,0
			c0-0.1,0-0.1,0-0.2c0-0.1,0-0.1,0-0.2c0-0.2,0-0.4,0-0.6c0-0.1,0-0.3-0.1-0.4c0,0,0,0,0-0.1c0-0.1,0-0.1,0-0.2c0,0,0-0.1,0-0.1
			c0,0,0,0,0-0.1c0-0.2,0-0.3-0.1-0.4c0,0,0-0.1,0-0.1c-0.1-0.1,0-0.3-0.1-0.4c0-0.2-0.1-0.4-0.2-0.6c0-0.2-0.1-0.3-0.2-0.4
			C16.1,4.4,16,4.2,16,4.1c-0.1-0.1-0.1-0.2-0.2-0.2c0,0,0,0-0.1-0.1c-0.1-0.1-0.1-0.2-0.2-0.3c-0.1-0.1-0.2-0.2-0.2-0.3
			c-0.1-0.1-0.2-0.2-0.2-0.3c-0.1-0.1-0.2-0.2-0.4-0.2c0,0,0,0,0,0c-0.1-0.1-0.3-0.2-0.4-0.4c-0.1-0.1-0.3-0.2-0.4-0.4
			c-0.1-0.1-0.2-0.1-0.2-0.2c0,0,0,0-0.1,0c-0.1,0-0.1-0.1-0.2-0.1c-0.1-0.1-0.2-0.2-0.3-0.2c-0.1,0-0.1,0-0.2-0.1
			c-0.1-0.1-0.2-0.1-0.3-0.2C12.5,1.1,12.4,1,12.2,1c0,0,0,0,0,0c0,0-0.1-0.1-0.1-0.1c-0.1,0-0.2-0.1-0.3-0.1
			c-0.2-0.1-0.5-0.1-0.7-0.2c0,0-0.1,0-0.1,0c0,0,0,0,0,0c-0.1-0.1-0.3-0.1-0.4-0.2c0,0,0,0-0.1,0c0,0-0.1,0-0.1,0c0,0,0,0-0.1,0
			c0,0-0.1,0-0.1,0c0,0,0,0,0,0c0,0-0.1,0-0.1,0c-0.2,0-0.3,0-0.5-0.1c0,0-0.1,0-0.1,0C9.3,0.1,9.2,0,9,0C8.9,0,8.8,0,8.7,0
			C8.6,0,8.5,0,8.4,0C8.3,0,8.2,0,8,0C7.9,0,7.8,0,7.7,0C7.5,0,7.4,0.1,7.3,0c-0.2,0-0.3,0-0.5,0c-0.1,0-0.2,0-0.4,0
			c-0.1,0-0.2,0-0.3,0C6,0.2,5.9,0.3,5.7,0.3c-0.1,0-0.1,0.1-0.2,0.1c-0.1,0-0.1,0.1-0.2,0.1c-0.1,0-0.1,0-0.2,0.1
			c0,0-0.1,0-0.1,0.1c-0.2,0-0.4,0.2-0.6,0.3C4.3,1,4.1,1,3.9,1.1C3.8,1.2,3.7,1.3,3.6,1.3c0,0,0,0,0,0C3.4,1.5,3.1,1.6,3,1.8
			c0,0,0,0,0,0C2.9,1.9,2.8,1.9,2.7,2C2.6,2.1,2.5,2.2,2.5,2.2C2.4,2.3,2.3,2.4,2.2,2.5C2.1,2.7,1.9,2.9,1.7,3c0,0,0,0.1,0,0.1
			c0,0,0,0.1-0.1,0.1C1.5,3.4,1.3,3.6,1.2,3.8C1.1,3.9,1.1,4,1,4.1C0.9,4.3,0.9,4.4,0.8,4.6c0,0,0,0.1-0.1,0.1
			C0.7,4.9,0.6,5.1,0.6,5.3c0,0.1-0.1,0.2-0.1,0.2c0,0.1-0.1,0.1-0.1,0.2c0,0.1,0,0.2-0.1,0.3c0,0.1,0,0.1,0,0.2c0,0.1,0,0.1,0,0.2
			c0,0.2-0.1,0.5-0.1,0.7c0,0,0,0.1,0,0.1c0,0.2,0,0.4-0.1,0.7c0,0.1,0,0.2,0,0.3c0,0.1,0,0.2,0,0.3c0,0.1,0,0.2,0,0.3
			c0,0,0,0.1,0,0.2c0,0.2,0,0.3,0,0.5c0,0.2,0,0.3,0,0.5c0,0,0,0,0,0c0,0.1,0,0.3,0,0.4c0,0.1,0,0.2,0,0.3c0,0,0,0,0,0.1
			c0,0.1,0,0.2,0,0.3c0,0.1,0,0.1,0,0.2c0,0.1,0,0.2,0,0.3c0,0,0,0.1,0,0.1c0,0.1-0.1,0.1,0,0.2c0,0,0,0,0,0c0,0.2,0,0.3,0,0.5
			c0,0,0,0.1,0,0.1c0,0.1,0,0.1,0,0.2c0,0.1,0,0.2,0.1,0.3c0,0.1,0,0.1,0.1,0.2c0,0.1,0.1,0.1,0.1,0.1c0.1,0,0.2,0,0.3-0.1
			c0,0,0,0,0,0c0.1,0,0.1-0.1,0.2-0.2c0,0,0-0.1,0.1-0.1c0.1-0.1,0.1-0.1,0.2-0.2c0-0.1,0.1-0.1,0.1-0.2c0,0,0,0,0,0
			c0,0,0.1,0,0.1,0c0,0.1,0,0.2,0,0.3c0,0.1,0,0.3,0,0.4c0,0.2,0,0.2-0.1,0.4c0,0-0.1,0.1-0.1,0.1c-0.1,0-0.2,0.1-0.3,0.1
			c-0.1,0.1-0.2,0-0.3,0.1c0,0,0,0-0.1,0c-0.1,0-0.2,0-0.2,0.1c0,0-0.1,0.1,0,0.1c0,0,0,0.1,0.1,0.1C0.2,13.9,0.4,14,0.5,14
			c0.1,0,0.2,0,0.2,0.1c0.1,0,0.1,0.1,0.1,0.1c0,0,0,0.1,0,0.1c0,0,0,0.1,0,0.1c0,0.1-0.1,0.3-0.1,0.4c0,0.1,0,0.3-0.1,0.4
			c0,0,0,0.1,0,0.1c0,0.2,0,0.3-0.1,0.5c0,0.2,0,0.4,0,0.7c0,0.2,0,0.3,0,0.5c0,0,0,0.1,0.1,0.1c0.1,0,0.1,0,0.2-0.1
			c0-0.1,0-0.2,0.1-0.3c0-0.1,0.1-0.2,0.1-0.2c0-0.2,0.1-0.4,0.1-0.6c0,0,0-0.1,0-0.1c0,0,0-0.1,0-0.1c0-0.2,0.1-0.3,0.1-0.5
			c0-0.1,0-0.2,0.1-0.2c0-0.1,0.1-0.2,0.1-0.2c0.1-0.2,0.4-0.3,0.5-0.1C2,14.7,2,14.8,2,14.8c0,0.1,0.1,0.2,0.1,0.2
			c0,0.1,0.1,0.2,0.1,0.3c0,0.1,0.1,0.2,0.1,0.4c0,0.1,0,0.2,0.1,0.2c0,0,0,0.1,0,0.1c0,0.1,0,0.2,0.1,0.3c0,0,0,0.1,0,0.1
			c0,0.1,0.1,0.1,0.1,0.2c0,0.1,0.1,0.1,0.1,0.2c0,0,0,0,0,0c0,0,0.1,0,0.2,0c0,0,0.1,0,0.1-0.1c0,0,0-0.1,0-0.1c0-0.1,0-0.1,0-0.2
			c0-0.1-0.1-0.2,0-0.3c0-0.1,0-0.2,0-0.4c0-0.1,0-0.2-0.1-0.3c0-0.2-0.1-0.3-0.1-0.5c0-0.1,0-0.1-0.1-0.2c0-0.1-0.1-0.1,0-0.2
			c0-0.1,0-0.2-0.1-0.3c0-0.2,0-0.3,0.1-0.4c0,0,0,0,0.1,0c0.1,0,0.3-0.1,0.4-0.1c0,0,0.1,0,0.1-0.1c0,0,0-0.1,0-0.1
			c0-0.1-0.1-0.1-0.1-0.1c0,0-0.1-0.1-0.2,0c-0.1,0-0.1,0-0.2,0c-0.1,0-0.1-0.1-0.2-0.1c-0.2,0-0.3,0-0.4-0.1C2,13.3,2,13.3,2,13.2
			c0-0.1,0-0.2-0.1-0.3c0-0.1,0-0.2,0-0.3c0-0.1,0-0.2,0-0.3c0,0,0,0,0-0.1c0-0.1,0-0.1,0.1-0.1c0,0,0,0,0.1,0
			c0.1,0,0.2,0.1,0.2,0.1c0.1,0.1,0.1,0.2,0.2,0.2c0.1,0,0.1,0.1,0.2,0.1c0.1,0,0.2,0.1,0.3,0.1c0.1,0,0.1,0,0.2-0.1
			c0.1-0.1,0.1-0.3,0-0.4c0,0-0.1,0-0.1-0.1C3,12,2.8,11.9,2.7,11.9c-0.1,0-0.1-0.1-0.2-0.1c0,0-0.1,0-0.1-0.1
			c-0.1-0.1-0.2-0.2-0.3-0.3c-0.1-0.1-0.1-0.2-0.1-0.2C2,11,1.9,10.9,1.8,10.8c0,0,0-0.1,0-0.1c0-0.1,0-0.2,0-0.3c0,0,0-0.1,0-0.1
			c-0.1-0.1-0.1-0.3-0.1-0.4c0-0.1,0-0.2-0.1-0.3c0,0,0,0-0.1,0c0,0-0.1,0-0.1,0.1c0,0.1-0.1,0.3,0,0.4c0,0.1,0,0.3,0,0.4
			c0,0.2-0.1,0.4-0.2,0.5c-0.1,0.2-0.1,0.3-0.2,0.5c0,0-0.1,0.1-0.1,0.1c0,0-0.1,0-0.1,0c0,0,0,0,0-0.1c0-0.1,0-0.2,0-0.4
			c0-0.2,0-0.4,0-0.6c0-0.1,0-0.1,0-0.2c0-0.1,0-0.3,0-0.4c0-0.1,0-0.3,0-0.4c0-0.1,0.1-0.2,0-0.3c0,0,0,0,0-0.1c0,0,0-0.1,0-0.1
			c0-0.2,0-0.4,0-0.6c0-0.1,0-0.2,0-0.4h0c0-0.1,0-0.2,0-0.2c0-0.1,0-0.2,0-0.4c0-0.1,0-0.2,0-0.3C1,7.1,1,6.9,1,6.8
			c0-0.2,0.1-0.5,0.2-0.7c0-0.1,0-0.1,0-0.2c0-0.1,0.1-0.2,0.1-0.3c0.1-0.1,0.2-0.1,0.2,0c0,0,0.1,0.1,0.1,0.1
			C1.7,5.8,1.8,5.9,1.9,6c0,0,0,0,0.1,0.1C2,6.1,2,6.3,2,6.4c0,0.1-0.1,0.3-0.1,0.4c0,0.1,0,0.1,0,0.2c0,0.1-0.1,0.1-0.1,0.2
			c0,0,0,0,0,0.1c0,0-0.1,0-0.1,0.1c-0.1,0-0.2,0.1-0.3,0.2c0,0-0.1,0.1-0.1,0.2c0,0.1,0,0.1,0,0.2c0,0.1,0,0.2,0,0.2
			c0,0,0,0.1,0,0.1c0,0.1,0.1,0.1,0.1,0.2c0,0,0,0,0,0c0.1,0,0.2,0.1,0.3,0.1c0.1,0,0.1,0,0.2,0c0.2,0,0.4-0.1,0.5-0.2
			c0,0,0-0.1,0.1-0.1c0-0.1,0-0.2,0.1-0.4c0,0,0,0,0,0c0-0.1,0-0.2-0.1-0.2C2.4,7.6,2.4,7.5,2.3,7.4c0,0,0-0.1,0-0.1c0,0,0,0,0,0
			c0.1-0.2,0.1-0.4,0.1-0.5c0-0.1,0.1-0.2,0.1-0.2c0-0.1,0.1-0.1,0.2,0c0,0,0,0,0,0.1c0,0.1,0.1,0.1,0.1,0.1c0.1,0,0.1,0.1,0.2,0.1
			c0.1,0.1,0.2,0.1,0.3,0.1c0.1,0,0.1,0,0.2,0c0.1,0,0.2,0,0.3-0.1c0-0.1,0.1-0.1,0.1-0.1c0,0,0.1,0,0.1,0c0.1,0,0.2,0,0.3,0
			c0.1,0,0.1,0,0.2,0c0.1,0,0.1,0,0.2,0c0.1,0,0.1,0,0.2,0c0.1,0,0.1,0,0.2,0c0.2,0,0.3,0,0.5,0c0.1,0,0.2,0,0.2,0.1c0,0,0,0,0.1,0
			C5.9,6.8,6,6.8,6,6.8C6.2,6.9,6.3,7,6.5,6.9c0.1,0,0.2,0,0.3,0.1c0,0.1,0.1,0.1,0.1,0.2C6.9,7.4,7,7.5,7.1,7.6
			c0.1,0.1,0.1,0.2,0.2,0.3C7.3,8,7.3,8,7.4,8.1c0,0,0,0.1,0,0.1C7.3,8.3,7.3,8.4,7.3,8.5c0,0,0,0.1,0,0.2c0,0.1,0,0.1,0,0.2
			C7.4,8.9,7.6,9,7.7,9.1c0.1,0.1,0.2,0.1,0.3,0.1c0.1,0,0.2,0,0.3-0.1c0.1,0,0.2-0.1,0.2-0.2c0-0.1,0-0.2,0.1-0.3c0,0,0-0.1,0-0.1
			c0-0.1,0-0.2-0.1-0.3c0,0,0,0,0,0C8.5,8.1,8.4,8.1,8.3,8C8.2,7.9,8.1,7.8,8,7.8c-0.1,0-0.1,0-0.2-0.1c0,0-0.1-0.1-0.1-0.1
			c0-0.1-0.1-0.1-0.2-0.2c0,0,0,0-0.1-0.1C7.4,7.3,7.3,7.1,7.3,7C7.2,6.9,7.1,6.8,7,6.7c0,0,0,0,0-0.1c0,0,0.1-0.1,0.1-0.1
			c0,0,0,0,0-0.1c0-0.2,0-0.3-0.1-0.4C7.1,6,7,5.9,7,5.8c0-0.1,0-0.1,0-0.2c0.1-0.1,0.1-0.3,0.2-0.4c0,0,0,0,0-0.1
			C7.3,5,7.4,4.8,7.4,4.7c0.1-0.2,0.2-0.3,0.3-0.5c0,0,0-0.1,0-0.1C7.9,4,7.9,3.8,8,3.7c0.1-0.1,0.2-0.2,0.3-0.3
			c0.1,0,0.1-0.1,0.2-0.1c0,0,0.1,0,0.1,0c0,0,0.1-0.1,0.1-0.1C8.9,3.2,8.9,3.1,9,3c0,0,0-0.1,0-0.1c0-0.1,0.1-0.2,0-0.2
			c0-0.1,0-0.1,0.1-0.2c0.1-0.1,0.2-0.2,0.2-0.2C9.4,2.1,9.5,2.1,9.5,2c0.1-0.1,0.2-0.2,0.3-0.3c0.1-0.2,0.3-0.3,0.5-0.5
			c0,0,0.1,0,0.1,0c0,0,0.1,0,0.1,0c0.1,0,0.2,0.1,0.3,0.1c0,0,0.1,0,0.2,0.1c0.1,0,0.1,0,0.2,0.1c0,0,0,0,0,0
			c0.1,0.1,0.3,0.2,0.5,0.3c0,0,0,0,0,0c0,0.1,0.1,0.1,0.2,0.2c0,0.1,0,0.1,0.1,0.2C11.9,2.3,12,2.6,12,2.8c0,0.1,0,0.2,0,0.3
			c0,0,0,0,0,0c0,0.1,0,0.2,0,0.4c0,0.1,0,0.2,0,0.2c0,0.2,0,0.3,0,0.5c0,0,0,0,0,0.1c0,0.1,0,0.1,0,0.2c0,0,0,0.1,0,0.1
			c0,0.3,0,0.6,0,1c0,0.1,0,0.2,0,0.3c0,0.1,0,0.1,0,0.2c0,0,0,0.1,0,0.1c0,0.1,0,0.1,0,0.2c0,0,0,0.1,0,0.1c0,0.1,0,0.1,0,0.1
			c0,0.3,0,0.6,0,0.9c0,0.1,0,0.1,0,0.2c0,0.1,0,0.1,0,0.2c0,0,0,0.1,0,0.1c0,0.2,0,0.3,0,0.5c0,0.2,0,0.5,0,0.7c0,0,0,0.1,0,0.1
			c0,0.2,0,0.3,0,0.5c0,0.1,0,0.2,0,0.3c0,0.1,0,0.1,0,0.2c0,0.1,0,0.2,0,0.3c0,0.1,0,0.2,0,0.3c0,0.1-0.1,0.3-0.1,0.4
			c0,0,0,0.1,0,0.1c0,0.1,0,0.1,0,0.2c0,0,0,0.1,0,0.1c0,0.1-0.1,0.2-0.1,0.3c0,0.1,0,0.1,0,0.2c0,0.1,0,0.2-0.1,0.4
			c0,0.1,0,0.3,0,0.4c0,0.1,0,0.2-0.1,0.3c0,0.1,0,0.1-0.1,0.2c0,0.2-0.1,0.3-0.2,0.5c0,0.1-0.1,0.2-0.1,0.3
			c-0.1,0.2-0.2,0.4-0.3,0.6c0,0-0.1,0.1-0.1,0.1c0,0.1,0,0.1-0.1,0.2c-0.1,0-0.1,0.1-0.1,0.2c0,0,0,0,0,0c-0.1,0.1-0.2,0.2-0.2,0.3
			c0,0.1-0.1,0.1-0.1,0.2c-0.2,0.2-0.3,0.3-0.5,0.5c-0.2,0.2-0.5,0.4-0.8,0.6c-0.2,0.1-0.3,0.2-0.5,0.3c0,0-0.1,0.1-0.1,0.1
			c-0.1,0-0.1,0.1-0.2,0.1c0,0,0,0.1,0,0.1c0,0,0.1,0,0.1,0c0.3,0,0.5,0,0.7-0.1c0,0,0.1,0,0.1,0c0.1,0,0.2,0,0.2-0.1
			c0,0,0.1,0,0.1,0c0.1,0,0.1-0.1,0.2-0.1c0.2-0.2,0.5-0.3,0.7-0.4c0,0,0.1,0,0.1-0.1c0.1-0.1,0.2-0.1,0.3-0.2
			c0.1,0,0.2-0.1,0.2-0.1c0.1-0.1,0.1-0.1,0.2-0.2c0,0,0,0,0-0.1c0,0,0-0.1,0-0.1c0.1-0.1,0.2-0.2,0.3-0.3c0.1-0.2,0.2-0.3,0.3-0.5
			c0.1-0.1,0.2-0.3,0.3-0.4c0.1-0.1,0.1-0.3,0.2-0.4c0.1-0.1,0.1-0.3,0.1-0.5c0-0.1,0-0.1,0-0.2c0-0.1,0-0.1,0-0.2
			c0-0.1,0-0.2,0-0.3c0,0,0-0.1,0-0.1c0,0,0-0.1,0-0.1c0-0.1,0-0.3,0-0.4c0-0.1,0-0.2,0-0.3c0,0,0-0.1,0-0.1c0-0.1-0.1-0.3,0-0.4
			c0,0,0,0,0-0.1c0,0,0-0.1,0-0.1c0,0,0-0.1,0-0.1c0-0.1,0-0.1,0-0.2c0-0.2,0-0.3,0-0.5c0-0.4,0-0.7,0-1.1c0-0.1,0-0.1,0-0.2
			c0-0.1,0-0.1,0-0.2c0-0.1,0-0.1,0-0.2c0-0.1,0-0.2,0-0.3c0,0,0,0,0,0c-0.1-0.2,0-0.3,0-0.5c0-0.1,0-0.2,0-0.2c0,0,0-0.1,0-0.1
			c0-0.1,0-0.2,0-0.4c0-0.1,0-0.2,0-0.4c0,0,0-0.1,0-0.1c0-0.1,0-0.1,0-0.2c0,0,0-0.1,0-0.2c0-0.1,0-0.2,0-0.3c0-0.1,0-0.2,0-0.3
			c0-0.1,0-0.2-0.1-0.3c0,0,0-0.1,0-0.1c0,0,0-0.1,0-0.1c0-0.2,0-0.3,0-0.5c0.1-0.2,0-0.3,0.1-0.5c0,0,0,0,0,0c0-0.1,0-0.2,0-0.3
			c0,0,0-0.1,0-0.1c0-0.2,0-0.4,0-0.5c0-0.2,0.1-0.3,0.1-0.5c0-0.1,0-0.2,0.1-0.3c0,0,0,0,0-0.1c0.1,0,0.1-0.1,0.2-0.1
			c0,0,0.1,0,0.1,0c0.1,0,0.1,0.1,0.2,0.2c0,0.1,0.1,0.1,0.1,0.2c0,0.1,0.1,0.2,0.1,0.3c0,0.1,0,0.2,0,0.2c0,0.1,0,0.2,0,0.3
			c0,0.2,0,0.3,0,0.5c0,0.1,0,0.3,0,0.4c0,0.1,0,0.2,0,0.3c0,0,0,0,0,0.1c0,0.1,0,0.1,0,0.2c0,0.1,0,0.2,0,0.3c0,0.2,0,0.3,0,0.5
			c0,0.1,0,0.2,0,0.2c0,0,0,0.1,0,0.1c0,0.1,0,0.2,0,0.3c0,0.2,0,0.5,0,0.7c0,0.2,0,0.4,0,0.5c0,0,0,0.1,0,0.1c0,0.1,0,0.2,0,0.4
			c0,0,0,0.1,0,0.1c0,0.2,0.1,0.4,0.1,0.5c0,0,0,0,0,0.1c0,0.1,0.1,0.3,0.1,0.4c0,0.2,0.1,0.3,0.1,0.5c0,0.2,0.1,0.3,0.2,0.5
			c0,0.1,0.1,0.1,0.1,0.2c0.1,0.2,0.2,0.3,0.3,0.5c0.1,0.2,0.3,0.3,0.4,0.5c0,0,0.1,0,0.1,0.1c0.1,0.1,0.2,0.2,0.3,0.3
			c0.1,0.1,0.2,0.1,0.4,0.2c0.1,0.1,0.2,0.2,0.3,0.3c0,0,0,0,0,0c0,0,0,0.1,0,0.1c0,0.1,0,0.3,0,0.4c0,0,0,0.1,0,0.1
			c0,0.3,0,0.6,0,0.9c0,0.2,0,0.4,0,0.6c0,0.2,0,0.3,0,0.5c0,0.2,0,0.3,0,0.5c0,0.1,0,0.1,0,0.2c0,0.1,0,0.1,0,0.2
			c0,0.1,0,0.2,0,0.2c0,0,0,0.1,0,0.1c0,0.3,0,0.5,0,0.8c0,0,0,0,0,0c0,0.1,0,0.2,0,0.4c0,0.1,0,0.1,0,0.2c0,0.1,0,0.3,0,0.4l0,0
			c0,0.2,0,0.3,0,0.5c0,0.2,0,0.4,0,0.5c0,0.2-0.1,0.4,0,0.5c0,0.1,0,0.1,0,0.2c0,0,0,0.1,0,0.1c0,0.1,0,0.2,0,0.4
			c0,0.2,0,0.4,0,0.6c0,0.1,0,0.3,0,0.4c0,0.2,0,0.4,0,0.6c0,0.1,0,0.1,0,0.2c0,0.2,0,0.4,0,0.6c0,0.1,0,0.2,0,0.3
			c0,0.1,0,0.2,0,0.3c0,0.1,0,0.3,0,0.4c0,0.5,0,1,0,1.5c0,0.3,0,0.7,0,1c0,0.1,0,0.2-0.1,0.3c0,0,0,0.1-0.1,0.1
			c-0.1,0.1-0.2,0.2-0.4,0.2c0,0-0.1,0-0.1,0c0,0-0.1,0-0.1,0c-0.1,0-0.2,0-0.3,0c-0.1,0-0.2,0-0.3,0c0,0,0,0-0.1,0c0,0,0,0-0.1,0
			c-0.1,0-0.2,0-0.3,0c-0.1,0-0.3,0-0.4,0c-0.1,0-0.1,0-0.2,0c-0.1,0-0.2,0-0.3,0c-0.1,0-0.3,0-0.4,0c-0.1,0-0.2-0.1-0.3-0.1
			c0,0,0,0-0.1-0.1c0,0-0.1-0.1-0.1-0.1c-0.1-0.1-0.1-0.2-0.2-0.3c0-0.1,0-0.2,0-0.3c0-0.2-0.1-0.3-0.1-0.5c0-0.1,0-0.2,0-0.3
			c0-0.1,0-0.1,0-0.2c0,0,0-0.1,0-0.1c0-0.4,0-0.7,0-1.1c0-0.1,0-0.2,0-0.3c0,0,0-0.1,0-0.1c0-0.1,0-0.1,0-0.2c0-0.1,0-0.1,0-0.2
			c0-0.2,0-0.4,0-0.6c0-0.1,0-0.3,0-0.4c0-0.1,0-0.1,0-0.2c0-0.2-0.1-0.6-0.2-0.8c0,0,0-0.1-0.1-0.1c0,0,0,0,0,0c0,0,0,0,0,0
			c0,0.1-0.1,0.1-0.1,0.2c0,0.1,0,0.2,0,0.3c0,0,0,0.1,0,0.1c0,0,0,0,0,0c0,0,0,0-0.1-0.1c0,0,0,0,0-0.1c0-0.1-0.1-0.2-0.1-0.2
			c0-0.1-0.1-0.2-0.1-0.3c0-0.1-0.1-0.1-0.1-0.2c-0.1-0.1-0.1-0.2-0.2-0.3c-0.1-0.2-0.2-0.3-0.2-0.5c-0.1-0.1-0.1-0.3-0.2-0.4
			c0,0,0-0.1,0-0.1c-0.1-0.1-0.1-0.2-0.1-0.3c0-0.1,0-0.2-0.1-0.3c0-0.1-0.1-0.1-0.1-0.2c0-0.1-0.1-0.1-0.1-0.2
			c0-0.1-0.1-0.1-0.1-0.2c0,0,0,0,0,0c0,0,0,0,0,0c0,0-0.1,0-0.1,0c-0.1,0-0.1,0-0.2,0.1c0,0-0.1,0.1-0.1,0.1c0,0.1-0.1,0.1-0.1,0.2
			c-0.1,0.1-0.1,0.2-0.1,0.2c-0.1,0.1-0.1,0.2-0.2,0.3c-0.2,0.3-0.2,0.6-0.4,0.8c-0.1,0.2-0.3,0.4-0.4,0.6c-0.2,0.4-0.4,0.9-0.5,1.4
			c0,0.1,0,0.6,0,0.9c0,0,0,0,0,0c0,0.1,0.1,0.2,0.1,0.1c0,0,0.1,0,0.1-0.1c0-0.1,0.1-0.1,0.1-0.2c0.1-0.1,0.2-0.2,0.2-0.3
			c0-0.1,0-0.1,0.1-0.1c0.1-0.1,0.1-0.2,0.2-0.3c0.1-0.2,0.1-0.3,0.2-0.5c0.1-0.2,0.1-0.4,0.3-0.6c0,0,0,0,0,0
			c0.1-0.1,0.2-0.2,0.3-0.3c0.1,0,0.1-0.1,0.2-0.1c0.1,0,0.1,0,0.2,0c0.1,0,0.1,0,0.2,0c0.1,0,0.3,0.1,0.4,0.2c0,0,0.1,0.1,0.1,0.1
			c0,0,0,0,0,0c0,0,0,0,0,0c0,0,0,0,0,0.1c0,0,0,0,0,0.1c0,0.1-0.1,0.1-0.1,0.1c-0.1,0-0.3,0-0.4,0c-0.1,0-0.2,0-0.2,0
			c-0.1,0-0.1,0.1-0.2,0.1c-0.1,0-0.2,0.1-0.2,0.2c-0.1,0.1-0.1,0.3,0,0.5c0,0.2,0.1,0.4,0,0.6c0,0,0,0.1,0,0.1c0,0.1,0,0.1-0.1,0.2
			c0,0-0.1,0.1-0.1,0.1c0,0,0,0-0.1,0c-0.1,0-0.2,0.1-0.3,0c0,0-0.1,0-0.1,0c-0.1,0-0.2,0-0.3,0c0,0,0,0-0.1,0
			c-0.1,0.1-0.1,0.2,0,0.3c0,0,0,0,0,0c0,0,0,0,0,0c0.1,0.1,0.1,0.1,0.2,0.1c0.1,0,0.2,0,0.3,0.1c0.1,0.1,0.2,0.1,0.4,0.1
			c0,0,0.1,0,0.1,0c0,0,0,0,0,0c0,0,0,0,0,0c0,0.1,0,0.1,0,0.2c0,0,0,0.1,0,0.1c0,0.1,0,0.2,0,0.2c0,0.1,0,0.1,0,0.1c0,0,0,0,0,0.1
			c0,0.1,0,0.2,0,0.3c0,0.1,0,0.1,0,0.2c0,0.1,0,0.1,0,0.2c0,0,0,0.1,0,0.1c0,0.1,0,0.1,0,0.2c0,0.1,0,0.1,0,0.2c0,0,0,0.1,0,0.1
			c0,0.2,0,0.3,0,0.5c0,0.1,0,0.3,0,0.4c0,0.2,0,0.4,0,0.5c0,0,0,0.1,0,0.1c0,0.1,0,0.2,0,0.3c0,0,0,0.1,0,0.1c0,0.1,0,0.2,0,0.4
			c0,0,0,0.1,0,0.1c0,0.1,0,0.1,0,0.1c0,0,0,0.1,0,0.1c0,0,0,0.1-0.1,0.1c0,0-0.1,0.1-0.1,0.1c0,0-0.1,0.1-0.1,0.1
			c-0.1,0.1-0.2,0.1-0.3,0.1c-0.2,0-0.5,0-0.7-0.1c0,0-0.1,0-0.1,0c-0.1,0-0.2,0-0.3,0c-0.1,0-0.1,0-0.2,0c-0.1,0-0.1,0-0.2,0
			c0,0-0.1,0-0.1,0c-0.1,0-0.3,0-0.4,0c-0.1,0-0.3,0-0.4,0c0,0,0,0,0,0c-0.2,0-0.3,0-0.4,0c0,0-0.1,0-0.1,0c-0.1,0-0.2,0-0.3,0.1
			c-0.1,0-0.2,0.1-0.2,0.1c-0.1,0.1-0.3,0.1-0.4,0.2c0,0,0,0,0,0c-0.1,0-0.1,0.1-0.1,0.1c0,0-0.1,0.1-0.1,0.1
			c-0.1,0.1-0.2,0.2-0.3,0.3c0,0,0,0,0,0.1c0,0.2-0.2,0.3-0.2,0.5c0,0,0,0.1,0,0.1c0,0,0,0.1,0,0.1c0,0.1,0,0.1,0,0.2
			c0,0.1,0,0.1,0,0.2c0,0.1,0,0.2,0,0.3c0,0,0,0,0,0.1c0,0.1-0.1,0.3,0,0.4c0,0.2,0,0.4,0,0.6c0,0,0,0.1,0,0.1
			c-0.1,0.1-0.1,0.2-0.1,0.3c0,0,0,0.1-0.1,0.1c0,0.1-0.1,0.1-0.1,0.2c0,0,0,0.1,0,0.1c-0.1,0.1-0.2,0.3-0.3,0.4
			c-0.1,0.1-0.1,0.1-0.2,0.2c-0.1,0.1-0.2,0.2-0.3,0.3c0,0,0,0,0,0c0,0,0-0.1,0-0.1c0,0,0-0.1,0-0.1c0-0.1,0-0.2,0-0.3
			c0,0,0,0,0-0.1c0,0,0-0.1,0-0.1c0-0.1,0-0.1,0-0.2c0-0.1,0-0.3,0.1-0.4c0-0.1,0.1-0.1,0.1-0.2c0.2-0.2,0.3-0.3,0.4-0.5
			c0,0,0,0,0,0c0.1-0.1,0.1-0.2,0.2-0.3c0-0.1,0-0.2,0.1-0.3c0-0.1,0-0.1,0-0.2c0-0.1,0-0.2,0-0.3c0,0,0,0,0-0.1c0-0.2,0-0.3,0-0.5
			c0-0.2,0-0.3-0.1-0.4c0,0,0-0.1,0-0.1c0-0.1,0-0.2,0-0.3c0-0.1,0-0.1-0.1-0.2c-0.1-0.3-0.2-0.5-0.5-0.5c-0.1,0-0.1,0-0.2,0
			c-0.1,0-0.1,0-0.2,0c-0.1,0-0.2,0-0.4,0c-0.2,0-0.3,0-0.5,0c0,0-0.1,0-0.1,0c-0.1,0-0.2,0-0.3,0c0,0,0,0,0,0c-0.1,0-0.1,0-0.2,0
			c0,0-0.1,0-0.1,0c-0.3,0.1-0.4,0.3-0.5,0.6c-0.1,0.1-0.1,0.2-0.1,0.4c0,0.1-0.1,0.1,0,0.2c0,0,0,0,0,0.1c0,0,0,0.1,0,0.1
			c0,0.1,0,0.3,0,0.4c0,0.1,0,0.3,0,0.4c0,0.2,0,0.5,0,0.7c0,0.1,0,0.2,0,0.3c0,0.1,0,0.2,0,0.3c0,0.2,0,0.5,0.1,0.7
			c0,0.2,0.1,0.4,0.1,0.5c0,0.1,0.1,0.2,0,0.3c0,0,0,0,0,0.1c0,0.1,0,0.2,0.1,0.2c0,0.1,0,0.3,0.1,0.4c0.1,0.2,0.1,0.4,0.2,0.6
			c0,0,0,0.1,0,0.1c0,0.1,0,0.1,0.1,0.2c0,0.1,0,0.1,0.1,0.2c0,0.1,0.1,0.2,0.1,0.3c0,0.1,0.1,0.2,0.1,0.3c0,0.1,0,0.1,0.1,0.2
			c0.1,0.1,0.2,0.2,0.2,0.3c0.1,0.1,0.1,0.2,0.2,0.3c0.1,0.1,0.1,0.1,0.2,0.2c0.1,0.1,0.2,0.2,0.3,0.4c0.1,0.1,0.1,0.1,0.2,0.2
			c0.1,0.1,0.1,0.2,0.2,0.2c0,0,0.1,0.1,0.1,0.1c0,0,0.1,0.1,0.1,0.1c0.2,0.1,0.4,0.3,0.6,0.4c0,0,0,0,0.1,0c0.1,0,0.2,0.1,0.3,0.2
			c0.1,0.1,0.2,0.1,0.3,0.2c0,0,0.1,0,0.1,0c0.1,0,0.1,0,0.1,0.1c0.1,0.1,0.2,0.1,0.2,0.1c0.1,0.1,0.2,0.1,0.3,0.2
			c0,0,0.1,0.1,0.1,0.1c0,0,0,0,0,0c0.1,0,0.1,0.1,0.2,0.1c0,0,0.1,0,0.1,0.1c0.1,0.1,0.3,0.1,0.4,0.2c0,0,0,0,0,0
			c0.1,0,0.1,0,0.2,0.1c0.1,0,0.2,0.1,0.3,0.1c0.1,0,0.3,0.1,0.4,0.1c0,0,0.1,0,0.1,0c0.1,0,0.2,0.1,0.4,0.1c0.2,0,0.3,0,0.5,0.1
			c0.1,0,0.2,0,0.2,0c0.1,0,0.2,0,0.3,0c0.1,0,0.2,0,0.3,0c0.1,0,0.2,0,0.3,0c0.1,0,0.2,0,0.4,0c0.1,0,0.1,0,0.2,0
			c0.1,0,0.2,0,0.4,0c0.1,0,0.3-0.1,0.4-0.1c0.2,0,0.3,0,0.5-0.1c0.1-0.1,0.3-0.1,0.5-0.2c0.2,0,0.3-0.1,0.5-0.2c0,0,0.1,0,0.1-0.1
			c0.1,0,0.2,0,0.3-0.1c0,0,0,0,0,0c0.1,0,0.3-0.1,0.4-0.2c0,0,0.1-0.1,0.2-0.1c0.1-0.1,0.2-0.2,0.3-0.2c0,0,0,0,0.1-0.1
			c0.2-0.1,0.3-0.2,0.4-0.2c0.1,0,0.1-0.1,0.2-0.1c0.2-0.1,0.3-0.3,0.5-0.4c0,0,0,0,0,0c0.1-0.1,0.2-0.2,0.3-0.3
			c0.1-0.1,0.1-0.1,0.2-0.2c0-0.1,0.1-0.2,0.2-0.2c0.1-0.1,0.2-0.2,0.3-0.3c0-0.1,0.1-0.1,0.1-0.2c0-0.1,0.1-0.1,0.1-0.2
			c0.1-0.1,0.2-0.3,0.3-0.4c0,0,0-0.1,0-0.1c0-0.1,0.1-0.2,0.1-0.3c0.1-0.2,0.2-0.3,0.2-0.5c0,0,0,0,0-0.1C16,35,16,34.9,16,34.8
			c0,0,0-0.1,0-0.1c0.1-0.1,0.1-0.2,0.1-0.3c0-0.1,0.1-0.1,0.1-0.2c0-0.1,0.1-0.2,0.1-0.3c0-0.1,0-0.2,0.1-0.3
			c0-0.1,0.1-0.2,0.1-0.3c0-0.1,0-0.2,0.1-0.3c0,0,0-0.1,0-0.1c0-0.1,0-0.1,0.1-0.2c0-0.1,0-0.2,0-0.2c0,0,0,0,0-0.1
			c0-0.1,0-0.2,0-0.3c0-0.1,0-0.2,0-0.3c0,0,0-0.1,0-0.1c0-0.1,0-0.2,0-0.3c0-0.1,0-0.2,0-0.3c0-0.2,0-0.3,0-0.5c0,0,0-0.1,0-0.1
			c0-0.1,0-0.2,0-0.2c0-0.1,0-0.2,0-0.3c0-0.1,0-0.1,0-0.2c0.1-0.2,0-0.3,0-0.5c0-0.1,0-0.1,0-0.2c0-0.1,0-0.2,0-0.2
			c0-0.1,0-0.2,0-0.4c0-0.2,0-0.3,0-0.5c0-0.1,0-0.1,0-0.2c0,0,0-0.1,0-0.1c0-0.1,0.1-0.2,0-0.4c0-0.1,0-0.2,0-0.4
			c0-0.1,0-0.2,0-0.3c0-0.1,0-0.2,0-0.3c0-0.1,0-0.2,0-0.3c0-0.1,0-0.2,0-0.4c0-0.2,0-0.4,0-0.6c0,0,0,0,0,0c0-0.1,0-0.2,0-0.4
			c0,0,0,0,0-0.1c0-0.1,0-0.2,0-0.3c0,0,0-0.1,0-0.1c0,0,0,0,0-0.1c0-0.2,0-0.5,0-0.7c0-0.1,0-0.3,0-0.4c0,0,0,0,0,0
			c0.1-0.1,0-0.2,0-0.4c-0.1-0.1,0-0.2,0-0.4c0,0,0-0.1,0-0.1c0,0,0,0,0-0.1c0-0.2,0-0.4,0-0.6c0,0,0,0,0-0.1c0-0.1,0-0.1,0-0.2
			c0-0.1,0-0.2,0-0.4c0,0,0-0.1,0-0.1c0-0.1,0-0.2,0-0.4c0,0,0,0,0-0.1c0,0,0-0.1,0-0.1c0-0.1,0-0.1,0-0.2c0,0,0,0,0-0.1
			c0-0.1,0-0.1,0-0.2c0-0.1,0-0.1,0-0.2C17,19.5,17,19.4,17,19.3z M2.6,3.3c0,0,0-0.1,0-0.1C2.7,3,2.7,3,2.8,2.9
			C2.9,2.8,2.9,2.8,3,2.7c0.1,0,0.1-0.1,0.2-0.2c0.2-0.2,0.4-0.3,0.6-0.5C3.9,2,4,2,4.1,1.9c0.1-0.1,0.2-0.1,0.4-0.2
			c0,0,0.1,0,0.1-0.1c0.1,0,0.1,0,0.2-0.1C4.9,1.5,5,1.5,5,1.5c0.1,0,0.2-0.1,0.2-0.1c0,0,0.1,0,0.1-0.1c0.1-0.1,0.2,0,0.3,0
			c0.1,0.1,0.2,0.1,0.2,0.3C5.9,1.8,6,1.9,6.1,2.1c0.1,0.1,0.1,0.2,0.1,0.3c0,0,0,0.1,0.1,0.1c0.1,0.1,0.1,0.2,0,0.3
			c0,0.1-0.1,0.2-0.1,0.2C6.1,3.2,6.1,3.3,6,3.4C5.9,3.5,5.9,3.6,5.8,3.7C5.8,3.8,5.7,3.9,5.6,4c0,0.1-0.1,0.1-0.1,0.2
			c0,0.1-0.1,0.1-0.2,0.1c-0.1,0-0.3,0-0.4,0c0,0-0.1,0-0.1,0c-0.1,0-0.3,0-0.4,0.1c0,0-0.1,0-0.1,0c-0.1,0-0.2,0-0.4,0
			c-0.2,0-0.4,0-0.5,0c0,0-0.1,0-0.1,0c0-0.1-0.1-0.1-0.2-0.2c0,0,0,0,0,0C3.1,4.1,3.1,4,3,3.9c0-0.1-0.1-0.1-0.2-0.2
			C2.8,3.6,2.7,3.5,2.6,3.3C2.6,3.3,2.6,3.3,2.6,3.3z M7.9,2.2c0,0-0.1,0.1-0.1,0.1c-0.1,0-0.1,0.1-0.1,0.2c0,0.1,0,0.1,0,0.2
			c0,0,0,0,0,0.1c0.1,0.1,0.1,0.2,0.1,0.2c0,0.1,0,0.1,0,0.2c0,0,0,0.1,0,0.1C7.7,3.4,7.6,3.5,7.6,3.6C7.5,3.8,7.4,3.9,7.3,4.1
			c0,0,0,0.1-0.1,0.1C7.1,4.4,7,4.6,6.9,4.8C6.8,4.9,6.7,5,6.6,5.1C6.6,5.2,6.5,5.3,6.5,5.4c0,0,0,0.1-0.1,0.1
			c-0.3,0-0.5,0.2-0.7,0.4C5.6,5.9,5.6,6,5.6,6c0,0-0.1,0.1-0.1,0.1c0,0,0,0-0.1,0c-0.1,0-0.2,0-0.4,0c-0.1,0-0.2,0-0.3,0
			c-0.1,0-0.1,0-0.2,0c-0.2,0-0.4,0-0.6,0c0,0-0.1,0-0.1,0C3.8,6,3.7,5.9,3.6,5.8c0,0-0.1-0.1-0.1-0.1c0,0,0,0-0.1,0
			C3.3,5.6,3.1,5.7,3,5.8c0,0,0,0-0.1,0.1c-0.1,0.1-0.1,0.1-0.2,0c0,0-0.1,0-0.1-0.1C2.4,5.7,2.3,5.6,2.2,5.5c0,0-0.1-0.1-0.1-0.1
			C2,5.3,2,5.3,1.9,5.2c0,0-0.1-0.1-0.1-0.1c0-0.1-0.1-0.2-0.1-0.3c0-0.1,0-0.2,0-0.2c0-0.1,0.1-0.1,0.1-0.2c0,0,0.1-0.1,0.1,0
			c0.1,0,0.2,0,0.2,0c0.1,0,0.1,0,0.2,0.1c0.1,0,0.1,0.1,0.2,0.1c0.1,0.1,0.1,0.1,0.2,0.2c0.1,0.1,0.2,0.2,0.2,0.2C3,5,3.1,5,3.2,5
			c0.1,0,0.3,0,0.4,0c0,0,0,0,0,0C3.7,5,3.9,5,4,5c0,0,0.1,0,0.1,0c0.1,0,0.2,0,0.4,0c0.1,0,0.1,0,0.2,0c0,0,0.1,0,0.1,0
			c0,0,0.1,0,0.1,0c0.2,0.1,0.4,0.1,0.7,0.1c0.1,0,0.1,0,0.2-0.1c0,0,0,0,0,0c0-0.1,0.1-0.1,0.1-0.2C6,4.7,6.1,4.7,6.1,4.6
			c0.1-0.1,0.1-0.2,0.2-0.3C6.4,4.2,6.5,4.1,6.6,4c0,0,0-0.1,0.1-0.1c0.1-0.1,0.1-0.2,0.2-0.3c0-0.1,0-0.1,0.1-0.2
			C7,3.3,7,3.1,7.1,2.9c0-0.1,0-0.1,0-0.2C7,2.6,7,2.5,6.9,2.4c0-0.1-0.1-0.2-0.2-0.3C6.7,2,6.7,1.9,6.6,1.8
			C6.6,1.7,6.5,1.6,6.5,1.5C6.4,1.3,6.4,1.1,6.6,1c0,0,0-0.1,0.1-0.1c0.1,0,0.1,0,0.2-0.1C6.9,0.9,7,0.9,7,1c0,0,0,0,0,0
			c0.2,0.1,0.3,0.3,0.5,0.5c0,0,0.1,0.1,0.1,0.1c0.1,0.2,0.2,0.3,0.3,0.5C7.9,2.1,7.9,2.1,7.9,2.2z M9.4,1c0,0.1,0,0.1-0.1,0.2
			C9.2,1.3,9.1,1.5,8.9,1.6C8.8,1.7,8.8,1.8,8.7,1.9c0,0,0,0-0.1,0.1c0,0-0.1,0.1-0.2,0c-0.1,0-0.1-0.1-0.2-0.1
			c0-0.1-0.1-0.1-0.1-0.2C8.1,1.5,8,1.4,8,1.3C7.8,1.2,7.9,1,7.9,0.9c0,0,0.1-0.1,0.1-0.1c0.1,0,0.2,0,0.3,0c0.1,0,0.3,0,0.4,0
			c0.1,0,0.2,0,0.3,0c0.1,0,0.2,0,0.3,0C9.4,0.9,9.4,0.9,9.4,1z M16,11.3c0,0.1,0,0.2-0.1,0.3c0,0-0.1,0.1-0.1,0.1c0,0-0.1,0-0.1,0
			c-0.1,0-0.2-0.1-0.3-0.2c0,0-0.1-0.1-0.1-0.1c-0.1,0-0.1-0.1-0.2-0.2c0-0.1-0.1-0.1-0.1-0.2c-0.1-0.1-0.2-0.2-0.2-0.3
			c0-0.1-0.1-0.1-0.1-0.2c-0.1-0.3-0.2-0.6-0.2-0.9c0-0.2-0.1-0.4-0.1-0.6c0-0.2,0-0.3-0.1-0.5c0-0.1,0-0.2,0-0.3c0-0.2,0-0.4,0-0.5
			c0-0.1,0-0.2,0-0.3c0,0,0-0.1,0-0.1c0-0.2,0-0.5,0-0.7c0-0.2,0-0.4,0-0.6c0-0.1,0-0.2,0-0.3c0-0.1,0-0.2,0-0.3
			c0-0.1,0.1-0.2,0-0.3c0-0.1,0.1-0.2,0.1-0.3c0-0.1,0.1-0.1,0.1-0.2c0.1-0.2,0.1-0.3,0.3-0.4c0.1,0,0.1,0,0.2,0
			c0,0,0.1,0.1,0.1,0.1c0,0,0,0,0,0c0.1,0,0.1,0.1,0.2,0.2c0,0.1,0.1,0.1,0.1,0.2c0,0.1,0.1,0.2,0.1,0.3c0.1,0.1,0.1,0.2,0.1,0.3
			c0,0.1,0,0.2,0.1,0.3c0,0.1,0,0.2,0.1,0.4c0,0.1,0,0.3,0.1,0.4c0,0,0,0,0,0.1c0,0.2,0,0.4,0.1,0.6c0,0.1,0,0.1,0,0.2
			c0,0.1,0,0.2,0,0.2c0,0.1,0,0.3,0,0.4c0,0.5,0,1,0,1.5c0,0.1,0,0.1,0,0.2c0,0.1,0,0.3,0,0.4c0,0.1,0,0.2,0,0.2c0,0,0,0,0,0.1
			c0,0.1,0,0.2,0,0.2c-0.1,0.1,0,0.2,0,0.3C16,11,16,11.2,16,11.3z M16,28c0,0.1,0,0.2,0.1,0.3c0,0.1,0,0.2,0.1,0.3c0,0,0,0.1,0,0.1
			c0,0.1,0,0.3,0,0.4c0,0.2,0,0.4,0,0.6c0,0,0,0.1,0,0.1c0,0.2,0,0.3,0,0.5c0,0.1,0,0.2,0,0.3c0,0.1,0,0.2,0,0.3c0,0,0,0.1,0,0.1
			c0,0,0,0.1,0,0.1c0,0,0,0.1,0,0.1c0,0,0,0,0,0.1c0,0.2-0.1,0.4-0.1,0.5c0,0.2-0.1,0.4-0.1,0.6c0,0.1-0.1,0.2-0.2,0.3
			c0,0-0.1,0-0.1,0.1c0,0,0,0-0.1,0c0,0,0,0,0,0c0-0.1-0.1-0.3-0.1-0.4c0-0.2-0.1-0.4-0.1-0.6c0-0.2,0-0.3-0.1-0.5c0,0,0,0,0-0.1
			c0-0.3-0.1-0.6-0.1-0.9c0-0.3,0-0.5,0-0.8c0-0.2,0-0.4,0-0.5c0-0.1,0-0.2,0-0.3c0,0,0-0.1,0-0.1c0-0.1,0-0.3,0.1-0.4
			c0,0,0-0.1,0.1-0.1c0.1-0.1,0.2-0.1,0.4-0.1C15.9,27.9,15.9,27.9,16,28C16,28,16,28,16,28z M6.9,34.4C6.9,34.4,6.9,34.4,6.9,34.4
			c0,0.2,0,0.2,0,0.3c0,0.1,0,0.1,0,0.2c0,0.1,0,0.2,0,0.2c0,0.1,0,0.2,0,0.2c0,0.2,0,0.4,0,0.6c0,0.1,0,0.2,0,0.3
			c0,0.1,0,0.2,0,0.4c0,0.1,0.1,0.2,0.2,0.3c0,0,0,0.1,0.1,0.1c0.1,0.1,0.1,0.2,0.2,0.2c0.1,0.1,0.2,0.2,0.3,0.2
			c0.1,0,0.1,0.1,0.2,0.1c0,0,0.1,0.1,0.1,0.1c0.1,0,0.1,0.1,0.1,0.2c0,0,0,0.1,0.1,0.1c0,0.1,0.1,0.1,0.1,0.2c0,0.1,0,0.2,0,0.3
			c0,0.1,0,0.2,0,0.3c0,0,0,0,0,0c0,0.1,0,0.2,0,0.2c0,0,0,0,0,0c0,0,0,0.1,0,0.1c-0.1,0-0.1,0-0.2,0c0,0,0,0,0,0
			c-0.4,0-0.8-0.1-1.1-0.2c-0.1,0-0.1,0-0.2-0.1c-0.1,0-0.1-0.1-0.1-0.1c0-0.1,0-0.2,0-0.3c0-0.2,0-0.4,0-0.7c0-0.1,0-0.2,0-0.3
			c0-0.1,0-0.2,0-0.2c0-0.1,0-0.1,0-0.2c0,0,0,0,0-0.1c0,0,0,0,0-0.1c0-0.1,0-0.2,0-0.2c0-0.1,0-0.1,0-0.2c0-0.1,0-0.2,0-0.2
			c0-0.2,0-0.5,0-0.7c0-0.1,0-0.1,0-0.2c0-0.1,0-0.3,0-0.5c0,0,0,0,0,0c0,0,0,0,0-0.1c0-0.1,0-0.3,0-0.4c0-0.1,0-0.3,0-0.4
			c0-0.1,0-0.3,0-0.5c0,0,0,0,0-0.1c0.1,0.1,0.1,0.2,0.3,0.2c0,0,0,0,0,0c0,0,0,0,0,0c0,0.1,0.1,0.2,0,0.3C6.9,34.2,7,34.3,6.9,34.4
			z M11.4,22.9c0.1,0.1,0.1,0.1,0.1,0.2c0,0.1,0,0.2,0,0.3c0,0.1,0,0.2,0,0.3c0,0,0,0.1,0,0.1c0,0.1,0,0.2,0,0.4c0,0.1,0,0.2,0,0.3
			c0,0,0,0,0,0c0,0.3,0,0.5,0,0.8c0,0.1,0,0.3,0,0.5c0,0.1,0,0.1,0,0.2c0,0.1,0,0.2,0,0.2c0,0,0,0,0,0.1c0,0.2,0,0.2,0.1,0.4
			c0.1,0.2,0.2,0.4,0.3,0.6c0,0,0.1,0.1,0.1,0.1c0,0,0.1,0.1,0.1,0.1c0,0,0.1,0,0.1,0.1c0.1,0,0.1,0,0.2,0.1c0,0,0.1,0,0.1,0.1
			c0.1,0.1,0.1,0.2,0.1,0.3c0,0.1,0,0.2,0,0.2c0,0.1,0,0.2-0.1,0.3c0,0,0,0.1,0,0.1c0,0.1-0.1,0.2-0.1,0.3c-0.1,0.1-0.1,0.1-0.2,0.1
			c-0.1,0-0.2,0-0.3,0c0,0,0,0,0,0c-0.1,0-0.2,0-0.2,0c-0.1,0-0.1,0-0.2,0c0,0-0.1,0-0.1,0c-0.2,0-0.4,0-0.6,0c-0.1,0-0.2,0-0.3-0.1
			c0,0,0,0-0.1-0.1c0,0-0.1-0.1-0.1-0.1c-0.1-0.1-0.1-0.3-0.1-0.5c0,0,0-0.1,0-0.1c0-0.2,0-0.3-0.1-0.5c0,0,0,0,0,0
			c0-0.2,0-0.4,0-0.7c0-0.1,0-0.2,0-0.2c0-0.1,0-0.2,0-0.2c0-0.2,0-0.3,0-0.5c0,0,0-0.1,0-0.1c0-0.1,0-0.1,0-0.2c0,0,0-0.1,0-0.1
			c0-0.2,0-0.3,0-0.5c0,0,0,0,0,0c0-0.1,0-0.3,0-0.4c0-0.1,0-0.3,0-0.4c0-0.1,0-0.1,0-0.2c0-0.1,0-0.2,0-0.4c0-0.1,0-0.1,0.1-0.1
			c0.1,0,0.2,0,0.4,0c0,0,0.1,0,0.1,0c0.2,0,0.4-0.1,0.5-0.1c0,0,0.1,0,0.1,0c0.1,0,0.1,0,0.1-0.1c0,0,0-0.1,0-0.1
			c0,0-0.1-0.1-0.1-0.1c-0.1-0.1-0.1-0.1-0.2-0.1c-0.1,0-0.3-0.1-0.4-0.1c0,0-0.1,0-0.1,0c-0.1,0-0.2-0.1-0.3-0.1
			c-0.1,0-0.1-0.1-0.2-0.2c0,0,0-0.1,0-0.1c0-0.2,0.1-0.3,0.2-0.5c0-0.1,0.1-0.1,0.2-0.1c0.1,0,0.2,0,0.4,0c0.1,0,0.2,0.1,0.3,0.1
			c0,0,0,0,0,0c0,0,0,0,0,0c0,0.1,0.1,0.2,0.2,0.3C11.2,22.7,11.3,22.8,11.4,22.9C11.4,22.9,11.4,22.9,11.4,22.9z M9.5,20
			C9.5,20,9.5,20,9.5,20c-0.1-0.1-0.1-0.2,0-0.3c0.1-0.1,0.1-0.2,0.2-0.3c0,0,0.1,0,0.1,0c0,0,0,0,0,0c0,0,0.1,0.1,0.1,0.1
			c0,0,0,0,0,0c0,0.1,0.1,0.2,0.1,0.3c0,0.1,0,0.1-0.1,0.1c0,0-0.1,0.1-0.2,0c0,0-0.1,0-0.1,0c0,0-0.1,0-0.1,0
			C9.6,20.1,9.6,20.1,9.5,20C9.5,20.1,9.5,20,9.5,20z M6.5,32.3c0-0.2,0-0.3,0-0.5c0,0,0-0.1,0-0.1c0,0,0,0,0-0.1
			c0.1-0.1,0-0.2,0-0.3c0,0,0-0.1,0-0.1c0-0.2,0-0.3,0-0.5c0-0.1,0-0.2,0-0.2c0,0,0,0,0-0.1c0-0.1,0.1-0.2,0.1-0.3
			C6.9,30,7,30,7.2,29.9c0.1,0,0.3-0.1,0.4-0.1c0,0,0,0,0,0c0,0,0.1,0,0.1,0c0.1,0,0.2,0,0.3,0c0,0,0.1,0,0.1,0c0.1,0,0.1,0,0.1,0
			c0,0,0.1,0,0.1,0c0.1,0,0.2,0,0.2,0c0.1,0,0.2,0,0.2,0c0.1,0,0.2,0,0.2,0c0.1,0,0.1,0,0.2,0c0,0,0.1,0,0.1,0c0.1,0,0.2,0,0.3,0
			c0.1,0,0.2,0,0.2,0c0.1,0,0.1,0,0.2,0c0.1,0,0.1,0,0.2,0c0.2,0,0.3,0,0.5,0c0.1,0,0.2,0,0.3,0c0.1,0,0.2,0,0.3,0
			c0.1,0,0.2,0,0.3,0c0,0,0,0,0.1,0c0,0,0.1,0,0.1,0c0,0,0,0.1,0,0.2c0,0.1-0.1,0.1-0.1,0.2c-0.1,0.1-0.2,0.3-0.2,0.5
			c-0.1,0.2,0,0.4,0,0.6c0,0.1,0,0.2,0.1,0.3c0,0,0,0,0,0c0.1,0.1,0.2,0.1,0.2,0c0,0,0,0,0,0c0.1,0,0.1-0.1,0.2-0.2
			c0.1-0.1,0.1-0.2,0.2-0.3c0-0.1,0.1-0.1,0.1-0.2c0,0,0,0,0-0.1c0.1-0.1,0.2-0.3,0.2-0.4c0,0,0-0.1,0-0.1c0,0,0,0,0,0
			c0-0.1,0.1-0.3,0.1-0.4c0-0.2,0.1-0.4,0.1-0.6c0,0,0,0,0,0c0-0.2,0.1-0.4,0.1-0.5c0-0.1,0-0.1,0-0.2c0,0,0-0.1,0-0.1
			c0.1-0.1,0.1-0.2,0.2-0.3c0-0.1,0.1-0.1,0.2-0.2c0,0,0.1,0,0.1,0c0.1-0.1,0.2-0.1,0.3-0.1c0,0,0.1,0,0.1,0c0,0,0,0,0,0
			c0,0,0,0,0,0c0,0.1,0.1,0.2,0.2,0.3c0,0,0.1,0.1,0,0.1c0.1,0.1,0.1,0.3,0.1,0.4c0,0.1,0,0.2,0,0.3c0,0.1,0,0.2,0.1,0.3
			c0,0,0,0,0,0c-0.1,0.1,0,0.2,0,0.3c0.1,0.1,0,0.3,0,0.4c0,0.1,0,0.3,0,0.4c0,0,0,0.1,0,0.1c0,0.1,0,0.3,0,0.4c0,0.3,0,0.6,0,0.8
			c0,0.2,0,0.4,0,0.5c0,0.1,0,0.3,0,0.4c0,0,0,0,0,0.1c0,0,0,0.1,0,0.1c0,0,0,0.1,0,0.1c0,0.1,0,0.2,0,0.3c0,0.1,0,0.2,0,0.2
			c0,0,0,0,0,0c0,0,0,0,0,0c0,0.1,0,0.2,0,0.4c0,0.1,0,0.2,0,0.4c0,0,0,0.1,0,0.1c0,0.1,0,0.1,0,0.2c0,0,0,0.1,0,0.1
			c0,0.1,0,0.2,0,0.3c0,0.2,0,0.4-0.1,0.6c0,0.1-0.1,0.2-0.2,0.3c0,0,0,0,0,0c0,0-0.1,0.1-0.1,0.1c-0.1,0.1-0.1,0.2-0.2,0.3
			c0,0,0,0,0,0c-0.1,0.2-0.3,0.4-0.5,0.5c0,0-0.1,0.1-0.1,0.1c-0.1,0.1-0.2,0.2-0.3,0.3c-0.1,0-0.1,0.1-0.2,0.1
			c-0.1,0-0.1,0.1-0.2,0.1c0.1-0.1,0.2-0.2,0.3-0.3c0,0,0.1,0,0.1-0.1c0-0.1,0.1-0.1,0.2-0.2c0-0.1,0.1-0.1,0.1-0.2
			c0.1-0.1,0.2-0.3,0.2-0.4c0.1-0.1,0.1-0.2,0.1-0.3c0,0,0,0,0-0.1c0-0.1,0-0.1,0-0.2c0-0.2,0-0.3,0-0.5c0-0.1,0-0.2,0-0.3
			c0-0.1,0-0.2,0-0.3c0-0.1,0-0.1,0-0.2c0-0.1,0-0.1,0-0.2c0-0.1,0-0.2,0-0.2c0.1-0.2,0.1-0.4,0.1-0.6c0,0,0-0.1,0.1-0.1
			c0,0,0.1-0.1,0.1-0.1c0-0.1,0.1-0.2,0.1-0.3c0-0.2,0-0.3-0.1-0.4c0,0-0.1-0.1-0.1-0.1c-0.1,0-0.1-0.1-0.2-0.1
			c-0.1,0-0.2,0-0.2-0.1c-0.2,0-0.4,0.2-0.5,0.3c0,0.1-0.1,0.3,0,0.4c0,0.2,0.1,0.2,0.2,0.3c0.1,0,0.1,0.1,0.2,0.1c0,0,0,0,0,0
			c0,0.1,0,0.1,0,0.2c0,0.1-0.1,0.3,0,0.4c0,0.1,0,0.2,0,0.3c0,0,0,0.1,0,0.1c0,0.2,0,0.3,0,0.5c0,0.1,0,0.2,0,0.3c0,0,0,0,0,0.1
			c0,0.2-0.1,0.4-0.1,0.6c0,0.1,0,0.1-0.1,0.2c0,0,0,0.1-0.1,0.1c0,0.1,0,0.1-0.1,0.1c-0.2,0.2-0.4,0.4-0.6,0.6
			c-0.1,0.1-0.2,0.3-0.3,0.4c0,0.1-0.1,0.2-0.1,0.2c-0.1,0.1-0.1,0.2,0,0.2c0,0,0,0,0,0c-0.2,0.1-0.3,0.2-0.5,0.3
			c-0.1,0.1-0.3,0.2-0.4,0.3c0-0.1,0-0.1,0-0.2c0,0,0-0.1,0-0.1c0-0.1,0-0.1,0-0.2c0-0.1,0-0.1,0-0.2c0-0.1,0-0.2,0-0.3
			c0-0.1,0.1-0.3,0.1-0.4c0,0,0,0,0-0.1c0.1-0.1,0.2-0.2,0.3-0.3c0.1-0.1,0.2-0.2,0.3-0.3c0,0,0.1-0.1,0.1-0.1
			c0.1-0.1,0.1-0.2,0.2-0.3c0.1-0.1,0.1-0.2,0.1-0.2c0,0,0-0.1,0-0.1c0.1-0.1,0.1-0.3,0.1-0.4c0-0.1,0-0.1,0-0.2c0-0.1,0-0.1,0-0.2
			c0-0.1,0-0.2,0-0.4c0-0.1,0-0.3,0-0.4c0,0,0,0,0-0.1c0,0,0-0.1,0-0.1c0-0.1,0-0.2,0-0.3c0,0,0-0.1,0-0.1c0-0.1,0-0.2,0-0.3
			c0-0.1,0-0.2,0-0.3c0,0,0,0,0-0.1c0,0,0,0,0-0.1c0,0,0-0.1,0-0.1c0-0.1,0-0.1,0.1-0.2c0.1-0.1,0.2-0.2,0.3-0.4
			c0-0.1,0-0.2,0.1-0.2c0,0-0.1-0.1-0.1-0.1c0,0,0,0,0-0.1c0-0.1-0.1-0.1-0.1-0.2c-0.1-0.1-0.1-0.1-0.2-0.1c-0.1,0-0.2,0-0.3,0.1
			c-0.2,0-0.3,0.2-0.4,0.3c-0.1,0.1-0.1,0.2,0,0.3c0,0.1,0,0.1,0.1,0.2c0,0.1,0.1,0.2,0.1,0.3c0,0,0.1,0.1,0.1,0.1c0,0,0,0,0.1,0.1
			c0,0,0,0.1,0,0.1c0,0.1,0,0.2,0,0.3c0,0.1,0,0.2,0,0.2c0,0,0,0.1,0,0.1c0,0,0,0.1,0,0.1c0,0,0,0.1,0,0.1c0,0,0,0.1,0,0.1
			c0,0.2,0,0.3,0,0.5c0,0,0,0.1,0,0.1c0,0.2,0,0.3,0,0.5c0,0,0,0,0,0.1c0,0.1,0,0.1,0,0.2c0,0,0,0.1,0,0.1c0,0.1,0,0.2-0.1,0.3
			c0,0.1-0.1,0.2-0.1,0.2c-0.1,0.2-0.2,0.4-0.4,0.5c0,0,0,0,0,0.1c-0.1,0.1-0.2,0.2-0.3,0.3c-0.1,0.1-0.2,0.2-0.3,0.3c0,0,0,0,0,0
			c-0.1,0.2-0.1,0.3-0.1,0.5c0,0.1,0,0.3,0,0.4c0,0,0,0,0,0.1c0,0.1,0,0.1,0,0.2c0,0,0,0.1,0,0.1c0,0.1,0,0.2,0,0.4
			c0,0.1,0,0.1,0.1,0.2c0,0-0.1,0-0.1,0c-0.2,0.1-0.3,0.1-0.5,0.2c0,0,0,0,0,0c0,0,0,0,0,0c0-0.1,0-0.1,0-0.2c0-0.1,0-0.2,0-0.3
			c0-0.1,0-0.2,0-0.3c0-0.1,0-0.2,0-0.2c0-0.2,0-0.3-0.1-0.5c0-0.1,0-0.2-0.1-0.2C10,37.1,9.9,37,9.8,37c0,0-0.1-0.1-0.1-0.1
			c0-0.1-0.1-0.1-0.2-0.2c0,0-0.1,0-0.1-0.1c-0.1-0.1-0.2-0.2-0.3-0.3c0,0,0,0,0,0c0-0.1-0.1-0.2-0.1-0.2c0-0.1-0.1-0.2-0.1-0.3
			c-0.1-0.2-0.1-0.3-0.1-0.5c0-0.2,0-0.3,0-0.5c0-0.2,0-0.5,0-0.7c0,0,0,0,0-0.1c0-0.1,0-0.3,0-0.4c0-0.1,0-0.1,0-0.2
			c0,0,0-0.1,0-0.1c0-0.1,0-0.1,0-0.2c0-0.1,0.1-0.1,0.1-0.1c0.1,0,0.1-0.1,0.2-0.1c0.1-0.1,0.2-0.2,0.2-0.3c0-0.1,0-0.2,0-0.3
			C9.1,32,9,31.9,9,31.8c-0.1-0.1-0.2-0.2-0.4-0.2c-0.1,0-0.2,0-0.4,0c-0.1,0-0.2,0.1-0.2,0.2c-0.1,0.2-0.2,0.3-0.1,0.5
			c0,0,0,0.1,0,0.1c0,0.2,0.1,0.4,0.3,0.5c0.1,0,0.1,0.1,0.1,0.1c0,0.2,0,0.4,0,0.6c0,0.1,0,0.2,0,0.3c0,0.1-0.1,0.2,0,0.3
			c0,0,0,0.1,0,0.1c0,0.1,0,0.2,0,0.4c0,0.1,0,0.1,0,0.2c0,0.1,0,0.2,0,0.2c0,0.1,0,0.3,0,0.4c0,0.2,0,0.4,0.1,0.6
			c0,0.1,0.1,0.3,0.2,0.4c0,0.1,0.1,0.1,0.1,0.2c0.1,0.1,0.2,0.2,0.4,0.2c0,0,0,0,0,0c0.1,0,0.1,0.1,0.2,0.1
			c0.1,0.1,0.2,0.1,0.2,0.2c0.1,0.1,0.2,0.2,0.2,0.3c0,0.2,0,0.4,0,0.5c0,0.1-0.1,0.2,0,0.3c0,0.1-0.1,0.2,0,0.2
			c-0.1,0.1,0,0.3,0.1,0.4c0,0,0,0,0,0.1c0,0,0,0,0,0c0,0,0,0,0,0c-0.1,0-0.1,0-0.2,0.1c-0.1,0-0.2,0.1-0.3,0.1
			c-0.1,0-0.2,0.1-0.3,0c0,0-0.1,0-0.1,0c0,0-0.1,0-0.1,0c0,0,0-0.1,0-0.1c0,0,0-0.1,0-0.1c0-0.1,0-0.2,0-0.2c0-0.1,0-0.2,0-0.3
			c0,0,0-0.1,0-0.1c0-0.1,0-0.1,0-0.2c0,0,0-0.1,0-0.1c0,0,0-0.1,0-0.1c0-0.1-0.1-0.1-0.1-0.2c0-0.1-0.1-0.1-0.1-0.2
			c-0.1-0.1-0.2-0.1-0.2-0.2c0,0,0,0-0.1,0c0,0-0.1,0-0.1-0.1c0,0,0,0-0.1-0.1C7.9,37,7.8,37,7.7,36.9c-0.1-0.1-0.2-0.3-0.3-0.4
			c0,0,0,0,0-0.1c0-0.1,0-0.2,0-0.2c0-0.1,0-0.2,0-0.2c0-0.1,0-0.2,0-0.3c0,0,0-0.1,0-0.1c0,0,0-0.1,0-0.1c0-0.2,0-0.3,0-0.5
			c0-0.2,0-0.3,0-0.5c0-0.1,0-0.1,0-0.2c0,0,0-0.1,0-0.1c0-0.1,0-0.1,0-0.2c0,0,0,0,0-0.1c0-0.1,0-0.1,0-0.2c0-0.1,0-0.1,0.1-0.1
			c0.1-0.1,0.2-0.1,0.2-0.3c0.1-0.1,0.1-0.2,0.1-0.4c0,0,0-0.1,0-0.1c0-0.1,0-0.1,0-0.2c0-0.1-0.1-0.2-0.1-0.3
			c-0.1-0.1-0.2-0.2-0.3-0.2c-0.1,0-0.2,0-0.4,0c-0.1,0-0.2,0.1-0.3,0.2c0,0,0,0,0,0c0,0.1-0.1,0.1-0.1,0.2c0,0,0,0,0,0c0,0,0,0,0,0
			c0-0.1,0-0.2,0-0.3C6.5,32.4,6.5,32.4,6.5,32.3z M1.2,29.8c0,0,0-0.1,0-0.1c0-0.1,0.1-0.3,0.2-0.4c0.1-0.1,0.2-0.1,0.3-0.1
			c0.1,0,0.2,0,0.3,0c0.1,0,0.1,0,0.2,0c0.2,0.1,0.4,0.1,0.6,0.2C3,29.5,3,29.7,3,29.8c0,0,0,0.1,0,0.1C3,30,3,30.1,2.8,30.1
			c-0.1,0-0.1,0-0.2,0c-0.1,0-0.2,0-0.3,0c-0.1,0-0.2,0-0.4,0c-0.1,0-0.2,0-0.3,0c-0.1,0-0.2,0-0.3,0c-0.1,0-0.2,0-0.2,0
			c-0.1,0-0.1,0-0.1-0.1C1.1,30,1.1,29.9,1.2,29.8z M2.1,32.6c0,0,0,0.1,0,0.2c0,0.1,0,0.1,0,0.2c0,0.1,0,0.2,0,0.3
			c0,0.1,0,0.2,0,0.3c0,0.1,0,0.2,0,0.3c0,0,0,0.1,0,0.1C2,33.9,2,34,2,34c0,0.2,0,0.5,0,0.7c0,0.1,0,0.3,0,0.4c0,0,0,0,0,0
			c0,0,0,0,0,0c0,0,0,0,0-0.1c0,0,0,0,0-0.1c0,0,0,0,0-0.1c-0.1-0.1-0.1-0.3-0.2-0.4c0,0,0,0,0,0c0-0.1-0.1-0.2-0.1-0.4
			c0-0.1,0-0.1,0-0.2c0,0,0-0.1,0-0.1c0,0,0,0,0-0.1c-0.1-0.2-0.1-0.4-0.2-0.6c0-0.1,0-0.2,0-0.2c0-0.2,0-0.4-0.1-0.5c0,0,0,0,0,0
			c0-0.1,0-0.1,0.1-0.1c0.1,0,0.1,0,0.2,0c0.1,0,0.2,0,0.3,0.1c0.1,0,0.1,0,0.2,0c0,0,0,0,0,0c0.1,0,0.1,0.1,0.2,0.2
			C2.1,32.5,2.1,32.5,2.1,32.6z M2.5,31.7c0,0-0.1,0-0.1,0.1c0,0-0.1,0-0.1,0c-0.1,0-0.3,0-0.4,0c-0.1,0-0.3,0-0.4,0
			c-0.1,0-0.2,0-0.3-0.1c-0.1-0.1-0.1-0.1-0.1-0.2c0,0,0-0.1,0-0.1h0c0,0,0-0.1,0-0.1c0-0.2,0.1-0.3,0.2-0.5
			c0.1-0.1,0.1-0.1,0.2-0.1c0.1,0,0.2,0,0.3,0c0.1,0,0.3,0,0.4,0c0.2,0,0.3,0.1,0.5,0.1c0,0,0,0,0.1,0c0.1,0,0.1,0.1,0.1,0.1
			c0,0.1,0,0.2,0,0.3c0,0,0,0.1,0,0.1c0,0.1-0.1,0.2-0.1,0.2C2.7,31.7,2.6,31.7,2.5,31.7z M4.9,38.1c-0.1-0.1-0.3-0.2-0.4-0.2
			c0,0-0.1-0.1-0.1-0.1c-0.1-0.1-0.2-0.2-0.3-0.3c0,0-0.1-0.1-0.1-0.1c-0.1-0.1-0.2-0.2-0.3-0.3c-0.1-0.1-0.2-0.2-0.2-0.3
			c-0.2-0.2-0.3-0.4-0.3-0.6C3,36.1,3,36,2.9,35.9c0-0.1,0-0.1,0-0.2c0-0.1,0-0.1,0-0.2c0-0.1,0-0.2-0.1-0.2c0,0,0,0,0-0.1
			c0-0.1,0-0.2,0-0.3c0-0.1,0-0.2,0-0.3c0,0,0,0,0,0c0-0.1,0-0.3,0-0.4c0,0,0,0,0,0c0,0,0,0,0,0c0,0,0,0,0,0c0,0,0,0,0.1,0
			c0,0,0.1,0,0.1,0c0,0,0.1,0,0.1,0c0.1,0,0.3-0.1,0.4-0.2c0.2-0.1,0.3-0.2,0.4-0.4c0.1-0.1,0.2-0.2,0.2-0.3c0,0,0-0.1,0-0.1
			c0.1-0.1,0.1-0.1,0.1-0.2c0.1-0.1,0.1-0.3,0.2-0.4c0-0.1,0.1-0.2,0.1-0.4c0,0,0-0.1,0-0.1c0.1-0.1,0-0.2,0-0.3c0,0,0,0,0-0.1
			c0-0.1,0-0.2,0-0.3c0-0.2,0-0.3,0.1-0.5c0-0.2,0.1-0.3,0.2-0.5c0-0.1,0.1-0.1,0.1-0.2c0-0.1,0.1-0.1,0.2-0.1
			c0.1,0,0.2,0.1,0.3,0.1c0,0,0,0,0,0c0,0.1,0.1,0.3,0.1,0.4c0,0.1,0,0.2,0,0.2c0,0.2,0,0.3,0,0.5c0,0.1,0,0.2,0,0.3
			c0,0.1,0,0.2,0,0.3c0,0.1,0,0.1,0,0.2c0,0.1,0,0.1,0,0.2c0,0.2,0,0.3,0,0.5c0,0,0,0.1,0,0.1c0,0.1,0,0.3,0,0.4c0,0,0,0,0,0.1
			c0,0.1,0,0.2,0,0.4c0,0,0,0,0,0.1c0,0.1,0,0.2,0,0.4c0,0,0,0.1,0,0.1c0,0.1,0.1,0.2,0,0.3c0,0.1,0,0.2,0,0.3c-0.1,0.3,0,0.6,0,0.8
			c0,0.1,0,0.2,0,0.2c0,0.1,0,0.1,0,0.2c0,0.1,0,0.2,0,0.3c0,0.1,0,0.2,0,0.3c0,0.1,0,0.2,0,0.3c0,0.2,0,0.3,0,0.5
			c0,0.1,0,0.1,0,0.2c0,0.1,0,0.3,0,0.4c0,0,0,0.1,0,0.1c0,0.1,0,0.1,0,0.2c-0.1,0-0.1,0-0.2,0C5.4,38.4,5.1,38.3,4.9,38.1z"/>
		<path class="st1" d="M10.3,7C10.3,7,10.3,7,10.3,7c0-0.1,0-0.1,0-0.1L10.3,7z"/>
		<path class="st1" d="M8.1,27.1C8,27.3,8,27.5,7.9,27.7c0,0.1-0.1,0.2-0.2,0.2c-0.1,0-0.1,0-0.2,0c-0.1,0-0.1,0-0.2,0
			c-0.1-0.1-0.1-0.1-0.2-0.2C7.1,27.7,7,27.5,7,27.4c0,0,0,0,0-0.1c0-0.1,0-0.1,0-0.2c0,0,0,0,0,0c0.1,0,0.2-0.1,0.3-0.1
			c0,0,0,0,0,0c0.1-0.1,0.2-0.2,0.2-0.4c0-0.2,0-0.4-0.1-0.6c0,0,0,0,0,0c-0.1-0.1-0.1-0.1-0.2-0.2c-0.1-0.1-0.1-0.1-0.2-0.2
			c0,0,0,0-0.1,0c-0.1,0-0.1,0-0.2-0.1c0,0-0.1,0-0.1,0c-0.1-0.1-0.3-0.1-0.4-0.1c-0.1,0-0.1,0-0.2,0c-0.2,0-0.4,0-0.5-0.1
			c-0.1-0.1-0.2-0.1-0.1-0.3c0-0.1,0.1-0.1,0.1-0.1c0.1-0.1,0.3-0.2,0.5-0.2c0,0,0,0,0,0c0.2,0,0.3,0,0.5-0.1c0,0,0,0,0.1,0
			c0.1,0,0.2-0.1,0.3-0.1c0.1,0,0.2-0.1,0.3-0.1c0.1,0,0.2-0.1,0.2-0.1c0,0,0.1-0.1,0.1-0.1c0.1-0.1,0.2-0.3,0.2-0.4
			c0-0.1,0-0.1,0-0.2c0,0,0,0,0,0c0,0,0-0.1,0-0.1c-0.1,0-0.1,0-0.2,0.1c-0.1,0.1-0.1,0.2-0.2,0.3C7.1,23.9,7,24,6.8,24
			c0,0-0.1,0-0.1,0c-0.1,0-0.1,0-0.2,0c-0.1,0-0.2,0-0.4,0.1c-0.1,0-0.3,0.1-0.4,0.2c0,0,0,0-0.1,0c-0.2,0-0.3,0.1-0.5,0.2
			c0,0,0,0,0,0C5,24.7,4.8,24.9,4.7,25c-0.1,0.1-0.1,0.2-0.1,0.3c0,0,0,0,0,0.1c0,0.1,0,0.1,0,0.2c0,0.1,0.1,0.2,0.1,0.3
			c0,0.1,0,0.1,0.1,0.2c0.1,0.1,0.2,0.1,0.3,0.1c0.1,0,0.2,0,0.3,0c0.1,0,0.1,0,0.2,0c0.3-0.1,0.5,0,0.8,0c0.1,0,0.3,0.1,0.4,0.2
			c0.1,0,0.1,0.2,0,0.2c-0.1,0-0.1,0.1-0.2,0.1c-0.2,0-0.5,0-0.8,0c-0.1,0-0.2,0-0.2,0c-0.1,0-0.3,0.1-0.4,0.1
			c-0.1,0-0.1,0.1-0.2,0.1c-0.1,0.1-0.1,0.2-0.2,0.3c-0.1,0.1-0.1,0.2-0.1,0.3c0,0.1-0.1,0.2,0,0.3c0,0.1-0.1,0.2-0.1,0.3
			c0,0.1,0,0.1,0,0.2c0,0.1,0,0.1,0,0.2c0,0.2,0,0.3-0.1,0.4c0,0.1,0,0.1-0.1,0.2c0,0.1-0.1,0.1-0.1,0.2c-0.1,0.1-0.1,0.1-0.1,0.2
			c0,0,0,0.1,0.1,0.1c0.1,0,0.2,0,0.2-0.1c0.1-0.1,0.1-0.1,0.2-0.2c0.1-0.1,0.1-0.1,0.2-0.2c0-0.1,0-0.1,0.1-0.2c0,0,0,0,0,0
			c0-0.1,0.1-0.1,0.1-0.2c0,0,0,0,0,0c0,0,0-0.1,0-0.2c0,0,0-0.1,0-0.1c0.1-0.1,0.1-0.3,0.1-0.4c0,0,0-0.1,0.1-0.1
			c0.1-0.1,0.1-0.1,0.2-0.2c0-0.1,0.1-0.1,0.1-0.1c0.2-0.1,0.2-0.1,0.4-0.1c0,0,0,0,0.1,0c0.1,0.1,0.2,0.1,0.2,0.2
			c0.1,0.1,0.2,0.3,0.3,0.4c0.1,0.1,0.1,0.2,0.2,0.3c0.1,0.1,0.2,0.2,0.2,0.3c0,0,0,0,0,0c0.1,0.1,0.1,0.2,0.3,0.2c0,0,0,0,0,0
			c0.1,0.1,0.3,0.2,0.5,0.2c0.1,0,0.2,0,0.2,0c0.1,0,0.1-0.1,0.2-0.1c0,0,0.1,0,0.1-0.1c0.1-0.1,0.2-0.2,0.3-0.3c0,0,0,0,0,0
			c0.1-0.2,0.1-0.4,0.2-0.6c0-0.1,0-0.2,0.1-0.3c0.1-0.1,0.1-0.3,0.1-0.4c0,0,0,0,0-0.1c0-0.1,0-0.3,0-0.4c0-0.1,0-0.2,0.1-0.4
			C9,26.1,9,26,9,25.9c0-0.1,0.1-0.1,0-0.2c0,0,0-0.1,0-0.1c0-0.1,0-0.1,0-0.2c0-0.1,0-0.1,0-0.2c0-0.1,0-0.2,0-0.3c0,0,0-0.1,0-0.1
			c0-0.1,0-0.2,0-0.2c0-0.2-0.1-0.3-0.1-0.5c0,0,0-0.1-0.1-0.1c-0.1,0-0.1,0-0.2,0.1c0,0,0,0.1,0,0.1c0,0.2-0.1,0.4-0.1,0.6
			c0,0.1-0.1,0.2-0.1,0.3c0,0.1,0,0.2,0,0.3c0,0.2-0.1,0.3-0.1,0.5c0,0.1-0.1,0.3-0.1,0.4c0,0.1,0,0.1-0.1,0.2c0,0,0,0,0,0.1
			c0,0,0,0.1,0,0.1C8.1,26.9,8.1,27,8.1,27.1z"/>
		<path class="st1" d="M15.4,23.2c0,0,0-0.1,0-0.1c0-0.2,0-0.4,0-0.7c0,0,0,0,0,0c0-0.1,0-0.2,0-0.2c0-0.1-0.1-0.1-0.1-0.2
			c0,0,0,0,0-0.1c-0.1,0-0.1-0.1-0.1-0.1c0,0-0.1-0.1-0.1-0.1c-0.1,0-0.2,0-0.3-0.1c0,0-0.1,0-0.1,0c-0.2,0-0.3,0-0.5,0
			c0,0-0.1,0-0.1,0c0,0-0.1,0-0.1,0c-0.1,0-0.3,0-0.4,0c0,0-0.1,0-0.1,0c-0.1,0-0.2,0-0.2,0c0,0,0,0,0,0c-0.1,0-0.2,0.1-0.3,0.2
			c0,0,0,0,0,0.1c0,0.2-0.1,0.3-0.2,0.5c0,0,0,0.1,0,0.1c0,0.1,0,0.2-0.1,0.3c0,0,0,0.1,0,0.1c0,0,0,0,0,0.1c0,0.2,0,0.3,0,0.5
			c0,0.1,0,0.3,0,0.4c0,0.1,0,0.3,0,0.4c0,0,0,0.1,0,0.1c0,0.1,0,0.2,0,0.3c0,0.1,0,0.2,0,0.4c0,0.2,0,0.3,0,0.5c0,0.1,0,0.1,0,0.2
			c0,0,0,0.1,0,0.1c0.1,0.1,0.1,0.2,0.1,0.2c0,0,0,0.1,0,0.1c0,0.1,0.1,0.2,0.2,0.2c0,0,0,0,0.1,0c0.1,0.1,0.2,0.2,0.4,0.2
			c0.2,0.1,0.4,0.1,0.6,0.1c0.1,0,0.1,0,0.2-0.1c0,0,0,0,0,0c0.1,0,0.2,0,0.2-0.1c0,0,0.1,0,0.1,0c0.2,0,0.3,0,0.4-0.1
			c0,0,0.1,0,0.1-0.1c0.1-0.1,0.1-0.2,0.1-0.3c0.1-0.1,0.1-0.3,0.1-0.5c0-0.1,0.1-0.2,0-0.4c0-0.1,0-0.2,0-0.3c0-0.1,0-0.2,0-0.4
			c0,0,0-0.1,0-0.1c0-0.1,0-0.2,0-0.3c0-0.1,0-0.2,0-0.3c0-0.1,0.1-0.3,0-0.4c0-0.1,0-0.1,0-0.2C15.5,23.4,15.4,23.3,15.4,23.2
			C15.4,23.2,15.4,23.2,15.4,23.2z M13.2,22.7c0-0.1,0-0.2,0.1-0.3c0.1-0.1,0.1-0.1,0.2-0.2c0,0,0.1-0.1,0.1-0.1
			c0.1,0,0.2-0.1,0.3,0c0.1,0,0.2,0,0.3,0c0.1,0,0.1,0,0.2,0c0,0,0.1,0,0.1,0c0.1,0,0.1,0,0.2,0.1c0.1,0.1,0.2,0.2,0.2,0.3
			c0,0.1,0,0.1,0,0.2c0,0.2,0,0.2-0.2,0.2c-0.1,0-0.2,0-0.2,0c-0.1,0-0.2,0-0.3,0c-0.1,0-0.1,0-0.2,0c-0.1,0-0.2-0.1-0.4-0.1
			c-0.1,0-0.1,0-0.2-0.1c0,0,0,0-0.1-0.1C13.2,22.8,13.2,22.7,13.2,22.7z M14.7,25.4c0,0,0,0.1,0,0.1c0,0.1,0,0.2-0.1,0.3
			c0,0.1-0.1,0.1-0.1,0.2c0,0.1-0.1,0.1-0.1,0.1c-0.1,0-0.2,0.1-0.3,0.1c0,0,0,0-0.1,0c-0.1,0-0.2,0-0.3,0c-0.1,0-0.3-0.1-0.4-0.2
			c0,0,0-0.1-0.1-0.1c-0.1-0.1-0.1-0.1-0.1-0.2c0,0,0,0,0-0.1c-0.1-0.1-0.1-0.2-0.1-0.3c0-0.1,0-0.2,0-0.3c0,0,0-0.1,0-0.1
			c0,0,0.1-0.1,0.1-0.1c0.1-0.1,0.2-0.1,0.3-0.1c0.1,0,0.2,0,0.2,0c0.3,0,0.5,0,0.8,0.1c0,0,0.1,0,0.1,0.1
			C14.7,25.2,14.8,25.3,14.7,25.4z M14.8,24.2c0,0.1-0.1,0.1-0.1,0.1c-0.1,0-0.3,0.1-0.4,0.1c-0.1,0-0.2,0-0.3,0c0,0,0,0,0,0
			c-0.1,0-0.2,0-0.3,0c0,0-0.1,0-0.1,0c0,0-0.1,0-0.1,0c0,0-0.1,0-0.1,0C13.1,24.3,13,24.2,13,24c0-0.1,0-0.2,0-0.3
			c0-0.1,0.1-0.2,0.2-0.2c0.1,0,0.1,0,0.2,0c0.1,0,0.1,0,0.2,0c0,0,0.1,0,0.1,0c0.2,0,0.4,0,0.6,0.1c0,0,0.1,0,0.1,0
			c0.1,0,0.1,0,0.1,0.1c0,0,0,0.1,0,0.1c0,0,0,0.1,0,0.1c0,0.1,0,0.1,0,0.2C14.8,24.1,14.8,24.2,14.8,24.2z"/>
		<path class="st1" d="M3.3,25.9c-0.1,0-0.2,0-0.3,0c0,0,0,0,0,0c-0.1,0-0.2,0-0.3,0.1c-0.1,0-0.2,0-0.3,0c-0.2,0-0.3,0-0.5,0
			c-0.2,0-0.4,0-0.6,0c-0.2,0-0.3,0-0.4,0.2c0,0,0,0,0,0c-0.1,0-0.1,0.1-0.1,0.1c-0.1,0.2-0.2,0.4-0.2,0.6c0,0,0,0.1,0,0.1
			c0,0.1,0,0.3,0.1,0.4c0,0,0,0,0,0.1c0,0.1,0,0.1,0,0.1c0,0.1,0.1,0.1,0.2,0.2C0.8,27.9,0.9,28,1.1,28c0,0,0.1,0,0.1,0
			c0,0,0.1,0,0.2,0c0.2,0,0.4,0,0.5,0c0.1,0,0.2,0,0.2,0c0.1,0,0.2,0,0.4,0c0.1,0,0.3,0,0.4,0c0,0,0.1,0,0.1,0c0.1,0,0.1,0,0.2,0
			c0.1,0,0.1,0,0.2,0c0.2,0,0.3,0,0.5-0.1c0.1,0,0.2-0.1,0.2-0.3c0-0.1,0-0.3-0.1-0.4c-0.1-0.1-0.1-0.3-0.1-0.4c0-0.1,0-0.1-0.1-0.1
			c0,0-0.1,0-0.2,0.1c0,0,0,0,0,0c0,0.1-0.2,0.2-0.2,0.4c-0.1,0.1-0.1,0.2-0.3,0.2c0,0-0.1,0-0.1,0c-0.1,0-0.1,0-0.2,0.1
			c-0.1,0-0.1,0-0.2,0c-0.1,0-0.3,0-0.4,0c-0.1,0-0.3,0-0.4-0.1c-0.1,0-0.2,0-0.3-0.1c-0.1,0-0.1,0-0.2-0.1c-0.1,0-0.2-0.1-0.2-0.3
			c0-0.1,0-0.2,0.1-0.3c0-0.1,0-0.1,0.1-0.2c0.1,0,0.1-0.1,0.2-0.1c0.1,0,0.2,0,0.3,0c0.2,0,0.3,0,0.5,0c0.2,0,0.4,0,0.6,0
			c0.1,0,0.3,0,0.4,0c0,0,0,0,0.1,0c0.1,0,0.2,0,0.4-0.1c0.1,0,0.2-0.1,0.2-0.1c0.1-0.1,0.1-0.3,0.2-0.5c0-0.2,0-0.3,0-0.5
			c0-0.1,0-0.1-0.1-0.2c0,0-0.1-0.1-0.1-0.1c0-0.1-0.1-0.1-0.1-0.2c-0.1,0-0.1-0.1-0.2-0.1c-0.1-0.1-0.3-0.1-0.4-0.2
			c-0.2-0.1-0.5,0-0.7-0.1c-0.1,0-0.3,0-0.4,0c-0.1,0-0.2,0-0.3,0c-0.1,0-0.2,0-0.3,0c0,0-0.1,0-0.1,0c-0.2,0-0.4,0-0.6,0
			c-0.1,0-0.1,0-0.2,0.1c0,0,0,0.1,0,0.1C0.7,24.9,0.8,25,1,25.1c0,0,0,0,0.1,0c0.1,0,0.2,0.1,0.4,0.1c0.2,0,0.4,0,0.6,0
			c0.2,0,0.3,0,0.5,0c0.1,0,0.2,0,0.3,0c0.1,0,0.3,0,0.4,0.1c0,0,0,0,0.1,0c0.1,0,0.2,0.1,0.2,0.1c0,0,0,0,0,0.1
			c0,0.1,0,0.2-0.1,0.3C3.4,25.8,3.4,25.9,3.3,25.9z"/>
		<path class="st1" d="M11.8,20.3c0,0.1,0,0.2,0,0.3c0,0.1,0.1,0.2,0.2,0.3c0,0,0,0,0.1,0.1c0.1,0.1,0.1,0.1,0.2,0.1
			c0.1,0,0.1,0,0.2,0.1c0,0,0.1,0,0.1,0c0.2,0,0.4,0,0.7,0c0.1,0,0.2,0,0.2,0c0.1,0,0.2,0,0.2,0c0.1,0,0.1,0,0.2,0
			c0.1,0,0.3,0,0.4,0c0.1,0,0.2,0,0.2,0c0,0,0.1,0,0.1,0c0.1,0,0.1,0,0.2,0c0.1,0,0.1,0,0.1,0c0.2,0,0.3-0.1,0.5-0.2c0,0,0,0,0,0
			c0.1,0,0.1-0.2,0-0.2c0,0-0.1-0.1-0.2-0.1c-0.1,0-0.3-0.1-0.4-0.1c0,0-0.1,0-0.1,0c-0.1,0-0.1,0-0.1,0c-0.1,0-0.2,0-0.3,0
			c-0.1,0-0.2,0-0.3,0c-0.1,0-0.2,0-0.3,0c0,0-0.1,0-0.1,0c-0.2,0-0.3,0-0.5,0c-0.1,0-0.2,0-0.2,0c-0.1,0-0.2,0-0.2-0.1
			c-0.1,0-0.2-0.1-0.3-0.1c0,0,0,0,0,0c0-0.1-0.1-0.1,0-0.2c0-0.1,0.1-0.1,0.1-0.1c0,0,0.1,0,0.1,0c0.1,0,0.2-0.1,0.3,0
			c0,0,0.1,0,0.1,0c0.1,0,0.3,0,0.4,0c0.1,0,0.1,0,0.2,0c0.1,0,0.2,0,0.4,0c0.1,0,0.2,0,0.3,0c0.1,0,0.3,0,0.4,0c0.1,0,0.1,0,0.2,0
			c0.1,0,0.2,0,0.3,0c0.1,0,0.2-0.1,0.2-0.1c0,0,0,0,0-0.1c0-0.1,0-0.2-0.1-0.2c-0.2-0.1-0.3-0.1-0.5-0.2c0,0,0,0-0.1,0
			c0,0-0.1,0-0.1,0c-0.1,0-0.1,0-0.2,0c-0.1,0-0.1,0-0.2,0c-0.2,0-0.3,0-0.5,0c-0.2,0-0.4,0-0.6,0c0,0,0,0,0,0c-0.1,0-0.1,0-0.2,0
			c-0.1,0-0.2,0-0.3,0c0,0-0.1,0-0.1-0.1c-0.1-0.1-0.1-0.1-0.1-0.2c0-0.2-0.1-0.3-0.2-0.5c0,0,0-0.1-0.1-0.1c0-0.1-0.1,0-0.2,0
			c0,0,0,0,0,0.1c0,0,0,0.1,0,0.1c-0.1,0.1-0.1,0.2-0.1,0.2c0,0.1,0,0.1,0,0.2c0,0.1,0,0.1,0,0.2c0,0.1,0,0.2,0,0.3
			c0,0.1,0,0.3,0,0.4C11.7,20.1,11.8,20.2,11.8,20.3z"/>
		<path class="st1" d="M11.2,26.4C11.2,26.3,11.1,26.3,11.2,26.4c0-0.1-0.1-0.1-0.1-0.2c0-0.2-0.1-0.4-0.2-0.6
			c0-0.1-0.1-0.2-0.1-0.3c0-0.1,0-0.2-0.1-0.3c0-0.1-0.1-0.2-0.1-0.3c0,0,0-0.1,0-0.1c0-0.1,0-0.2-0.1-0.3c-0.1-0.1-0.1-0.1-0.1-0.2
			c0,0,0-0.1-0.1-0.1c0,0-0.1,0-0.1,0.1c0,0.1,0,0.1,0,0.2c0,0.1,0,0.2,0,0.3c0,0.1,0.1,0.2,0.1,0.4c0,0.1,0,0.2,0,0.3
			c0,0,0,0,0,0.1c0.1,0.2,0.1,0.4,0.1,0.6c0,0.2,0,0.3,0.1,0.5c0,0.2,0.1,0.3,0.1,0.5c0,0.1,0.1,0.2,0.1,0.3c0,0.1,0.1,0.2,0,0.3
			c0.1,0.1,0,0.3,0.2,0.3c0,0,0,0,0,0c0.1,0.1,0.1,0.3,0.2,0.4c0,0.1,0.1,0.2,0.2,0.2c0,0,0.1,0,0.1,0c0,0,0.1,0,0.1-0.1
			c0,0,0-0.1,0-0.1c0-0.1,0-0.1,0-0.2c0-0.1,0-0.2,0-0.3c0-0.1,0-0.2,0-0.2c0-0.1-0.1-0.2-0.1-0.3c0-0.1,0-0.1,0-0.2
			c-0.1-0.1-0.1-0.2-0.1-0.3C11.3,26.7,11.2,26.5,11.2,26.4z"/>
	</g>
</g>
</svg>
