<?xml version="1.0" encoding="utf-8"?>
<!-- Generator: Adobe Illustrator 23.1.0, SVG Export Plug-In . SVG Version: 6.00 Build 0)  -->
<svg version="1.1" id="圖層_1" xmlns="http://www.w3.org/2000/svg" xmlns:xlink="http://www.w3.org/1999/xlink" x="0px" y="0px"
	 viewBox="0 0 72.3 40" style="enable-background:new 0 0 72.3 40;" xml:space="preserve">
<style type="text/css">
	.st0{fill:#231815;}
	.st1{fill-rule:evenodd;clip-rule:evenodd;fill:#C30D23;}
</style>
<g>
	<g>
		<g>
			<path class="st0" d="M24.2,23.4c0.4,0.1,0.6,0.2,0.6,0.3c0,0,0,0.1-0.1,0.1l-0.2,0.1c-0.7,1.8-1.7,3.1-2.9,3.9l-0.1-0.1
				c0.5-0.7,1-1.5,1.5-2.6c0.3-0.7,0.4-1.4,0.4-2L24.2,23.4z M25.7,28.7v-6c0-0.9,0-1.6-0.1-2.1c0.9,0.2,1.4,0.4,1.4,0.5
				c0,0,0,0.1-0.1,0.1l-0.2,0.1v7.5c0,0.4-0.1,0.7-0.3,1c-0.2,0.2-0.6,0.3-1.2,0.4c0-0.4-0.1-0.6-0.3-0.8c-0.2-0.2-0.6-0.3-1.1-0.4
				v-0.2c0.9,0.1,1.5,0.1,1.7,0.1C25.6,28.9,25.7,28.8,25.7,28.7z M27.8,23.2c1.3,0.7,2.1,1.5,2.6,2.5c0.3,0.6,0.3,1.1,0.2,1.4
				c-0.1,0.3-0.3,0.4-0.6,0.3c-0.1,0-0.2-0.1-0.3-0.2c-0.1-0.6-0.3-1.3-0.7-2c-0.4-0.7-0.8-1.4-1.3-2L27.8,23.2z"/>
			<path class="st0" d="M40.3,23.7l0.2-0.3c0,0,0-0.1,0.1-0.1c0-0.1,0.1-0.1,0.1-0.1c0,0,0,0,0.1,0c0.1,0,0.2,0.1,0.5,0.3
				c0.2,0.2,0.4,0.4,0.4,0.4c-0.1,0.1-0.2,0.1-0.3,0.2v3.1c0,0,0,0-0.1,0.1c0.3,0.2,0.5,0.4,0.8,0.7c0,0.1-0.1,0.2-0.3,0.2h-4.4v0.4
				c0,0-0.1,0.1-0.2,0.2c-0.2,0.1-0.3,0.1-0.4,0.1s-0.2-0.1-0.2-0.2l0-0.2v-0.2c-1.2,0.6-2.2,1.1-3,1.5c0,0.1-0.1,0.2-0.2,0.3
				l-0.5-1.1c0.4-0.1,0.9-0.2,1.5-0.3v-3.3h-0.5c-0.2,0-0.5,0.1-0.8,0.1l-0.3-0.5c0.3,0,0.6,0.1,1,0.1h0.5v-1.3h-0.7l0-0.2
				c-0.3,0.3-0.6,0.6-0.8,0.8l-0.1-0.1c0.3-0.4,0.7-1,1-1.8c0.3-0.7,0.5-1.4,0.5-2c0.8,0.3,1.2,0.5,1.2,0.5c0,0,0,0.1-0.1,0.1
				l-0.2,0.1c0.9,0.3,1.5,0.7,1.6,1.2c0.1,0.3,0.1,0.5-0.1,0.6c-0.2,0.1-0.4,0.1-0.6,0c-0.2-0.5-0.5-1-1.1-1.5
				c-0.3,0.7-0.8,1.4-1.3,2h1.4l0.2-0.3c0.2-0.2,0.3-0.3,0.3-0.3c0.1,0,0.2,0.1,0.4,0.3c0.2,0.2,0.3,0.4,0.3,0.5
				c0,0.1-0.1,0.2-0.3,0.2h-1V25h0.2l0.2-0.3c0,0,0-0.1,0.1-0.1c0,0,0-0.1,0.1-0.1c0,0,0,0,0.1-0.1c0,0,0,0,0.1-0.1c0,0,0,0,0,0
				c0.1,0,0.2,0.1,0.4,0.3c0.2,0.2,0.3,0.4,0.3,0.5c0,0.1-0.1,0.2-0.3,0.2h-1.2v3.1c0.2,0,0.4-0.1,0.8-0.2c0.3-0.1,0.6-0.1,0.7-0.2
				v-1.9c-0.1,0.1-0.1,0.1-0.3,0.1c-0.4,0.8-0.7,1.3-0.9,1.5l-0.2-0.1c0.2-0.8,0.3-1.5,0.2-2.1l1.1,0.4v-0.2c0-0.9,0-1.6-0.1-2.1
				c0.8,0.2,1.2,0.4,1.2,0.4c0,0,0,0-0.1,0.1l-0.2,0.1v3.5h3.3l0.3-0.4c-0.2,0.1-0.3,0.1-0.4,0.1h-0.1v-0.4h-1.7v0.3
				c0,0-0.1,0.1-0.2,0.2c-0.1,0.1-0.3,0.1-0.5,0.1c-0.1,0-0.1,0-0.1-0.1c0,0-0.1-0.1-0.1-0.1c0-0.3,0.1-0.7,0.1-1.3v-0.7
				c0-0.9,0-1.6-0.1-2.1l1,0.4H40.3z M32.9,25.8l0.1-0.1c0.6,0.5,0.9,1.1,0.9,1.6c0,0.3-0.1,0.5-0.3,0.6c-0.2,0.1-0.3,0-0.5-0.2
				C33.2,27.2,33.1,26.6,32.9,25.8z M35.5,30c0.5-0.2,1-0.4,1.5-0.8c0.5-0.3,0.8-0.7,1.1-1.1l0.6,0.5c0.4,0.3,0.6,0.4,0.4,0.4
				c0,0,0,0-0.1,0l-0.3,0c-0.4,0.2-0.8,0.4-1.4,0.6c-0.6,0.2-1.2,0.3-1.8,0.4L35.5,30z M37.7,21.7c1.3-0.4,2.1-0.8,2.6-1.2
				c0.6,0.6,0.9,0.9,0.7,0.9c0,0,0,0,0,0l-0.2,0c-0.8,0.2-1.8,0.4-3.1,0.6v0.3c0,0.1,0,0.1,0.1,0.1c0.1,0,0.2,0,0.4,0h1.3
				c0.6,0,0.9,0,1.2,0c0.1,0,0.2,0,0.3-0.1c0.1-0.1,0.2-0.3,0.3-0.7h0.1l0,0.7c0.2,0.1,0.4,0.2,0.4,0.3c0,0.1-0.1,0.2-0.2,0.3
				c-0.1,0.1-0.3,0.1-0.7,0.1c-0.3,0-0.8,0-1.5,0h-1.3c-0.5,0-0.8,0-0.9-0.1C37,22.9,37,22.7,37,22.4v-0.9c0-0.4,0-0.7-0.1-1
				c0.7,0.2,1.1,0.3,1.1,0.4c0,0,0,0.1-0.1,0.1l-0.1,0.1V21.7z M40.3,24.7V24h-1.7v0.7H40.3z M38.6,25.8h1.7V25h-1.7V25.8z
				 M38.6,26.1v0.7h1.7v-0.7H38.6z M39.3,28.5l0.1-0.1c1.3,0.2,2.1,0.6,2.4,1c0.1,0.2,0.1,0.4-0.1,0.6c-0.2,0.2-0.4,0.2-0.6,0.1
				c-0.1,0-0.1-0.1-0.2-0.2C40.6,29.3,40.1,28.9,39.3,28.5z"/>
			<path class="st0" d="M46,21.2l0.2-0.3c0.1-0.2,0.2-0.3,0.3-0.3c0.1,0,0.2,0.1,0.5,0.3c0.2,0.2,0.4,0.4,0.4,0.5
				c-0.1,0.1-0.2,0.2-0.4,0.2v3.3c0,0.8,0,1.7,0.1,2.4c-0.1,0.1-0.2,0.1-0.3,0.2c-0.1,0.1-0.3,0.1-0.5,0.1h-0.1v-0.5h-1v0.4
				c0,0,0,0.1-0.1,0.1c0.6,0.2,0.8,0.4,0.8,0.5c0,0,0,0-0.1,0.1l-0.2,0.1c-0.5,0.8-1,1.5-1.7,1.9L43.7,30c0.2-0.3,0.4-0.6,0.6-1.1
				c0.2-0.4,0.3-0.8,0.4-1.2c-0.1,0-0.3,0.1-0.4,0.1h-0.1v-4.9c0-0.9,0-1.6-0.1-2.1l1.1,0.4H46z M46.1,23v-1.5h-1V23H46.1z M45,23.3
				v1.6h1v-1.6H45z M45,25.2v1.6h1v-1.6H45z M51.7,23.2l0.2-0.3c0,0,0,0,0.1-0.1c0,0,0-0.1,0.1-0.1c0,0,0,0,0.1-0.1c0,0,0,0,0-0.1
				c0,0,0,0,0,0c0,0,0,0,0,0c0.1,0,0.2,0.1,0.5,0.3c0.2,0.2,0.4,0.4,0.4,0.5c0,0.1-0.1,0.2-0.3,0.2h-1.5c0,2.4,0.4,4.1,1,5
				c0,0.1,0.1,0.1,0.1,0.1c0,0,0,0,0.1,0c0,0,0-0.1,0.1-0.1c0.1-0.3,0.3-0.7,0.4-1.2l0.1,0L52.8,29c0.2,0.6,0.3,0.9,0.1,1
				c-0.2,0.1-0.4,0.2-0.7,0c-0.3-0.1-0.5-0.3-0.6-0.6c-0.5-0.8-0.8-1.9-1-3.2c0,0-0.1,0-0.1,0h-1v2.2c0.1,0,0.3-0.1,0.6-0.1
				c0.3-0.1,0.6-0.1,0.8-0.2l0,0.2c-1.5,0.7-2.7,1.1-3.4,1.4c0,0.1-0.1,0.2-0.2,0.3L47,29.1c0,0.2-0.1,0.3-0.3,0.3
				c-0.1,0.1-0.3,0-0.5-0.1c0-0.3-0.1-0.5-0.2-0.9c-0.1-0.3-0.3-0.6-0.4-0.8l0.1-0.1c0.7,0.3,1.1,0.7,1.2,1.2c0,0,0.1,0,0.2,0
				c0.1,0,0.2,0,0.2,0v-2c0-0.9,0-1.5-0.1-2.1c0.7,0.2,1,0.3,1,0.4c0,0,0,0.1-0.1,0.1l-0.1,0.1v3.4l0.6-0.1v-2.7
				c0-0.9,0-1.6-0.1-2.1c0.7,0.2,1.1,0.3,1.1,0.4c0,0,0,0.1-0.1,0.1l-0.1,0.1v1.6h0.3l0.4-0.6c0.2,0.2,0.3,0.4,0.5,0.5
				c-0.1-0.7-0.1-1.4-0.2-2.3h-1.7c-0.5,0-1,0.1-1.5,0.1l-0.3-0.5c0.4,0,0.8,0.1,1.4,0.1h2.2c0-0.6,0-1.5,0-2.7
				c0.8,0.1,1.1,0.1,1.2,0.2c0,0,0,0.1-0.1,0.1l-0.2,0.1c0,1.2,0,2,0,2.2H51.7z M49,21.8l0.2-0.3c0,0,0,0,0.1-0.1c0,0,0-0.1,0.1-0.1
				c0,0,0,0,0.1-0.1c0,0,0,0,0.1-0.1c0,0,0,0,0.1,0c0.1,0,0.2,0.1,0.5,0.3c0.2,0.2,0.4,0.4,0.4,0.4c0,0.1-0.1,0.2-0.3,0.2h-1
				c-0.4,0-1,0.1-1.5,0.2l-0.3-0.5c0.3,0,0.7,0.1,1.2,0.1H49z M51.5,21.1l0.1-0.1c0.7,0.1,1.1,0.4,1.2,0.8c0.1,0.2,0,0.4-0.1,0.6
				c-0.2,0.1-0.4,0.1-0.6,0c0-0.2-0.1-0.4-0.2-0.7C51.8,21.4,51.7,21.2,51.5,21.1z"/>
			<path class="st0" d="M56.4,22.6c0.2,0,0.5,0,1-0.1c0.4,0,0.7,0,0.9-0.1c-0.2-0.3-0.4-0.6-0.7-0.9l0.1-0.1
				c0.9,0.3,1.5,0.6,1.7,1.2c0.1,0.3,0.1,0.6,0,0.8c-0.2,0.2-0.4,0.2-0.6,0.1c0,0,0,0-0.1-0.1c0-0.2-0.1-0.4-0.3-0.7
				c-0.7,0.2-1.7,0.5-3.1,0.8c0,0.1-0.1,0.2-0.3,0.2l-0.4-1.1c0.4,0,0.8,0,1.3,0c0.2-0.9,0.4-1.7,0.4-2.2c0.9,0.2,1.4,0.4,1.4,0.5
				c0,0,0,0.1-0.1,0.1L57.5,21C57.2,21.6,56.8,22.1,56.4,22.6z M57.8,30.1c0-0.3-0.1-0.6-0.2-0.7c-0.1-0.1-0.3-0.2-0.6-0.3v-0.2
				c0.4,0,0.7,0.1,0.8,0.1c0.1,0,0.2-0.1,0.2-0.2v-1.3h-1.7v0.8c0,0.6,0,1.1,0.1,1.5c0,0.1-0.1,0.2-0.3,0.2
				c-0.2,0.1-0.3,0.1-0.5,0.1c-0.1,0-0.1,0-0.2-0.1c-0.1,0-0.1-0.1-0.1-0.1c0.1-1.1,0.1-2,0.1-2.6v-1.4c0-0.8,0-1.5-0.1-2.1l1.1,0.5
				H58l0.2-0.3c0.1-0.2,0.2-0.3,0.3-0.3c0.1,0,0.2,0.1,0.5,0.3c0.3,0.2,0.4,0.4,0.4,0.5c-0.1,0.1-0.2,0.2-0.4,0.2v4.2
				c0,0.4-0.1,0.7-0.2,0.9C58.6,29.9,58.3,30,57.8,30.1z M58,25.7v-1.2h-1.7v1.2H58z M56.4,26v1.2H58V26H56.4z M60.9,22.5
				c0.8-0.4,1.4-0.9,1.9-1.4c0.6,0.4,0.9,0.7,0.9,0.8c0,0,0,0.1-0.2,0.1l-0.3,0c-0.8,0.4-1.6,0.6-2.3,0.8v1.2c0,0.1,0,0.1,0.1,0.2
				c0,0,0.1,0,0.3,0h0.8c0.4,0,0.7,0,0.7,0c0.1,0,0.2,0,0.2-0.1c0.1-0.2,0.2-0.5,0.4-1.1h0.1l0,1.1c0.2,0.1,0.3,0.2,0.3,0.4
				c0,0.2-0.1,0.4-0.4,0.5C63.2,25,62.7,25,62,25h-1c-0.4,0-0.7-0.1-0.9-0.2C60,24.7,60,24.5,60,24.1v-1.8c0-0.8,0-1.4-0.1-1.8
				c0.8,0.2,1.3,0.4,1.3,0.5c0,0,0,0.1-0.1,0.1l-0.2,0.1V22.5z M60.9,27.3c0.8-0.5,1.4-1,1.9-1.6c0.6,0.4,0.9,0.7,0.9,0.8
				c0,0-0.1,0.1-0.2,0.1h-0.3c-0.7,0.4-1.5,0.7-2.4,1v1.2c0,0.1,0,0.1,0.1,0.2c0,0,0.1,0,0.3,0h0.8c0.4,0,0.7,0,0.8,0
				c0.1,0,0.2,0,0.2-0.1c0.1-0.1,0.2-0.5,0.4-1.2h0.1l0,1.2c0.2,0.1,0.3,0.2,0.3,0.4c0,0.2-0.1,0.4-0.4,0.5
				c-0.3,0.1-0.8,0.1-1.5,0.1h-1c-0.4,0-0.7-0.1-0.9-0.2C60,29.6,60,29.4,60,29v-1.8c0-0.8,0-1.4-0.1-1.9c0.8,0.2,1.3,0.4,1.3,0.5
				c0,0,0,0.1-0.1,0.1L60.9,26V27.3z"/>
		</g>
		<g>
			<g>
				<path class="st0" d="M23.3,33.3h-0.7c0,0.3,0,0.7,0,1.2v0.2c0,0.5,0,1,0,1.2l0.4,0v0.1h-1.4v-0.1l0.5,0c0-0.3,0-0.7,0-1.2v-0.2
					c0-0.6,0-1,0-1.2h-0.7L21.3,34h-0.2l0-0.8h2.5l0,0.8h-0.2L23.3,33.3z"/>
				<path class="st0" d="M25.4,36.3c-0.3,0-0.6-0.1-0.8-0.3c-0.2-0.2-0.3-0.5-0.3-0.8c0-0.4,0.1-0.6,0.3-0.8
					c0.2-0.2,0.5-0.3,0.8-0.3c0.3,0,0.5,0.1,0.8,0.3c0.2,0.2,0.3,0.5,0.3,0.8c0,0.4-0.1,0.6-0.3,0.8C26,36.2,25.7,36.3,25.4,36.3z
					 M25.4,36.1c0.2,0,0.3-0.1,0.4-0.2c0.1-0.2,0.2-0.4,0.2-0.7c0-0.3-0.1-0.6-0.2-0.7c-0.1-0.2-0.2-0.3-0.4-0.3
					c-0.2,0-0.3,0.1-0.4,0.3c-0.1,0.2-0.2,0.4-0.2,0.7c0,0.3,0.1,0.6,0.2,0.7C25.1,36,25.2,36.1,25.4,36.1z"/>
				<path class="st0" d="M30.8,34v0.1l-0.3,0l-0.7,2h-0.2c-0.3-0.8-0.5-1.4-0.6-1.7l-0.6,1.7h-0.2l-0.7-2l-0.2,0V34h1.1v0.1l-0.3,0
					l0.5,1.5l0.5-1.5l-0.3,0V34h1v0.1l-0.3,0l0.5,1.5l0.4-1.5L30,34.2V34H30.8z"/>
				<path class="st0" d="M33.9,36l0.3,0v0.1h-1.1v-0.1l0.3,0c0-0.3,0-0.6,0-0.8v-0.5c0-0.2,0-0.3-0.1-0.4c-0.1-0.1-0.1-0.1-0.3-0.1
					c-0.2,0-0.4,0.1-0.6,0.3v0.7c0,0.1,0,0.3,0,0.8l0.3,0v0.1h-1.1v-0.1l0.3,0c0-0.2,0-0.5,0-0.8V35c0-0.2,0-0.4,0-0.6l-0.3,0v-0.1
					l0.7-0.2l0.1,0l0,0.4c0.2-0.3,0.5-0.4,0.8-0.4c0.4,0,0.6,0.3,0.6,0.8v0.5C33.9,35.5,33.9,35.7,33.9,36z"/>
				<path class="st0" d="M37.4,35.4h0.2l0,0.8h-2.3v-0.1l0.4,0c0-0.3,0-0.7,0-1.2v-0.2c0-0.6,0-1,0-1.2l-0.4,0v-0.1h2.3l0,0.8h-0.2
					l-0.1-0.6h-1c0,0.3,0,0.7,0,1.2h0.7l0.1-0.4H37v1.1h-0.2l-0.1-0.4h-0.7c0,0.6,0,1,0,1.3h1.1L37.4,35.4z"/>
				<path class="st0" d="M42.1,36l0.3,0v0.1h-1.1v-0.1l0.3,0c0-0.3,0-0.6,0-0.8v-0.5c0-0.2,0-0.3-0.1-0.4c-0.1-0.1-0.1-0.1-0.3-0.1
					c-0.2,0-0.4,0.1-0.6,0.3c0,0.1,0,0.1,0,0.2v0.5c0,0.2,0,0.5,0,0.8l0.3,0v0.1H40v-0.1l0.3,0c0-0.3,0-0.6,0-0.8v-0.5
					c0-0.2,0-0.3-0.1-0.4c-0.1-0.1-0.1-0.1-0.3-0.1c-0.2,0-0.4,0.1-0.6,0.3v0.7c0,0.1,0,0.3,0,0.8l0.3,0v0.1h-1.1v-0.1l0.3,0
					c0-0.2,0-0.5,0-0.8V35c0-0.2,0-0.4,0-0.6l-0.3,0v-0.1l0.7-0.2l0.1,0l0,0.4c0.2-0.3,0.5-0.4,0.8-0.4c0.3,0,0.5,0.1,0.6,0.4
					c0.2-0.3,0.5-0.4,0.8-0.4c0.4,0,0.6,0.3,0.6,0.8v0.5C42.1,35.5,42.1,35.7,42.1,36z"/>
				<path class="st0" d="M44.1,34l0,0.3c0.2-0.2,0.4-0.3,0.7-0.3c0.3,0,0.5,0.1,0.6,0.3c0.2,0.2,0.2,0.5,0.2,0.8
					c0,0.4-0.1,0.6-0.3,0.8c-0.2,0.2-0.4,0.3-0.7,0.3c-0.2,0-0.5-0.1-0.6-0.3v0.3c0,0.2,0,0.4,0,0.8l0.4,0.1v0.1h-1.2v-0.1l0.3-0.1
					c0-0.3,0-0.5,0-0.8V35c0-0.2,0-0.4,0-0.6l-0.3,0v-0.1L44.1,34L44.1,34z M44.1,34.4v1.4c0.1,0.1,0.3,0.2,0.5,0.2
					c0.2,0,0.3-0.1,0.4-0.2c0.1-0.1,0.2-0.4,0.2-0.7c0-0.3-0.1-0.5-0.2-0.7c-0.1-0.2-0.2-0.2-0.4-0.2C44.4,34.2,44.3,34.3,44.1,34.4
					z"/>
				<path class="st0" d="M47.8,36.3c-0.3,0-0.6-0.1-0.8-0.3c-0.2-0.2-0.3-0.5-0.3-0.8c0-0.4,0.1-0.6,0.3-0.8
					c0.2-0.2,0.5-0.3,0.8-0.3c0.3,0,0.5,0.1,0.8,0.3c0.2,0.2,0.3,0.5,0.3,0.8c0,0.4-0.1,0.6-0.3,0.8C48.3,36.2,48.1,36.3,47.8,36.3z
					 M47.8,36.1c0.2,0,0.3-0.1,0.4-0.2c0.1-0.2,0.2-0.4,0.2-0.7c0-0.3-0.1-0.6-0.2-0.7c-0.1-0.2-0.2-0.3-0.4-0.3
					c-0.2,0-0.3,0.1-0.4,0.3c-0.1,0.2-0.2,0.4-0.2,0.7c0,0.3,0.1,0.6,0.2,0.7C47.5,36,47.6,36.1,47.8,36.1z"/>
				<path class="st0" d="M53.2,34v0.1l-0.3,0l-0.7,2h-0.2c-0.3-0.8-0.5-1.4-0.6-1.7l-0.6,1.7h-0.2l-0.7-2l-0.2,0V34h1.1v0.1l-0.3,0
					l0.5,1.5l0.5-1.5l-0.3,0V34h1v0.1l-0.3,0l0.5,1.5l0.4-1.5l-0.4-0.1V34H53.2z"/>
				<path class="st0" d="M55.9,35.1h-1.4c0,0.3,0.1,0.5,0.2,0.7c0.1,0.2,0.3,0.2,0.5,0.2c0.3,0,0.5-0.1,0.6-0.3l0.1,0.1
					c-0.1,0.2-0.2,0.3-0.3,0.4c-0.1,0.1-0.3,0.1-0.5,0.1c-0.3,0-0.6-0.1-0.8-0.3c-0.2-0.2-0.3-0.5-0.3-0.8c0-0.3,0.1-0.6,0.3-0.8
					c0.2-0.2,0.5-0.3,0.8-0.3c0.3,0,0.5,0.1,0.6,0.2c0.2,0.2,0.2,0.4,0.2,0.6C56,35,55.9,35,55.9,35.1z M54.5,34.9h0.8
					c0.1,0,0.1,0,0.2-0.1c0,0,0.1-0.1,0.1-0.2c0-0.2,0-0.3-0.1-0.4c-0.1-0.1-0.2-0.2-0.3-0.2c-0.1,0-0.3,0.1-0.4,0.2
					C54.6,34.5,54.5,34.7,54.5,34.9z"/>
				<path class="st0" d="M57.7,34l0,0.6c0.1-0.2,0.2-0.3,0.3-0.4c0.1-0.1,0.2-0.2,0.4-0.2c0.2,0,0.3,0.1,0.3,0.2
					c0,0.2-0.1,0.3-0.3,0.3c-0.1,0-0.2-0.1-0.3-0.2l-0.1-0.1c-0.2,0.1-0.3,0.3-0.4,0.6v0.3c0,0.1,0,0.3,0,0.8l0.4,0.1v0.1H57v-0.1
					l0.3,0c0-0.2,0-0.5,0-0.8V35c0-0.2,0-0.4,0-0.6l-0.3,0v-0.1L57.7,34L57.7,34z"/>
				<path class="st0" d="M63.2,36l0.3,0v0.1h-1.1v-0.1l0.3,0c0-0.3,0-0.6,0-0.8v-0.5c0-0.2,0-0.3-0.1-0.4c-0.1-0.1-0.1-0.1-0.3-0.1
					c-0.2,0-0.4,0.1-0.6,0.3c0,0.1,0,0.1,0,0.2v0.5c0,0.2,0,0.5,0,0.8l0.3,0v0.1H61v-0.1l0.3,0c0-0.3,0-0.6,0-0.8v-0.5
					c0-0.2,0-0.3-0.1-0.4c-0.1-0.1-0.1-0.1-0.3-0.1c-0.2,0-0.4,0.1-0.6,0.3v0.7c0,0.1,0,0.3,0,0.8l0.3,0v0.1h-1.1v-0.1l0.3,0
					c0-0.2,0-0.5,0-0.8V35c0-0.2,0-0.4,0-0.6l-0.3,0v-0.1l0.7-0.2l0.1,0l0,0.4c0.2-0.3,0.5-0.4,0.8-0.4c0.3,0,0.5,0.1,0.6,0.4
					c0.2-0.3,0.5-0.4,0.8-0.4c0.4,0,0.6,0.3,0.6,0.8v0.5C63.2,35.5,63.2,35.7,63.2,36z"/>
				<path class="st0" d="M66.4,35.1h-1.4c0,0.3,0.1,0.5,0.2,0.7c0.1,0.2,0.3,0.2,0.5,0.2c0.3,0,0.5-0.1,0.6-0.3l0.1,0.1
					c-0.1,0.2-0.2,0.3-0.3,0.4c-0.1,0.1-0.3,0.1-0.5,0.1c-0.3,0-0.6-0.1-0.8-0.3c-0.2-0.2-0.3-0.5-0.3-0.8c0-0.3,0.1-0.6,0.3-0.8
					c0.2-0.2,0.5-0.3,0.8-0.3c0.3,0,0.5,0.1,0.6,0.2c0.2,0.2,0.2,0.4,0.2,0.6C66.4,35,66.4,35,66.4,35.1z M65,34.9h0.8
					c0.1,0,0.1,0,0.2-0.1c0,0,0.1-0.1,0.1-0.2c0-0.2,0-0.3-0.1-0.4c-0.1-0.1-0.2-0.2-0.3-0.2c-0.1,0-0.3,0.1-0.4,0.2
					C65,34.5,65,34.7,65,34.9z"/>
				<path class="st0" d="M69.6,36l0.3,0v0.1h-1.1v-0.1l0.3,0c0-0.3,0-0.6,0-0.8v-0.5c0-0.2,0-0.3-0.1-0.4c-0.1-0.1-0.1-0.1-0.3-0.1
					c-0.2,0-0.4,0.1-0.6,0.3v0.7c0,0.1,0,0.3,0,0.8l0.3,0v0.1h-1.1v-0.1l0.3,0c0-0.2,0-0.5,0-0.8V35c0-0.2,0-0.4,0-0.6l-0.3,0v-0.1
					l0.7-0.2l0.1,0l0,0.4c0.2-0.3,0.5-0.4,0.8-0.4c0.4,0,0.6,0.3,0.6,0.8v0.5C69.6,35.5,69.6,35.7,69.6,36z"/>
				<path class="st0" d="M72.2,35.9L72.2,35.9c0,0.3-0.2,0.4-0.5,0.4c-0.4,0-0.5-0.2-0.5-0.6c0,0,0-0.1,0-0.2c0-0.1,0-0.2,0-0.2
					v-1.1h-0.4v-0.1l0.4,0l0.1-0.6h0.3l0,0.6h0.6v0.2h-0.6v1.5c0,0.2,0.1,0.3,0.3,0.3C72,36.1,72.1,36,72.2,35.9z"/>
			</g>
		</g>
	</g>
	<g>
		<path class="st1" d="M1.7,4.7C1.6,4.8,1.5,4.9,1.5,5C1.4,5.2,1.3,5.3,1.3,5.5c0,0.1,0,0.1-0.1,0.2c0,0.1-0.1,0.2,0,0.3
			c0,0,0,0,0,0.1c0,0.1,0,0.1,0,0.2c0,0.1,0,0.2,0,0.3c0,0.1,0,0.2,0,0.3c0,0.2,0,0.5,0,0.7c0,0.1,0,0.1,0.1,0.1
			c0.1,0.1,0.2,0.2,0.3,0.3c0,0.1,0.1,0.2,0.1,0.4c0,0.1,0,0.2,0,0.2c0,0.1,0,0.3,0,0.4c0,0.2,0,0.3,0,0.5c0,0.1,0,0.1,0,0.2
			c0,0.1,0,0.1,0,0.2c0,0.1-0.1,0.1-0.1,0.1c0,0-0.1,0-0.1,0c-0.1,0-0.1,0-0.1,0c0,0,0,0-0.1,0c0,0-0.1,0-0.1-0.1c0,0-0.1-0.1,0-0.1
			c0-0.1,0-0.1,0-0.2c0,0,0-0.1,0-0.1c0-0.1,0-0.3,0-0.4c0,0,0-0.1-0.1-0.1c0,0,0,0.1,0,0.1c0,0.2,0,0.3,0,0.5c0,0.1,0,0.2,0,0.2
			c0,0,0,0.1,0,0.1c0,0.1,0,0.1-0.1,0.1c-0.1,0-0.2,0-0.3,0c-0.1,0-0.1,0-0.2,0c-0.1,0-0.2-0.1-0.2-0.2c0-0.1-0.1-0.2,0-0.4
			c0-0.2,0-0.3,0-0.5c0-0.1,0-0.2,0-0.3c0-0.1,0-0.1,0-0.2c0-0.1,0-0.3,0.1-0.4c0,0,0,0,0-0.1c0-0.1,0.1-0.2,0.2-0.4
			c0,0,0-0.1,0-0.1c0-0.2,0-0.3,0-0.5c0,0,0-0.1,0-0.1c0-0.1,0-0.1,0-0.2c0-0.1,0-0.1,0-0.2c0-0.1,0-0.3,0.1-0.4c0-0.1,0-0.2,0-0.3
			c0-0.2,0-0.3,0.1-0.5c0,0,0,0,0,0c0-0.2,0.1-0.3,0.2-0.4C1,4.9,1.1,4.8,1.1,4.7c0-0.1,0.1-0.1,0.1-0.2C1.1,4.4,1.1,4.3,1,4.3
			C0.9,4.2,0.8,4.1,0.7,4c0,0,0,0,0-0.1c0,0,0-0.1,0-0.1c0,0,0-0.1,0-0.1C0.8,3.6,0.9,3.4,1,3.4c0,0,0.1,0,0.1-0.1
			c0,0,0.1-0.1,0.1-0.1C1.4,3.1,1.5,3,1.6,2.9C1.8,2.8,2,2.7,2.2,2.6c0.1,0,0.2-0.1,0.2-0.2c0,0,0,0,0,0c0.2-0.1,0.4-0.2,0.6-0.3
			C3.3,2,3.5,1.8,3.7,1.7c0.2-0.1,0.4-0.2,0.6-0.3C4.5,1.3,4.8,1.2,5,1c0.1-0.1,0.2-0.1,0.2-0.1c0,0,0.1,0,0.1-0.1
			c0.1-0.1,0.3-0.2,0.5-0.2c0,0,0.1,0,0.1,0c0,0,0.1,0,0.1,0c0.1-0.1,0.3-0.1,0.4-0.2c0,0,0.1,0,0.1,0c0,0,0.1,0,0.1,0
			c0.1,0,0.1-0.1,0.1-0.1c0.1,0,0.1,0,0.2,0c0.1,0,0.1,0,0.2,0c0.1,0,0.1,0,0.2,0C7.4,0,7.6,0.1,7.8,0c0.1,0,0.3,0,0.4,0
			c0.3,0,0.6,0,0.8,0c0.1,0,0.2,0,0.3,0c0.1,0,0.1,0,0.2,0c0.1,0,0.1,0,0.2,0c0,0,0,0,0.1,0c0.2,0,0.3,0.1,0.5,0c0.1,0,0.1,0,0.2,0
			c0.1,0,0.2,0.1,0.3,0.1c0.1,0,0.3,0.1,0.4,0.1c0.2,0.1,0.5,0.1,0.7,0.2c0.1,0,0.2,0.1,0.3,0.1c0,0,0.1,0,0.1,0.1c0,0,0,0,0,0
			c0.1,0,0.2,0.1,0.3,0.2c0.1,0.1,0.2,0.1,0.3,0.2c0,0,0.1,0,0.2,0.1c0.1,0.1,0.2,0.2,0.3,0.2c0.1,0,0.1,0.1,0.2,0.1c0,0,0,0,0.1,0
			C13.8,1.9,13.9,1.9,14,2c0.1,0.1,0.3,0.2,0.4,0.4c0.1,0.1,0.3,0.2,0.4,0.4c0,0,0,0,0,0c0.2,0,0.2,0.2,0.4,0.2
			c0.1,0.1,0.2,0.2,0.2,0.3c0.1,0.1,0.2,0.2,0.2,0.3c0.1,0.1,0.1,0.2,0.2,0.3c0,0,0,0.1,0.1,0.1C16,3.9,16,4,16.1,4.1
			c0.1,0.1,0.2,0.2,0.2,0.3c0.1,0.1,0.2,0.3,0.2,0.4c0,0.2,0.1,0.4,0.2,0.6c0.1,0.1,0,0.3,0.1,0.4c0,0,0,0.1,0,0.1
			c0,0.1,0.1,0.3,0.1,0.4c0,0,0,0,0,0.1c0,0,0,0,0,0.1c0,0.1,0,0.1,0,0.2c0,0,0,0,0,0.1c0.1,0.1,0.1,0.3,0.1,0.4c0,0.2,0,0.4,0,0.6
			c0,0.1,0,0.1,0,0.2c0,0.1,0,0.1,0,0.2c0,0,0,0,0,0c0,0.1,0,0.2,0,0.4c0,0.1,0,0.2,0,0.4c0,0.1,0,0.2,0,0.3c0,0,0,0.1,0,0.1
			c0.1,0.2,0,0.4,0,0.6c0,0.1,0,0.2,0,0.2c0,0,0,0,0,0.1c0,0.2,0,0.3,0,0.5c0,0,0,0.1,0,0.1c0,0,0,0.1,0,0.1c0,0.1,0,0.1,0,0.2
			c0,0,0,0,0,0.1c0,0.1,0,0.3,0,0.4c0,0.1,0,0.3,0,0.4c0,0.2,0,0.4,0,0.6c0,0.2,0,0.4,0,0.5c0,0,0,0.1,0,0.1c0,0.1,0.1,0.2,0,0.3
			c0,0.1,0,0.2,0,0.3c0,0.1,0,0.1,0,0.1c0,0.1,0,0.3,0,0.5c0.1,0.2,0,0.3,0,0.5c0,0,0,0,0,0c0,0.1,0,0.2,0,0.3c0,0.1,0,0.2,0,0.3
			c0,0.1,0,0.2,0,0.3c0,0.1,0,0.2,0,0.2c0,0.1,0,0.1,0,0.2c0,0.1,0,0.2,0,0.4c0,0.1,0,0.2,0,0.3c0,0,0,0,0,0.1c0,0.2,0,0.4,0,0.6
			c0,0,0,0.1,0,0.1c0.1,0.1,0.1,0.1,0.1,0.2c0,0.1,0,0.3,0,0.4c0,0.1,0,0.2,0,0.2c0,0.1,0,0.3,0,0.4c0,0.2,0,0.3,0,0.5
			c0,0,0,0,0,0.1c0,0.1,0,0.2,0,0.3c0,0.1,0,0.1,0,0.2c0,0.1,0,0.1,0,0.2c0,0,0,0,0,0.1c0,0.1,0,0.1,0,0.2c0,0,0,0.1,0,0.1
			c0,0,0,0,0,0.1c0,0.1,0,0.2,0,0.4c0,0,0,0.1,0,0.1c0,0.1,0,0.2,0,0.4c0,0.1,0,0.1,0,0.2c0,0,0,0,0,0.1c0,0.2,0,0.4,0,0.6
			c0,0,0,0,0,0.1c0,0,0,0.1,0,0.1c0,0.1,0,0.2,0,0.4c0,0.1,0.1,0.2,0,0.4c0,0,0,0,0,0c0,0.1,0,0.3,0,0.4c0,0.2,0,0.5,0,0.7
			c0,0,0,0,0,0.1c0,0,0,0.1,0,0.1c0,0.1,0,0.2,0,0.3c0,0,0,0,0,0.1c0,0.1-0.1,0.2,0,0.4c0,0,0,0,0,0c-0.1,0.2,0,0.4,0,0.6
			c0,0.1,0,0.2,0,0.4c0,0.1,0,0.2,0,0.3c0,0.1,0,0.2,0,0.3c0,0.1,0,0.2,0,0.3c0,0.1,0,0.2,0,0.4c0,0.1,0,0.2,0,0.4c0,0,0,0.1,0,0.1
			c0,0.1,0,0.1,0,0.2c0,0.2,0,0.3,0,0.5c0,0.1,0,0.2,0,0.4c0,0.1,0,0.1,0,0.2c0,0.1,0,0.2,0,0.2c0,0.2,0,0.3,0,0.5
			c0,0.1,0,0.1,0,0.2c0,0.1,0,0.2,0,0.3c0,0.1,0,0.2,0,0.2c0,0,0,0.1,0,0.1c0,0.2,0,0.3,0,0.5c0,0.1,0,0.2,0,0.3c0,0.1,0,0.2,0,0.3
			c0,0,0,0.1,0,0.1c0,0.1,0,0.2,0,0.3c0,0.1,0,0.2,0,0.3c0,0,0,0,0,0.1c0,0.1,0,0.2,0,0.2c0,0.1,0,0.1-0.1,0.2c0,0,0,0.1,0,0.1
			c-0.1,0.1-0.1,0.2-0.1,0.3c0,0.1-0.1,0.2-0.1,0.3c0,0.1-0.1,0.2-0.1,0.3c0,0.1-0.1,0.2-0.1,0.3c0,0.1-0.1,0.1-0.1,0.2
			c0,0.1-0.1,0.2-0.1,0.3c0,0,0,0.1,0,0.1c0,0.1-0.1,0.2-0.1,0.3c0,0,0,0,0,0.1c0,0.2-0.2,0.3-0.2,0.5c0,0.1-0.1,0.2-0.1,0.3
			c0,0,0,0.1,0,0.1c-0.1,0.1-0.2,0.3-0.3,0.4c0,0-0.1,0.1-0.1,0.2c0,0.1-0.1,0.1-0.1,0.2c-0.1,0.1-0.2,0.2-0.3,0.3
			c-0.1,0.1-0.2,0.1-0.2,0.2c-0.1,0.1-0.1,0.1-0.2,0.2c-0.1,0.1-0.2,0.2-0.3,0.3c0,0,0,0,0,0c-0.2,0.1-0.3,0.3-0.5,0.4
			c-0.1,0-0.1,0.1-0.2,0.1c-0.1,0.1-0.3,0.2-0.4,0.2c0,0-0.1,0-0.1,0.1c-0.1,0.1-0.2,0.1-0.3,0.2c0,0-0.1,0.1-0.2,0.1
			c-0.1,0.1-0.2,0.1-0.4,0.2c0,0,0,0,0,0c-0.1,0.1-0.2,0.1-0.3,0.1c0,0-0.1,0-0.1,0.1c-0.2,0.1-0.3,0.2-0.5,0.2
			c-0.2,0-0.3,0.1-0.5,0.2c-0.2,0.1-0.3,0.1-0.5,0.1c-0.1,0-0.3,0-0.4,0.1c-0.1,0-0.2,0.1-0.4,0c-0.1,0-0.1,0-0.2,0
			c-0.1,0-0.2,0-0.4,0c-0.1,0-0.2,0-0.3,0c-0.1,0-0.2,0-0.3,0c-0.1,0-0.2,0-0.3,0c-0.1,0-0.2,0-0.2,0c-0.2,0-0.3-0.1-0.5-0.1
			c-0.1,0-0.2,0-0.4-0.1c0,0-0.1,0-0.1,0c-0.1,0-0.3,0-0.4-0.1c-0.1,0-0.2-0.1-0.3-0.1c-0.1,0-0.1-0.1-0.2-0.1c0,0,0,0,0,0
			c-0.1-0.1-0.3-0.1-0.4-0.2c0,0-0.1,0-0.1-0.1c-0.1,0-0.2-0.1-0.3-0.2C5,39,4.9,38.9,4.8,38.9c-0.1,0-0.2-0.1-0.2-0.1
			c0,0-0.1-0.1-0.1-0.1c0,0-0.1,0-0.1,0c-0.1-0.1-0.2-0.1-0.3-0.2c-0.1-0.1-0.2-0.1-0.3-0.2c0,0,0,0-0.1,0c-0.2-0.2-0.4-0.3-0.6-0.4
			c0,0-0.1-0.1-0.1-0.1c0,0-0.1-0.1-0.1-0.1c-0.1-0.1-0.2-0.1-0.2-0.2c-0.1-0.1-0.1-0.1-0.2-0.2c-0.1-0.1-0.2-0.2-0.3-0.4
			C2.1,36.7,2,36.6,2,36.6c-0.1-0.1-0.1-0.2-0.2-0.3c-0.1-0.1-0.1-0.2-0.2-0.3c0,0-0.1-0.1-0.1-0.2c0-0.1-0.1-0.2-0.1-0.3
			c0-0.1-0.1-0.2-0.1-0.3c0-0.1,0-0.1-0.1-0.2c0-0.1,0-0.1-0.1-0.2c0,0,0-0.1,0-0.1C1,34.6,1,34.4,0.9,34.2
			c-0.1-0.1-0.1-0.2-0.1-0.4c0-0.1,0-0.2-0.1-0.2c0,0,0,0,0-0.1c0-0.1,0-0.2,0-0.3c0-0.2-0.1-0.4-0.1-0.5c0-0.2-0.1-0.5-0.1-0.7
			c0-0.1,0-0.2,0-0.3c0-0.1,0-0.2,0-0.3c0-0.2,0-0.5,0-0.7c0-0.1,0-0.3,0-0.4c0-0.1,0-0.3,0-0.4c0,0,0-0.1,0-0.1c0,0,0,0,0-0.1
			c0-0.1,0-0.2,0-0.2c0-0.1,0.1-0.2,0.1-0.4c0.1-0.2,0.3-0.5,0.5-0.6c0,0,0.1,0,0.1,0c0.1,0,0.1,0,0.2,0c0,0,0,0,0,0
			c0.1,0.1,0.2,0,0.3,0c0,0,0.1,0,0.1,0c0.2,0,0.3,0,0.5,0c0.1,0,0.2,0,0.4,0c0.1,0,0.1,0,0.2,0c0.1,0,0.1,0,0.2,0
			c0.3,0.1,0.4,0.3,0.5,0.5c0,0.1,0,0.1,0.1,0.2c0,0.1,0,0.2,0,0.3c0,0,0,0.1,0,0.1c0.1,0.1,0.1,0.3,0.1,0.4c0,0.2-0.1,0.3,0,0.5
			c0,0,0,0,0,0.1c0,0.1,0,0.2,0,0.3c0,0.1,0,0.1,0,0.2c0,0.1,0,0.2-0.1,0.3c-0.1,0.1-0.1,0.2-0.2,0.3c0,0,0,0,0,0
			c-0.1,0.2-0.3,0.4-0.4,0.5C3,32.4,3,32.5,3,32.6c0,0.1-0.1,0.3-0.1,0.4c0,0.1,0,0.1,0,0.2c0,0,0,0.1,0,0.1c0,0,0,0,0,0.1
			c0,0.1,0,0.2,0,0.3c0,0,0,0.1,0,0.1c0,0,0,0.1,0,0.1c0,0,0,0,0,0c0.1-0.1,0.2-0.2,0.3-0.3c0.1-0.1,0.1-0.1,0.2-0.2
			c0.1-0.1,0.2-0.3,0.3-0.4c0,0,0-0.1,0-0.1c0-0.1,0-0.1,0.1-0.2c0,0,0-0.1,0.1-0.1c0-0.1,0.1-0.2,0.1-0.3c0,0,0,0,0-0.1
			c0-0.2,0.1-0.4,0-0.6c0-0.1,0-0.3,0-0.4c0,0,0,0,0-0.1c0-0.1,0-0.2,0-0.3c0-0.1,0-0.1,0-0.2c0-0.1,0-0.1,0-0.2c0,0,0-0.1,0-0.1
			c0,0,0-0.1,0-0.1c0-0.2,0.1-0.3,0.2-0.5c0,0,0,0,0-0.1c0.1-0.1,0.2-0.2,0.3-0.3c0,0,0.1-0.1,0.1-0.1c0-0.1,0.1-0.1,0.1-0.1
			c0,0,0,0,0,0c0.1-0.1,0.2-0.2,0.4-0.2c0.1,0,0.2-0.1,0.2-0.1c0.1,0,0.2-0.1,0.3-0.1c0,0,0.1,0,0.1,0c0.1,0,0.3,0,0.4,0
			c0,0,0,0,0,0c0.1,0,0.3,0,0.4,0c0.1,0,0.3,0,0.4,0c0,0,0.1,0,0.1,0c0.1,0,0.1,0.1,0.2,0c0.1,0,0.1,0,0.2,0c0.1,0,0.2,0,0.3,0
			c0,0,0,0,0.1,0c0.2,0.1,0.5,0.1,0.7,0.1c0.1,0,0.2,0,0.3-0.1c0,0,0.1-0.1,0.1-0.1c0,0,0.1-0.1,0.1-0.1c0,0,0.1-0.1,0.1-0.1
			c0,0,0-0.1,0-0.1c0,0,0-0.1,0-0.1c0,0,0-0.1,0-0.1c0-0.1,0-0.2,0-0.4c0,0,0-0.1,0-0.1c0-0.1,0-0.2,0-0.3c0,0,0-0.1,0-0.1
			c0-0.2,0-0.4,0-0.5c0-0.1,0-0.3,0-0.4c0-0.2,0-0.3,0-0.5c0,0,0-0.1,0-0.1c0-0.1,0-0.1,0-0.2c0-0.1,0-0.1,0-0.2c0,0,0-0.1,0-0.1
			c0-0.1,0-0.1,0-0.2c0-0.1,0-0.2,0-0.2c0-0.1,0-0.2,0-0.3c0,0,0,0,0-0.1c0,0,0-0.1,0-0.1c0-0.1,0-0.2,0-0.2c0,0,0-0.1,0-0.1
			c0-0.1,0-0.1,0-0.2c0,0,0,0-0.1,0c0,0-0.1,0-0.1,0c-0.1,0-0.3,0-0.4-0.1c-0.1,0-0.2-0.1-0.3-0.1c-0.1,0-0.2-0.1-0.2-0.1
			c-0.1-0.1-0.1-0.2,0-0.3c0,0,0,0,0.1,0c0.1,0,0.2,0,0.3,0c0,0,0.1,0,0.1,0c0.1,0,0.2,0,0.3,0c0,0,0,0,0.1,0c0,0,0.1-0.1,0.1-0.1
			c0.1-0.1,0.1-0.1,0.1-0.2c0,0,0-0.1,0-0.1c0-0.2,0-0.4,0-0.6c0-0.2,0-0.3,0-0.5c0-0.1,0.1-0.2,0.2-0.2c0.1,0,0.1-0.1,0.2-0.1
			c0.1,0,0.1,0,0.2,0c0.1,0,0.3,0,0.4,0c0.1,0,0.1,0,0.1-0.1c0,0,0,0,0-0.1c0,0,0-0.1,0-0.1c0,0-0.1,0-0.1-0.1
			c-0.1-0.2-0.3-0.2-0.4-0.3c-0.1,0-0.1,0-0.2,0c-0.1,0-0.1,0-0.2,0c-0.1,0-0.1,0-0.2,0.1c-0.1,0.1-0.3,0.1-0.3,0.3c0,0,0,0,0,0
			C9,21.1,9,21.4,9,21.6c0,0.2-0.1,0.4-0.2,0.5c0,0.1-0.1,0.2-0.2,0.3c0,0-0.1,0.1-0.1,0.1c-0.1,0.1-0.1,0.2-0.2,0.3
			c0,0-0.1,0.1-0.1,0.2c0,0,0,0.1-0.1,0.1C8,23.1,8,23,8,22.9c0-0.1,0-0.1,0-0.2c0-0.2,0-0.4,0-0.5c0-0.1,0.1-0.2,0.1-0.3
			c0-0.1,0-0.1,0-0.2c0,0,0-0.1-0.1-0.1c-0.1,0-0.1,0-0.2,0c-0.1,0-0.1,0-0.2,0c-0.1,0-0.1,0-0.2,0c0,0-0.1,0-0.1,0
			c-0.1,0-0.2,0-0.3,0c-0.3,0-0.6,0-0.8,0c-0.2-0.1-0.4,0-0.6-0.1c0,0,0,0-0.1,0c-0.1,0-0.3,0-0.4-0.1c-0.1,0-0.2-0.1-0.4-0.2
			c-0.1-0.1-0.1-0.1-0.2-0.1c-0.2-0.1-0.3-0.1-0.4-0.3c0-0.1-0.1-0.1-0.1-0.1C4,20.6,4,20.3,4,20.1c0-0.2,0-0.3,0-0.5
			c0,0,0-0.1,0-0.1c0,0,0-0.1,0-0.1c0-0.1,0-0.1,0-0.2c0-0.1,0-0.1,0-0.2c0-0.1,0-0.1,0-0.2c0-0.1,0-0.2,0-0.3c0-0.1,0-0.2,0-0.3
			c0-0.1,0-0.1,0-0.2c0-0.1,0-0.1,0-0.2c0-0.2,0-0.4,0-0.7c0-0.2,0-0.4,0-0.6c0-0.2,0-0.4,0-0.6c0-0.2,0-0.3,0-0.5c0,0,0-0.1,0-0.1
			c0,0,0,0,0-0.1c0-0.2,0-0.3,0-0.5c0-0.1,0-0.2,0-0.3c0-0.1,0-0.2,0-0.3c0-0.1,0-0.1,0-0.2c0-0.1,0-0.2,0-0.3c0-0.1,0-0.2,0-0.3
			c0-0.1,0-0.1,0-0.2c0-0.1,0-0.2,0-0.3c0-0.1,0-0.3,0-0.5c0-0.1,0-0.2,0-0.4c0,0,0.1-0.1,0.1-0.1c0.1,0.1,0.2,0.2,0.3,0.4
			c0,0.1,0.1,0.1,0.1,0.2c0,0,0,0,0,0.1c0,0.2,0.1,0.4,0.1,0.7c0,0.1,0,0.3,0,0.4c0,0.1,0,0.2,0,0.4c0,0,0,0.1,0,0.1
			c0,0.2,0,0.4,0,0.6c0,0.1,0,0.2,0,0.2c0,0.4,0,0.7,0,1.1c0,0.1,0,0.3,0,0.4c0,0.2,0,0.3,0,0.5c0,0.2,0,0.4,0,0.5
			c0,0.1,0,0.2,0,0.3c0,0.1,0,0.2,0,0.2c0,0.1,0,0.1,0,0.2c0,0.2,0,0.3,0,0.5c0,0.1,0,0.2,0,0.3c0,0.1,0,0.2,0,0.2c0,0,0,0,0,0
			c0,0.2,0,0.3,0,0.5c0,0,0,0.1,0,0.1c0,0.1,0.1,0.3,0.1,0.4c0,0,0,0.1,0.1,0.1c0,0,0.1,0,0.1-0.1c0-0.1,0.1-0.1,0-0.2
			c0-0.1,0-0.2,0-0.3c0-0.1,0-0.2,0-0.3c0-0.1,0-0.1,0-0.2c0-0.3,0-0.6,0-0.8c0-0.2,0-0.3,0-0.5c0,0,0-0.1,0-0.1c0-0.1,0-0.2,0-0.3
			c0,0,0-0.1,0-0.1c0-0.1,0-0.2,0-0.3c0-0.1,0-0.2,0-0.3c0,0,0-0.1,0-0.2c0-0.3,0-0.6,0-0.8c0-0.1,0-0.1,0-0.2c0-0.1,0-0.2,0-0.3
			c0-0.1,0-0.2,0-0.3c0,0,0,0,0,0c0-0.1,0-0.1,0-0.2c0-0.1,0-0.1,0-0.2c0,0,0,0,0-0.1c0-0.1,0-0.1,0-0.2c0-0.1,0-0.1,0-0.2
			c0-0.1,0-0.1,0-0.2c0-0.1,0-0.2,0-0.3c0,0,0,0,0-0.1c0-0.1,0-0.1,0-0.2c0,0,0,0,0,0c0-0.1,0-0.2,0-0.3c0-0.2,0.1-0.4,0.1-0.6
			c0-0.1,0-0.2,0-0.3c0,0,0-0.1,0-0.1c0,0,0,0,0,0c0,0,0.1,0,0.1,0.1c0.1,0.1,0.2,0.2,0.2,0.4c0,0,0,0,0,0.1c0,0.1,0,0.2,0,0.3
			c0,0.1,0,0.2,0,0.3c0,0,0,0,0,0.1c0,0.1,0,0.3,0,0.4c0,0.1,0,0.3,0,0.4c0,0,0,0.1,0,0.1c0,0,0,0.1,0,0.1c0.1,0.2,0,0.4,0,0.6
			c-0.1,0.1,0,0.2,0,0.3c0,0.1,0,0.2,0,0.3c0,0.1,0,0.2,0,0.3c0,0.1,0,0.2,0,0.3c0,0.1,0,0.2,0,0.3c0,0,0,0,0,0c0.1,0.2,0,0.4,0,0.6
			c0,0.1,0,0.1,0,0.2c0,0,0,0.1,0,0.1c0,0.1,0,0.2,0,0.4c0,0.2,0.1,0.3,0.2,0.4c0.1,0,0.2,0,0.2-0.1c0-0.1,0.1-0.2,0.1-0.3
			c0-0.1,0-0.3,0-0.4c0,0,0-0.1,0-0.1c0-0.1,0-0.1,0-0.1c0,0,0,0,0-0.1c0-0.1,0-0.2,0-0.3c0-0.1,0-0.2,0-0.3c0-0.2,0-0.4,0-0.5
			c0-0.1,0-0.1,0-0.2c0,0,0-0.1,0-0.1c0,0,0,0,0-0.1c0,0,0.2,0,0.2,0c0,0,0,0,0,0.1c0,0.2,0.1,0.5,0,0.7c0,0.1,0,0.1,0,0.2
			c0.1,0.2,0.1,0.3,0.1,0.5c0,0.1,0,0.1,0,0.2c0,0.1,0,0.2,0,0.3c0,0.2,0,0.4,0,0.6c0,0.1,0,0.2,0,0.2c0,0,0,0.1,0,0.1
			c0,0.2-0.1,0.3-0.2,0.4c0,0,0,0-0.1,0C6.2,18.9,6,18.9,5.9,19c0,0,0,0,0,0c0,0-0.1,0-0.1,0c0,0.1,0,0.1,0,0.2c0,0.1,0,0.3,0,0.4
			c0,0.1,0,0.1,0,0.2c0,0.1,0,0.2,0,0.3c0,0.1,0,0.2,0.1,0.3c0,0,0,0,0,0.1c0.1,0.1,0.2,0.3,0.3,0.4c0,0,0,0,0.1,0
			C6.2,21,6.3,21,6.5,21c0.1,0,0.1,0,0.2,0c0.2,0,0.3,0,0.5,0c0,0,0,0,0,0c0.1,0,0.3,0,0.4,0c0.1,0,0.3,0,0.4,0c0,0,0.1,0,0.1,0
			c0.1,0,0.2-0.1,0.3-0.1c0,0,0.1-0.1,0.1-0.1c0.1-0.1,0.1-0.3,0.1-0.4c0-0.1,0-0.1-0.1-0.2c0,0,0,0,0,0c-0.1-0.1-0.2-0.3-0.3-0.4
			c-0.1,0,0-0.1-0.1-0.2c-0.1-0.2-0.2-0.5-0.3-0.7c0-0.1-0.1-0.2-0.1-0.3c0,0,0-0.1,0-0.1c0,0,0-0.1,0-0.1c0-0.1,0-0.2-0.1-0.3
			c0,0,0,0,0-0.1c0-0.1-0.1-0.3-0.1-0.4c0,0,0,0,0-0.1c0-0.2-0.1-0.3-0.1-0.5c0-0.1-0.1-0.3-0.1-0.4c0,0,0-0.1,0-0.1
			c-0.1-0.2-0.1-0.4-0.1-0.6c0-0.1-0.1-0.3-0.1-0.4c0-0.2,0-0.3-0.1-0.4c0-0.1,0-0.3,0-0.4c0,0,0-0.1,0-0.1c0-0.1,0-0.2,0-0.2
			c0-0.1,0-0.2,0-0.2c0,0,0-0.1,0-0.1c0,0,0-0.1-0.1,0c-0.1,0-0.1,0.1-0.1,0.2c0,0,0,0.1,0,0.1c-0.1,0.2-0.1,0.5-0.2,0.7
			c0,0,0,0.1,0,0.1c0,0,0,0.1,0,0.1c0,0-0.1,0.1-0.1,0.1c0,0-0.1,0-0.1-0.1c0-0.1-0.1-0.3-0.1-0.4c0,0,0-0.1,0-0.1c0,0,0,0,0-0.1
			c0-0.1,0-0.2,0-0.3c0-0.1,0-0.1,0-0.2c0,0,0-0.1,0-0.2c0-0.1,0-0.2,0-0.3c0,0,0-0.1,0-0.1c0-0.2,0-0.3,0.1-0.4
			c0.1-0.1,0.1-0.2,0.2-0.3c0-0.1,0.1-0.1,0.2-0.1c0,0,0,0,0.1,0c0.2-0.1,0.1-0.1,0.2-0.3c0-0.1,0-0.2,0-0.3c0,0,0-0.1,0-0.1
			c0-0.1-0.1-0.3-0.2-0.4c-0.1-0.1-0.1-0.1-0.2-0.1c0,0-0.1,0-0.1,0c-0.1,0-0.2,0-0.3,0c-0.1,0-0.2,0-0.3,0c-0.2,0-0.5,0-0.7,0
			c-0.1,0-0.2-0.1-0.4-0.1c0,0,0,0-0.1,0c0,0-0.1-0.1-0.1-0.1c-0.1-0.1-0.1-0.1,0-0.2C4.3,11,4.5,11,4.6,11c0.1,0,0.3,0,0.4,0
			c0,0,0.1,0,0.1,0c0.1,0,0.3,0,0.4,0c0,0,0.1,0,0.1,0c0.1,0,0.2,0,0.3,0c0,0,0.1,0,0.1,0c0.2,0,0.3,0,0.5-0.1
			c0.1,0,0.1-0.1,0.2-0.1c0.1-0.1,0.1-0.2,0.1-0.4c0,0,0-0.1,0-0.1c0-0.1,0-0.1,0-0.2c0-0.1,0-0.2,0-0.4c0-0.1,0-0.1,0.1-0.1
			c0,0,0.1,0,0.1,0c0.1,0.1,0.1,0.2,0.2,0.3c0,0,0,0,0,0c0,0.1,0,0.2,0,0.2c0,0.1,0,0.2,0.1,0.4c0,0,0,0,0,0.1
			c0,0.1,0.1,0.2,0.2,0.2c0.1,0,0.1,0.1,0.2,0.1c0.1,0,0.3,0.1,0.4,0.1c0,0,0.1,0,0.1,0c0.1,0,0.1,0,0.2,0c0,0,0.1,0,0.1,0
			c0.1,0,0.2,0,0.3,0.1c0.1,0,0.1,0.1,0.2,0.1c0.1,0,0.1,0.1,0.1,0.2c0,0.1,0,0.1-0.1,0.2c0,0-0.1,0.1-0.2,0c-0.1,0-0.2,0-0.3,0
			c-0.1,0-0.3,0-0.4,0c0,0,0,0,0,0c-0.1-0.1-0.3,0-0.4,0c-0.1,0-0.1,0.1-0.2,0.1c0,0-0.1,0.1-0.1,0.1c0,0,0,0.1,0,0.1
			c0,0.1,0.1,0.2,0.2,0.3c0,0,0.1,0,0.1,0.1c0,0,0.1,0,0.1,0c0.1,0,0.3-0.1,0.4-0.1c0,0,0,0,0.1,0c0.2-0.1,0.4-0.2,0.6-0.3
			c0,0,0,0,0.1-0.1c0,0,0.1-0.1,0.1-0.1c0.1,0,0.1-0.1,0.1-0.1c0-0.1,0.1-0.1,0.1-0.2c0.1-0.1,0.1-0.2,0.2-0.3
			c0.1-0.1,0.1-0.2,0.2-0.3c0,0,0.1-0.1,0.1-0.1c0-0.1,0.1-0.2,0.1-0.3c0,0,0-0.1,0-0.1c0.1-0.2,0.1-0.4,0.2-0.6
			c0-0.1,0-0.2,0.1-0.2c0,0,0,0,0-0.1c0-0.2,0.1-0.3,0.1-0.5c0-0.2,0-0.3,0-0.5c0-0.1,0-0.2,0-0.2c0-0.1,0-0.1,0-0.2
			c0-0.1,0-0.1,0-0.1c0,0,0,0,0,0c0-0.1,0-0.2,0-0.3c0-0.1,0-0.2,0-0.3c0,0,0-0.1,0-0.1c0-0.1,0-0.1,0-0.2c0,0,0-0.1,0-0.1
			c0-0.1,0-0.3,0-0.4c0-0.1,0-0.1,0-0.2c0-0.1,0-0.1,0-0.2c0-0.1,0-0.1,0-0.2c0-0.2,0-0.3,0-0.5c0,0,0-0.1,0-0.1
			c-0.1-0.2,0-0.3,0-0.5c0-0.2,0-0.3,0-0.5c0-0.1,0-0.3,0-0.4c0,0,0,0,0-0.1c0.1-0.1,0-0.3,0-0.4c0-0.2,0-0.4,0-0.5
			c0-0.1,0-0.1,0-0.2c0,0,0-0.1,0.1-0.1c0,0,0.1,0.1,0.1,0.1c0,0.1,0.1,0.3,0.1,0.4c0,0.1,0,0.1,0.1,0.2c0,0,0,0.1,0,0.1
			c0,0,0,0.1,0,0.1c0.1,0.1,0.1,0.2,0.1,0.3c0,0.1,0,0.3,0,0.4c0,0,0,0.1,0,0.1c0,0.1,0,0.2,0,0.3c0,0,0,0.1,0,0.1
			c0,0.1,0,0.3,0,0.4c0,0,0,0,0,0.1c0.1,0.1,0,0.3,0,0.4c0,0.1,0,0.1,0,0.2c0,0.1,0,0.1,0,0.2c0,0.1,0,0.2,0,0.4c0,0.1,0,0.2,0,0.4
			c0,0.3,0,0.5,0,0.8c0,0.1,0,0.1,0,0.1c0,0,0,0.1,0,0.1c0,0,0,0.1,0,0.1c0,0.1,0,0.3,0,0.4c0,0.1,0,0.2,0,0.3c0,0.1,0,0.3,0,0.4
			c0,0.1,0,0.2,0,0.3C11,9.4,11,9.5,11,9.6c0,0.1-0.1,0.2-0.1,0.3c0,0.2-0.1,0.4-0.2,0.6c-0.1,0.1-0.1,0.2-0.2,0.4
			c-0.1,0.1-0.1,0.3-0.3,0.4c0,0-0.1,0.1-0.1,0.1c-0.1,0.1-0.1,0.2-0.2,0.3c0,0,0,0,0,0.1c0,0.1-0.1,0.1-0.1,0.1c0,0,0,0,0,0
			c0,0-0.1,0.1-0.1,0.1c0,0,0,0-0.1,0.1c-0.1,0.1-0.2,0.2-0.3,0.3c-0.1,0-0.1,0.1-0.2,0.1c-0.1,0-0.2,0.1-0.3,0.2
			c-0.1,0-0.2,0.1-0.3,0.2c-0.1,0.1-0.2,0.1-0.3,0.1c-0.2,0.1-0.4,0.2-0.5,0.4c-0.1,0.1-0.1,0.2-0.1,0.2c0,0.1,0,0.2,0,0.4
			c0,0.1,0,0.2,0,0.3c0,0,0,0.1,0,0.1c0,0.1,0,0.3,0,0.4c0,0,0,0.1,0,0.1c0,0,0,0.1,0,0.1c0.1,0.2,0,0.4,0.1,0.6
			c0,0.1,0,0.2,0.1,0.3c0,0.2,0.1,0.3,0.1,0.5c0,0.1,0.1,0.3,0.1,0.4c0,0,0,0.1,0,0.1C8,17,8,17.1,8,17.2c0,0,0,0.1,0,0.1
			c0,0.1,0,0.2,0,0.3c0,0,0,0.1,0,0.1c0,0,0,0,0,0.1c0,0.1,0.1,0.2,0.1,0.3c0,0.1,0.1,0.2,0.1,0.3c0,0.1,0.1,0.2,0.1,0.3
			c0,0,0,0.1,0,0.1c0.1,0.1,0.1,0.1,0.1,0.2c0.1,0.1,0.1,0.2,0.2,0.2c0.1,0.1,0.1,0.2,0.1,0.2c0,0,0,0.1,0.1,0.1
			c0.1,0.1,0.1,0.1,0.2,0c0.1-0.1,0.1-0.3,0.2-0.4c0,0,0,0,0,0c0-0.2,0.2-0.4,0.3-0.6c0-0.1,0.1-0.1,0.1-0.1c0-0.1,0.1-0.1,0.2-0.1
			c0,0,0.1,0,0.1,0c0,0.1,0.1,0.1,0.1,0.2c0,0.1,0.1,0.1,0.1,0.2c0,0.1,0.1,0.1,0.1,0.2c0,0.1,0.1,0.2,0.1,0.3c0,0.1,0,0.2,0.1,0.3
			c0,0,0,0.1,0,0.1c0.1,0.1,0.1,0.3,0.2,0.4c0.1,0.2,0.2,0.3,0.2,0.5c0,0.1,0.1,0.2,0.2,0.3c0,0.1,0.1,0.1,0.1,0.2
			c0,0.1,0.1,0.2,0.1,0.3c0,0.1,0.1,0.2,0.1,0.2c0,0.1,0.1,0.1,0.1,0.1c0,0,0,0,0,0c0,0,0-0.1,0-0.1c0-0.1,0-0.2,0-0.3
			c0-0.1,0.1-0.1,0.1-0.2c0,0,0,0,0,0c0,0,0.1,0.1,0.1,0.1c0.1,0.2,0.2,0.5,0.2,0.8c0,0.1,0,0.1,0,0.2c0,0.1,0,0.3,0,0.4
			c0,0.2,0,0.4,0,0.6c0,0.1,0,0.1,0,0.2c0,0.1,0,0.1,0,0.2c0,0,0,0.1,0,0.1c0,0.1,0,0.2,0,0.3c0,0.4,0,0.7,0,1.1c0,0,0,0.1,0,0.1
			c0,0.1,0,0.1,0,0.2c0,0.1,0,0.2,0,0.3c0,0.2,0,0.3,0.1,0.5c0,0.1,0,0.2,0,0.3c0,0.1,0.1,0.2,0.2,0.3c0,0,0.1,0.1,0.1,0.1
			c0.1,0.1,0.2,0.2,0.3,0.2c0.1,0,0.3,0,0.4,0c0.1,0,0.2,0,0.3,0c0.1,0,0.1,0,0.2,0c0.1,0,0.3,0,0.4,0c0.1,0,0.2,0,0.3,0
			c0,0,0,0,0.1,0c0,0,0,0,0.1,0c0.1,0,0.2,0,0.3,0c0.1,0,0.2,0,0.3,0c0,0,0.1,0,0.1,0c0,0,0.1,0,0.1,0c0.2,0,0.3-0.1,0.4-0.2
			c0,0,0-0.1,0.1-0.1c0.1-0.1,0.1-0.2,0.1-0.3c0-0.3,0-0.7,0-1c0-0.5,0-1,0-1.5c0-0.1,0-0.3,0-0.4c0-0.1,0-0.2,0-0.3
			c0-0.1,0-0.2,0-0.3c0-0.2,0-0.4,0-0.6c0,0,0-0.1,0-0.2c0-0.2,0-0.4,0-0.6c0-0.1,0-0.3,0-0.4c0-0.2,0-0.4,0-0.6c0-0.1,0-0.3,0-0.4
			c0,0,0-0.1,0-0.1c0-0.1,0-0.1,0-0.2c0-0.2,0-0.4,0-0.5c0-0.2,0-0.4,0-0.5c0-0.3,0-0.6,0-0.9c0-0.1,0-0.1,0-0.2c0-0.1,0-0.2,0-0.4
			c0,0,0,0,0,0c0-0.3,0-0.5,0-0.8c0,0,0-0.1,0-0.1c0-0.1,0-0.1,0-0.2c0-0.1,0-0.2,0-0.2c0-0.1,0-0.1,0-0.2c0-0.2,0-0.3,0-0.5
			c0-0.2,0-0.3,0-0.5c0-0.2,0-0.4,0-0.6c0-0.3,0-0.6,0-0.9c0,0,0-0.1,0-0.1c0-0.1,0-0.3,0-0.4c0,0,0-0.1,0-0.1c0,0,0,0,0,0
			c-0.1-0.1-0.2-0.2-0.3-0.3c-0.1-0.1-0.2-0.1-0.4-0.2c-0.1-0.1-0.3-0.2-0.3-0.3c0,0,0,0-0.1-0.1c-0.2-0.1-0.3-0.3-0.4-0.5
			c-0.1-0.2-0.2-0.3-0.3-0.5c0-0.1-0.1-0.1-0.1-0.2c-0.1-0.2-0.1-0.3-0.2-0.5c0-0.2-0.1-0.3-0.1-0.5c0-0.1,0-0.3-0.1-0.4
			c0,0,0,0,0-0.1c0-0.2,0-0.4-0.1-0.5c0,0,0-0.1,0-0.1c0-0.1-0.1-0.2,0-0.4c0,0,0-0.1,0-0.1c0-0.2,0-0.3,0-0.5c0-0.2,0-0.5,0-0.7
			c0-0.1,0-0.2,0-0.3c0,0,0-0.1,0-0.1c0-0.1,0-0.2,0-0.2c0-0.2,0-0.3,0-0.5c0-0.1,0-0.2,0-0.3c0-0.1,0-0.1,0-0.2c0,0,0,0,0-0.1
			c0-0.1,0-0.2,0-0.3c0-0.1,0-0.3,0-0.4c0-0.2,0-0.3,0-0.5c0-0.1,0-0.2,0-0.3c0-0.1,0-0.2,0-0.2c0-0.1,0-0.2-0.1-0.3
			c0-0.1-0.1-0.1-0.1-0.2c-0.1-0.1-0.1-0.1-0.2-0.2c0,0-0.1,0-0.1,0c-0.1,0-0.1,0.1-0.2,0.1c0,0,0,0,0,0.1c0,0.1-0.1,0.2-0.1,0.3
			c0,0.2,0,0.3-0.1,0.5c0,0.2,0,0.4,0,0.5c0,0,0,0.1,0,0.1c0,0.1,0,0.2,0,0.3c0,0,0,0,0,0c-0.1,0.2,0,0.3-0.1,0.5c0,0.2,0,0.3,0,0.5
			c0,0.1,0,0.1,0,0.1c0,0,0,0.1,0,0.1C12.9,5.9,13,6,13,6.1c0,0.1,0,0.2,0,0.3c0,0.1,0,0.2,0,0.3c0,0.1,0,0.1,0,0.2
			C13,7,13,7,13,7.1c0,0,0,0.1,0,0.1c0,0.1,0,0.2,0,0.4c0,0.1,0,0.2,0,0.4c0,0,0,0,0,0.1c0,0.1,0,0.2,0,0.2c0,0.2,0,0.3,0,0.5
			c0,0,0,0,0,0c0,0.1,0,0.2,0,0.3c0,0.1,0,0.1,0,0.2c0,0.1,0,0.1,0,0.2c0,0.1,0,0.1,0,0.2c0,0.4,0,0.7,0,1.1c0,0.2,0,0.3,0,0.5
			c0,0.1,0,0.1,0,0.2c0,0,0,0.1,0,0.1c0,0,0,0.1,0,0.1c0,0,0,0,0,0.1c-0.1,0.1,0,0.3,0,0.4c0,0,0,0.1,0,0.1c0,0.1,0,0.2,0,0.3
			c0,0.1,0,0.3,0,0.4c0,0,0,0.1,0,0.1c0,0,0,0.1,0,0.1c0,0.1,0,0.2,0,0.3c0,0.1,0,0.1,0,0.2c0,0.1-0.1,0.1,0,0.2
			c-0.1,0.1-0.1,0.3-0.1,0.5c-0.1,0.1-0.1,0.3-0.2,0.4c-0.1,0.2-0.2,0.3-0.3,0.4c-0.1,0.2-0.2,0.3-0.3,0.5c-0.1,0.1-0.2,0.2-0.3,0.3
			c0,0,0,0,0,0.1c0,0,0,0,0,0.1c-0.1,0.1-0.1,0.1-0.2,0.2c-0.1,0.1-0.1,0.1-0.2,0.1c-0.1,0.1-0.2,0.1-0.3,0.2c0,0-0.1,0-0.1,0.1
			c-0.3,0.1-0.5,0.3-0.7,0.4c-0.1,0-0.1,0.1-0.2,0.1c0,0-0.1,0-0.1,0c-0.1,0-0.2,0.1-0.2,0.1c0,0-0.1,0-0.1,0
			c-0.2,0.1-0.5,0.1-0.7,0.1c0,0-0.1,0-0.1,0c0,0,0-0.1,0-0.1c0.1-0.1,0.1-0.1,0.2-0.1C8.8,17,8.8,17,8.8,17
			c0.2-0.1,0.3-0.2,0.5-0.3c0.3-0.2,0.6-0.3,0.8-0.6c0.2-0.2,0.3-0.3,0.5-0.5c0,0,0.1-0.1,0.1-0.2c0.1-0.1,0.1-0.2,0.2-0.3
			c0,0,0,0,0,0c0-0.1,0-0.1,0.1-0.2c0.1,0,0.1-0.1,0.1-0.2c0,0,0.1-0.1,0.1-0.1c0.1-0.2,0.2-0.4,0.3-0.6c0-0.1,0.1-0.2,0.1-0.3
			c0.1-0.1,0.1-0.3,0.2-0.5c0-0.1,0-0.1,0.1-0.2c0-0.1,0.1-0.2,0.1-0.3c0-0.1,0.1-0.3,0-0.4c0-0.1,0-0.2,0.1-0.4c0-0.1,0-0.1,0-0.2
			c0-0.1,0-0.2,0.1-0.3c0,0,0-0.1,0-0.1c0-0.1,0-0.2,0-0.2c0,0,0-0.1,0-0.1c0-0.1,0-0.3,0.1-0.4c0-0.1,0-0.2,0-0.3
			c0-0.1,0-0.2,0-0.3c0-0.1,0-0.1,0-0.2c0-0.1,0-0.2,0-0.3c0-0.2,0-0.3,0-0.5c0,0,0-0.1,0-0.1c0-0.2,0-0.5,0-0.7c0-0.2,0-0.3,0-0.5
			c0,0,0-0.1,0-0.1c0-0.1,0-0.1,0-0.2c0-0.1,0-0.1,0-0.2c0-0.3,0-0.6,0-0.9c0,0,0-0.1,0-0.1c0,0,0-0.1,0-0.1c0-0.1,0-0.1,0-0.2
			c0,0,0-0.1,0-0.1c0-0.1,0-0.2,0-0.2c0-0.1,0-0.2,0-0.3c0-0.3,0-0.6,0-1c0,0,0-0.1,0-0.1c0-0.1,0-0.1,0-0.2c0,0,0,0,0-0.1
			c-0.1-0.2,0-0.3,0-0.5c0-0.1,0-0.2,0-0.2c0-0.1,0-0.2,0-0.4c0,0,0,0,0,0c0-0.1,0-0.2,0-0.3c0-0.2-0.1-0.5-0.2-0.7
			c0-0.1,0-0.1-0.1-0.2c0-0.1-0.1-0.1-0.2-0.2c0,0,0,0,0,0c-0.2-0.1-0.4-0.2-0.5-0.4c-0.1-0.1-0.1-0.1-0.2-0.1c0,0-0.1,0-0.1,0
			c-0.1-0.1-0.2-0.1-0.3-0.1C10.3,1,10.1,1,9.9,1c0,0,0,0-0.1,0c-0.1,0-0.2,0-0.3-0.1c-0.1,0-0.2,0-0.3-0.1c-0.1,0-0.2,0-0.3,0
			c-0.3,0-0.5,0-0.8,0c-0.2,0-0.5,0-0.7,0c-0.1,0-0.2,0-0.3,0.1C7.2,1,7.1,1,7,1C6.9,1,6.8,1.1,6.7,1.1c-0.1,0-0.1,0.1-0.2,0.2
			c0,0,0,0,0,0.1c0,0,0.1,0.1,0.1,0.1c0.1,0,0.2,0.1,0.3,0.2c0.1,0.1,0.2,0.2,0.3,0.2C7.4,2,7.5,2,7.6,2.1c0.1,0.1,0.1,0.1,0.2,0.1
			c0.1,0.1,0.3,0.1,0.4,0.2c0.1,0.1,0.2,0.2,0.4,0.3C8.7,2.8,8.9,2.9,9,3c0,0,0,0,0.1,0c0.1,0.1,0.3,0.2,0.4,0.3
			c0.1,0.1,0.2,0.1,0.3,0.2c0.1,0.1,0.2,0.2,0.3,0.3c0,0,0,0.1,0,0.1C10,4,10,4.1,9.9,4.1C9.8,4.2,9.7,4.3,9.6,4.3
			C9.5,4.4,9.3,4.4,9.2,4.5C9.1,4.5,9.1,4.6,9,4.7C9,4.7,9,4.8,8.9,4.8c0,0,0,0.1,0,0.1c0,0,0,0,0,0.1c0,0.4,0,0.5,0.1,0.8
			C9.1,6,9.2,6.2,9.2,6.3c0,0,0,0.1,0,0.1c0.1,0.1,0.1,0.2,0.1,0.3c0,0.1,0,0.2,0.1,0.3c0,0.1,0,0.2,0,0.4C9.4,7.5,9.4,7.7,9.3,7.7
			C9.2,7.8,9.1,7.9,9.1,7.9C8.9,8.1,8.7,8.2,8.6,8.3c0,0-0.1,0.1-0.1,0.1c-0.1,0-0.2,0.1-0.3,0.2C8.1,8.6,8.1,8.7,8,8.7
			C7.8,8.7,7.7,8.8,7.6,8.9C7.5,9,7.4,9.1,7.3,9.2C7.2,9.2,7.1,9.3,7,9.3c-0.1,0-0.2,0.1-0.3,0.2c0,0-0.1,0.1-0.2,0.1
			C6.4,9.7,6.2,9.9,6,10c-0.1,0.1-0.2,0.1-0.4,0.1c0,0,0,0,0,0c-0.1,0-0.2,0-0.4-0.1C5.1,9.9,5,9.8,4.9,9.8c0,0,0,0,0,0
			C4.7,9.7,4.5,9.6,4.4,9.5C4.3,9.4,4.1,9.3,4,9.3c0,0,0,0,0,0C3.8,9.1,3.7,9.1,3.6,9C3.4,8.9,3.2,8.8,3,8.7c-0.1,0-0.1-0.1-0.2-0.1
			C2.6,8.5,2.5,8.4,2.4,8.4c-0.1,0-0.1-0.1-0.1-0.1C2.2,8.2,2.1,8.1,2,8C1.9,8,1.9,7.9,1.8,7.8C1.8,7.7,1.7,7.6,1.7,7.5
			C1.6,7.4,1.6,7.2,1.6,7c0-0.2,0-0.3,0.1-0.5c0.1-0.1,0.1-0.3,0.1-0.4c0,0,0-0.1,0-0.1c0-0.2,0.1-0.4,0.2-0.7c0,0,0-0.1,0-0.1
			c0-0.1,0-0.2,0-0.2C2.1,4.9,2,4.8,1.9,4.8C1.8,4.8,1.8,4.7,1.7,4.7z M6.6,32.8c0,0.1,0,0.2,0,0.3c0,0,0,0.1,0.1,0.1
			c0.1,0,0.1,0.1,0.1,0.1c0,0,0.1,0.1,0.1,0.1c0,0,0.1,0,0.1,0c0.1,0,0.2,0,0.3,0.1c0.1,0,0.2,0.1,0.3,0.1c0.1,0,0.1,0,0.2,0.1
			C8,33.7,8,33.7,8.1,33.7c0.1,0,0.2,0.1,0.4,0.1c0.1,0.1,0.3,0.1,0.4,0.1C8.9,34,9,34,9,34c0.2,0.1,0.3,0.2,0.5,0.3
			c0.1,0,0.1,0.1,0.2,0.1c0,0,0,0,0,0c0.1,0.1,0.2,0.1,0.3,0.2c0,0,0.1,0.1,0.2,0.1c0.1,0,0.2,0,0.3-0.1c0.1-0.1,0.2-0.2,0.3-0.3
			c0.1-0.1,0.2-0.1,0.3-0.2c0.1-0.1,0.2-0.1,0.3-0.2c0,0,0,0,0.1,0c0.1,0,0.1,0,0.1-0.1c0.1-0.1,0.2-0.2,0.3-0.2c0,0,0,0,0.1,0
			c0.1-0.1,0.2-0.1,0.3-0.1c0.1,0,0.3-0.1,0.4-0.2c0.1,0,0.2-0.1,0.3-0.1c0,0,0.1,0,0.1,0c0.3-0.1,0.6-0.1,0.9-0.2
			c0.2,0,0.4,0,0.6,0c0.1,0,0.1,0,0.2,0c0.1,0,0.1,0,0.1-0.1c0,0,0,0,0-0.1c0-0.2,0-0.3,0-0.4c0-0.2-0.1-0.4,0-0.5
			c0-0.3,0-0.6,0-0.8c0-0.1,0-0.3,0-0.4c0,0,0-0.1,0-0.1c0-0.1,0-0.3,0-0.4c0-0.1,0-0.3,0-0.4c0-0.1-0.1-0.2,0-0.3c0,0,0,0,0,0
			c0-0.1,0-0.2-0.1-0.3c0-0.1,0-0.2,0-0.3c0-0.2,0-0.3-0.1-0.4c0,0,0-0.1,0-0.1c-0.1-0.1-0.2-0.2-0.2-0.3c0,0,0,0,0,0
			c0,0-0.1,0-0.1,0c-0.1,0-0.2,0-0.3,0.1c0,0-0.1,0-0.1,0c-0.1,0-0.2,0.1-0.2,0.2c-0.1,0.1-0.1,0.2-0.2,0.3c0,0,0,0.1,0,0.1
			c0,0.1,0,0.1,0,0.2c0,0.2-0.1,0.3-0.1,0.5c0,0,0,0,0,0c-0.1,0.2-0.1,0.4-0.1,0.6c0,0.1-0.1,0.3-0.1,0.4c0,0,0,0,0,0
			c0,0,0,0.1,0,0.1c-0.1,0.2-0.1,0.3-0.2,0.4c0,0,0,0,0,0.1c0,0.1-0.1,0.1-0.1,0.2c-0.1,0.1-0.1,0.2-0.2,0.3
			c-0.1,0.1-0.1,0.2-0.2,0.2c0,0,0,0,0,0c-0.1,0.1-0.2,0.1-0.3,0c-0.1-0.1-0.1-0.2-0.1-0.3c0-0.2,0-0.4,0-0.6c0-0.2,0.1-0.3,0.2-0.5
			c0-0.1,0.1-0.1,0.1-0.2c0.1-0.1,0-0.2-0.1-0.2c0,0,0,0-0.1,0c-0.1,0-0.2,0-0.3,0c-0.1,0-0.2-0.1-0.3,0c-0.1,0-0.2,0-0.3,0
			c-0.2,0-0.3,0-0.5,0c-0.1,0-0.1,0-0.2,0c-0.1,0-0.1,0-0.2,0c-0.1,0-0.2,0-0.2,0c-0.1,0-0.2,0-0.3,0c0,0-0.1,0-0.1,0
			c-0.1,0-0.1,0-0.2,0c-0.1,0-0.2,0-0.2,0c-0.1,0-0.2,0-0.2,0c-0.1,0-0.2,0-0.2,0c0,0-0.1,0-0.1,0c0,0-0.1,0-0.1,0c0,0-0.1,0-0.1,0
			c-0.1,0-0.2,0-0.3,0c-0.2,0-0.3,0-0.5,0.1c-0.2,0-0.3,0.1-0.4,0.3c-0.1,0.1-0.1,0.2-0.1,0.3c0,0,0,0,0,0.1c0,0.1,0,0.2,0,0.2
			c0,0.2,0,0.3,0,0.5c0,0,0,0.1,0,0.1c0,0.1,0,0.2,0,0.3c0,0,0,0,0,0.1c0,0,0,0.1,0,0.1c-0.1,0.2,0,0.3,0,0.5c0,0,0,0.1,0,0.1
			c0,0.1,0,0.2,0,0.3C6.6,32.7,6.6,32.7,6.6,32.8z M8.7,6.8c0-0.3,0-0.3-0.1-0.6c0-0.1-0.1-0.3-0.1-0.4c0-0.2-0.1-0.3-0.2-0.4
			C8.2,5.3,8,5.3,7.9,5.2c0,0,0,0-0.1,0c0,0-0.1,0-0.1,0.1C7.5,5.4,7.3,5.6,7,5.7c-0.1,0-0.2,0.1-0.2,0.1C6.7,5.9,6.6,6,6.5,6
			C6.4,6,6.4,6,6.3,6.1C6.2,6.1,6.1,6.2,6,6.2c-0.1,0-0.2,0.1-0.3,0.1C5.5,6.4,5.3,6.5,5,6.4c0,0,0,0,0,0c-0.1,0-0.1,0-0.2-0.1
			C4.7,6.3,4.6,6.2,4.5,6.2c-0.1,0-0.1,0-0.2-0.1C4.2,6,4.1,6,4,5.9c0,0-0.1-0.1-0.1-0.1c0,0-0.1,0-0.1-0.1C3.7,5.7,3.5,5.6,3.4,5.6
			c-0.1,0-0.3-0.1-0.4,0c-0.1,0-0.2,0.1-0.2,0.2c0,0.1,0,0.1-0.1,0.2c0,0.1,0,0.2-0.1,0.3c0,0.1-0.1,0.2-0.1,0.3
			c0,0.2-0.1,0.3-0.1,0.5c0,0.1,0,0.1,0,0.2c0,0.1,0,0.2,0,0.2c0.1,0.1,0.1,0.2,0.2,0.3c0,0,0.1,0.1,0.1,0.1C2.8,7.9,2.9,8,3,8
			c0.1,0,0.2,0.1,0.3,0.1c0.1,0.1,0.2,0.1,0.4,0.2c0.1,0,0.1,0.1,0.2,0.1c0,0,0.1,0,0.1,0C4,8.5,4,8.6,4.1,8.6
			c0.1,0.1,0.3,0.1,0.5,0.3c0,0,0,0,0.1,0C4.8,8.9,5,8.9,5.2,9c0.1,0,0.1,0,0.2,0C5.6,8.9,5.8,8.9,6,8.8c0.1,0,0.1,0,0.2-0.1
			c0.2-0.1,0.3-0.2,0.5-0.3C6.9,8.4,7,8.4,7.2,8.3C7.3,8.2,7.4,8.1,7.5,8C7.7,7.9,7.9,7.8,8,7.7c0.1,0,0.2-0.1,0.2-0.1
			c0,0,0.1,0,0.1-0.1c0.1-0.1,0.1-0.2,0.2-0.2C8.7,7,8.7,7,8.7,6.8z M7.3,34.1c-0.1,0-0.1,0-0.1,0c-0.2,0-0.3,0.1-0.4,0.3
			c0,0.1,0,0.3-0.1,0.4c0,0,0,0,0,0c0,0.2,0,0.3,0,0.5c0,0.1,0,0.1,0,0.2c0,0.2,0,0.5,0,0.7c0,0.1,0,0.2,0,0.2c0,0.1,0,0.2,0,0.2
			c0,0.1,0,0.2,0,0.2c0,0,0,0,0,0.1c0,0,0,0.1,0,0.1c0,0.1,0,0.1,0,0.2c0,0.1,0,0.2,0,0.2c0,0.1,0,0.2,0,0.3c0,0.2,0,0.4,0,0.7
			c0,0.1,0,0.2,0,0.3c0,0.1,0,0.1,0.1,0.1c0.1,0,0.1,0,0.2,0.1C7.4,38.9,7.7,39,8.1,39c0,0,0,0,0,0c0.1,0,0.2,0,0.2,0
			c0.2,0,0.4,0,0.6,0.1c0,0,0.1,0,0.1,0c0.1,0,0.2,0,0.3,0c0.1,0,0.2,0,0.3-0.1C9.7,39,9.8,39,9.9,39c0,0,0.1,0,0.1,0
			c0,0,0.1-0.1,0.1-0.1c0-0.1,0.1-0.3,0.1-0.4c0-0.1,0-0.2,0-0.3c0-0.1,0-0.1,0-0.2c0-0.1,0-0.1,0-0.2c0-0.1,0-0.1,0-0.2
			c0,0,0,0,0-0.1c0-0.2,0-0.3,0-0.5c0,0,0-0.1,0-0.1c0-0.2,0-0.4,0-0.6c0,0,0-0.1,0-0.1c0,0,0-0.1,0-0.1c0-0.2-0.1-0.3-0.2-0.4
			c0,0,0,0,0,0c0-0.1-0.1-0.2-0.2-0.2c0,0-0.1,0-0.1,0c-0.3-0.2-0.5-0.4-0.8-0.6c0,0-0.1-0.1-0.1-0.1c-0.2-0.1-0.4-0.2-0.6-0.2
			c0,0-0.1-0.1-0.1-0.1c-0.1,0-0.2,0-0.3-0.1c-0.1,0-0.2,0-0.2-0.1C7.5,34.1,7.4,34.1,7.3,34.1z M5.9,38.4c0-0.1,0.1-0.1,0-0.2
			c0,0,0-0.1,0-0.1c0-0.1,0-0.3,0-0.4c0-0.1,0-0.1,0-0.2c0-0.2,0-0.3,0-0.5c0-0.1,0-0.2,0-0.3c0-0.1,0-0.2,0-0.3c0-0.1,0-0.2,0-0.3
			c0-0.1,0-0.1,0-0.2c0-0.1,0-0.1,0-0.2c0-0.3,0-0.6,0-0.8c0-0.1,0-0.2,0-0.3c0-0.1,0-0.2,0-0.3c0,0,0-0.1,0-0.1c0-0.1,0-0.2,0-0.4
			c0,0,0,0,0-0.1c0-0.1,0-0.2,0-0.4c0,0,0,0,0-0.1c0-0.1,0-0.3,0-0.4c0,0,0-0.1,0-0.1c0-0.2,0-0.3,0-0.5c0-0.1,0-0.1,0-0.2
			c0-0.1,0-0.1,0-0.2c0-0.1,0-0.2,0-0.3c0-0.1,0-0.2,0-0.3c0-0.2,0-0.3,0-0.5c0-0.1,0-0.2,0-0.2c0-0.1-0.1-0.3-0.1-0.4c0,0,0,0,0,0
			c-0.1-0.1-0.2-0.2-0.3-0.1c-0.1,0-0.2,0-0.2,0.1c0,0.1-0.1,0.1-0.1,0.2C5,30.6,5,30.8,4.9,30.9c0,0.2-0.1,0.3-0.1,0.5
			c0,0.1,0,0.2,0,0.3c0,0,0,0,0,0.1c0,0.1,0,0.2,0,0.3c0,0,0,0.1,0,0.1c0,0.1,0,0.2-0.1,0.4c-0.1,0.1-0.1,0.3-0.2,0.4
			c0,0.1-0.1,0.2-0.1,0.2c0,0,0,0.1,0,0.1c-0.1,0.1-0.1,0.2-0.2,0.3c-0.1,0.1-0.3,0.3-0.4,0.4c-0.1,0.1-0.2,0.2-0.4,0.2
			c0,0-0.1,0-0.1,0c0,0-0.1,0-0.1,0c0,0,0,0-0.1,0c0,0,0,0,0,0c0,0,0,0,0,0c0,0,0,0,0,0c0,0.1,0,0.3,0,0.4c0,0,0,0,0,0
			c0,0.1,0,0.2,0,0.3c0,0.1,0,0.2,0,0.3c0,0,0,0.1,0,0.1C3,35.3,3,35.4,3,35.4c0,0.1,0,0.1,0,0.2c0,0.1,0,0.1,0,0.2
			c0,0.1,0.1,0.2,0.1,0.3c0.1,0.2,0.2,0.4,0.3,0.6c0.1,0.1,0.2,0.2,0.2,0.3c0.1,0.1,0.2,0.2,0.3,0.3c0,0,0.1,0.1,0.1,0.1
			c0.1,0.1,0.2,0.2,0.3,0.3c0,0,0.1,0.1,0.1,0.1C4.8,37.9,4.9,38,5,38.1c0.2,0.1,0.4,0.2,0.7,0.3C5.8,38.4,5.8,38.4,5.9,38.4z
			 M5.1,5.6C5.1,5.6,5.1,5.6,5.1,5.6c0,0,0.1,0,0.1,0c0.1,0,0.3,0,0.4-0.1C5.8,5.5,6,5.4,6.1,5.4c0.1,0,0.2-0.1,0.4-0.2
			C6.7,5.1,6.9,5,7.1,4.9c0.1,0,0.1,0,0.2-0.1c0.1-0.1,0.3-0.1,0.5-0.2c0.1,0,0.3-0.1,0.4-0.2c0.1-0.1,0.3-0.2,0.4-0.2
			C8.7,4.1,8.8,4,9,3.8c0,0,0,0,0,0c0,0,0-0.1,0-0.1C9,3.7,8.9,3.6,8.8,3.5C8.7,3.5,8.7,3.4,8.6,3.4c-0.1,0-0.1-0.1-0.2-0.1
			C8.2,3.2,8.1,3.1,7.9,3c-0.1,0-0.2-0.1-0.2-0.2c0,0,0,0-0.1-0.1C7.5,2.7,7.4,2.6,7.3,2.5c0,0,0,0-0.1,0C7.1,2.4,7,2.4,6.9,2.3
			C6.7,2.2,6.6,2.1,6.4,2C6.3,2,6.2,1.9,6.1,1.9C6,1.8,6,1.8,5.9,1.8c-0.1,0-0.1,0-0.2,0c-0.1,0-0.1,0-0.1,0c-0.1,0-0.1,0-0.2,0
			c-0.1,0-0.1,0-0.2,0C5,1.8,4.8,1.9,4.7,2C4.6,2,4.6,2,4.5,2c-0.1,0-0.1,0.1-0.2,0.1c0,0-0.1,0.1-0.1,0.1C4.1,2.3,4,2.3,4,2.4
			c0,0,0,0-0.1,0c-0.1,0-0.1,0.1-0.1,0.1c0,0-0.1,0-0.2,0.1c0,0,0,0-0.1,0C3.5,2.7,3.4,2.7,3.3,2.7c0,0,0,0-0.1,0
			C3.2,2.8,3.1,2.9,2.9,2.9c0,0,0,0-0.1,0C2.7,3,2.6,3.1,2.5,3.2C2.3,3.2,2.2,3.3,2,3.4C1.9,3.5,1.8,3.6,1.7,3.6c0,0,0,0,0,0
			c0,0,0,0,0,0c0,0.1,0.1,0.1,0.2,0.1C2,3.7,2.2,3.6,2.4,3.5c0,0,0.1,0,0.1,0c0.1,0,0.3-0.1,0.4-0.1C3,3.2,3.2,3.2,3.4,3.2
			c0,0,0.1,0,0.1,0c0.1,0,0.3-0.1,0.4,0c0.1,0,0.2,0,0.3,0c0.2,0,0.3,0,0.5,0c0.1,0,0.2,0,0.2,0c0.1,0,0.2,0,0.2,0
			c0.1,0,0.1,0,0.2,0c0.2,0,0.4,0.1,0.6,0.2c0,0,0,0,0,0.1c0,0,0,0.1,0,0.1C5.8,3.6,5.7,3.6,5.6,3.6c-0.2,0-0.4,0-0.5,0
			c0,0,0,0-0.1,0c-0.1,0-0.2,0-0.3,0c-0.1,0-0.3,0-0.4,0c-0.1,0-0.1,0-0.2,0c-0.1,0-0.3,0-0.4,0.1c-0.2,0-0.3,0.1-0.5,0.1
			c-0.1,0-0.1,0-0.2,0C2.9,3.9,2.8,3.9,2.7,4C2.5,4,2.5,4.1,2.4,4.2c0,0,0,0.1,0,0.1c0,0,0,0.1,0,0.1c0.2,0.1,0.3,0.2,0.5,0.2
			c0.1,0,0.1,0,0.2,0.1C3,4.7,3.1,4.7,3.2,4.8c0,0,0.1,0,0.1,0C3.5,4.9,3.6,5,3.8,5.1c0.1,0,0.2,0.1,0.2,0.1
			c0.1,0.1,0.3,0.1,0.4,0.2c0.1,0.1,0.3,0.1,0.4,0.2c0,0,0,0,0.1,0C5,5.6,5,5.6,5.1,5.6z M10.9,37.7c0,0.2,0,0.3,0,0.5
			c0,0.1,0,0.1,0.1,0.2c0.1,0.1,0.2,0.1,0.3,0.1c0.2-0.1,0.3-0.2,0.5-0.3c0.2-0.1,0.3-0.2,0.5-0.3c0,0,0,0,0,0
			c0.3-0.2,0.5-0.3,0.8-0.5c0.1,0,0.1-0.1,0.2-0.1c0.1-0.1,0.2-0.2,0.3-0.3c0,0,0.1-0.1,0.1-0.1c0.2-0.1,0.3-0.3,0.5-0.5
			c0,0,0,0,0,0c0.1-0.1,0.1-0.2,0.2-0.3c0,0,0.1-0.1,0.1-0.1c0,0,0,0,0,0c0.1-0.1,0.1-0.2,0.2-0.3c0.1-0.2,0.1-0.4,0.1-0.6
			c0-0.1,0-0.2,0-0.3c0,0,0-0.1,0-0.1c0-0.1,0-0.1,0-0.2c0,0,0-0.1,0-0.1c0-0.1,0-0.2,0-0.4c0-0.1,0-0.2,0-0.4c0,0,0-0.1-0.1-0.1
			c-0.1,0-0.3,0-0.4,0c-0.2,0-0.5,0-0.7,0.1c-0.1,0-0.1,0-0.2,0c-0.1,0-0.1,0-0.2,0.1c-0.2,0.1-0.4,0.1-0.6,0.3c0,0,0,0,0,0
			c-0.2,0.1-0.4,0.2-0.5,0.3c0,0-0.1,0-0.1,0.1c-0.1,0-0.3,0.2-0.4,0.2c-0.1,0.1-0.1,0.1-0.2,0.2c-0.1,0.1-0.3,0.2-0.3,0.4
			c0,0,0,0.1,0,0.1c0,0,0,0.1,0,0.1c0,0.1,0,0.2,0,0.3c0,0,0,0.1,0,0.1c0,0.1,0,0.2-0.1,0.3c0,0.1,0,0.1,0,0.2c0,0.1,0,0.3,0,0.4
			c0,0,0,0.1,0,0.1c0,0,0,0.1,0,0.1c0,0.1,0,0.2,0,0.3c0,0,0,0.1,0,0.1C10.9,37.4,10.9,37.6,10.9,37.7z M14.4,8.4
			c0,0.2,0,0.3,0.1,0.5c0,0.2,0.1,0.4,0.1,0.6c0.1,0.3,0.2,0.6,0.2,0.9c0,0.1,0,0.1,0.1,0.2c0.1,0.1,0.1,0.2,0.2,0.3
			c0.1,0.1,0.1,0.1,0.1,0.2c0,0.1,0.1,0.2,0.2,0.2c0,0,0.1,0.1,0.1,0.1c0.1,0.1,0.2,0.1,0.3,0.2c0,0,0.1,0,0.1,0c0,0,0.1,0,0.1-0.1
			c0.1-0.1,0.1-0.2,0.1-0.3c0-0.1,0-0.3,0-0.4c0-0.1-0.1-0.2,0-0.3c0-0.1,0-0.2,0-0.2c0,0,0,0,0-0.1c0-0.1,0-0.2,0-0.2
			c0-0.1,0-0.3,0-0.4c0-0.1,0-0.1,0-0.2c0-0.5,0-1,0-1.5c0-0.1,0-0.3,0-0.4c0-0.1,0-0.1,0-0.2c0-0.1,0-0.1,0-0.2
			c0-0.2-0.1-0.4-0.1-0.6c0,0,0,0,0-0.1c-0.1-0.1,0-0.3-0.1-0.4c0-0.1,0-0.2-0.1-0.4c0-0.1,0-0.2-0.1-0.3c0-0.1,0-0.2-0.1-0.3
			c0-0.1-0.1-0.2-0.1-0.3c0-0.1-0.1-0.1-0.1-0.2c0-0.1-0.1-0.1-0.2-0.2c0,0,0,0,0,0c0,0-0.1-0.1-0.1-0.1c-0.1-0.1-0.1-0.1-0.2,0
			c-0.2,0.1-0.2,0.3-0.3,0.4c0,0.1,0,0.1-0.1,0.2c-0.1,0.1-0.1,0.2-0.1,0.3c0,0.1,0,0.2,0,0.3c0,0.1,0,0.2,0,0.3c0,0.1,0,0.2,0,0.3
			c0,0.2,0,0.4,0,0.6c0,0.2,0,0.5,0,0.7c0,0,0,0.1,0,0.1c0,0.1,0,0.2,0,0.3c0,0.2,0,0.4,0,0.5C14.4,8.2,14.4,8.3,14.4,8.4z M11.9,29
			C11.9,29,11.9,29,11.9,29c0.1,0,0.2,0,0.3,0c0.1,0,0.2,0,0.2-0.1c0.1-0.1,0.1-0.2,0.1-0.3c0,0,0-0.1,0-0.1c0-0.1,0.1-0.2,0.1-0.3
			c0-0.1,0-0.2,0-0.2c0-0.2,0-0.3-0.2-0.4c0,0-0.1,0-0.2-0.1c0,0-0.1,0-0.1-0.1c-0.1-0.1-0.2-0.1-0.2-0.2c-0.1-0.2-0.3-0.4-0.3-0.6
			c0-0.2-0.1-0.2-0.1-0.4c0,0,0,0,0-0.1c0-0.1,0-0.2,0-0.2c0-0.1,0-0.1,0-0.2c0-0.2,0-0.3,0-0.5c0-0.3,0.1-0.5,0-0.8c0,0,0,0,0,0
			c0-0.1,0-0.2,0-0.3c0-0.1,0-0.2,0-0.4c0,0,0,0,0-0.1c0-0.1,0-0.2,0-0.3c0-0.1,0-0.2,0-0.3c0-0.1,0-0.2-0.1-0.2
			c-0.1-0.1-0.2-0.2-0.2-0.3c0-0.1-0.1-0.2-0.2-0.3c0,0,0-0.1,0-0.1c-0.1,0-0.2-0.1-0.3-0.1c-0.1,0-0.3,0-0.4,0
			c-0.1,0-0.1,0-0.2,0.1c-0.1,0.1-0.2,0.3-0.2,0.5c0,0,0,0.1,0,0.1c0.1,0.1,0.1,0.1,0.2,0.2c0.1,0.1,0.2,0.2,0.3,0.1
			c0,0,0.1,0,0.1,0c0.1,0,0.3,0.1,0.4,0.1c0.1,0,0.2,0.1,0.3,0.2c0,0,0,0.1,0,0.1c0,0-0.1,0.1-0.1,0.1c0,0-0.1,0-0.1,0
			c-0.2,0.1-0.3,0.1-0.5,0.1c0,0-0.1,0-0.1,0c-0.1,0-0.2,0-0.4,0c-0.1,0-0.1,0-0.1,0.1c0,0.1,0,0.2,0,0.4c0,0.1,0,0.1,0,0.2
			c0,0.1,0,0.2,0,0.4c0,0.1,0,0.3,0,0.4c0,0,0,0,0,0c0,0.2,0,0.3,0,0.5c0,0,0,0.1,0,0.1c0,0.1,0,0.1,0,0.2c0,0,0,0.1,0,0.1
			c0,0.2,0,0.3,0,0.5c0,0.1,0,0.2,0,0.2c0,0.1,0,0.2,0,0.2c0,0.2,0,0.4,0,0.7c0,0,0,0,0,0c0,0.2,0.1,0.3,0.1,0.5c0,0,0,0.1,0,0.1
			c0,0.2,0,0.3,0.1,0.5c0,0.1,0.1,0.2,0.1,0.2c0.1,0.1,0.2,0.1,0.3,0.1c0.2,0,0.4,0,0.6,0c0,0,0.1,0,0.1,0c0.1,0,0.1,0,0.2,0
			C11.7,29,11.8,29,11.9,29z M16.3,29c0-0.1,0-0.3,0-0.4c0,0,0-0.1,0-0.1c0-0.1,0-0.2-0.1-0.3c0-0.1-0.1-0.2-0.1-0.3
			c0-0.1,0-0.1-0.1-0.1c-0.1,0-0.3,0-0.4,0.1c0,0,0,0.1-0.1,0.1c0,0.1-0.1,0.3-0.1,0.4c0,0,0,0.1,0,0.1c0,0.1,0,0.2,0,0.3
			c0,0.2,0,0.4,0,0.5c0,0.3,0,0.5,0,0.8c0,0.3,0,0.6,0.1,0.9c0,0,0,0.1,0,0.1c0,0.2,0.1,0.3,0.1,0.5c0,0.2,0.1,0.4,0.1,0.6
			c0,0.1,0.1,0.3,0.1,0.4c0,0,0.1,0.1,0.1,0c0,0,0.1,0,0.1-0.1c0.1-0.1,0.1-0.2,0.2-0.3c0-0.2,0.1-0.4,0.1-0.6
			c0-0.2,0.1-0.4,0.1-0.5c0,0,0-0.1,0-0.1c0,0,0-0.1,0-0.1c0,0,0-0.1,0-0.1c0,0,0-0.1,0-0.1c0-0.1,0-0.2,0-0.3c0-0.1,0-0.2,0-0.3
			c0-0.2,0-0.3,0-0.5c0,0,0-0.1,0-0.1C16.3,29.4,16.3,29.2,16.3,29z M1.3,31.2L1.3,31.2c0,0,0,0.1,0,0.1c0,0.1,0,0.2,0.1,0.2
			c0.1,0.1,0.2,0.1,0.3,0.1c0.1,0,0.3,0,0.4,0c0.1,0,0.3,0,0.4,0c0,0,0.1,0,0.1,0c0,0,0.1,0,0.1-0.1c0.1-0.1,0.2,0,0.2-0.1
			c0-0.1,0.1-0.2,0.1-0.2c0,0,0-0.1,0-0.1c0-0.1,0-0.2,0-0.3c0-0.1,0-0.1-0.1-0.1c0,0,0,0-0.1,0c-0.2,0-0.3-0.1-0.5-0.1
			c-0.1,0-0.3,0-0.4,0c-0.1,0-0.2,0-0.3,0c-0.1,0-0.1,0-0.2,0.1c-0.1,0.1-0.2,0.3-0.2,0.5C1.3,31.1,1.3,31.2,1.3,31.2z M1.5,32.1
			c0,0-0.1,0-0.2,0c-0.1,0-0.1,0.1-0.1,0.1c0,0,0,0,0,0c0,0.2,0.1,0.4,0.1,0.5c0,0.1,0,0.2,0,0.2c0.1,0.2,0.1,0.4,0.2,0.6
			c0,0,0,0,0,0.1c0,0,0,0.1,0,0.1c0,0.1,0,0.1,0,0.2c0,0.1,0.1,0.2,0.1,0.4c0,0,0,0,0,0C1.9,34.6,1.9,34.8,2,35c0,0,0,0,0,0.1
			c0,0,0,0,0,0.1c0,0,0,0,0,0.1c0,0,0,0,0,0c0,0,0,0,0,0c0-0.1,0-0.3,0-0.4c0-0.2,0-0.5,0-0.7c0-0.1,0-0.1,0-0.2c0,0,0,0,0-0.1
			c0-0.1,0-0.2,0-0.3c0-0.1,0-0.2,0-0.3c0-0.1,0-0.2,0-0.3c0-0.1,0-0.1,0-0.2c0-0.1,0-0.1,0-0.2c0-0.1,0-0.1,0-0.2
			c-0.1-0.1-0.1-0.2-0.2-0.2c0,0,0,0,0,0c-0.1,0-0.1,0-0.2,0C1.7,32.2,1.6,32.2,1.5,32.1z M2.5,30.1c0.1,0,0.2,0,0.3,0
			c0.1,0,0.1,0,0.2,0c0.1,0,0.2-0.1,0.2-0.2c0,0,0-0.1,0-0.1c0-0.2-0.1-0.3-0.2-0.4c-0.2-0.1-0.4-0.2-0.6-0.2c-0.1,0-0.1,0-0.2,0
			c-0.1,0-0.2,0-0.3,0c-0.1,0-0.2,0-0.3,0.1c-0.1,0.1-0.2,0.3-0.2,0.4c0,0.1,0,0.1,0,0.1c0,0.1,0,0.1,0,0.2c0,0.1,0,0.1,0.1,0.1
			c0.1,0,0.2,0,0.2,0c0.1,0,0.2,0,0.3,0c0.1,0,0.2,0,0.3,0C2.2,30.1,2.4,30.1,2.5,30.1z M9.9,20c0,0,0.1,0,0.1,0c0.1,0,0.1,0,0.2,0
			c0.1,0,0.1-0.1,0.1-0.1c0-0.1-0.1-0.2-0.1-0.3c0,0,0,0,0,0c-0.1-0.1-0.1-0.1-0.2-0.2c0,0-0.1,0-0.1,0c-0.1,0.1-0.1,0.2-0.2,0.3
			c-0.1,0.1-0.1,0.2,0,0.3c0,0,0,0,0,0C9.7,20,9.7,20,9.8,20C9.8,20,9.8,20,9.9,20z"/>
		<path class="st1" d="M3.4,12.5c0,0,0,0.1,0,0.1c0,0.1,0,0.3,0,0.4c0,0,0,0,0,0c0.1,0.2,0,0.4,0,0.5c0,0.2,0,0.4,0,0.5
			c0,0.1,0,0.3,0,0.4c0,0.2,0,0.4,0,0.6c0,0,0,0.1,0,0.1c0,0.1,0,0.2,0,0.3c0,0.1,0,0.2,0,0.3c0,0,0,0.1,0,0.1c0,0,0,0.1,0,0.1
			c0,0.1,0,0.1,0,0.2c0,0.1,0,0.3,0,0.4c0,0.1,0,0.3,0,0.4c0,0.1,0,0.1,0,0.2c0,0.1,0,0.2,0,0.2c0,0,0,0.1,0,0.1
			c0,0.1,0,0.2-0.1,0.3c0,0.1-0.1,0.2-0.1,0.3c0,0.1-0.1,0.1-0.2,0.1c-0.1,0.1-0.1,0.1-0.1,0.2c0,0.1,0,0.2,0,0.3
			c0,0.1,0.1,0.3,0.1,0.4c0,0,0,0,0,0.1c0,0.1,0,0.1,0,0.2c0,0.1,0.1,0.2,0.1,0.3c0,0.1,0,0.1,0,0.2c0,0.1,0.1,0.1,0.1,0.2
			c0,0.1,0.1,0.1,0,0.2c0,0,0,0,0,0c0,0,0,0.1,0.1,0.1c0,0,0,0.1,0,0.1c0.1,0.2,0.1,0.4,0.2,0.7c0,0.1,0.1,0.3,0.1,0.4
			c0.1,0.2,0.1,0.4,0,0.6c0,0.1-0.1,0.1-0.1,0.2c0,0-0.1,0-0.2,0c-0.1-0.1-0.3-0.2-0.4-0.4c0-0.1-0.1-0.1-0.1-0.2
			c0-0.1-0.1-0.1-0.1-0.2c0,0,0-0.1,0-0.1c0-0.1-0.1-0.3-0.1-0.4c0-0.1-0.1-0.3-0.1-0.4c0-0.1,0-0.1,0-0.2c0-0.1,0-0.1,0-0.2
			c0-0.1-0.1-0.1,0-0.2c0,0,0,0,0-0.1c0,0,0-0.1,0-0.1c0-0.1,0-0.2-0.1-0.4c0,0,0-0.1,0-0.1c0-0.2-0.1-0.3-0.1-0.5
			c0-0.2-0.1-0.3-0.2-0.4c0,0-0.1-0.1-0.1-0.1c0,0-0.1,0-0.1,0c0,0,0,0,0,0c-0.2,0.1-0.2,0.2-0.2,0.4c0,0,0,0.1,0,0.1
			c0,0.1,0,0.1,0,0.2c0,0.2-0.1,0.4-0.1,0.6c0,0.2-0.1,0.3-0.1,0.5c0,0.2-0.1,0.3-0.1,0.5c0,0.1,0,0.1-0.1,0.2c0,0,0,0.1-0.1,0.1
			c0,0.1-0.1,0.2-0.1,0.3c0,0.1-0.1,0.1-0.1,0.2c0,0,0,0,0,0.1c-0.1,0.1-0.1,0.2-0.1,0.3c0,0.1,0,0.1-0.1,0.2
			c-0.1,0.1-0.2,0.2-0.2,0.3c-0.1,0.1-0.1,0.1-0.2,0C0,22.6,0,22.6,0.1,22.4c0.2-0.3,0.3-0.6,0.4-0.9c0,0,0-0.1,0-0.1
			c0-0.1,0-0.2,0.1-0.3c0,0,0,0,0-0.1c0-0.1,0-0.2,0.1-0.2c0-0.1,0.1-0.2,0.1-0.3c0,0,0-0.1,0-0.1c0.1-0.1,0.1-0.3,0.1-0.4
			c0,0,0-0.1,0-0.1c0.1-0.1,0.1-0.2,0.1-0.3c0-0.1,0-0.2,0-0.3c0-0.1,0-0.3,0.1-0.4c0-0.1,0-0.2,0-0.3c0-0.1,0-0.1-0.1-0.1
			c-0.1-0.1-0.2-0.2-0.3-0.3c0,0-0.1-0.1-0.1-0.1c0-0.1,0-0.1-0.1-0.2c0,0,0,0,0-0.1c0-0.1,0-0.2-0.1-0.2c0,0,0-0.1,0-0.1
			c0-0.1,0-0.1,0-0.2c-0.1-0.1,0-0.2-0.1-0.3c0-0.2,0-0.4,0-0.6c0,0,0-0.1,0-0.1c0,0,0,0,0-0.1c0-0.3-0.1-0.5,0-0.8
			c0-0.1,0-0.1,0-0.2c0-0.1,0-0.2,0-0.3c0-0.1,0-0.1,0-0.2c0-0.2,0-0.3-0.1-0.5c0-0.1,0-0.2,0-0.2c0-0.1,0-0.2,0-0.2
			c0-0.1,0-0.2,0-0.3c0,0,0-0.1,0-0.1c0-0.2,0-0.4,0-0.5c0,0,0,0,0-0.1c0,0,0-0.1,0-0.1c0,0,0-0.1,0-0.1c0-0.1,0-0.2,0-0.2
			c0-0.1,0.1-0.2,0.1-0.4c0-0.1,0.1-0.2,0.1-0.4c0-0.1,0.1-0.2,0.2-0.3c0,0,0,0,0,0c0.1,0,0.2-0.1,0.3-0.2c0.1,0,0.1,0,0.2-0.1
			c0.2,0,0.4-0.1,0.6-0.1c0.2,0,0.4,0,0.5,0c0.2,0,0.3,0.1,0.5,0.2c0.1,0.1,0.2,0.1,0.3,0.2c0.1,0.1,0.2,0.2,0.3,0.3
			c0.1,0.2,0.1,0.3,0.2,0.5c0,0,0,0.1,0,0.1c0.1,0.1,0.1,0.3,0.1,0.4C3.4,12.4,3.4,12.5,3.4,12.5C3.4,12.5,3.4,12.5,3.4,12.5z
			 M2.2,15.6c0.1,0,0.2,0,0.2,0c0.2,0,0.3-0.1,0.4-0.2c0,0,0,0,0-0.1c0-0.1,0-0.2,0-0.3c0,0,0-0.1,0-0.1c0,0,0-0.1,0-0.1
			c0-0.1,0-0.2,0-0.3c0-0.1,0-0.2,0-0.3c0-0.2-0.1-0.3-0.1-0.4c0-0.1-0.1-0.1-0.1-0.2c0,0,0,0,0,0c-0.2,0-0.3-0.1-0.5-0.1
			c-0.1,0-0.2,0-0.3,0c-0.1,0-0.2,0-0.4,0c-0.1,0-0.3,0-0.4,0c-0.1,0-0.2,0.1-0.2,0.2c0,0.1,0,0.2,0,0.3c0,0.1,0,0.2,0,0.3
			c0,0.1,0,0.1,0,0.2c0,0.1,0.1,0.1,0,0.2c0,0,0,0,0,0c0,0,0,0.1,0,0.1c0,0.1,0,0.1,0,0.2c0,0.1,0.1,0.2,0.1,0.2
			c0.1,0,0.1,0.1,0.2,0.1c0.1,0,0.1,0.1,0.2,0.1c0.1,0,0.1,0,0.2,0c0,0,0,0,0.1,0C1.9,15.6,2.1,15.6,2.2,15.6z M1.9,16
			C1.9,16,1.9,16,1.9,16c-0.1,0-0.3,0-0.4,0c-0.1,0-0.3,0-0.4,0.1c-0.1,0-0.1,0.1-0.1,0.2c0,0,0,0.1,0,0.1c0,0.1,0,0.1,0,0.2
			C1,16.8,1,17,1,17.2c0,0,0,0,0,0.1c0.1,0.2,0.2,0.5,0.3,0.7c0,0,0.1,0.1,0.1,0.1c0.2,0,0.4,0.1,0.5,0c0,0,0.1,0,0.1,0
			c0.1,0,0.2-0.1,0.3-0.2c0.1-0.1,0.1-0.2,0.2-0.3c0.1-0.1,0.1-0.2,0.1-0.4c0-0.1,0-0.2,0-0.3c0-0.1,0-0.2,0-0.4c0,0,0-0.1,0-0.1
			c0,0,0-0.1,0-0.1C2.7,16.1,2.6,16,2.4,16c0,0-0.1,0-0.1,0C2.2,16,2.1,16,1.9,16z M2,13c0.2,0,0.3,0,0.5-0.1c0,0,0.1,0,0.1-0.1
			c0-0.1,0.2-0.2,0.1-0.4c0,0,0,0,0-0.1c0-0.1,0-0.2,0-0.3c0-0.1,0-0.2-0.1-0.2c0,0-0.1-0.1-0.1-0.1c-0.1-0.1-0.2-0.2-0.3-0.2
			c0,0-0.1,0-0.1-0.1C2,11.4,2,11.4,1.9,11.4c-0.1,0-0.2,0-0.3,0c-0.1,0-0.2,0-0.3,0.1c0,0-0.1,0.1-0.1,0.1c-0.1,0-0.1,0.1-0.2,0.1
			c0,0-0.1,0.1-0.1,0.1c0,0.1-0.1,0.2-0.1,0.3c0,0.1-0.1,0.3-0.1,0.4c0,0.1,0,0.2,0.1,0.3C0.8,12.9,0.9,13,1.1,13c0.2,0,0.3,0,0.5,0
			c0,0,0,0,0.1,0c0,0,0.1,0,0.1,0C1.8,13,1.9,13,2,13z"/>
		<path class="st1" d="M6,26.6c0.3,0,0.5,0,0.8,0c0.1,0,0.1,0,0.2-0.1c0,0,0-0.2,0-0.2c-0.1-0.1-0.2-0.1-0.4-0.2
			c-0.3,0-0.5-0.1-0.8,0c-0.1,0-0.1,0-0.2,0c-0.1,0-0.2,0-0.3,0c-0.1,0-0.2-0.1-0.3-0.1c-0.1,0-0.1-0.1-0.1-0.2c0-0.1,0-0.2-0.1-0.3
			c0-0.1,0-0.1,0-0.2c0,0,0,0,0-0.1c0-0.1,0.1-0.2,0.1-0.3c0.1-0.2,0.3-0.3,0.4-0.4c0,0,0,0,0,0c0.1-0.2,0.3-0.2,0.5-0.2
			c0,0,0.1,0,0.1,0c0.1-0.1,0.3-0.1,0.4-0.2c0.1,0,0.2-0.1,0.4-0.1c0.1,0,0.1,0,0.2,0c0,0,0.1,0,0.1,0c0.2,0,0.3-0.1,0.4-0.2
			c0.1-0.1,0.2-0.1,0.2-0.3c0-0.1,0.1-0.1,0.2-0.1c0,0,0,0,0,0.1c0,0,0,0,0,0c0,0.1,0,0.1,0,0.2c0,0.2-0.1,0.3-0.2,0.4
			c0,0-0.1,0.1-0.1,0.1c0,0.1-0.1,0.1-0.2,0.1c-0.1,0-0.2,0.1-0.3,0.1c-0.1,0-0.2,0.1-0.3,0.1c0,0,0,0-0.1,0
			c-0.1,0.1-0.3,0.1-0.5,0.1c0,0,0,0,0,0c-0.2,0.1-0.3,0.1-0.5,0.2c0,0-0.1,0.1-0.1,0.1c-0.1,0.1,0,0.2,0.1,0.3
			c0.2,0.1,0.3,0.1,0.5,0.1c0.1,0,0.1,0,0.2,0c0.1,0,0.3,0,0.4,0.1c0,0,0.1,0,0.1,0c0.1,0,0.1,0.1,0.2,0.1c0,0,0.1,0,0.1,0
			c0.1,0,0.1,0.1,0.2,0.2c0.1,0.1,0.1,0.1,0.2,0.2c0,0,0,0,0,0c0,0.2,0.1,0.4,0.1,0.6c0,0.2-0.1,0.3-0.2,0.4c0,0,0,0,0,0
			c-0.1,0-0.2,0.1-0.3,0.1c0,0,0,0,0,0c0,0.1,0,0.1,0,0.2c0,0,0,0.1,0,0.1c0.1,0.1,0.1,0.2,0.2,0.3c0.1,0,0.1,0.1,0.2,0.2
			c0.1,0.1,0.1,0.1,0.2,0c0.1,0,0.1,0,0.2,0C8,27.8,8,27.7,8,27.6c0.1-0.2,0.1-0.4,0.2-0.6c0-0.1,0-0.2,0.1-0.3c0,0,0,0,0-0.1
			c0,0,0-0.1,0-0.1c0-0.1,0-0.1,0.1-0.2c0-0.1,0-0.3,0.1-0.4c0-0.2,0.1-0.3,0.1-0.5c0-0.1,0-0.2,0-0.3c0-0.1,0-0.2,0.1-0.3
			c0.1-0.2,0.1-0.4,0.1-0.6c0,0,0-0.1,0-0.1C8.8,24,8.9,24,8.9,24C9,24,9,24,9,24c0,0.2,0.1,0.3,0.1,0.5c0,0.1,0,0.2,0,0.2
			c0,0,0,0.1,0,0.1c0,0.1,0,0.2,0,0.3c0,0.1,0,0.1,0,0.2c0,0.1,0,0.2,0,0.2c0,0,0,0.1,0,0.1c0,0.1,0,0.1,0,0.2c0,0.1,0,0.2-0.1,0.3
			C9,26.3,9,26.4,9,26.5c0,0.1-0.1,0.3,0,0.4c0,0,0,0,0,0.1c0,0.1,0,0.3-0.1,0.4c0,0.1-0.1,0.2-0.1,0.3c0,0.2-0.1,0.4-0.2,0.6
			c0,0,0,0,0,0c-0.1,0.1-0.2,0.2-0.3,0.3c0,0,0,0-0.1,0.1c-0.1,0-0.1,0.1-0.2,0.1c-0.1,0-0.2,0-0.2,0c-0.2,0-0.3-0.1-0.5-0.2
			c0,0,0,0,0,0c-0.1,0-0.2-0.1-0.3-0.2c0,0,0,0,0,0c-0.1-0.1-0.1-0.2-0.2-0.3c-0.1-0.1-0.1-0.2-0.2-0.3c-0.1-0.1-0.2-0.3-0.3-0.4
			c-0.1-0.1-0.2-0.1-0.2-0.2c0,0,0,0-0.1,0c-0.2,0-0.2,0-0.4,0.1c-0.1,0-0.1,0.1-0.1,0.1c-0.1,0.1-0.1,0.2-0.2,0.2
			c0,0,0,0.1-0.1,0.1c0,0.1-0.1,0.3-0.1,0.4c0,0,0,0.1,0,0.1c0,0.1,0,0.1,0,0.2c0,0,0,0,0,0c0,0.1,0,0.2-0.1,0.2c0,0,0,0,0,0
			c-0.1,0-0.1,0.1-0.1,0.2c0,0.1-0.1,0.1-0.1,0.2c-0.1,0-0.1,0.1-0.2,0.2c-0.1,0.1-0.1,0.1-0.2,0.1c0,0-0.1,0-0.1-0.1
			c0-0.1,0-0.2,0.1-0.2c0,0,0.1-0.1,0.1-0.2c0-0.1,0.1-0.1,0.1-0.2c0-0.1,0.1-0.3,0.1-0.4c0-0.1,0-0.1,0-0.2c0-0.1,0-0.1,0-0.2
			c0-0.1,0.1-0.2,0.1-0.3c0-0.1,0-0.2,0-0.3c0-0.1,0.1-0.2,0.1-0.3C5,27,5,26.8,5.1,26.8c0.1-0.1,0.1-0.1,0.2-0.1
			c0.1,0,0.3-0.1,0.4-0.1C5.8,26.6,5.9,26.6,6,26.6z"/>
		<path class="st1" d="M15.5,22.3C15.5,22.3,15.5,22.3,15.5,22.3c0.1,0.3,0,0.5,0,0.7c0,0,0,0.1,0,0.1c0,0,0,0,0,0
			c0,0.1,0,0.2,0,0.2c0,0.1,0,0.1,0,0.2c0,0.1,0,0.3,0,0.4c0,0.1,0,0.2,0,0.3c0,0.1,0,0.2,0,0.3c0,0,0,0,0,0.1c0,0.1,0,0.2,0,0.4
			c0,0.1,0,0.2,0,0.3c0,0.1,0,0.2,0,0.4c0,0.2-0.1,0.3-0.1,0.5c0,0.1-0.1,0.2-0.1,0.3c0,0,0,0-0.1,0.1c-0.1,0.1-0.3,0.1-0.4,0.1
			c0,0-0.1,0-0.1,0c-0.1,0-0.1,0.1-0.2,0.1c0,0,0,0,0,0c-0.1,0-0.1,0.1-0.2,0.1c-0.2,0-0.4,0-0.6-0.1c-0.1-0.1-0.3-0.1-0.4-0.2
			c0,0,0,0-0.1,0c-0.1,0-0.2-0.1-0.2-0.2c0,0,0-0.1,0-0.1c-0.1-0.1-0.1-0.2-0.1-0.2c0,0,0-0.1,0-0.1c0-0.1,0-0.1,0-0.2
			c0-0.2,0-0.3,0-0.5c0-0.1,0-0.2,0-0.4c0-0.1,0-0.2,0-0.3c0,0,0-0.1,0-0.1c0-0.1,0-0.3,0-0.4c0-0.1,0-0.3,0-0.4c0-0.2,0-0.3,0-0.5
			c0,0,0-0.1,0-0.1c0,0,0-0.1,0-0.1c0-0.1,0.1-0.2,0.1-0.3c0,0,0-0.1,0-0.1c0.1-0.1,0.2-0.3,0.2-0.5c0,0,0,0,0-0.1
			c0.1-0.1,0.2-0.2,0.3-0.2c0,0,0,0,0,0c0.1-0.1,0.1-0.1,0.2,0c0,0,0.1,0,0.1,0c0.1-0.1,0.3,0,0.4,0c0,0,0.1,0,0.1,0
			c0,0,0.1,0,0.1,0c0.1,0,0.3,0,0.5,0c0,0,0.1,0,0.1,0c0.1,0,0.2,0.1,0.3,0.1c0,0,0.1,0,0.1,0.1c0,0.1,0.1,0.1,0.1,0.1
			c0,0,0,0,0,0.1c0,0.1,0.1,0.1,0.1,0.2C15.5,22.1,15.5,22.2,15.5,22.3z M14,24.8c-0.1,0-0.1,0-0.2,0c-0.1,0-0.2,0.1-0.3,0.1
			c0,0-0.1,0.1-0.1,0.1c0,0,0,0.1,0,0.1c0,0.1,0,0.2,0,0.3c0,0.1,0,0.2,0.1,0.3c0,0,0,0,0,0.1c0,0.1,0,0.2,0.1,0.2
			c0,0,0,0.1,0.1,0.1c0.1,0.1,0.2,0.1,0.4,0.2c0.1,0,0.2,0,0.3,0c0,0,0,0,0.1,0c0.1,0,0.2-0.1,0.3-0.1c0.1,0,0.1-0.1,0.1-0.1
			c0-0.1,0-0.1,0.1-0.2c0.1-0.1,0.1-0.2,0.1-0.3c0,0,0-0.1,0-0.1c0-0.1,0-0.3,0-0.4c0,0,0-0.1-0.1-0.1C14.5,24.8,14.2,24.8,14,24.8z
			 M14.1,24.4C14.1,24.4,14.1,24.3,14.1,24.4c0.1,0,0.2,0,0.3,0c0.1,0,0.3,0,0.4-0.1c0.1,0,0.1-0.1,0.1-0.1c0,0,0-0.1,0-0.2
			c0-0.1,0-0.1,0-0.2c0,0,0-0.1,0-0.1c0,0,0-0.1,0-0.1c0-0.1-0.1-0.1-0.1-0.1c-0.1,0-0.1,0-0.2,0c-0.2-0.1-0.4-0.1-0.6-0.1
			c0,0-0.1,0-0.1,0c-0.1,0-0.1,0-0.2,0c-0.1,0-0.1,0-0.2,0c-0.1,0-0.2,0.1-0.2,0.2c0,0.1,0,0.2,0,0.3c0,0.2,0.1,0.3,0.2,0.3
			c0,0,0.1,0,0.1,0c0,0,0.1,0,0.1,0c0,0,0.1,0,0.1,0C13.9,24.4,14,24.4,14.1,24.4z M14,22.1c-0.1,0-0.2,0-0.3,0c0,0-0.1,0-0.1,0.1
			c-0.1,0.1-0.1,0.1-0.2,0.2c-0.1,0.1-0.1,0.2-0.1,0.3c0,0.1,0,0.1,0,0.1c0,0,0,0,0.1,0.1c0,0,0.1,0.1,0.2,0.1c0.1,0,0.2,0,0.4,0.1
			c0.1,0,0.1,0,0.2,0c0.1,0,0.2,0,0.3,0c0.1,0,0.2,0,0.2,0c0.1,0,0.2,0,0.2-0.2c0-0.1,0-0.1,0-0.2c0-0.1,0-0.3-0.2-0.3
			c-0.1,0-0.1-0.1-0.2-0.1c0,0-0.1,0-0.1,0c-0.1,0-0.1,0-0.2,0C14.2,22.1,14.1,22.1,14,22.1z"/>
		<path class="st1" d="M1.9,25.9c0.2,0,0.3,0,0.5,0c0.1,0,0.2,0,0.3,0c0.1,0,0.2,0,0.3-0.1c0,0,0,0,0,0c0.1,0,0.2,0,0.3,0
			c0.1,0,0.1,0,0.1-0.1c0.1-0.1,0.1-0.2,0.1-0.3c0,0,0-0.1,0-0.1c-0.1,0-0.1-0.1-0.2-0.1c0,0-0.1,0-0.1,0c-0.1-0.1-0.2-0.1-0.4-0.1
			c-0.1,0-0.2,0-0.3,0c-0.2,0-0.3,0-0.5,0c-0.2,0-0.4,0-0.6,0c-0.1,0-0.2,0-0.4-0.1c0,0,0,0-0.1,0C1,25,0.8,24.8,0.8,24.6
			c0,0,0-0.1,0-0.1c0,0,0.1-0.1,0.2-0.1c0.2,0,0.4-0.1,0.6,0c0,0,0.1,0,0.1,0c0.1,0,0.2,0,0.3,0c0.1,0,0.2,0,0.3,0
			c0.1,0,0.3,0,0.4,0c0.2,0,0.5,0,0.7,0.1c0.1,0,0.3,0.1,0.4,0.2c0.1,0,0.1,0.1,0.2,0.1c0.1,0,0.1,0.1,0.1,0.2c0,0,0,0.1,0.1,0.1
			c0,0.1,0.1,0.1,0.1,0.2c0,0.2,0.1,0.3,0,0.5c0,0.2,0,0.3-0.2,0.5C4,26.3,4,26.3,3.9,26.3c-0.1,0-0.2,0.1-0.4,0.1c0,0,0,0-0.1,0
			c-0.1,0.1-0.3,0-0.4,0c-0.2,0-0.4,0-0.6,0c-0.1,0-0.3,0-0.5,0c-0.1,0-0.2,0-0.3,0c-0.1,0-0.1,0-0.2,0.1c-0.1,0-0.1,0.1-0.1,0.2
			c0,0.1-0.1,0.2-0.1,0.3c0,0.2,0.1,0.2,0.2,0.3c0.1,0,0.1,0,0.2,0.1c0.1,0,0.2,0,0.3,0.1c0.1,0,0.3,0,0.4,0.1c0.1,0,0.3,0,0.4,0
			c0.1,0,0.1,0,0.2,0c0.1,0,0.1,0,0.2-0.1c0,0,0.1,0,0.1,0c0.1,0,0.2-0.1,0.3-0.2c0.1-0.1,0.2-0.2,0.2-0.4c0,0,0,0,0,0
			c0-0.1,0.1-0.1,0.2-0.1C4,26.7,4,26.8,4,26.8c0,0.1,0,0.3,0.1,0.4c0.1,0.1,0.1,0.3,0.1,0.4c0,0.1-0.1,0.2-0.2,0.3
			C3.8,28,3.6,28,3.5,28c-0.1,0-0.1,0-0.2,0c-0.1,0-0.1,0-0.2,0c0,0-0.1,0-0.1,0c-0.1,0-0.3,0-0.4,0c-0.1,0-0.3,0-0.4,0
			c-0.1,0-0.2,0-0.2,0c-0.2,0-0.4,0-0.5,0c-0.1,0-0.1,0-0.2,0c0,0-0.1,0-0.1,0c-0.1,0-0.2,0-0.3-0.1c-0.1-0.1-0.2-0.1-0.2-0.2
			c0,0-0.1-0.1,0-0.1c0,0,0,0,0-0.1c-0.1-0.1,0-0.3-0.1-0.4c0,0,0-0.1,0-0.1c0-0.2,0.1-0.4,0.2-0.6c0-0.1,0.1-0.1,0.1-0.1
			c0,0,0,0,0,0c0.1-0.1,0.3-0.2,0.4-0.2C1.6,25.9,1.8,25.8,1.9,25.9z"/>
		<path class="st1" d="M13.3,20.5c0.2,0,0.3,0,0.5,0c0,0,0.1,0,0.1,0c0.1,0,0.2,0,0.3,0c0.1,0,0.2,0,0.3,0c0.1,0,0.2,0,0.3,0
			c0,0,0.1,0,0.1,0c0,0,0.1,0,0.1,0c0.1,0,0.3,0.1,0.4,0.1c0.1,0,0.1,0.1,0.2,0.1c0.1,0,0,0.2,0,0.2c0,0,0,0,0,0
			c-0.2,0-0.3,0.1-0.5,0.2c-0.1,0-0.1,0-0.1,0c-0.1,0-0.1,0-0.2,0c0,0-0.1,0-0.1,0c-0.1,0-0.1,0-0.2,0c-0.1,0-0.3,0-0.4,0
			c-0.1,0-0.2,0-0.2,0c-0.1,0-0.2,0-0.2,0c-0.1,0-0.2,0-0.2,0c-0.2,0-0.5,0-0.7,0c0,0-0.1,0-0.1,0c-0.1,0-0.1-0.1-0.2-0.1
			c-0.1,0-0.2-0.1-0.2-0.1c0,0,0,0-0.1-0.1c-0.1-0.1-0.1-0.2-0.2-0.3c0-0.1,0-0.2,0-0.3c0-0.1,0-0.2,0-0.3c0-0.1,0-0.3,0-0.4
			c0-0.1,0-0.2,0-0.3c0-0.1,0-0.1,0-0.2c0-0.1,0-0.1,0-0.2c0-0.1,0-0.2,0.1-0.2c0,0,0-0.1,0-0.1c0,0,0-0.1,0-0.1
			c0-0.1,0.1-0.1,0.2,0c0,0,0,0.1,0.1,0.1c0.1,0.2,0.1,0.3,0.2,0.5c0,0.1,0.1,0.2,0.1,0.2c0,0,0.1,0,0.1,0.1c0.1,0,0.2,0,0.3,0
			c0.1,0,0.1,0,0.2,0c0,0,0,0,0,0c0.2-0.1,0.4,0,0.6,0c0.2,0,0.3,0,0.5,0c0.1,0,0.1,0,0.2,0c0.1,0,0.1,0,0.2,0c0,0,0.1,0,0.1,0
			c0,0,0,0,0.1,0c0.2,0,0.4,0.1,0.5,0.2c0.1,0,0.1,0.1,0.1,0.2c0,0,0,0,0,0.1c-0.1,0-0.1,0.1-0.2,0.1c-0.1,0-0.2,0.1-0.3,0
			c-0.1,0-0.1,0-0.2,0c-0.1,0-0.3,0-0.4,0c-0.1,0-0.2,0-0.3,0c-0.1,0-0.2,0-0.4,0c-0.1,0-0.1,0-0.2,0c-0.1,0-0.3,0-0.4,0
			c0,0-0.1,0-0.1,0c-0.1,0-0.2,0-0.3,0c0,0-0.1,0-0.1,0c-0.1,0-0.1,0.1-0.1,0.1c0,0.1,0,0.1,0,0.2c0,0,0,0,0,0
			c0.1,0,0.2,0.1,0.3,0.1c0.1,0,0.2,0,0.2,0.1C13.2,20.5,13.2,20.5,13.3,20.5z"/>
		<path class="st1" d="M11.7,27.8c0,0.1,0,0.2,0,0.3c0,0.1,0,0.1,0,0.2c0,0,0,0.1,0,0.1c0,0-0.1,0.1-0.1,0.1c0,0-0.1,0-0.1,0
			c-0.1,0-0.2-0.1-0.2-0.2c-0.1-0.1-0.1-0.3-0.2-0.4c0,0,0,0,0,0c-0.1-0.1-0.1-0.2-0.2-0.3c0-0.1,0-0.2,0-0.3c0-0.1,0-0.2-0.1-0.3
			c0-0.2-0.1-0.3-0.1-0.5c0-0.2-0.1-0.3-0.1-0.5c-0.1-0.2-0.1-0.4-0.1-0.6c0,0,0,0,0-0.1c0-0.1,0-0.2,0-0.3c0-0.1,0-0.2-0.1-0.3
			c0-0.1,0-0.2,0-0.3c0-0.1,0-0.1,0-0.2c0,0,0.1-0.1,0.1-0.1c0,0,0.1,0,0.1,0.1c0,0.1,0.1,0.2,0.1,0.2c0.1,0.1,0.1,0.2,0.1,0.3
			c0,0.1,0,0.1,0,0.1c0.1,0.1,0.1,0.2,0.1,0.3c0,0.1,0.1,0.2,0.1,0.3c0,0.1,0,0.2,0.1,0.3c0.1,0.2,0.1,0.4,0.2,0.6c0,0,0,0.1,0,0.1
			c0,0,0,0.1,0,0.1c0.1,0.2,0.1,0.3,0.2,0.5c0,0.1,0.1,0.2,0.1,0.3c0,0.1,0,0.1,0,0.2c0,0.1,0,0.2,0.1,0.3
			C11.7,27.7,11.7,27.7,11.7,27.8z"/>
	</g>
</g>
</svg>
