<svg width="80" height="80" viewBox="0 0 80 80" fill="none" xmlns="http://www.w3.org/2000/svg">
<path d="M12 11H50.5L58.5 19.1067L66 27.2133V75H12V11Z" fill="#FFF38D"/>
<path d="M54.2693 39.2693C54.7387 38.7998 55.0024 38.1631 55.0024 37.4993C55.0024 36.8354 54.7387 36.1987 54.2693 35.7293C53.7998 35.2598 53.1631 34.9961 52.4993 34.9961C51.8354 34.9961 51.1987 35.2598 50.7293 35.7293L37.4993 48.9643L31.7693 43.2293C31.2998 42.7598 30.6631 42.4961 29.9993 42.4961C29.3354 42.4961 28.6987 42.7598 28.2293 43.2293C27.7598 43.6987 27.4961 44.3354 27.4961 44.9993C27.4961 45.6631 27.7598 46.2998 28.2293 46.7693L35.7293 54.2693C35.9615 54.5021 36.2374 54.6868 36.5411 54.8128C36.8448 54.9388 37.1704 55.0037 37.4993 55.0037C37.8281 55.0037 38.1537 54.9388 38.4574 54.8128C38.7611 54.6868 39.037 54.5021 39.2693 54.2693L54.2693 39.2693V39.2693Z" fill="#4472C4"/>
<path d="M70 70.625V26.0938L47.5 5H20C17.3478 5 14.8043 5.98772 12.9289 7.74587C11.0536 9.50403 10 11.8886 10 14.375V70.625C10 73.1114 11.0536 75.496 12.9289 77.2541C14.8043 79.0123 17.3478 80 20 80H60C62.6522 80 65.1957 79.0123 67.0711 77.2541C68.9464 75.496 70 73.1114 70 70.625ZM47.5 19.0625C47.5 20.9273 48.2902 22.7157 49.6967 24.0343C51.1032 25.353 53.0109 26.0938 55 26.0938H65V70.625C65 71.8682 64.4732 73.0605 63.5355 73.9396C62.5979 74.8186 61.3261 75.3125 60 75.3125H20C18.6739 75.3125 17.4021 74.8186 16.4645 73.9396C15.5268 73.0605 15 71.8682 15 70.625V14.375C15 13.1318 15.5268 11.9395 16.4645 11.0604C17.4021 10.1814 18.6739 9.6875 20 9.6875H47.5V19.0625Z" fill="#4472C4"/>
</svg>
