<?xml version="1.0" encoding="UTF-8"?>
<svg xmlns="http://www.w3.org/2000/svg" xmlns:xlink="http://www.w3.org/1999/xlink" width="40px" height="40px" viewBox="0 0 40 40" version="1.1">
<g id="surface1">
<path style=" stroke:none;fill-rule:nonzero;fill:rgb(86.27451%,20.784314%,27.058824%);fill-opacity:1;" d="M 39.375 20 C 39.375 30.703125 30.703125 39.375 20 39.375 C 9.296875 39.375 0.625 30.703125 0.625 20 C 0.625 9.304688 9.296875 0.625 20 0.625 C 30.703125 0.625 39.375 9.304688 39.375 20 Z M 20 23.90625 C 18.015625 23.90625 16.40625 25.515625 16.40625 27.5 C 16.40625 29.484375 18.015625 31.09375 20 31.09375 C 21.984375 31.09375 23.59375 29.484375 23.59375 27.5 C 23.59375 25.515625 21.984375 23.90625 20 23.90625 Z M 16.585938 10.992188 L 17.164062 21.617188 C 17.1875 22.117188 17.601562 22.5 18.101562 22.5 L 21.890625 22.5 C 22.390625 22.5 22.796875 22.109375 22.828125 21.617188 L 23.40625 10.992188 C 23.4375 10.453125 23.007812 10 22.46875 10 L 17.515625 10 C 16.984375 10 16.5625 10.453125 16.585938 10.992188 Z M 16.585938 10.992188 "/>
</g>
</svg>
