<svg width="66" height="51" viewBox="0 0 66 51" fill="none" xmlns="http://www.w3.org/2000/svg">
<path fill-rule="evenodd" clip-rule="evenodd" d="M56.5501 2.42683C59.1644 3.21953 61.2209 5.54839 61.9268 8.50256C63.1816 13.8939 63.1816 25.0803 63.1816 25.0803C63.1816 25.0803 63.1816 36.2668 61.9268 41.6581C61.5778 43.113 60.8978 44.4393 59.9546 45.5052C59.0113 46.5711 57.8376 47.3395 56.5501 47.7338C51.7746 49.1568 32.6816 49.1568 32.6816 49.1568C32.6816 49.1568 13.5886 49.1568 8.81321 47.7338C7.5257 47.3395 6.35197 46.5711 5.40871 45.5052C4.46545 44.4393 3.78551 43.113 3.4365 41.6581C2.18164 36.3209 2.18164 25.0803 2.18164 25.0803C2.18164 25.0803 2.18164 13.8939 3.4365 8.50256C4.14235 5.54839 6.20328 3.21953 8.81321 2.42683C13.5886 1.00391 32.6816 1.00391 32.6816 1.00391C32.6816 1.00391 51.7746 1.00391 56.5501 2.42683ZM42.4329 25.1345L26.5511 35.4741V14.7408L42.4286 25.1296L42.4329 25.1345Z" fill="black"/>
</svg>
